G04 #@! TF.FileFunction,Copper,L2,Bot,Signal*
%FSLAX46Y46*%
G04 Gerber Fmt 4.6, Leading zero omitted, Abs format (unit mm)*
G04 Created by KiCad (PCBNEW 4.0.0-rc1-stable) date 16.11.2015 3:08:45*
%MOMM*%
G01*
G04 APERTURE LIST*
%ADD10C,0.100000*%
%ADD11R,2.999740X2.600960*%
%ADD12R,2.799080X3.599180*%
%ADD13R,1.500000X1.500000*%
%ADD14C,1.500000*%
%ADD15C,0.800000*%
%ADD16C,0.500000*%
%ADD17C,0.200000*%
%ADD18C,0.254000*%
G04 APERTURE END LIST*
D10*
D11*
X127358160Y-87683100D03*
D12*
X148656060Y-87683100D03*
D13*
X133141200Y-80761400D03*
D14*
X133141200Y-83301400D03*
D13*
X129473400Y-94697400D03*
D14*
X132013400Y-94697400D03*
X134553400Y-94697400D03*
X137093400Y-94697400D03*
D13*
X144921100Y-94732500D03*
D14*
X147461100Y-94732500D03*
X150001100Y-94732500D03*
D15*
X144673800Y-90281500D03*
X136703400Y-85293300D03*
X137159500Y-90092900D03*
X128003000Y-84796800D03*
X141014800Y-80347400D03*
X125258300Y-87023300D03*
X131502400Y-89911300D03*
X128755700Y-92056600D03*
X135977000Y-93902300D03*
X130578900Y-84501500D03*
X131593200Y-82262600D03*
X139779800Y-88326800D03*
X136103500Y-82073000D03*
X139975600Y-93947200D03*
X146400800Y-82136100D03*
X149420100Y-83769500D03*
X146993400Y-84761800D03*
X150598800Y-91400000D03*
X147274300Y-91117600D03*
X132969100Y-86816700D03*
X135716700Y-92491900D03*
X137683300Y-84293200D03*
X139385200Y-84923900D03*
X127147500Y-82186400D03*
X127428800Y-83485500D03*
X132804600Y-91244100D03*
X139333500Y-91668900D03*
X134614500Y-90543200D03*
X141280000Y-91666100D03*
X143029800Y-90715600D03*
X138529300Y-86214600D03*
X140614100Y-85664600D03*
X143559800Y-84710900D03*
X140344300Y-87469700D03*
X130559200Y-86909600D03*
X137479900Y-91908700D03*
D16*
X138035600Y-85143700D02*
X136703400Y-85293300D01*
X138533800Y-84645500D02*
X138035600Y-85143700D01*
X138534700Y-84571600D02*
X138533800Y-84645500D01*
X139032900Y-84073400D02*
X138534700Y-84571600D01*
X141197200Y-82644100D02*
X139032900Y-84073400D01*
X141014800Y-80347400D02*
X141197200Y-82644100D01*
X130226600Y-85352000D02*
X128003000Y-84796800D01*
X130931200Y-85352000D02*
X130226600Y-85352000D01*
X136703400Y-85293300D02*
X130931200Y-85352000D01*
X139851700Y-90417900D02*
X137159500Y-90092900D01*
X141632300Y-90815600D02*
X139851700Y-90417900D01*
X142677500Y-91566100D02*
X141632300Y-90815600D01*
X143382100Y-91566100D02*
X142677500Y-91566100D01*
X144673800Y-90281500D02*
X143382100Y-91566100D01*
X143912100Y-83860400D02*
X141197200Y-82644100D01*
X147153000Y-86133500D02*
X143912100Y-83860400D01*
X147256600Y-86133500D02*
X147153000Y-86133500D01*
X147506600Y-86133500D02*
X147256600Y-86133500D01*
X148656100Y-87683100D02*
X147506600Y-86133500D01*
X147153000Y-89232700D02*
X144673800Y-90281500D01*
X147256600Y-89232700D02*
X147153000Y-89232700D01*
X147506600Y-89232700D02*
X147256600Y-89232700D01*
X148656100Y-87683100D02*
X147506600Y-89232700D01*
X137683300Y-84293200D02*
X136103500Y-82073000D01*
X135716700Y-92491900D02*
X135977000Y-93902300D01*
X150598800Y-91400000D02*
X147274300Y-91117600D01*
X146400800Y-82136100D02*
X149420100Y-83769500D01*
X144421100Y-94232500D02*
X144921100Y-94732500D01*
X144171100Y-94232500D02*
X144421100Y-94232500D01*
X144067500Y-94232500D02*
X144171100Y-94232500D01*
X139975600Y-93947200D02*
X144067500Y-94232500D01*
X132643900Y-82100900D02*
X136103500Y-82073000D01*
X131593200Y-82262600D02*
X132643900Y-82100900D01*
X128755700Y-92056600D02*
X131133900Y-91380100D01*
X139779800Y-88326800D02*
X131502400Y-89911300D01*
X130578900Y-84501500D02*
X131593200Y-82262600D01*
X134553400Y-94697400D02*
X135977000Y-93902300D01*
X131133900Y-91380100D02*
X134553400Y-94697400D01*
X131133900Y-91380100D02*
X131502400Y-89911300D01*
X128961700Y-88733600D02*
X131502400Y-89911300D01*
X128858100Y-88733600D02*
X128961700Y-88733600D01*
X128608100Y-88733600D02*
X128858100Y-88733600D01*
X127358200Y-87683100D02*
X128608100Y-88733600D01*
X125858300Y-87023300D02*
X125258300Y-87023300D01*
X126108300Y-87023300D02*
X125858300Y-87023300D01*
X127358200Y-87683100D02*
X126108300Y-87023300D01*
D17*
X137770100Y-91208200D02*
X139333500Y-91668900D01*
X137189700Y-91208200D02*
X137770100Y-91208200D01*
X134904700Y-91243700D02*
X137189700Y-91208200D01*
X132804600Y-91244100D02*
X134904700Y-91243700D01*
X139623700Y-90968400D02*
X141280000Y-91666100D01*
X137935900Y-90807700D02*
X139623700Y-90968400D01*
X136869300Y-90793400D02*
X137935900Y-90807700D01*
X134614500Y-90543200D02*
X136869300Y-90793400D01*
X140634500Y-86769200D02*
X138529300Y-86214600D01*
X141044800Y-87179500D02*
X140634500Y-86769200D01*
X143029800Y-90715600D02*
X141044800Y-87179500D01*
X140614100Y-85664600D02*
X143559800Y-84710900D01*
X132678900Y-86116200D02*
X130559200Y-86909600D01*
X133259300Y-86116200D02*
X132678900Y-86116200D01*
X140344300Y-87469700D02*
X133259300Y-86116200D01*
X137479900Y-91908700D02*
X137093400Y-94697400D01*
D18*
G36*
X150898000Y-93965242D02*
X150754978Y-93821218D01*
X150563618Y-93692144D01*
X150350832Y-93602697D01*
X150124725Y-93556284D01*
X149893909Y-93554673D01*
X149667176Y-93597924D01*
X149453162Y-93684391D01*
X149260019Y-93810781D01*
X149095103Y-93972278D01*
X148964696Y-94162732D01*
X148873766Y-94374889D01*
X148825776Y-94600666D01*
X148822553Y-94831465D01*
X148864221Y-95058495D01*
X148949192Y-95273107D01*
X149074230Y-95467128D01*
X149200611Y-95598000D01*
X148259047Y-95598000D01*
X148356394Y-95505297D01*
X148489447Y-95316683D01*
X148583331Y-95105817D01*
X148634469Y-94880731D01*
X148638150Y-94617089D01*
X148593317Y-94390664D01*
X148505358Y-94177258D01*
X148377623Y-93985002D01*
X148214978Y-93821218D01*
X148023618Y-93692144D01*
X147810832Y-93602697D01*
X147584725Y-93556284D01*
X147353909Y-93554673D01*
X147127176Y-93597924D01*
X146913162Y-93684391D01*
X146720019Y-93810781D01*
X146555103Y-93972278D01*
X146424696Y-94162732D01*
X146333766Y-94374889D01*
X146285776Y-94600666D01*
X146282553Y-94831465D01*
X146324221Y-95058495D01*
X146409192Y-95273107D01*
X146534230Y-95467128D01*
X146660611Y-95598000D01*
X146083491Y-95598000D01*
X146098100Y-95524556D01*
X146098100Y-94966250D01*
X145991350Y-94859500D01*
X145048100Y-94859500D01*
X145048100Y-94879500D01*
X144794100Y-94879500D01*
X144794100Y-94859500D01*
X143850850Y-94859500D01*
X143744100Y-94966250D01*
X143744100Y-95524556D01*
X143758709Y-95598000D01*
X137854488Y-95598000D01*
X137988694Y-95470197D01*
X138121747Y-95281583D01*
X138215631Y-95070717D01*
X138266769Y-94845631D01*
X138270450Y-94581989D01*
X138225617Y-94355564D01*
X138137658Y-94142158D01*
X138009923Y-93949902D01*
X138000531Y-93940444D01*
X143744100Y-93940444D01*
X143744100Y-94498750D01*
X143850850Y-94605500D01*
X144794100Y-94605500D01*
X144794100Y-93662250D01*
X145048100Y-93662250D01*
X145048100Y-94605500D01*
X145991350Y-94605500D01*
X146098100Y-94498750D01*
X146098100Y-93940444D01*
X146081691Y-93857949D01*
X146049503Y-93780240D01*
X146002773Y-93710303D01*
X145943297Y-93650828D01*
X145873361Y-93604098D01*
X145795651Y-93571909D01*
X145713156Y-93555500D01*
X145154850Y-93555500D01*
X145048100Y-93662250D01*
X144794100Y-93662250D01*
X144687350Y-93555500D01*
X144129044Y-93555500D01*
X144046549Y-93571909D01*
X143968839Y-93604098D01*
X143898903Y-93650828D01*
X143839427Y-93710303D01*
X143792697Y-93780240D01*
X143760509Y-93857949D01*
X143744100Y-93940444D01*
X138000531Y-93940444D01*
X137847278Y-93786118D01*
X137759904Y-93727184D01*
X137914397Y-92612479D01*
X137991515Y-92563538D01*
X138108964Y-92451693D01*
X138202451Y-92319166D01*
X138268417Y-92171005D01*
X138304348Y-92012852D01*
X138305708Y-91915437D01*
X138572771Y-91994135D01*
X138594394Y-92048749D01*
X138682250Y-92185074D01*
X138794912Y-92301739D01*
X138928088Y-92394299D01*
X139076707Y-92459229D01*
X139235106Y-92494055D01*
X139397254Y-92497452D01*
X139556973Y-92469289D01*
X139708180Y-92410640D01*
X139845115Y-92323738D01*
X139962564Y-92211893D01*
X140056051Y-92079366D01*
X140122017Y-91931205D01*
X140157948Y-91773052D01*
X140158056Y-91765340D01*
X140484186Y-91902719D01*
X140540894Y-92045949D01*
X140628750Y-92182274D01*
X140741412Y-92298939D01*
X140874588Y-92391499D01*
X141023207Y-92456429D01*
X141181606Y-92491255D01*
X141343754Y-92494652D01*
X141503473Y-92466489D01*
X141654680Y-92407840D01*
X141791615Y-92320938D01*
X141909064Y-92209093D01*
X142002551Y-92076566D01*
X142057091Y-91954068D01*
X142282634Y-92116018D01*
X142289201Y-92119822D01*
X142295017Y-92124702D01*
X142346318Y-92152905D01*
X142396967Y-92182242D01*
X142404150Y-92184698D01*
X142410801Y-92188355D01*
X142466585Y-92206050D01*
X142521986Y-92224997D01*
X142529512Y-92226012D01*
X142536744Y-92228306D01*
X142594898Y-92234829D01*
X142652927Y-92242654D01*
X142660504Y-92242188D01*
X142668048Y-92243034D01*
X142677500Y-92243100D01*
X143382100Y-92243100D01*
X143443414Y-92237088D01*
X143504801Y-92231888D01*
X143509121Y-92230646D01*
X143513597Y-92230207D01*
X143572575Y-92212400D01*
X143631783Y-92195376D01*
X143635782Y-92193317D01*
X143640085Y-92192018D01*
X143694475Y-92163098D01*
X143749255Y-92134894D01*
X143752777Y-92132099D01*
X143756746Y-92129988D01*
X143804468Y-92091066D01*
X143852742Y-92052747D01*
X143859114Y-92046498D01*
X143859137Y-92046479D01*
X143859154Y-92046459D01*
X143859490Y-92046129D01*
X144814358Y-91096509D01*
X144897273Y-91081889D01*
X145048480Y-91023240D01*
X145185415Y-90936338D01*
X145302864Y-90824493D01*
X145377294Y-90718981D01*
X147285447Y-89911756D01*
X150055600Y-89911756D01*
X150123598Y-89906334D01*
X150238930Y-89870617D01*
X150339746Y-89804184D01*
X150418063Y-89712295D01*
X150467679Y-89602225D01*
X150484666Y-89482690D01*
X150484666Y-85883510D01*
X150479244Y-85815512D01*
X150443527Y-85700180D01*
X150377094Y-85599364D01*
X150285205Y-85521047D01*
X150175135Y-85471431D01*
X150055600Y-85454444D01*
X147363818Y-85454444D01*
X144300847Y-83306139D01*
X144248879Y-83276803D01*
X144197492Y-83246494D01*
X144188893Y-83242570D01*
X141840298Y-82190377D01*
X141727625Y-80771653D01*
X141737351Y-80757866D01*
X141803317Y-80609705D01*
X141839248Y-80451552D01*
X141841835Y-80266309D01*
X141810333Y-80107214D01*
X141748530Y-79957269D01*
X141658780Y-79822183D01*
X141544500Y-79707103D01*
X141410044Y-79616411D01*
X141375761Y-79602000D01*
X150898000Y-79602000D01*
X150898000Y-93965242D01*
X150898000Y-93965242D01*
G37*
X150898000Y-93965242D02*
X150754978Y-93821218D01*
X150563618Y-93692144D01*
X150350832Y-93602697D01*
X150124725Y-93556284D01*
X149893909Y-93554673D01*
X149667176Y-93597924D01*
X149453162Y-93684391D01*
X149260019Y-93810781D01*
X149095103Y-93972278D01*
X148964696Y-94162732D01*
X148873766Y-94374889D01*
X148825776Y-94600666D01*
X148822553Y-94831465D01*
X148864221Y-95058495D01*
X148949192Y-95273107D01*
X149074230Y-95467128D01*
X149200611Y-95598000D01*
X148259047Y-95598000D01*
X148356394Y-95505297D01*
X148489447Y-95316683D01*
X148583331Y-95105817D01*
X148634469Y-94880731D01*
X148638150Y-94617089D01*
X148593317Y-94390664D01*
X148505358Y-94177258D01*
X148377623Y-93985002D01*
X148214978Y-93821218D01*
X148023618Y-93692144D01*
X147810832Y-93602697D01*
X147584725Y-93556284D01*
X147353909Y-93554673D01*
X147127176Y-93597924D01*
X146913162Y-93684391D01*
X146720019Y-93810781D01*
X146555103Y-93972278D01*
X146424696Y-94162732D01*
X146333766Y-94374889D01*
X146285776Y-94600666D01*
X146282553Y-94831465D01*
X146324221Y-95058495D01*
X146409192Y-95273107D01*
X146534230Y-95467128D01*
X146660611Y-95598000D01*
X146083491Y-95598000D01*
X146098100Y-95524556D01*
X146098100Y-94966250D01*
X145991350Y-94859500D01*
X145048100Y-94859500D01*
X145048100Y-94879500D01*
X144794100Y-94879500D01*
X144794100Y-94859500D01*
X143850850Y-94859500D01*
X143744100Y-94966250D01*
X143744100Y-95524556D01*
X143758709Y-95598000D01*
X137854488Y-95598000D01*
X137988694Y-95470197D01*
X138121747Y-95281583D01*
X138215631Y-95070717D01*
X138266769Y-94845631D01*
X138270450Y-94581989D01*
X138225617Y-94355564D01*
X138137658Y-94142158D01*
X138009923Y-93949902D01*
X138000531Y-93940444D01*
X143744100Y-93940444D01*
X143744100Y-94498750D01*
X143850850Y-94605500D01*
X144794100Y-94605500D01*
X144794100Y-93662250D01*
X145048100Y-93662250D01*
X145048100Y-94605500D01*
X145991350Y-94605500D01*
X146098100Y-94498750D01*
X146098100Y-93940444D01*
X146081691Y-93857949D01*
X146049503Y-93780240D01*
X146002773Y-93710303D01*
X145943297Y-93650828D01*
X145873361Y-93604098D01*
X145795651Y-93571909D01*
X145713156Y-93555500D01*
X145154850Y-93555500D01*
X145048100Y-93662250D01*
X144794100Y-93662250D01*
X144687350Y-93555500D01*
X144129044Y-93555500D01*
X144046549Y-93571909D01*
X143968839Y-93604098D01*
X143898903Y-93650828D01*
X143839427Y-93710303D01*
X143792697Y-93780240D01*
X143760509Y-93857949D01*
X143744100Y-93940444D01*
X138000531Y-93940444D01*
X137847278Y-93786118D01*
X137759904Y-93727184D01*
X137914397Y-92612479D01*
X137991515Y-92563538D01*
X138108964Y-92451693D01*
X138202451Y-92319166D01*
X138268417Y-92171005D01*
X138304348Y-92012852D01*
X138305708Y-91915437D01*
X138572771Y-91994135D01*
X138594394Y-92048749D01*
X138682250Y-92185074D01*
X138794912Y-92301739D01*
X138928088Y-92394299D01*
X139076707Y-92459229D01*
X139235106Y-92494055D01*
X139397254Y-92497452D01*
X139556973Y-92469289D01*
X139708180Y-92410640D01*
X139845115Y-92323738D01*
X139962564Y-92211893D01*
X140056051Y-92079366D01*
X140122017Y-91931205D01*
X140157948Y-91773052D01*
X140158056Y-91765340D01*
X140484186Y-91902719D01*
X140540894Y-92045949D01*
X140628750Y-92182274D01*
X140741412Y-92298939D01*
X140874588Y-92391499D01*
X141023207Y-92456429D01*
X141181606Y-92491255D01*
X141343754Y-92494652D01*
X141503473Y-92466489D01*
X141654680Y-92407840D01*
X141791615Y-92320938D01*
X141909064Y-92209093D01*
X142002551Y-92076566D01*
X142057091Y-91954068D01*
X142282634Y-92116018D01*
X142289201Y-92119822D01*
X142295017Y-92124702D01*
X142346318Y-92152905D01*
X142396967Y-92182242D01*
X142404150Y-92184698D01*
X142410801Y-92188355D01*
X142466585Y-92206050D01*
X142521986Y-92224997D01*
X142529512Y-92226012D01*
X142536744Y-92228306D01*
X142594898Y-92234829D01*
X142652927Y-92242654D01*
X142660504Y-92242188D01*
X142668048Y-92243034D01*
X142677500Y-92243100D01*
X143382100Y-92243100D01*
X143443414Y-92237088D01*
X143504801Y-92231888D01*
X143509121Y-92230646D01*
X143513597Y-92230207D01*
X143572575Y-92212400D01*
X143631783Y-92195376D01*
X143635782Y-92193317D01*
X143640085Y-92192018D01*
X143694475Y-92163098D01*
X143749255Y-92134894D01*
X143752777Y-92132099D01*
X143756746Y-92129988D01*
X143804468Y-92091066D01*
X143852742Y-92052747D01*
X143859114Y-92046498D01*
X143859137Y-92046479D01*
X143859154Y-92046459D01*
X143859490Y-92046129D01*
X144814358Y-91096509D01*
X144897273Y-91081889D01*
X145048480Y-91023240D01*
X145185415Y-90936338D01*
X145302864Y-90824493D01*
X145377294Y-90718981D01*
X147285447Y-89911756D01*
X150055600Y-89911756D01*
X150123598Y-89906334D01*
X150238930Y-89870617D01*
X150339746Y-89804184D01*
X150418063Y-89712295D01*
X150467679Y-89602225D01*
X150484666Y-89482690D01*
X150484666Y-85883510D01*
X150479244Y-85815512D01*
X150443527Y-85700180D01*
X150377094Y-85599364D01*
X150285205Y-85521047D01*
X150175135Y-85471431D01*
X150055600Y-85454444D01*
X147363818Y-85454444D01*
X144300847Y-83306139D01*
X144248879Y-83276803D01*
X144197492Y-83246494D01*
X144188893Y-83242570D01*
X141840298Y-82190377D01*
X141727625Y-80771653D01*
X141737351Y-80757866D01*
X141803317Y-80609705D01*
X141839248Y-80451552D01*
X141841835Y-80266309D01*
X141810333Y-80107214D01*
X141748530Y-79957269D01*
X141658780Y-79822183D01*
X141544500Y-79707103D01*
X141410044Y-79616411D01*
X141375761Y-79602000D01*
X150898000Y-79602000D01*
X150898000Y-93965242D01*
G36*
X132207870Y-79623473D02*
X132107054Y-79689906D01*
X132028737Y-79781795D01*
X131979121Y-79891865D01*
X131962134Y-80011400D01*
X131962134Y-81511400D01*
X131967556Y-81579398D01*
X132003273Y-81694730D01*
X132069706Y-81795546D01*
X132161595Y-81873863D01*
X132271665Y-81923479D01*
X132391200Y-81940466D01*
X133891200Y-81940466D01*
X133959198Y-81935044D01*
X134074530Y-81899327D01*
X134175346Y-81832894D01*
X134253663Y-81741005D01*
X134303279Y-81630935D01*
X134320266Y-81511400D01*
X134320266Y-80011400D01*
X134314844Y-79943402D01*
X134279127Y-79828070D01*
X134212694Y-79727254D01*
X134120805Y-79648937D01*
X134016678Y-79602000D01*
X140651988Y-79602000D01*
X140629801Y-79610964D01*
X140494092Y-79699769D01*
X140378216Y-79813243D01*
X140286588Y-79947062D01*
X140222698Y-80096130D01*
X140188978Y-80254769D01*
X140186713Y-80416936D01*
X140215991Y-80576455D01*
X140275694Y-80727249D01*
X140363550Y-80863574D01*
X140377837Y-80878369D01*
X140490691Y-82299371D01*
X138659823Y-83508473D01*
X138610516Y-83548459D01*
X138560919Y-83588052D01*
X138557335Y-83591587D01*
X138557200Y-83591696D01*
X138557091Y-83591828D01*
X138554189Y-83594689D01*
X138055989Y-84092889D01*
X138018909Y-84138031D01*
X137980797Y-84182343D01*
X137977008Y-84189042D01*
X137972123Y-84194988D01*
X137944504Y-84246497D01*
X137915739Y-84297344D01*
X137913324Y-84304647D01*
X137909686Y-84311432D01*
X137909351Y-84312527D01*
X137724498Y-84497380D01*
X137105444Y-84566897D01*
X137098644Y-84562311D01*
X136949134Y-84499463D01*
X136790263Y-84466851D01*
X136628084Y-84465719D01*
X136468774Y-84496109D01*
X136318401Y-84556864D01*
X136220116Y-84621180D01*
X130927758Y-84675000D01*
X130309840Y-84675000D01*
X128631432Y-84255926D01*
X128532700Y-84156503D01*
X128398244Y-84065811D01*
X128248734Y-84002963D01*
X128089863Y-83970351D01*
X127927684Y-83969219D01*
X127768374Y-83999609D01*
X127618001Y-84060364D01*
X127482292Y-84149169D01*
X127366416Y-84262643D01*
X127274788Y-84396462D01*
X127210898Y-84545530D01*
X127177178Y-84704169D01*
X127174913Y-84866336D01*
X127204191Y-85025855D01*
X127263894Y-85176649D01*
X127351750Y-85312974D01*
X127464412Y-85429639D01*
X127597588Y-85522199D01*
X127746207Y-85587129D01*
X127904606Y-85621955D01*
X128066754Y-85625352D01*
X128226473Y-85597189D01*
X128299889Y-85568713D01*
X130062598Y-86008835D01*
X130074436Y-86010587D01*
X130085844Y-86014206D01*
X130139692Y-86020246D01*
X130193302Y-86028181D01*
X130205258Y-86027600D01*
X130217148Y-86028934D01*
X130226600Y-86029000D01*
X130931200Y-86029000D01*
X130931339Y-86028986D01*
X130938084Y-86028965D01*
X131421741Y-86024046D01*
X130973841Y-86191694D01*
X130954444Y-86178611D01*
X130804934Y-86115763D01*
X130646063Y-86083151D01*
X130483884Y-86082019D01*
X130324574Y-86112409D01*
X130174201Y-86173164D01*
X130038492Y-86261969D01*
X129922616Y-86375443D01*
X129830988Y-86509262D01*
X129767098Y-86658330D01*
X129733378Y-86816969D01*
X129731113Y-86979136D01*
X129760391Y-87138655D01*
X129820094Y-87289449D01*
X129907950Y-87425774D01*
X130020612Y-87542439D01*
X130153788Y-87634999D01*
X130302407Y-87699929D01*
X130460806Y-87734755D01*
X130622954Y-87738152D01*
X130782673Y-87709989D01*
X130933880Y-87651340D01*
X131070815Y-87564438D01*
X131188264Y-87452593D01*
X131281751Y-87320066D01*
X131344906Y-87178218D01*
X132774296Y-86643200D01*
X133209413Y-86643200D01*
X139616574Y-87867207D01*
X139693050Y-87985874D01*
X139805712Y-88102539D01*
X139938888Y-88195099D01*
X140087507Y-88260029D01*
X140245906Y-88294855D01*
X140408054Y-88298252D01*
X140567773Y-88270089D01*
X140718980Y-88211440D01*
X140855915Y-88124538D01*
X140930874Y-88053156D01*
X142257914Y-90417161D01*
X142253258Y-90428026D01*
X142027166Y-90265682D01*
X141970524Y-90232874D01*
X141914019Y-90200000D01*
X141913400Y-90199787D01*
X141912832Y-90199458D01*
X141850602Y-90178176D01*
X141789083Y-90157005D01*
X141787897Y-90156731D01*
X141787814Y-90156703D01*
X141787718Y-90156690D01*
X141779873Y-90154880D01*
X139999273Y-89757180D01*
X139970464Y-89753647D01*
X139942214Y-89746978D01*
X139932838Y-89745780D01*
X137714392Y-89477971D01*
X137689200Y-89452603D01*
X137554744Y-89361911D01*
X137405234Y-89299063D01*
X137246363Y-89266451D01*
X137084184Y-89265319D01*
X136924874Y-89295709D01*
X136774501Y-89356464D01*
X136638792Y-89445269D01*
X136522916Y-89558743D01*
X136431288Y-89692562D01*
X136367398Y-89841630D01*
X136333678Y-90000269D01*
X136331413Y-90162436D01*
X136339103Y-90204333D01*
X135306136Y-90089712D01*
X135258480Y-90017983D01*
X135144200Y-89902903D01*
X135009744Y-89812211D01*
X134860234Y-89749363D01*
X134701363Y-89716751D01*
X134539184Y-89715619D01*
X134379874Y-89746009D01*
X134229501Y-89806764D01*
X134093792Y-89895569D01*
X133977916Y-90009043D01*
X133886288Y-90142862D01*
X133822398Y-90291930D01*
X133788678Y-90450569D01*
X133786413Y-90612736D01*
X133805533Y-90716909D01*
X133446688Y-90716978D01*
X133334300Y-90603803D01*
X133199844Y-90513111D01*
X133050334Y-90450263D01*
X132891463Y-90417651D01*
X132729284Y-90416519D01*
X132569974Y-90446909D01*
X132419601Y-90507664D01*
X132283892Y-90596469D01*
X132168016Y-90709943D01*
X132076388Y-90843762D01*
X132012498Y-90992830D01*
X131978778Y-91151469D01*
X131976513Y-91313636D01*
X132005791Y-91473155D01*
X132065494Y-91623949D01*
X132153350Y-91760274D01*
X132266012Y-91876939D01*
X132399188Y-91969499D01*
X132547807Y-92034429D01*
X132706206Y-92069255D01*
X132868354Y-92072652D01*
X133028073Y-92044489D01*
X133179280Y-91985840D01*
X133316215Y-91898938D01*
X133433664Y-91787093D01*
X133445032Y-91770978D01*
X134904800Y-91770700D01*
X134905161Y-91770665D01*
X134905529Y-91770700D01*
X134912887Y-91770636D01*
X136669536Y-91743345D01*
X136654078Y-91816069D01*
X136651813Y-91978236D01*
X136681091Y-92137755D01*
X136740794Y-92288549D01*
X136828650Y-92424874D01*
X136870340Y-92468046D01*
X136716185Y-93580314D01*
X136545462Y-93649291D01*
X136352319Y-93775681D01*
X136187403Y-93937178D01*
X136056996Y-94127632D01*
X135966066Y-94339789D01*
X135918076Y-94565566D01*
X135914853Y-94796365D01*
X135956521Y-95023395D01*
X136041492Y-95238007D01*
X136166530Y-95432028D01*
X136326806Y-95598000D01*
X135195425Y-95598000D01*
X135219087Y-95542692D01*
X134553400Y-94877005D01*
X133887713Y-95542692D01*
X133911375Y-95598000D01*
X132774488Y-95598000D01*
X132908694Y-95470197D01*
X133041747Y-95281583D01*
X133135631Y-95070717D01*
X133186769Y-94845631D01*
X133187711Y-94778138D01*
X133373464Y-94778138D01*
X133411888Y-95006780D01*
X133494179Y-95223533D01*
X133527464Y-95285805D01*
X133708108Y-95363087D01*
X134373795Y-94697400D01*
X134733005Y-94697400D01*
X135398692Y-95363087D01*
X135579336Y-95285805D01*
X135674415Y-95074349D01*
X135726414Y-94848408D01*
X135733336Y-94616662D01*
X135694912Y-94388020D01*
X135612621Y-94171267D01*
X135579336Y-94108995D01*
X135398692Y-94031713D01*
X134733005Y-94697400D01*
X134373795Y-94697400D01*
X133708108Y-94031713D01*
X133527464Y-94108995D01*
X133432385Y-94320451D01*
X133380386Y-94546392D01*
X133373464Y-94778138D01*
X133187711Y-94778138D01*
X133190450Y-94581989D01*
X133145617Y-94355564D01*
X133057658Y-94142158D01*
X132929923Y-93949902D01*
X132832810Y-93852108D01*
X133887713Y-93852108D01*
X134553400Y-94517795D01*
X135219087Y-93852108D01*
X135141805Y-93671464D01*
X134930349Y-93576385D01*
X134704408Y-93524386D01*
X134472662Y-93517464D01*
X134244020Y-93555888D01*
X134027267Y-93638179D01*
X133964995Y-93671464D01*
X133887713Y-93852108D01*
X132832810Y-93852108D01*
X132767278Y-93786118D01*
X132575918Y-93657044D01*
X132363132Y-93567597D01*
X132137025Y-93521184D01*
X131906209Y-93519573D01*
X131679476Y-93562824D01*
X131465462Y-93649291D01*
X131272319Y-93775681D01*
X131107403Y-93937178D01*
X130976996Y-94127632D01*
X130886066Y-94339789D01*
X130838076Y-94565566D01*
X130834853Y-94796365D01*
X130876521Y-95023395D01*
X130961492Y-95238007D01*
X131086530Y-95432028D01*
X131246806Y-95598000D01*
X130621476Y-95598000D01*
X130635479Y-95566935D01*
X130652466Y-95447400D01*
X130652466Y-93947400D01*
X130647044Y-93879402D01*
X130611327Y-93764070D01*
X130544894Y-93663254D01*
X130453005Y-93584937D01*
X130342935Y-93535321D01*
X130223400Y-93518334D01*
X128723400Y-93518334D01*
X128655402Y-93523756D01*
X128540070Y-93559473D01*
X128439254Y-93625906D01*
X128360937Y-93717795D01*
X128311321Y-93827865D01*
X128294334Y-93947400D01*
X128294334Y-95447400D01*
X128299756Y-95515398D01*
X128325337Y-95598000D01*
X128137294Y-95598000D01*
X126830042Y-94006525D01*
X125767935Y-92025703D01*
X125110797Y-89876301D01*
X124911764Y-87916850D01*
X125431290Y-87916850D01*
X125431290Y-89025636D01*
X125447699Y-89108131D01*
X125479887Y-89185840D01*
X125526617Y-89255777D01*
X125586093Y-89315252D01*
X125656029Y-89361982D01*
X125733739Y-89394171D01*
X125816234Y-89410580D01*
X127124410Y-89410580D01*
X127231160Y-89303830D01*
X127231160Y-87810100D01*
X127485160Y-87810100D01*
X127485160Y-89303830D01*
X127591910Y-89410580D01*
X128900086Y-89410580D01*
X128982581Y-89394171D01*
X129060291Y-89361982D01*
X129130227Y-89315252D01*
X129189703Y-89255777D01*
X129236433Y-89185840D01*
X129268621Y-89108131D01*
X129285030Y-89025636D01*
X129285030Y-87916850D01*
X129178280Y-87810100D01*
X127485160Y-87810100D01*
X127231160Y-87810100D01*
X125538040Y-87810100D01*
X125431290Y-87916850D01*
X124911764Y-87916850D01*
X124883662Y-87640199D01*
X125006513Y-86340564D01*
X125431290Y-86340564D01*
X125431290Y-87449350D01*
X125538040Y-87556100D01*
X127231160Y-87556100D01*
X127231160Y-86062370D01*
X127485160Y-86062370D01*
X127485160Y-87556100D01*
X129178280Y-87556100D01*
X129285030Y-87449350D01*
X129285030Y-86340564D01*
X129268621Y-86258069D01*
X129236433Y-86180360D01*
X129189703Y-86110423D01*
X129130227Y-86050948D01*
X129060291Y-86004218D01*
X128982581Y-85972029D01*
X128900086Y-85955620D01*
X127591910Y-85955620D01*
X127485160Y-86062370D01*
X127231160Y-86062370D01*
X127124410Y-85955620D01*
X125816234Y-85955620D01*
X125733739Y-85972029D01*
X125656029Y-86004218D01*
X125586093Y-86050948D01*
X125526617Y-86110423D01*
X125479887Y-86180360D01*
X125447699Y-86258069D01*
X125431290Y-86340564D01*
X125006513Y-86340564D01*
X125095181Y-85402567D01*
X125692063Y-83400365D01*
X131962653Y-83400365D01*
X132004321Y-83627395D01*
X132089292Y-83842007D01*
X132214330Y-84036028D01*
X132374672Y-84202068D01*
X132564211Y-84333801D01*
X132775727Y-84426210D01*
X133001164Y-84475775D01*
X133231935Y-84480609D01*
X133459250Y-84440528D01*
X133674451Y-84357057D01*
X133869340Y-84233376D01*
X134036494Y-84074197D01*
X134169547Y-83885583D01*
X134263431Y-83674717D01*
X134314569Y-83449631D01*
X134318250Y-83185989D01*
X134273417Y-82959564D01*
X134185458Y-82746158D01*
X134057723Y-82553902D01*
X133895078Y-82390118D01*
X133703718Y-82261044D01*
X133490932Y-82171597D01*
X133264825Y-82125184D01*
X133034009Y-82123573D01*
X132807276Y-82166824D01*
X132593262Y-82253291D01*
X132400119Y-82379681D01*
X132235203Y-82541178D01*
X132104796Y-82731632D01*
X132013866Y-82943789D01*
X131965876Y-83169566D01*
X131962653Y-83400365D01*
X125692063Y-83400365D01*
X125737297Y-83248632D01*
X126785553Y-81260438D01*
X128128529Y-79602000D01*
X132277207Y-79602000D01*
X132207870Y-79623473D01*
X132207870Y-79623473D01*
G37*
X132207870Y-79623473D02*
X132107054Y-79689906D01*
X132028737Y-79781795D01*
X131979121Y-79891865D01*
X131962134Y-80011400D01*
X131962134Y-81511400D01*
X131967556Y-81579398D01*
X132003273Y-81694730D01*
X132069706Y-81795546D01*
X132161595Y-81873863D01*
X132271665Y-81923479D01*
X132391200Y-81940466D01*
X133891200Y-81940466D01*
X133959198Y-81935044D01*
X134074530Y-81899327D01*
X134175346Y-81832894D01*
X134253663Y-81741005D01*
X134303279Y-81630935D01*
X134320266Y-81511400D01*
X134320266Y-80011400D01*
X134314844Y-79943402D01*
X134279127Y-79828070D01*
X134212694Y-79727254D01*
X134120805Y-79648937D01*
X134016678Y-79602000D01*
X140651988Y-79602000D01*
X140629801Y-79610964D01*
X140494092Y-79699769D01*
X140378216Y-79813243D01*
X140286588Y-79947062D01*
X140222698Y-80096130D01*
X140188978Y-80254769D01*
X140186713Y-80416936D01*
X140215991Y-80576455D01*
X140275694Y-80727249D01*
X140363550Y-80863574D01*
X140377837Y-80878369D01*
X140490691Y-82299371D01*
X138659823Y-83508473D01*
X138610516Y-83548459D01*
X138560919Y-83588052D01*
X138557335Y-83591587D01*
X138557200Y-83591696D01*
X138557091Y-83591828D01*
X138554189Y-83594689D01*
X138055989Y-84092889D01*
X138018909Y-84138031D01*
X137980797Y-84182343D01*
X137977008Y-84189042D01*
X137972123Y-84194988D01*
X137944504Y-84246497D01*
X137915739Y-84297344D01*
X137913324Y-84304647D01*
X137909686Y-84311432D01*
X137909351Y-84312527D01*
X137724498Y-84497380D01*
X137105444Y-84566897D01*
X137098644Y-84562311D01*
X136949134Y-84499463D01*
X136790263Y-84466851D01*
X136628084Y-84465719D01*
X136468774Y-84496109D01*
X136318401Y-84556864D01*
X136220116Y-84621180D01*
X130927758Y-84675000D01*
X130309840Y-84675000D01*
X128631432Y-84255926D01*
X128532700Y-84156503D01*
X128398244Y-84065811D01*
X128248734Y-84002963D01*
X128089863Y-83970351D01*
X127927684Y-83969219D01*
X127768374Y-83999609D01*
X127618001Y-84060364D01*
X127482292Y-84149169D01*
X127366416Y-84262643D01*
X127274788Y-84396462D01*
X127210898Y-84545530D01*
X127177178Y-84704169D01*
X127174913Y-84866336D01*
X127204191Y-85025855D01*
X127263894Y-85176649D01*
X127351750Y-85312974D01*
X127464412Y-85429639D01*
X127597588Y-85522199D01*
X127746207Y-85587129D01*
X127904606Y-85621955D01*
X128066754Y-85625352D01*
X128226473Y-85597189D01*
X128299889Y-85568713D01*
X130062598Y-86008835D01*
X130074436Y-86010587D01*
X130085844Y-86014206D01*
X130139692Y-86020246D01*
X130193302Y-86028181D01*
X130205258Y-86027600D01*
X130217148Y-86028934D01*
X130226600Y-86029000D01*
X130931200Y-86029000D01*
X130931339Y-86028986D01*
X130938084Y-86028965D01*
X131421741Y-86024046D01*
X130973841Y-86191694D01*
X130954444Y-86178611D01*
X130804934Y-86115763D01*
X130646063Y-86083151D01*
X130483884Y-86082019D01*
X130324574Y-86112409D01*
X130174201Y-86173164D01*
X130038492Y-86261969D01*
X129922616Y-86375443D01*
X129830988Y-86509262D01*
X129767098Y-86658330D01*
X129733378Y-86816969D01*
X129731113Y-86979136D01*
X129760391Y-87138655D01*
X129820094Y-87289449D01*
X129907950Y-87425774D01*
X130020612Y-87542439D01*
X130153788Y-87634999D01*
X130302407Y-87699929D01*
X130460806Y-87734755D01*
X130622954Y-87738152D01*
X130782673Y-87709989D01*
X130933880Y-87651340D01*
X131070815Y-87564438D01*
X131188264Y-87452593D01*
X131281751Y-87320066D01*
X131344906Y-87178218D01*
X132774296Y-86643200D01*
X133209413Y-86643200D01*
X139616574Y-87867207D01*
X139693050Y-87985874D01*
X139805712Y-88102539D01*
X139938888Y-88195099D01*
X140087507Y-88260029D01*
X140245906Y-88294855D01*
X140408054Y-88298252D01*
X140567773Y-88270089D01*
X140718980Y-88211440D01*
X140855915Y-88124538D01*
X140930874Y-88053156D01*
X142257914Y-90417161D01*
X142253258Y-90428026D01*
X142027166Y-90265682D01*
X141970524Y-90232874D01*
X141914019Y-90200000D01*
X141913400Y-90199787D01*
X141912832Y-90199458D01*
X141850602Y-90178176D01*
X141789083Y-90157005D01*
X141787897Y-90156731D01*
X141787814Y-90156703D01*
X141787718Y-90156690D01*
X141779873Y-90154880D01*
X139999273Y-89757180D01*
X139970464Y-89753647D01*
X139942214Y-89746978D01*
X139932838Y-89745780D01*
X137714392Y-89477971D01*
X137689200Y-89452603D01*
X137554744Y-89361911D01*
X137405234Y-89299063D01*
X137246363Y-89266451D01*
X137084184Y-89265319D01*
X136924874Y-89295709D01*
X136774501Y-89356464D01*
X136638792Y-89445269D01*
X136522916Y-89558743D01*
X136431288Y-89692562D01*
X136367398Y-89841630D01*
X136333678Y-90000269D01*
X136331413Y-90162436D01*
X136339103Y-90204333D01*
X135306136Y-90089712D01*
X135258480Y-90017983D01*
X135144200Y-89902903D01*
X135009744Y-89812211D01*
X134860234Y-89749363D01*
X134701363Y-89716751D01*
X134539184Y-89715619D01*
X134379874Y-89746009D01*
X134229501Y-89806764D01*
X134093792Y-89895569D01*
X133977916Y-90009043D01*
X133886288Y-90142862D01*
X133822398Y-90291930D01*
X133788678Y-90450569D01*
X133786413Y-90612736D01*
X133805533Y-90716909D01*
X133446688Y-90716978D01*
X133334300Y-90603803D01*
X133199844Y-90513111D01*
X133050334Y-90450263D01*
X132891463Y-90417651D01*
X132729284Y-90416519D01*
X132569974Y-90446909D01*
X132419601Y-90507664D01*
X132283892Y-90596469D01*
X132168016Y-90709943D01*
X132076388Y-90843762D01*
X132012498Y-90992830D01*
X131978778Y-91151469D01*
X131976513Y-91313636D01*
X132005791Y-91473155D01*
X132065494Y-91623949D01*
X132153350Y-91760274D01*
X132266012Y-91876939D01*
X132399188Y-91969499D01*
X132547807Y-92034429D01*
X132706206Y-92069255D01*
X132868354Y-92072652D01*
X133028073Y-92044489D01*
X133179280Y-91985840D01*
X133316215Y-91898938D01*
X133433664Y-91787093D01*
X133445032Y-91770978D01*
X134904800Y-91770700D01*
X134905161Y-91770665D01*
X134905529Y-91770700D01*
X134912887Y-91770636D01*
X136669536Y-91743345D01*
X136654078Y-91816069D01*
X136651813Y-91978236D01*
X136681091Y-92137755D01*
X136740794Y-92288549D01*
X136828650Y-92424874D01*
X136870340Y-92468046D01*
X136716185Y-93580314D01*
X136545462Y-93649291D01*
X136352319Y-93775681D01*
X136187403Y-93937178D01*
X136056996Y-94127632D01*
X135966066Y-94339789D01*
X135918076Y-94565566D01*
X135914853Y-94796365D01*
X135956521Y-95023395D01*
X136041492Y-95238007D01*
X136166530Y-95432028D01*
X136326806Y-95598000D01*
X135195425Y-95598000D01*
X135219087Y-95542692D01*
X134553400Y-94877005D01*
X133887713Y-95542692D01*
X133911375Y-95598000D01*
X132774488Y-95598000D01*
X132908694Y-95470197D01*
X133041747Y-95281583D01*
X133135631Y-95070717D01*
X133186769Y-94845631D01*
X133187711Y-94778138D01*
X133373464Y-94778138D01*
X133411888Y-95006780D01*
X133494179Y-95223533D01*
X133527464Y-95285805D01*
X133708108Y-95363087D01*
X134373795Y-94697400D01*
X134733005Y-94697400D01*
X135398692Y-95363087D01*
X135579336Y-95285805D01*
X135674415Y-95074349D01*
X135726414Y-94848408D01*
X135733336Y-94616662D01*
X135694912Y-94388020D01*
X135612621Y-94171267D01*
X135579336Y-94108995D01*
X135398692Y-94031713D01*
X134733005Y-94697400D01*
X134373795Y-94697400D01*
X133708108Y-94031713D01*
X133527464Y-94108995D01*
X133432385Y-94320451D01*
X133380386Y-94546392D01*
X133373464Y-94778138D01*
X133187711Y-94778138D01*
X133190450Y-94581989D01*
X133145617Y-94355564D01*
X133057658Y-94142158D01*
X132929923Y-93949902D01*
X132832810Y-93852108D01*
X133887713Y-93852108D01*
X134553400Y-94517795D01*
X135219087Y-93852108D01*
X135141805Y-93671464D01*
X134930349Y-93576385D01*
X134704408Y-93524386D01*
X134472662Y-93517464D01*
X134244020Y-93555888D01*
X134027267Y-93638179D01*
X133964995Y-93671464D01*
X133887713Y-93852108D01*
X132832810Y-93852108D01*
X132767278Y-93786118D01*
X132575918Y-93657044D01*
X132363132Y-93567597D01*
X132137025Y-93521184D01*
X131906209Y-93519573D01*
X131679476Y-93562824D01*
X131465462Y-93649291D01*
X131272319Y-93775681D01*
X131107403Y-93937178D01*
X130976996Y-94127632D01*
X130886066Y-94339789D01*
X130838076Y-94565566D01*
X130834853Y-94796365D01*
X130876521Y-95023395D01*
X130961492Y-95238007D01*
X131086530Y-95432028D01*
X131246806Y-95598000D01*
X130621476Y-95598000D01*
X130635479Y-95566935D01*
X130652466Y-95447400D01*
X130652466Y-93947400D01*
X130647044Y-93879402D01*
X130611327Y-93764070D01*
X130544894Y-93663254D01*
X130453005Y-93584937D01*
X130342935Y-93535321D01*
X130223400Y-93518334D01*
X128723400Y-93518334D01*
X128655402Y-93523756D01*
X128540070Y-93559473D01*
X128439254Y-93625906D01*
X128360937Y-93717795D01*
X128311321Y-93827865D01*
X128294334Y-93947400D01*
X128294334Y-95447400D01*
X128299756Y-95515398D01*
X128325337Y-95598000D01*
X128137294Y-95598000D01*
X126830042Y-94006525D01*
X125767935Y-92025703D01*
X125110797Y-89876301D01*
X124911764Y-87916850D01*
X125431290Y-87916850D01*
X125431290Y-89025636D01*
X125447699Y-89108131D01*
X125479887Y-89185840D01*
X125526617Y-89255777D01*
X125586093Y-89315252D01*
X125656029Y-89361982D01*
X125733739Y-89394171D01*
X125816234Y-89410580D01*
X127124410Y-89410580D01*
X127231160Y-89303830D01*
X127231160Y-87810100D01*
X127485160Y-87810100D01*
X127485160Y-89303830D01*
X127591910Y-89410580D01*
X128900086Y-89410580D01*
X128982581Y-89394171D01*
X129060291Y-89361982D01*
X129130227Y-89315252D01*
X129189703Y-89255777D01*
X129236433Y-89185840D01*
X129268621Y-89108131D01*
X129285030Y-89025636D01*
X129285030Y-87916850D01*
X129178280Y-87810100D01*
X127485160Y-87810100D01*
X127231160Y-87810100D01*
X125538040Y-87810100D01*
X125431290Y-87916850D01*
X124911764Y-87916850D01*
X124883662Y-87640199D01*
X125006513Y-86340564D01*
X125431290Y-86340564D01*
X125431290Y-87449350D01*
X125538040Y-87556100D01*
X127231160Y-87556100D01*
X127231160Y-86062370D01*
X127485160Y-86062370D01*
X127485160Y-87556100D01*
X129178280Y-87556100D01*
X129285030Y-87449350D01*
X129285030Y-86340564D01*
X129268621Y-86258069D01*
X129236433Y-86180360D01*
X129189703Y-86110423D01*
X129130227Y-86050948D01*
X129060291Y-86004218D01*
X128982581Y-85972029D01*
X128900086Y-85955620D01*
X127591910Y-85955620D01*
X127485160Y-86062370D01*
X127231160Y-86062370D01*
X127124410Y-85955620D01*
X125816234Y-85955620D01*
X125733739Y-85972029D01*
X125656029Y-86004218D01*
X125586093Y-86050948D01*
X125526617Y-86110423D01*
X125479887Y-86180360D01*
X125447699Y-86258069D01*
X125431290Y-86340564D01*
X125006513Y-86340564D01*
X125095181Y-85402567D01*
X125692063Y-83400365D01*
X131962653Y-83400365D01*
X132004321Y-83627395D01*
X132089292Y-83842007D01*
X132214330Y-84036028D01*
X132374672Y-84202068D01*
X132564211Y-84333801D01*
X132775727Y-84426210D01*
X133001164Y-84475775D01*
X133231935Y-84480609D01*
X133459250Y-84440528D01*
X133674451Y-84357057D01*
X133869340Y-84233376D01*
X134036494Y-84074197D01*
X134169547Y-83885583D01*
X134263431Y-83674717D01*
X134314569Y-83449631D01*
X134318250Y-83185989D01*
X134273417Y-82959564D01*
X134185458Y-82746158D01*
X134057723Y-82553902D01*
X133895078Y-82390118D01*
X133703718Y-82261044D01*
X133490932Y-82171597D01*
X133264825Y-82125184D01*
X133034009Y-82123573D01*
X132807276Y-82166824D01*
X132593262Y-82253291D01*
X132400119Y-82379681D01*
X132235203Y-82541178D01*
X132104796Y-82731632D01*
X132013866Y-82943789D01*
X131965876Y-83169566D01*
X131962653Y-83400365D01*
X125692063Y-83400365D01*
X125737297Y-83248632D01*
X126785553Y-81260438D01*
X128128529Y-79602000D01*
X132277207Y-79602000D01*
X132207870Y-79623473D01*
G36*
X142935502Y-84164711D02*
X142923216Y-84176743D01*
X142831588Y-84310562D01*
X142790695Y-84405974D01*
X141058522Y-84966782D01*
X141009344Y-84933611D01*
X140859834Y-84870763D01*
X140700963Y-84838151D01*
X140538784Y-84837019D01*
X140379474Y-84867409D01*
X140229101Y-84928164D01*
X140093392Y-85016969D01*
X139977516Y-85130443D01*
X139885888Y-85264262D01*
X139821998Y-85413330D01*
X139788278Y-85571969D01*
X139786013Y-85734136D01*
X139815291Y-85893655D01*
X139866013Y-86021767D01*
X139280806Y-85867598D01*
X139263030Y-85824469D01*
X139173280Y-85689383D01*
X139059000Y-85574303D01*
X138924544Y-85483611D01*
X138775034Y-85420763D01*
X138726020Y-85410702D01*
X139012511Y-85124211D01*
X139049591Y-85079069D01*
X139087703Y-85034757D01*
X139091493Y-85028058D01*
X139096377Y-85022112D01*
X139123990Y-84970613D01*
X139152761Y-84919757D01*
X139155177Y-84912451D01*
X139158814Y-84905668D01*
X139159149Y-84904573D01*
X139463156Y-84600566D01*
X141259876Y-83414016D01*
X142935502Y-84164711D01*
X142935502Y-84164711D01*
G37*
X142935502Y-84164711D02*
X142923216Y-84176743D01*
X142831588Y-84310562D01*
X142790695Y-84405974D01*
X141058522Y-84966782D01*
X141009344Y-84933611D01*
X140859834Y-84870763D01*
X140700963Y-84838151D01*
X140538784Y-84837019D01*
X140379474Y-84867409D01*
X140229101Y-84928164D01*
X140093392Y-85016969D01*
X139977516Y-85130443D01*
X139885888Y-85264262D01*
X139821998Y-85413330D01*
X139788278Y-85571969D01*
X139786013Y-85734136D01*
X139815291Y-85893655D01*
X139866013Y-86021767D01*
X139280806Y-85867598D01*
X139263030Y-85824469D01*
X139173280Y-85689383D01*
X139059000Y-85574303D01*
X138924544Y-85483611D01*
X138775034Y-85420763D01*
X138726020Y-85410702D01*
X139012511Y-85124211D01*
X139049591Y-85079069D01*
X139087703Y-85034757D01*
X139091493Y-85028058D01*
X139096377Y-85022112D01*
X139123990Y-84970613D01*
X139152761Y-84919757D01*
X139155177Y-84912451D01*
X139158814Y-84905668D01*
X139159149Y-84904573D01*
X139463156Y-84600566D01*
X141259876Y-83414016D01*
X142935502Y-84164711D01*
M02*
