G04 #@! TF.FileFunction,Soldermask,Top*
%FSLAX46Y46*%
G04 Gerber Fmt 4.6, Leading zero omitted, Abs format (unit mm)*
G04 Created by KiCad (PCBNEW 4.0.0-rc1-stable) date 16.11.2015 3:08:45*
%MOMM*%
G01*
G04 APERTURE LIST*
%ADD10C,0.100000*%
%ADD11R,0.800000X0.800000*%
%ADD12R,1.597000X1.343000*%
%ADD13R,1.089000X1.216000*%
%ADD14R,1.200760X1.200760*%
%ADD15R,0.499720X1.398880*%
%ADD16O,0.499720X1.398880*%
%ADD17O,1.398880X0.499720*%
%ADD18R,1.114400X1.114400*%
%ADD19R,1.700000X1.700000*%
%ADD20C,1.700000*%
%ADD21R,0.600000X0.500000*%
%ADD22R,0.800000X0.500000*%
%ADD23R,0.500000X0.600000*%
%ADD24R,0.500000X0.800000*%
%ADD25R,0.350000X0.350000*%
G04 APERTURE END LIST*
D10*
D11*
X126965900Y-85178800D03*
X125965900Y-85178800D03*
X127694200Y-90624300D03*
X126694200Y-90624300D03*
X129655700Y-91130600D03*
X129655700Y-92130600D03*
X144532400Y-89289300D03*
X145532400Y-89289300D03*
X144461700Y-87763800D03*
X145461700Y-87763800D03*
X137037700Y-86193600D03*
X136037700Y-86193600D03*
X137034700Y-87659500D03*
X136034700Y-87659500D03*
X137061600Y-89192900D03*
X136061600Y-89192900D03*
D12*
X139670700Y-80697900D03*
X139670700Y-82729900D03*
X137418700Y-80689700D03*
X137418700Y-82721700D03*
D13*
X141597100Y-95055200D03*
X140073100Y-95055200D03*
D14*
X135430200Y-80573520D03*
X135430200Y-83174480D03*
D13*
X150440600Y-80110700D03*
X148916600Y-80110700D03*
X128781900Y-80165500D03*
X130305900Y-80165500D03*
D15*
X129257240Y-88711940D03*
D16*
X129757620Y-88711940D03*
X130258000Y-88711940D03*
X130758380Y-88711940D03*
X131258760Y-88711940D03*
D17*
X131759140Y-87711180D03*
X131759140Y-87210800D03*
X131759140Y-86710420D03*
D16*
X131258760Y-85709660D03*
X130758380Y-85709660D03*
X130258000Y-85709660D03*
X129757620Y-85709660D03*
X129257240Y-85709660D03*
D17*
X128756860Y-86710420D03*
X128756860Y-87210800D03*
X128756860Y-87711180D03*
D18*
X143806200Y-81221800D03*
X143806200Y-82999800D03*
X141774200Y-82110800D03*
D11*
X131253200Y-91124300D03*
X131253200Y-92124300D03*
X133714500Y-90431800D03*
X133714500Y-91431800D03*
X141711900Y-93234200D03*
X140711900Y-93234200D03*
X142659300Y-84639500D03*
X141659300Y-84639500D03*
X149444700Y-81907400D03*
X148444700Y-81907400D03*
X128668900Y-81963300D03*
X129668900Y-81963300D03*
D19*
X133141200Y-80761400D03*
D20*
X133141200Y-83301400D03*
D19*
X129473400Y-94697400D03*
D20*
X132013400Y-94697400D03*
X134553400Y-94697400D03*
X137093400Y-94697400D03*
D19*
X144921100Y-94732500D03*
D20*
X147461100Y-94732500D03*
X150001100Y-94732500D03*
D21*
X142779300Y-89965100D03*
D22*
X142679300Y-89465100D03*
X142679300Y-88965100D03*
X142679300Y-88465100D03*
X142679300Y-87965100D03*
X142679300Y-87465100D03*
D21*
X142779300Y-86965100D03*
D23*
X142279300Y-86465100D03*
D24*
X141779300Y-86565100D03*
X141279300Y-86565100D03*
X140779300Y-86565100D03*
X140279300Y-86565100D03*
X139779300Y-86565100D03*
D23*
X139279300Y-86465100D03*
D21*
X138779300Y-86965100D03*
D22*
X138879300Y-87465100D03*
X138879300Y-87965100D03*
X138879300Y-88465100D03*
X138879300Y-88965100D03*
X138879300Y-89465100D03*
D21*
X138779300Y-89965100D03*
D23*
X139279300Y-90465100D03*
D24*
X139779300Y-90365100D03*
X140279300Y-90365100D03*
X140779300Y-90365100D03*
X141279300Y-90365100D03*
X141779300Y-90365100D03*
D23*
X142279300Y-90465100D03*
D10*
G36*
X142879300Y-89865100D02*
X142729300Y-90215100D01*
X142479300Y-90215100D01*
X142329300Y-89865100D01*
X142879300Y-89865100D01*
X142879300Y-89865100D01*
G37*
G36*
X142179300Y-90015100D02*
X142529300Y-90165100D01*
X142529300Y-90415100D01*
X142179300Y-90565100D01*
X142179300Y-90015100D01*
X142179300Y-90015100D01*
G37*
D25*
X142504300Y-89890100D03*
X142204300Y-90190100D03*
X142504300Y-87040100D03*
X142204300Y-86740100D03*
X139354300Y-86740100D03*
X139054300Y-87040100D03*
X139054300Y-89890100D03*
X139354300Y-90190100D03*
D10*
G36*
X142329300Y-87065100D02*
X142479300Y-86715100D01*
X142729300Y-86715100D01*
X142879300Y-87065100D01*
X142329300Y-87065100D01*
X142329300Y-87065100D01*
G37*
G36*
X142179300Y-86365100D02*
X142529300Y-86515100D01*
X142529300Y-86765100D01*
X142179300Y-86915100D01*
X142179300Y-86365100D01*
X142179300Y-86365100D01*
G37*
G36*
X139379300Y-86915100D02*
X139029300Y-86765100D01*
X139029300Y-86515100D01*
X139379300Y-86365100D01*
X139379300Y-86915100D01*
X139379300Y-86915100D01*
G37*
G36*
X138679300Y-87065100D02*
X138829300Y-86715100D01*
X139079300Y-86715100D01*
X139229300Y-87065100D01*
X138679300Y-87065100D01*
X138679300Y-87065100D01*
G37*
G36*
X139229300Y-89865100D02*
X139079300Y-90215100D01*
X138829300Y-90215100D01*
X138679300Y-89865100D01*
X139229300Y-89865100D01*
X139229300Y-89865100D01*
G37*
G36*
X139379300Y-90565100D02*
X139029300Y-90415100D01*
X139029300Y-90165100D01*
X139379300Y-90015100D01*
X139379300Y-90565100D01*
X139379300Y-90565100D01*
G37*
M02*
