M48
;DRILL file {KiCad 4.0.0-rc1-stable} date 16.11.2015 3:01:16
;FORMAT={-:-/ absolute / metric / decimal}
FMAT,2
METRIC,TZ
T1C0.300
T2C0.900
%
G90
G05
M71
T1
X125.258Y-87.023
X127.147Y-82.186
X127.429Y-83.486
X128.003Y-84.797
X128.756Y-92.057
X130.559Y-86.91
X130.579Y-84.501
X131.502Y-89.911
X131.593Y-82.263
X132.805Y-91.244
X132.969Y-86.817
X134.614Y-90.543
X135.717Y-92.492
X135.977Y-93.902
X136.103Y-82.073
X136.703Y-85.293
X137.159Y-90.093
X137.48Y-91.909
X137.683Y-84.293
X138.529Y-86.215
X139.333Y-91.669
X139.385Y-84.924
X139.78Y-88.327
X139.976Y-93.947
X140.344Y-87.47
X140.614Y-85.665
X141.015Y-80.347
X141.28Y-91.666
X143.03Y-90.716
X143.56Y-84.711
X144.674Y-90.281
X146.401Y-82.136
X146.993Y-84.762
X147.274Y-91.118
X149.42Y-83.769
X150.599Y-91.4
T2
X129.473Y-94.697
X132.013Y-94.697
X133.141Y-80.761
X133.141Y-83.301
X134.553Y-94.697
X137.093Y-94.697
X144.921Y-94.733
X147.461Y-94.733
X150.001Y-94.733
T0
M30
