M48
;DRILL file {KiCad 4.0.0-rc1-stable} date 20.11.2015 2:49:34
;FORMAT={-:-/ absolute / metric / decimal}
FMAT,2
METRIC,TZ
T1C0.300
T2C0.900
%
G90
G05
M71
T1
X125.258Y-87.023
X126.432Y-82.904
X126.53Y-91.761
X127.788Y-94.485
X128.769Y-91.956
X129.236Y-83.336
X130.495Y-86.967
X130.668Y-84.516
X131.614Y-89.822
X131.621Y-82.219
X132.152Y-90.782
X132.904Y-85.933
X134.358Y-91.578
X134.372Y-84.5
X134.399Y-82.077
X134.409Y-88.044
X135.365Y-92.814
X136.148Y-90.096
X136.482Y-86.694
X137.905Y-92.013
X139.703Y-88.167
X139.766Y-86.736
X140.802Y-93.478
X140.96Y-80.231
X141.133Y-90.731
X141.224Y-85.238
X141.414Y-86.674
X142.186Y-88.355
X145.086Y-80.91
X145.406Y-88.683
X145.49Y-86.901
X146.351Y-92.631
X148.274Y-92.265
X148.503Y-84.208
X150.38Y-91.967
T2
X129.842Y-94.706
X132.382Y-94.706
X133.141Y-80.761
X133.141Y-83.301
X134.922Y-94.706
X141.875Y-94.67
X144.415Y-94.67
X146.955Y-94.67
X149.495Y-94.67
T0
M30
