G04 #@! TF.FileFunction,Legend,Top*
%FSLAX46Y46*%
G04 Gerber Fmt 4.6, Leading zero omitted, Abs format (unit mm)*
G04 Created by KiCad (PCBNEW 4.0.0-rc1-stable) date 16.11.2015 3:08:45*
%MOMM*%
G01*
G04 APERTURE LIST*
%ADD10C,0.100000*%
%ADD11C,0.150000*%
%ADD12C,0.149860*%
%ADD13C,0.127000*%
G04 APERTURE END LIST*
D10*
D11*
X126465900Y-85778800D02*
X125365900Y-85778800D01*
X125365900Y-85778800D02*
X125365900Y-84578800D01*
X125365900Y-84578800D02*
X127565900Y-84578800D01*
X127565900Y-84578800D02*
X127565900Y-85778800D01*
X127565900Y-85778800D02*
X126465900Y-85778800D01*
X127194200Y-91224300D02*
X126094200Y-91224300D01*
X126094200Y-91224300D02*
X126094200Y-90024300D01*
X126094200Y-90024300D02*
X128294200Y-90024300D01*
X128294200Y-90024300D02*
X128294200Y-91224300D01*
X128294200Y-91224300D02*
X127194200Y-91224300D01*
X130255700Y-91630600D02*
X130255700Y-92730600D01*
X130255700Y-92730600D02*
X129055700Y-92730600D01*
X129055700Y-92730600D02*
X129055700Y-90530600D01*
X129055700Y-90530600D02*
X130255700Y-90530600D01*
X130255700Y-90530600D02*
X130255700Y-91630600D01*
X145032400Y-88689300D02*
X146132400Y-88689300D01*
X146132400Y-88689300D02*
X146132400Y-89889300D01*
X146132400Y-89889300D02*
X143932400Y-89889300D01*
X143932400Y-89889300D02*
X143932400Y-88689300D01*
X143932400Y-88689300D02*
X145032400Y-88689300D01*
X144961700Y-87163800D02*
X146061700Y-87163800D01*
X146061700Y-87163800D02*
X146061700Y-88363800D01*
X146061700Y-88363800D02*
X143861700Y-88363800D01*
X143861700Y-88363800D02*
X143861700Y-87163800D01*
X143861700Y-87163800D02*
X144961700Y-87163800D01*
X136537700Y-86793600D02*
X135437700Y-86793600D01*
X135437700Y-86793600D02*
X135437700Y-85593600D01*
X135437700Y-85593600D02*
X137637700Y-85593600D01*
X137637700Y-85593600D02*
X137637700Y-86793600D01*
X137637700Y-86793600D02*
X136537700Y-86793600D01*
X136534700Y-88259500D02*
X135434700Y-88259500D01*
X135434700Y-88259500D02*
X135434700Y-87059500D01*
X135434700Y-87059500D02*
X137634700Y-87059500D01*
X137634700Y-87059500D02*
X137634700Y-88259500D01*
X137634700Y-88259500D02*
X136534700Y-88259500D01*
X136561600Y-89792900D02*
X135461600Y-89792900D01*
X135461600Y-89792900D02*
X135461600Y-88592900D01*
X135461600Y-88592900D02*
X137661600Y-88592900D01*
X137661600Y-88592900D02*
X137661600Y-89792900D01*
X137661600Y-89792900D02*
X136561600Y-89792900D01*
X140670700Y-79813900D02*
X140670700Y-83613900D01*
X140670700Y-83613900D02*
X138670700Y-83613900D01*
X138670700Y-83613900D02*
X138670700Y-79813900D01*
X138670700Y-79813900D02*
X140670700Y-79813900D01*
X138418700Y-79805700D02*
X138418700Y-83605700D01*
X138418700Y-83605700D02*
X136418700Y-83605700D01*
X136418700Y-83605700D02*
X136418700Y-79805700D01*
X136418700Y-79805700D02*
X138418700Y-79805700D01*
X139135100Y-95855200D02*
X138935100Y-95855200D01*
X138935100Y-95855200D02*
X138935100Y-94255200D01*
X138935100Y-94255200D02*
X139135100Y-94255200D01*
X139335100Y-95855200D02*
X139185100Y-95855200D01*
X139185100Y-95855200D02*
X139185100Y-94255200D01*
X139185100Y-94255200D02*
X139335100Y-94255200D01*
X139335100Y-94255200D02*
X139085100Y-94255200D01*
X139085100Y-94255200D02*
X139085100Y-95855200D01*
X139085100Y-95855200D02*
X139185100Y-95855200D01*
X142335100Y-95055200D02*
X142335100Y-95855200D01*
X142335100Y-95855200D02*
X139335100Y-95855200D01*
X139335100Y-95855200D02*
X139335100Y-94255200D01*
X139335100Y-94255200D02*
X142335100Y-94255200D01*
X142335100Y-94255200D02*
X142335100Y-95155200D01*
X136130200Y-79874000D02*
X136130200Y-79774000D01*
X136130200Y-79774000D02*
X134730200Y-79774000D01*
X134730200Y-79774000D02*
X134730200Y-79874000D01*
X136130200Y-79874000D02*
X136130200Y-83874000D01*
X136130200Y-83874000D02*
X134730200Y-83874000D01*
X134730200Y-83874000D02*
X134730200Y-79874000D01*
X134730200Y-79874000D02*
X136130200Y-79874000D01*
X135049200Y-81493000D02*
X135811200Y-81493000D01*
X135430200Y-82255000D02*
X135811200Y-82255000D01*
X135811200Y-82255000D02*
X135430200Y-81493000D01*
X135430200Y-81493000D02*
X135049200Y-82255000D01*
X135049200Y-82255000D02*
X135430200Y-82255000D01*
X147978600Y-80910700D02*
X147778600Y-80910700D01*
X147778600Y-80910700D02*
X147778600Y-79310700D01*
X147778600Y-79310700D02*
X147978600Y-79310700D01*
X148178600Y-80910700D02*
X148028600Y-80910700D01*
X148028600Y-80910700D02*
X148028600Y-79310700D01*
X148028600Y-79310700D02*
X148178600Y-79310700D01*
X148178600Y-79310700D02*
X147928600Y-79310700D01*
X147928600Y-79310700D02*
X147928600Y-80910700D01*
X147928600Y-80910700D02*
X148028600Y-80910700D01*
X151178600Y-80110700D02*
X151178600Y-80910700D01*
X151178600Y-80910700D02*
X148178600Y-80910700D01*
X148178600Y-80910700D02*
X148178600Y-79310700D01*
X148178600Y-79310700D02*
X151178600Y-79310700D01*
X151178600Y-79310700D02*
X151178600Y-80210700D01*
X131243900Y-79365500D02*
X131443900Y-79365500D01*
X131443900Y-79365500D02*
X131443900Y-80965500D01*
X131443900Y-80965500D02*
X131243900Y-80965500D01*
X131043900Y-79365500D02*
X131193900Y-79365500D01*
X131193900Y-79365500D02*
X131193900Y-80965500D01*
X131193900Y-80965500D02*
X131043900Y-80965500D01*
X131043900Y-80965500D02*
X131293900Y-80965500D01*
X131293900Y-80965500D02*
X131293900Y-79365500D01*
X131293900Y-79365500D02*
X131193900Y-79365500D01*
X128043900Y-80165500D02*
X128043900Y-79365500D01*
X128043900Y-79365500D02*
X131043900Y-79365500D01*
X131043900Y-79365500D02*
X131043900Y-80965500D01*
X131043900Y-80965500D02*
X128043900Y-80965500D01*
X128043900Y-80965500D02*
X128043900Y-80065500D01*
X127858000Y-88710800D02*
X128758000Y-89610800D01*
X128758000Y-89610800D02*
X128858000Y-89610800D01*
X127858000Y-87210800D02*
X127858000Y-84810800D01*
X127858000Y-84810800D02*
X132658000Y-84810800D01*
X132658000Y-84810800D02*
X132658000Y-89610800D01*
X132658000Y-89610800D02*
X127858000Y-89610800D01*
X127858000Y-89610800D02*
X127858000Y-87210800D01*
D12*
X128756860Y-88211560D02*
X129257240Y-88711940D01*
X128756860Y-85709660D02*
X131759140Y-85709660D01*
X131759140Y-85709660D02*
X131759140Y-88711940D01*
X131759140Y-88711940D02*
X128756860Y-88711940D01*
X128756860Y-88711940D02*
X128756860Y-85709660D01*
D13*
X143171200Y-80586800D02*
X143171200Y-83634800D01*
X143171200Y-83634800D02*
X142409200Y-83634800D01*
X142409200Y-83634800D02*
X142409200Y-80586800D01*
X142409200Y-80586800D02*
X143171200Y-80586800D01*
D11*
X131853200Y-91624300D02*
X131853200Y-92724300D01*
X131853200Y-92724300D02*
X130653200Y-92724300D01*
X130653200Y-92724300D02*
X130653200Y-90524300D01*
X130653200Y-90524300D02*
X131853200Y-90524300D01*
X131853200Y-90524300D02*
X131853200Y-91624300D01*
X134314500Y-90931800D02*
X134314500Y-92031800D01*
X134314500Y-92031800D02*
X133114500Y-92031800D01*
X133114500Y-92031800D02*
X133114500Y-89831800D01*
X133114500Y-89831800D02*
X134314500Y-89831800D01*
X134314500Y-89831800D02*
X134314500Y-90931800D01*
X141211900Y-93834200D02*
X140111900Y-93834200D01*
X140111900Y-93834200D02*
X140111900Y-92634200D01*
X140111900Y-92634200D02*
X142311900Y-92634200D01*
X142311900Y-92634200D02*
X142311900Y-93834200D01*
X142311900Y-93834200D02*
X141211900Y-93834200D01*
X142159300Y-85239500D02*
X141059300Y-85239500D01*
X141059300Y-85239500D02*
X141059300Y-84039500D01*
X141059300Y-84039500D02*
X143259300Y-84039500D01*
X143259300Y-84039500D02*
X143259300Y-85239500D01*
X143259300Y-85239500D02*
X142159300Y-85239500D01*
X148944700Y-82507400D02*
X147844700Y-82507400D01*
X147844700Y-82507400D02*
X147844700Y-81307400D01*
X147844700Y-81307400D02*
X150044700Y-81307400D01*
X150044700Y-81307400D02*
X150044700Y-82507400D01*
X150044700Y-82507400D02*
X148944700Y-82507400D01*
X129168900Y-81363300D02*
X130268900Y-81363300D01*
X130268900Y-81363300D02*
X130268900Y-82563300D01*
X130268900Y-82563300D02*
X128068900Y-82563300D01*
X128068900Y-82563300D02*
X128068900Y-81363300D01*
X128068900Y-81363300D02*
X129168900Y-81363300D01*
X131871200Y-84571400D02*
X131871200Y-79491400D01*
X134411200Y-84571400D02*
X134411200Y-79491400D01*
X131871200Y-79364400D02*
X131871200Y-79491400D01*
X134411200Y-79491400D02*
X134411200Y-79237400D01*
X134411200Y-79237400D02*
X131871200Y-79237400D01*
X131871200Y-79237400D02*
X131871200Y-79364400D01*
X131871200Y-79364400D02*
X134284200Y-79364400D01*
X134411200Y-84571400D02*
X131871200Y-84571400D01*
X131871200Y-79491400D02*
X134411200Y-79491400D01*
X128203400Y-95967400D02*
X127949400Y-95967400D01*
X127949400Y-95967400D02*
X127949400Y-93427400D01*
X127949400Y-93427400D02*
X128203400Y-93427400D01*
X128203400Y-93427400D02*
X128076400Y-93427400D01*
X128076400Y-93427400D02*
X128076400Y-95967400D01*
X128203400Y-93427400D02*
X138363400Y-93427400D01*
X138363400Y-93427400D02*
X138363400Y-95967400D01*
X138363400Y-95967400D02*
X128203400Y-95967400D01*
X128203400Y-95967400D02*
X128203400Y-93427400D01*
X143651100Y-96002500D02*
X151271100Y-96002500D01*
X143651100Y-93462500D02*
X151271100Y-93462500D01*
X143651100Y-96002500D02*
X143397100Y-96002500D01*
X143397100Y-96002500D02*
X143397100Y-93462500D01*
X143397100Y-93462500D02*
X143651100Y-93462500D01*
X143651100Y-93462500D02*
X143524100Y-93462500D01*
X143524100Y-93462500D02*
X143524100Y-96002500D01*
X151271100Y-93462500D02*
X151271100Y-96002500D01*
X143651100Y-96002500D02*
X143651100Y-93462500D01*
X143279300Y-90265100D02*
X142579300Y-90965100D01*
X143279300Y-90965100D02*
X138279300Y-90965100D01*
X138279300Y-90965100D02*
X138279300Y-85965100D01*
X138279300Y-85965100D02*
X143279300Y-85965100D01*
X143279300Y-85965100D02*
X143279300Y-90965100D01*
X126400000Y-85414286D02*
X126371429Y-85442857D01*
X126285715Y-85471429D01*
X126228572Y-85471429D01*
X126142857Y-85442857D01*
X126085715Y-85385714D01*
X126057143Y-85328571D01*
X126028572Y-85214286D01*
X126028572Y-85128571D01*
X126057143Y-85014286D01*
X126085715Y-84957143D01*
X126142857Y-84900000D01*
X126228572Y-84871429D01*
X126285715Y-84871429D01*
X126371429Y-84900000D01*
X126400000Y-84928571D01*
X126971429Y-85471429D02*
X126628572Y-85471429D01*
X126800000Y-85471429D02*
X126800000Y-84871429D01*
X126742857Y-84957143D01*
X126685715Y-85014286D01*
X126628572Y-85042857D01*
X125814286Y-86271429D02*
X125814286Y-86671429D01*
X125671429Y-86042857D02*
X125528572Y-86471429D01*
X125900000Y-86471429D01*
X126128572Y-86614286D02*
X126157144Y-86642857D01*
X126128572Y-86671429D01*
X126100001Y-86642857D01*
X126128572Y-86614286D01*
X126128572Y-86671429D01*
X126357143Y-86071429D02*
X126757143Y-86071429D01*
X126500000Y-86671429D01*
X127242858Y-86271429D02*
X127242858Y-86671429D01*
X126985715Y-86271429D02*
X126985715Y-86585714D01*
X127014287Y-86642857D01*
X127071429Y-86671429D01*
X127157144Y-86671429D01*
X127214287Y-86642857D01*
X127242858Y-86614286D01*
X127000000Y-90914286D02*
X126971429Y-90942857D01*
X126885715Y-90971429D01*
X126828572Y-90971429D01*
X126742857Y-90942857D01*
X126685715Y-90885714D01*
X126657143Y-90828571D01*
X126628572Y-90714286D01*
X126628572Y-90628571D01*
X126657143Y-90514286D01*
X126685715Y-90457143D01*
X126742857Y-90400000D01*
X126828572Y-90371429D01*
X126885715Y-90371429D01*
X126971429Y-90400000D01*
X127000000Y-90428571D01*
X127228572Y-90428571D02*
X127257143Y-90400000D01*
X127314286Y-90371429D01*
X127457143Y-90371429D01*
X127514286Y-90400000D01*
X127542857Y-90428571D01*
X127571429Y-90485714D01*
X127571429Y-90542857D01*
X127542857Y-90628571D01*
X127200000Y-90971429D01*
X127571429Y-90971429D01*
X125471429Y-89171429D02*
X125528572Y-89171429D01*
X125585715Y-89200000D01*
X125614286Y-89228571D01*
X125642857Y-89285714D01*
X125671429Y-89400000D01*
X125671429Y-89542857D01*
X125642857Y-89657143D01*
X125614286Y-89714286D01*
X125585715Y-89742857D01*
X125528572Y-89771429D01*
X125471429Y-89771429D01*
X125414286Y-89742857D01*
X125385715Y-89714286D01*
X125357143Y-89657143D01*
X125328572Y-89542857D01*
X125328572Y-89400000D01*
X125357143Y-89285714D01*
X125385715Y-89228571D01*
X125414286Y-89200000D01*
X125471429Y-89171429D01*
X125928572Y-89714286D02*
X125957144Y-89742857D01*
X125928572Y-89771429D01*
X125900001Y-89742857D01*
X125928572Y-89714286D01*
X125928572Y-89771429D01*
X126528572Y-89771429D02*
X126185715Y-89771429D01*
X126357143Y-89771429D02*
X126357143Y-89171429D01*
X126300000Y-89257143D01*
X126242858Y-89314286D01*
X126185715Y-89342857D01*
X127042858Y-89371429D02*
X127042858Y-89771429D01*
X126785715Y-89371429D02*
X126785715Y-89685714D01*
X126814287Y-89742857D01*
X126871429Y-89771429D01*
X126957144Y-89771429D01*
X127014287Y-89742857D01*
X127042858Y-89714286D01*
X129814286Y-91700000D02*
X129842857Y-91728571D01*
X129871429Y-91814285D01*
X129871429Y-91871428D01*
X129842857Y-91957143D01*
X129785714Y-92014285D01*
X129728571Y-92042857D01*
X129614286Y-92071428D01*
X129528571Y-92071428D01*
X129414286Y-92042857D01*
X129357143Y-92014285D01*
X129300000Y-91957143D01*
X129271429Y-91871428D01*
X129271429Y-91814285D01*
X129300000Y-91728571D01*
X129328571Y-91700000D01*
X129271429Y-91500000D02*
X129271429Y-91128571D01*
X129500000Y-91328571D01*
X129500000Y-91242857D01*
X129528571Y-91185714D01*
X129557143Y-91157143D01*
X129614286Y-91128571D01*
X129757143Y-91128571D01*
X129814286Y-91157143D01*
X129842857Y-91185714D01*
X129871429Y-91242857D01*
X129871429Y-91414285D01*
X129842857Y-91471428D01*
X129814286Y-91500000D01*
X128171429Y-93028571D02*
X128171429Y-92971428D01*
X128200000Y-92914285D01*
X128228571Y-92885714D01*
X128285714Y-92857143D01*
X128400000Y-92828571D01*
X128542857Y-92828571D01*
X128657143Y-92857143D01*
X128714286Y-92885714D01*
X128742857Y-92914285D01*
X128771429Y-92971428D01*
X128771429Y-93028571D01*
X128742857Y-93085714D01*
X128714286Y-93114285D01*
X128657143Y-93142857D01*
X128542857Y-93171428D01*
X128400000Y-93171428D01*
X128285714Y-93142857D01*
X128228571Y-93114285D01*
X128200000Y-93085714D01*
X128171429Y-93028571D01*
X128714286Y-92571428D02*
X128742857Y-92542856D01*
X128771429Y-92571428D01*
X128742857Y-92599999D01*
X128714286Y-92571428D01*
X128771429Y-92571428D01*
X128771429Y-91971428D02*
X128771429Y-92314285D01*
X128771429Y-92142857D02*
X128171429Y-92142857D01*
X128257143Y-92200000D01*
X128314286Y-92257142D01*
X128342857Y-92314285D01*
X128371429Y-91457142D02*
X128771429Y-91457142D01*
X128371429Y-91714285D02*
X128685714Y-91714285D01*
X128742857Y-91685713D01*
X128771429Y-91628571D01*
X128771429Y-91542856D01*
X128742857Y-91485713D01*
X128714286Y-91457142D01*
X144900000Y-89514286D02*
X144871429Y-89542857D01*
X144785715Y-89571429D01*
X144728572Y-89571429D01*
X144642857Y-89542857D01*
X144585715Y-89485714D01*
X144557143Y-89428571D01*
X144528572Y-89314286D01*
X144528572Y-89228571D01*
X144557143Y-89114286D01*
X144585715Y-89057143D01*
X144642857Y-89000000D01*
X144728572Y-88971429D01*
X144785715Y-88971429D01*
X144871429Y-89000000D01*
X144900000Y-89028571D01*
X145414286Y-89171429D02*
X145414286Y-89571429D01*
X145271429Y-88942857D02*
X145128572Y-89371429D01*
X145500000Y-89371429D01*
X146900000Y-89571429D02*
X146557143Y-89571429D01*
X146728571Y-89571429D02*
X146728571Y-88971429D01*
X146671428Y-89057143D01*
X146614286Y-89114286D01*
X146557143Y-89142857D01*
X147414286Y-89171429D02*
X147414286Y-89571429D01*
X147157143Y-89171429D02*
X147157143Y-89485714D01*
X147185715Y-89542857D01*
X147242857Y-89571429D01*
X147328572Y-89571429D01*
X147385715Y-89542857D01*
X147414286Y-89514286D01*
X144900000Y-88014286D02*
X144871429Y-88042857D01*
X144785715Y-88071429D01*
X144728572Y-88071429D01*
X144642857Y-88042857D01*
X144585715Y-87985714D01*
X144557143Y-87928571D01*
X144528572Y-87814286D01*
X144528572Y-87728571D01*
X144557143Y-87614286D01*
X144585715Y-87557143D01*
X144642857Y-87500000D01*
X144728572Y-87471429D01*
X144785715Y-87471429D01*
X144871429Y-87500000D01*
X144900000Y-87528571D01*
X145442857Y-87471429D02*
X145157143Y-87471429D01*
X145128572Y-87757143D01*
X145157143Y-87728571D01*
X145214286Y-87700000D01*
X145357143Y-87700000D01*
X145414286Y-87728571D01*
X145442857Y-87757143D01*
X145471429Y-87814286D01*
X145471429Y-87957143D01*
X145442857Y-88014286D01*
X145414286Y-88042857D01*
X145357143Y-88071429D01*
X145214286Y-88071429D01*
X145157143Y-88042857D01*
X145128572Y-88014286D01*
X146714286Y-87971429D02*
X146371429Y-87971429D01*
X146542857Y-87971429D02*
X146542857Y-87371429D01*
X146485714Y-87457143D01*
X146428572Y-87514286D01*
X146371429Y-87542857D01*
X147085715Y-87371429D02*
X147142858Y-87371429D01*
X147200001Y-87400000D01*
X147228572Y-87428571D01*
X147257143Y-87485714D01*
X147285715Y-87600000D01*
X147285715Y-87742857D01*
X147257143Y-87857143D01*
X147228572Y-87914286D01*
X147200001Y-87942857D01*
X147142858Y-87971429D01*
X147085715Y-87971429D01*
X147028572Y-87942857D01*
X147000001Y-87914286D01*
X146971429Y-87857143D01*
X146942858Y-87742857D01*
X146942858Y-87600000D01*
X146971429Y-87485714D01*
X147000001Y-87428571D01*
X147028572Y-87400000D01*
X147085715Y-87371429D01*
X147542858Y-87571429D02*
X147542858Y-87971429D01*
X147542858Y-87628571D02*
X147571430Y-87600000D01*
X147628572Y-87571429D01*
X147714287Y-87571429D01*
X147771430Y-87600000D01*
X147800001Y-87657143D01*
X147800001Y-87971429D01*
X136500000Y-86414286D02*
X136471429Y-86442857D01*
X136385715Y-86471429D01*
X136328572Y-86471429D01*
X136242857Y-86442857D01*
X136185715Y-86385714D01*
X136157143Y-86328571D01*
X136128572Y-86214286D01*
X136128572Y-86128571D01*
X136157143Y-86014286D01*
X136185715Y-85957143D01*
X136242857Y-85900000D01*
X136328572Y-85871429D01*
X136385715Y-85871429D01*
X136471429Y-85900000D01*
X136500000Y-85928571D01*
X137014286Y-85871429D02*
X136900000Y-85871429D01*
X136842857Y-85900000D01*
X136814286Y-85928571D01*
X136757143Y-86014286D01*
X136728572Y-86128571D01*
X136728572Y-86357143D01*
X136757143Y-86414286D01*
X136785715Y-86442857D01*
X136842857Y-86471429D01*
X136957143Y-86471429D01*
X137014286Y-86442857D01*
X137042857Y-86414286D01*
X137071429Y-86357143D01*
X137071429Y-86214286D01*
X137042857Y-86157143D01*
X137014286Y-86128571D01*
X136957143Y-86100000D01*
X136842857Y-86100000D01*
X136785715Y-86128571D01*
X136757143Y-86157143D01*
X136728572Y-86214286D01*
X133614286Y-85971429D02*
X133614286Y-86371429D01*
X133471429Y-85742857D02*
X133328572Y-86171429D01*
X133700000Y-86171429D01*
X133928572Y-86314286D02*
X133957144Y-86342857D01*
X133928572Y-86371429D01*
X133900001Y-86342857D01*
X133928572Y-86314286D01*
X133928572Y-86371429D01*
X134157143Y-85771429D02*
X134557143Y-85771429D01*
X134300000Y-86371429D01*
X135042858Y-85971429D02*
X135042858Y-86371429D01*
X134785715Y-85971429D02*
X134785715Y-86285714D01*
X134814287Y-86342857D01*
X134871429Y-86371429D01*
X134957144Y-86371429D01*
X135014287Y-86342857D01*
X135042858Y-86314286D01*
X136400000Y-87914286D02*
X136371429Y-87942857D01*
X136285715Y-87971429D01*
X136228572Y-87971429D01*
X136142857Y-87942857D01*
X136085715Y-87885714D01*
X136057143Y-87828571D01*
X136028572Y-87714286D01*
X136028572Y-87628571D01*
X136057143Y-87514286D01*
X136085715Y-87457143D01*
X136142857Y-87400000D01*
X136228572Y-87371429D01*
X136285715Y-87371429D01*
X136371429Y-87400000D01*
X136400000Y-87428571D01*
X136600000Y-87371429D02*
X137000000Y-87371429D01*
X136742857Y-87971429D01*
X133571429Y-87271429D02*
X133628572Y-87271429D01*
X133685715Y-87300000D01*
X133714286Y-87328571D01*
X133742857Y-87385714D01*
X133771429Y-87500000D01*
X133771429Y-87642857D01*
X133742857Y-87757143D01*
X133714286Y-87814286D01*
X133685715Y-87842857D01*
X133628572Y-87871429D01*
X133571429Y-87871429D01*
X133514286Y-87842857D01*
X133485715Y-87814286D01*
X133457143Y-87757143D01*
X133428572Y-87642857D01*
X133428572Y-87500000D01*
X133457143Y-87385714D01*
X133485715Y-87328571D01*
X133514286Y-87300000D01*
X133571429Y-87271429D01*
X134028572Y-87814286D02*
X134057144Y-87842857D01*
X134028572Y-87871429D01*
X134000001Y-87842857D01*
X134028572Y-87814286D01*
X134028572Y-87871429D01*
X134628572Y-87871429D02*
X134285715Y-87871429D01*
X134457143Y-87871429D02*
X134457143Y-87271429D01*
X134400000Y-87357143D01*
X134342858Y-87414286D01*
X134285715Y-87442857D01*
X135142858Y-87471429D02*
X135142858Y-87871429D01*
X134885715Y-87471429D02*
X134885715Y-87785714D01*
X134914287Y-87842857D01*
X134971429Y-87871429D01*
X135057144Y-87871429D01*
X135114287Y-87842857D01*
X135142858Y-87814286D01*
X136500000Y-89414286D02*
X136471429Y-89442857D01*
X136385715Y-89471429D01*
X136328572Y-89471429D01*
X136242857Y-89442857D01*
X136185715Y-89385714D01*
X136157143Y-89328571D01*
X136128572Y-89214286D01*
X136128572Y-89128571D01*
X136157143Y-89014286D01*
X136185715Y-88957143D01*
X136242857Y-88900000D01*
X136328572Y-88871429D01*
X136385715Y-88871429D01*
X136471429Y-88900000D01*
X136500000Y-88928571D01*
X136842857Y-89128571D02*
X136785715Y-89100000D01*
X136757143Y-89071429D01*
X136728572Y-89014286D01*
X136728572Y-88985714D01*
X136757143Y-88928571D01*
X136785715Y-88900000D01*
X136842857Y-88871429D01*
X136957143Y-88871429D01*
X137014286Y-88900000D01*
X137042857Y-88928571D01*
X137071429Y-88985714D01*
X137071429Y-89014286D01*
X137042857Y-89071429D01*
X137014286Y-89100000D01*
X136957143Y-89128571D01*
X136842857Y-89128571D01*
X136785715Y-89157143D01*
X136757143Y-89185714D01*
X136728572Y-89242857D01*
X136728572Y-89357143D01*
X136757143Y-89414286D01*
X136785715Y-89442857D01*
X136842857Y-89471429D01*
X136957143Y-89471429D01*
X137014286Y-89442857D01*
X137042857Y-89414286D01*
X137071429Y-89357143D01*
X137071429Y-89242857D01*
X137042857Y-89185714D01*
X137014286Y-89157143D01*
X136957143Y-89128571D01*
X133571429Y-88771429D02*
X133628572Y-88771429D01*
X133685715Y-88800000D01*
X133714286Y-88828571D01*
X133742857Y-88885714D01*
X133771429Y-89000000D01*
X133771429Y-89142857D01*
X133742857Y-89257143D01*
X133714286Y-89314286D01*
X133685715Y-89342857D01*
X133628572Y-89371429D01*
X133571429Y-89371429D01*
X133514286Y-89342857D01*
X133485715Y-89314286D01*
X133457143Y-89257143D01*
X133428572Y-89142857D01*
X133428572Y-89000000D01*
X133457143Y-88885714D01*
X133485715Y-88828571D01*
X133514286Y-88800000D01*
X133571429Y-88771429D01*
X134028572Y-89314286D02*
X134057144Y-89342857D01*
X134028572Y-89371429D01*
X134000001Y-89342857D01*
X134028572Y-89314286D01*
X134028572Y-89371429D01*
X134628572Y-89371429D02*
X134285715Y-89371429D01*
X134457143Y-89371429D02*
X134457143Y-88771429D01*
X134400000Y-88857143D01*
X134342858Y-88914286D01*
X134285715Y-88942857D01*
X135142858Y-88971429D02*
X135142858Y-89371429D01*
X134885715Y-88971429D02*
X134885715Y-89285714D01*
X134914287Y-89342857D01*
X134971429Y-89371429D01*
X135057144Y-89371429D01*
X135114287Y-89342857D01*
X135142858Y-89314286D01*
X139914286Y-81800000D02*
X139942857Y-81828571D01*
X139971429Y-81914285D01*
X139971429Y-81971428D01*
X139942857Y-82057143D01*
X139885714Y-82114285D01*
X139828571Y-82142857D01*
X139714286Y-82171428D01*
X139628571Y-82171428D01*
X139514286Y-82142857D01*
X139457143Y-82114285D01*
X139400000Y-82057143D01*
X139371429Y-81971428D01*
X139371429Y-81914285D01*
X139400000Y-81828571D01*
X139428571Y-81800000D01*
X139971429Y-81514285D02*
X139971429Y-81400000D01*
X139942857Y-81342857D01*
X139914286Y-81314285D01*
X139828571Y-81257143D01*
X139714286Y-81228571D01*
X139485714Y-81228571D01*
X139428571Y-81257143D01*
X139400000Y-81285714D01*
X139371429Y-81342857D01*
X139371429Y-81457143D01*
X139400000Y-81514285D01*
X139428571Y-81542857D01*
X139485714Y-81571428D01*
X139628571Y-81571428D01*
X139685714Y-81542857D01*
X139714286Y-81514285D01*
X139742857Y-81457143D01*
X139742857Y-81342857D01*
X139714286Y-81285714D01*
X139685714Y-81257143D01*
X139628571Y-81228571D01*
X139571429Y-85042857D02*
X139971429Y-85042857D01*
X139342857Y-85185714D02*
X139771429Y-85328571D01*
X139771429Y-84957143D01*
X139371429Y-84785714D02*
X139371429Y-84385714D01*
X139971429Y-84642857D01*
X139571429Y-83899999D02*
X139971429Y-83899999D01*
X139571429Y-84157142D02*
X139885714Y-84157142D01*
X139942857Y-84128570D01*
X139971429Y-84071428D01*
X139971429Y-83985713D01*
X139942857Y-83928570D01*
X139914286Y-83899999D01*
X137714286Y-82085715D02*
X137742857Y-82114286D01*
X137771429Y-82200000D01*
X137771429Y-82257143D01*
X137742857Y-82342858D01*
X137685714Y-82400000D01*
X137628571Y-82428572D01*
X137514286Y-82457143D01*
X137428571Y-82457143D01*
X137314286Y-82428572D01*
X137257143Y-82400000D01*
X137200000Y-82342858D01*
X137171429Y-82257143D01*
X137171429Y-82200000D01*
X137200000Y-82114286D01*
X137228571Y-82085715D01*
X137771429Y-81514286D02*
X137771429Y-81857143D01*
X137771429Y-81685715D02*
X137171429Y-81685715D01*
X137257143Y-81742858D01*
X137314286Y-81800000D01*
X137342857Y-81857143D01*
X137171429Y-81142857D02*
X137171429Y-81085714D01*
X137200000Y-81028571D01*
X137228571Y-81000000D01*
X137285714Y-80971429D01*
X137400000Y-80942857D01*
X137542857Y-80942857D01*
X137657143Y-80971429D01*
X137714286Y-81000000D01*
X137742857Y-81028571D01*
X137771429Y-81085714D01*
X137771429Y-81142857D01*
X137742857Y-81200000D01*
X137714286Y-81228571D01*
X137657143Y-81257143D01*
X137542857Y-81285714D01*
X137400000Y-81285714D01*
X137285714Y-81257143D01*
X137228571Y-81228571D01*
X137200000Y-81200000D01*
X137171429Y-81142857D01*
X138271429Y-85142857D02*
X138671429Y-85142857D01*
X138042857Y-85285714D02*
X138471429Y-85428571D01*
X138471429Y-85057143D01*
X138071429Y-84885714D02*
X138071429Y-84485714D01*
X138671429Y-84742857D01*
X138271429Y-83999999D02*
X138671429Y-83999999D01*
X138271429Y-84257142D02*
X138585714Y-84257142D01*
X138642857Y-84228570D01*
X138671429Y-84171428D01*
X138671429Y-84085713D01*
X138642857Y-84028570D01*
X138614286Y-83999999D01*
X142557143Y-93371429D02*
X142557143Y-92771429D01*
X142700000Y-92771429D01*
X142785715Y-92800000D01*
X142842857Y-92857143D01*
X142871429Y-92914286D01*
X142900000Y-93028571D01*
X142900000Y-93114286D01*
X142871429Y-93228571D01*
X142842857Y-93285714D01*
X142785715Y-93342857D01*
X142700000Y-93371429D01*
X142557143Y-93371429D01*
X143471429Y-93371429D02*
X143128572Y-93371429D01*
X143300000Y-93371429D02*
X143300000Y-92771429D01*
X143242857Y-92857143D01*
X143185715Y-92914286D01*
X143128572Y-92942857D01*
X138914286Y-94071429D02*
X138628572Y-94071429D01*
X138628572Y-93471429D01*
X139114286Y-93757143D02*
X139314286Y-93757143D01*
X139400000Y-94071429D02*
X139114286Y-94071429D01*
X139114286Y-93471429D01*
X139400000Y-93471429D01*
X139657143Y-94071429D02*
X139657143Y-93471429D01*
X139800000Y-93471429D01*
X139885715Y-93500000D01*
X139942857Y-93557143D01*
X139971429Y-93614286D01*
X140000000Y-93728571D01*
X140000000Y-93814286D01*
X139971429Y-93928571D01*
X139942857Y-93985714D01*
X139885715Y-94042857D01*
X139800000Y-94071429D01*
X139657143Y-94071429D01*
D12*
X134571175Y-82542443D02*
X133971735Y-82542443D01*
X133971735Y-82399719D01*
X134000280Y-82314085D01*
X134057370Y-82256996D01*
X134114459Y-82228451D01*
X134228638Y-82199906D01*
X134314272Y-82199906D01*
X134428451Y-82228451D01*
X134485541Y-82256996D01*
X134542630Y-82314085D01*
X134571175Y-82399719D01*
X134571175Y-82542443D01*
X134028825Y-81971548D02*
X134000280Y-81943003D01*
X133971735Y-81885914D01*
X133971735Y-81743190D01*
X134000280Y-81686100D01*
X134028825Y-81657556D01*
X134085914Y-81629011D01*
X134143004Y-81629011D01*
X134228638Y-81657556D01*
X134571175Y-82000093D01*
X134571175Y-81629011D01*
X134058677Y-84557183D02*
X134144311Y-84585728D01*
X134172856Y-84614272D01*
X134201401Y-84671362D01*
X134201401Y-84756996D01*
X134172856Y-84814086D01*
X134144311Y-84842630D01*
X134087222Y-84871175D01*
X133858864Y-84871175D01*
X133858864Y-84271735D01*
X134058677Y-84271735D01*
X134115767Y-84300280D01*
X134144311Y-84328825D01*
X134172856Y-84385914D01*
X134172856Y-84443004D01*
X134144311Y-84500093D01*
X134115767Y-84528638D01*
X134058677Y-84557183D01*
X133858864Y-84557183D01*
X134429759Y-84699907D02*
X134715207Y-84699907D01*
X134372670Y-84871175D02*
X134572483Y-84271735D01*
X134772296Y-84871175D01*
X134886476Y-84271735D02*
X135229013Y-84271735D01*
X135057744Y-84871175D02*
X135057744Y-84271735D01*
X135714273Y-84271735D02*
X135428826Y-84271735D01*
X135400281Y-84557183D01*
X135428826Y-84528638D01*
X135485915Y-84500093D01*
X135628639Y-84500093D01*
X135685729Y-84528638D01*
X135714273Y-84557183D01*
X135742818Y-84614272D01*
X135742818Y-84756996D01*
X135714273Y-84814086D01*
X135685729Y-84842630D01*
X135628639Y-84871175D01*
X135485915Y-84871175D01*
X135428826Y-84842630D01*
X135400281Y-84814086D01*
X136256624Y-84471549D02*
X136256624Y-84871175D01*
X136113900Y-84243190D02*
X135971176Y-84671362D01*
X136342258Y-84671362D01*
X136513526Y-84271735D02*
X136656250Y-84871175D01*
X136770429Y-84443004D01*
X136884608Y-84871175D01*
X137027332Y-84271735D01*
X137227145Y-84842630D02*
X137312779Y-84871175D01*
X137455503Y-84871175D01*
X137512593Y-84842630D01*
X137541137Y-84814086D01*
X137569682Y-84756996D01*
X137569682Y-84699907D01*
X137541137Y-84642817D01*
X137512593Y-84614272D01*
X137455503Y-84585728D01*
X137341324Y-84557183D01*
X137284235Y-84528638D01*
X137255690Y-84500093D01*
X137227145Y-84443004D01*
X137227145Y-84385914D01*
X137255690Y-84328825D01*
X137284235Y-84300280D01*
X137341324Y-84271735D01*
X137484048Y-84271735D01*
X137569682Y-84300280D01*
D11*
X150257143Y-82171429D02*
X150257143Y-81571429D01*
X150400000Y-81571429D01*
X150485715Y-81600000D01*
X150542857Y-81657143D01*
X150571429Y-81714286D01*
X150600000Y-81828571D01*
X150600000Y-81914286D01*
X150571429Y-82028571D01*
X150542857Y-82085714D01*
X150485715Y-82142857D01*
X150400000Y-82171429D01*
X150257143Y-82171429D01*
X150800000Y-81571429D02*
X151171429Y-81571429D01*
X150971429Y-81800000D01*
X151057143Y-81800000D01*
X151114286Y-81828571D01*
X151142857Y-81857143D01*
X151171429Y-81914286D01*
X151171429Y-82057143D01*
X151142857Y-82114286D01*
X151114286Y-82142857D01*
X151057143Y-82171429D01*
X150885715Y-82171429D01*
X150828572Y-82142857D01*
X150800000Y-82114286D01*
X146314286Y-80371429D02*
X146028572Y-80371429D01*
X146028572Y-79771429D01*
X146514286Y-80057143D02*
X146714286Y-80057143D01*
X146800000Y-80371429D02*
X146514286Y-80371429D01*
X146514286Y-79771429D01*
X146800000Y-79771429D01*
X147057143Y-80371429D02*
X147057143Y-79771429D01*
X147200000Y-79771429D01*
X147285715Y-79800000D01*
X147342857Y-79857143D01*
X147371429Y-79914286D01*
X147400000Y-80028571D01*
X147400000Y-80114286D01*
X147371429Y-80228571D01*
X147342857Y-80285714D01*
X147285715Y-80342857D01*
X147200000Y-80371429D01*
X147057143Y-80371429D01*
X130557143Y-81871429D02*
X130557143Y-81271429D01*
X130700000Y-81271429D01*
X130785715Y-81300000D01*
X130842857Y-81357143D01*
X130871429Y-81414286D01*
X130900000Y-81528571D01*
X130900000Y-81614286D01*
X130871429Y-81728571D01*
X130842857Y-81785714D01*
X130785715Y-81842857D01*
X130700000Y-81871429D01*
X130557143Y-81871429D01*
X131414286Y-81471429D02*
X131414286Y-81871429D01*
X131271429Y-81242857D02*
X131128572Y-81671429D01*
X131500000Y-81671429D01*
X127771429Y-81185714D02*
X127771429Y-81471428D01*
X127171429Y-81471428D01*
X127457143Y-80985714D02*
X127457143Y-80785714D01*
X127771429Y-80700000D02*
X127771429Y-80985714D01*
X127171429Y-80985714D01*
X127171429Y-80700000D01*
X127771429Y-80442857D02*
X127171429Y-80442857D01*
X127171429Y-80300000D01*
X127200000Y-80214285D01*
X127257143Y-80157143D01*
X127314286Y-80128571D01*
X127428571Y-80100000D01*
X127514286Y-80100000D01*
X127628571Y-80128571D01*
X127685714Y-80157143D01*
X127742857Y-80214285D01*
X127771429Y-80300000D01*
X127771429Y-80442857D01*
D12*
X129551809Y-87838062D02*
X129551809Y-87203062D01*
X129703000Y-87203062D01*
X129793714Y-87233300D01*
X129854190Y-87293776D01*
X129884429Y-87354252D01*
X129914667Y-87475205D01*
X129914667Y-87565919D01*
X129884429Y-87686871D01*
X129854190Y-87747348D01*
X129793714Y-87807824D01*
X129703000Y-87838062D01*
X129551809Y-87838062D01*
X130186809Y-87838062D02*
X130186809Y-87203062D01*
X130338000Y-87203062D01*
X130428714Y-87233300D01*
X130489190Y-87293776D01*
X130519429Y-87354252D01*
X130549667Y-87475205D01*
X130549667Y-87565919D01*
X130519429Y-87686871D01*
X130489190Y-87747348D01*
X130428714Y-87807824D01*
X130338000Y-87838062D01*
X130186809Y-87838062D01*
X131154429Y-87838062D02*
X130791571Y-87838062D01*
X130973000Y-87838062D02*
X130973000Y-87203062D01*
X130912524Y-87293776D01*
X130852048Y-87354252D01*
X130791571Y-87384490D01*
X126811190Y-84487262D02*
X126811190Y-83852262D01*
X127022857Y-84305833D01*
X127234524Y-83852262D01*
X127234524Y-84487262D01*
X127536904Y-84487262D02*
X127536904Y-83852262D01*
X127748571Y-84305833D01*
X127960238Y-83852262D01*
X127960238Y-84487262D01*
X128232380Y-84305833D02*
X128534761Y-84305833D01*
X128171904Y-84487262D02*
X128383571Y-83852262D01*
X128595238Y-84487262D01*
X128897619Y-84124405D02*
X128837143Y-84094167D01*
X128806904Y-84063929D01*
X128776666Y-84003452D01*
X128776666Y-83973214D01*
X128806904Y-83912738D01*
X128837143Y-83882500D01*
X128897619Y-83852262D01*
X129018571Y-83852262D01*
X129079047Y-83882500D01*
X129109285Y-83912738D01*
X129139524Y-83973214D01*
X129139524Y-84003452D01*
X129109285Y-84063929D01*
X129079047Y-84094167D01*
X129018571Y-84124405D01*
X128897619Y-84124405D01*
X128837143Y-84154643D01*
X128806904Y-84184881D01*
X128776666Y-84245357D01*
X128776666Y-84366310D01*
X128806904Y-84426786D01*
X128837143Y-84457024D01*
X128897619Y-84487262D01*
X129018571Y-84487262D01*
X129079047Y-84457024D01*
X129109285Y-84426786D01*
X129139524Y-84366310D01*
X129139524Y-84245357D01*
X129109285Y-84184881D01*
X129079047Y-84154643D01*
X129018571Y-84124405D01*
X129683809Y-84063929D02*
X129683809Y-84487262D01*
X129532619Y-83822024D02*
X129381428Y-84275595D01*
X129774524Y-84275595D01*
X130318809Y-83852262D02*
X130016428Y-83852262D01*
X129986190Y-84154643D01*
X130016428Y-84124405D01*
X130076905Y-84094167D01*
X130228095Y-84094167D01*
X130288571Y-84124405D01*
X130318809Y-84154643D01*
X130349048Y-84215119D01*
X130349048Y-84366310D01*
X130318809Y-84426786D01*
X130288571Y-84457024D01*
X130228095Y-84487262D01*
X130076905Y-84487262D01*
X130016428Y-84457024D01*
X129986190Y-84426786D01*
X130590952Y-83912738D02*
X130621190Y-83882500D01*
X130681667Y-83852262D01*
X130832857Y-83852262D01*
X130893333Y-83882500D01*
X130923571Y-83912738D01*
X130953810Y-83973214D01*
X130953810Y-84033690D01*
X130923571Y-84124405D01*
X130560714Y-84487262D01*
X130953810Y-84487262D01*
X131649286Y-84547738D02*
X131588810Y-84517500D01*
X131528333Y-84457024D01*
X131437619Y-84366310D01*
X131377143Y-84336071D01*
X131316667Y-84336071D01*
X131346905Y-84487262D02*
X131286429Y-84457024D01*
X131225952Y-84396548D01*
X131195714Y-84275595D01*
X131195714Y-84063929D01*
X131225952Y-83942976D01*
X131286429Y-83882500D01*
X131346905Y-83852262D01*
X131467857Y-83852262D01*
X131528333Y-83882500D01*
X131588810Y-83942976D01*
X131619048Y-84063929D01*
X131619048Y-84275595D01*
X131588810Y-84396548D01*
X131528333Y-84457024D01*
X131467857Y-84487262D01*
X131346905Y-84487262D01*
D11*
X143128571Y-82157143D02*
X143100000Y-82214286D01*
X143042857Y-82271429D01*
X142957143Y-82357143D01*
X142928571Y-82414286D01*
X142928571Y-82471429D01*
X143071429Y-82442857D02*
X143042857Y-82500000D01*
X142985714Y-82557143D01*
X142871429Y-82585714D01*
X142671429Y-82585714D01*
X142557143Y-82557143D01*
X142500000Y-82500000D01*
X142471429Y-82442857D01*
X142471429Y-82328571D01*
X142500000Y-82271429D01*
X142557143Y-82214286D01*
X142671429Y-82185714D01*
X142871429Y-82185714D01*
X142985714Y-82214286D01*
X143042857Y-82271429D01*
X143071429Y-82328571D01*
X143071429Y-82442857D01*
X143071429Y-81614286D02*
X143071429Y-81957143D01*
X143071429Y-81785715D02*
X142471429Y-81785715D01*
X142557143Y-81842858D01*
X142614286Y-81900000D01*
X142642857Y-81957143D01*
D12*
X145271175Y-84612218D02*
X144671735Y-84612218D01*
X145099907Y-84412405D01*
X144671735Y-84212592D01*
X145271175Y-84212592D01*
X145271175Y-83927144D02*
X144671735Y-83927144D01*
X145099907Y-83727331D01*
X144671735Y-83527518D01*
X145271175Y-83527518D01*
X144957183Y-83042257D02*
X144985728Y-82956623D01*
X145014272Y-82928078D01*
X145071362Y-82899533D01*
X145156996Y-82899533D01*
X145214086Y-82928078D01*
X145242630Y-82956623D01*
X145271175Y-83013712D01*
X145271175Y-83242070D01*
X144671735Y-83242070D01*
X144671735Y-83042257D01*
X144700280Y-82985167D01*
X144728825Y-82956623D01*
X144785914Y-82928078D01*
X144843004Y-82928078D01*
X144900093Y-82956623D01*
X144928638Y-82985167D01*
X144957183Y-83042257D01*
X144957183Y-83242070D01*
X144671735Y-82728264D02*
X144671735Y-82385727D01*
X145271175Y-82556996D02*
X144671735Y-82556996D01*
X144728825Y-82214459D02*
X144700280Y-82185914D01*
X144671735Y-82128825D01*
X144671735Y-81986101D01*
X144700280Y-81929011D01*
X144728825Y-81900467D01*
X144785914Y-81871922D01*
X144843004Y-81871922D01*
X144928638Y-81900467D01*
X145271175Y-82243004D01*
X145271175Y-81871922D01*
X144728825Y-81643564D02*
X144700280Y-81615019D01*
X144671735Y-81557930D01*
X144671735Y-81415206D01*
X144700280Y-81358116D01*
X144728825Y-81329572D01*
X144785914Y-81301027D01*
X144843004Y-81301027D01*
X144928638Y-81329572D01*
X145271175Y-81672109D01*
X145271175Y-81301027D01*
X144728825Y-81072669D02*
X144700280Y-81044124D01*
X144671735Y-80987035D01*
X144671735Y-80844311D01*
X144700280Y-80787221D01*
X144728825Y-80758677D01*
X144785914Y-80730132D01*
X144843004Y-80730132D01*
X144928638Y-80758677D01*
X145271175Y-81101214D01*
X145271175Y-80730132D01*
X144728825Y-80501774D02*
X144700280Y-80473229D01*
X144671735Y-80416140D01*
X144671735Y-80273416D01*
X144700280Y-80216326D01*
X144728825Y-80187782D01*
X144785914Y-80159237D01*
X144843004Y-80159237D01*
X144928638Y-80187782D01*
X145271175Y-80530319D01*
X145271175Y-80159237D01*
D11*
X131571429Y-91700000D02*
X131285714Y-91900000D01*
X131571429Y-92042857D02*
X130971429Y-92042857D01*
X130971429Y-91814285D01*
X131000000Y-91757143D01*
X131028571Y-91728571D01*
X131085714Y-91700000D01*
X131171429Y-91700000D01*
X131228571Y-91728571D01*
X131257143Y-91757143D01*
X131285714Y-91814285D01*
X131285714Y-92042857D01*
X131571429Y-91128571D02*
X131571429Y-91471428D01*
X131571429Y-91300000D02*
X130971429Y-91300000D01*
X131057143Y-91357143D01*
X131114286Y-91414285D01*
X131142857Y-91471428D01*
X132271429Y-92014286D02*
X132671429Y-92014286D01*
X132042857Y-92157143D02*
X132471429Y-92300000D01*
X132471429Y-91928572D01*
X132671429Y-91700000D02*
X132071429Y-91700000D01*
X132442857Y-91642857D02*
X132671429Y-91471428D01*
X132271429Y-91471428D02*
X132500000Y-91700000D01*
X132071429Y-91271429D02*
X132071429Y-90871429D01*
X132671429Y-91128572D01*
X134071429Y-91000000D02*
X133785714Y-91200000D01*
X134071429Y-91342857D02*
X133471429Y-91342857D01*
X133471429Y-91114285D01*
X133500000Y-91057143D01*
X133528571Y-91028571D01*
X133585714Y-91000000D01*
X133671429Y-91000000D01*
X133728571Y-91028571D01*
X133757143Y-91057143D01*
X133785714Y-91114285D01*
X133785714Y-91342857D01*
X133528571Y-90771428D02*
X133500000Y-90742857D01*
X133471429Y-90685714D01*
X133471429Y-90542857D01*
X133500000Y-90485714D01*
X133528571Y-90457143D01*
X133585714Y-90428571D01*
X133642857Y-90428571D01*
X133728571Y-90457143D01*
X134071429Y-90800000D01*
X134071429Y-90428571D01*
X134871429Y-91314286D02*
X135271429Y-91314286D01*
X134642857Y-91457143D02*
X135071429Y-91600000D01*
X135071429Y-91228572D01*
X135271429Y-91000000D02*
X134671429Y-91000000D01*
X135042857Y-90942857D02*
X135271429Y-90771428D01*
X134871429Y-90771428D02*
X135100000Y-91000000D01*
X134671429Y-90571429D02*
X134671429Y-90171429D01*
X135271429Y-90428572D01*
X141100000Y-93571429D02*
X140900000Y-93285714D01*
X140757143Y-93571429D02*
X140757143Y-92971429D01*
X140985715Y-92971429D01*
X141042857Y-93000000D01*
X141071429Y-93028571D01*
X141100000Y-93085714D01*
X141100000Y-93171429D01*
X141071429Y-93228571D01*
X141042857Y-93257143D01*
X140985715Y-93285714D01*
X140757143Y-93285714D01*
X141300000Y-92971429D02*
X141671429Y-92971429D01*
X141471429Y-93200000D01*
X141557143Y-93200000D01*
X141614286Y-93228571D01*
X141642857Y-93257143D01*
X141671429Y-93314286D01*
X141671429Y-93457143D01*
X141642857Y-93514286D01*
X141614286Y-93542857D01*
X141557143Y-93571429D01*
X141385715Y-93571429D01*
X141328572Y-93542857D01*
X141300000Y-93514286D01*
X140769042Y-91755629D02*
X140483328Y-91755629D01*
X140454757Y-92041343D01*
X140483328Y-92012771D01*
X140540471Y-91984200D01*
X140683328Y-91984200D01*
X140740471Y-92012771D01*
X140769042Y-92041343D01*
X140797614Y-92098486D01*
X140797614Y-92241343D01*
X140769042Y-92298486D01*
X140740471Y-92327057D01*
X140683328Y-92355629D01*
X140540471Y-92355629D01*
X140483328Y-92327057D01*
X140454757Y-92298486D01*
X141369043Y-92355629D02*
X141026186Y-92355629D01*
X141197614Y-92355629D02*
X141197614Y-91755629D01*
X141140471Y-91841343D01*
X141083329Y-91898486D01*
X141026186Y-91927057D01*
X141969043Y-92355629D02*
X141769043Y-92069914D01*
X141626186Y-92355629D02*
X141626186Y-91755629D01*
X141854758Y-91755629D01*
X141911900Y-91784200D01*
X141940472Y-91812771D01*
X141969043Y-91869914D01*
X141969043Y-91955629D01*
X141940472Y-92012771D01*
X141911900Y-92041343D01*
X141854758Y-92069914D01*
X141626186Y-92069914D01*
X142100000Y-84971429D02*
X141900000Y-84685714D01*
X141757143Y-84971429D02*
X141757143Y-84371429D01*
X141985715Y-84371429D01*
X142042857Y-84400000D01*
X142071429Y-84428571D01*
X142100000Y-84485714D01*
X142100000Y-84571429D01*
X142071429Y-84628571D01*
X142042857Y-84657143D01*
X141985715Y-84685714D01*
X141757143Y-84685714D01*
X142614286Y-84571429D02*
X142614286Y-84971429D01*
X142471429Y-84342857D02*
X142328572Y-84771429D01*
X142700000Y-84771429D01*
X143828572Y-84971429D02*
X143485715Y-84971429D01*
X143657143Y-84971429D02*
X143657143Y-84371429D01*
X143600000Y-84457143D01*
X143542858Y-84514286D01*
X143485715Y-84542857D01*
X144085715Y-84971429D02*
X144085715Y-84371429D01*
X144142858Y-84742857D02*
X144314287Y-84971429D01*
X144314287Y-84571429D02*
X144085715Y-84800000D01*
X148900000Y-82171429D02*
X148700000Y-81885714D01*
X148557143Y-82171429D02*
X148557143Y-81571429D01*
X148785715Y-81571429D01*
X148842857Y-81600000D01*
X148871429Y-81628571D01*
X148900000Y-81685714D01*
X148900000Y-81771429D01*
X148871429Y-81828571D01*
X148842857Y-81857143D01*
X148785715Y-81885714D01*
X148557143Y-81885714D01*
X149442857Y-81571429D02*
X149157143Y-81571429D01*
X149128572Y-81857143D01*
X149157143Y-81828571D01*
X149214286Y-81800000D01*
X149357143Y-81800000D01*
X149414286Y-81828571D01*
X149442857Y-81857143D01*
X149471429Y-81914286D01*
X149471429Y-82057143D01*
X149442857Y-82114286D01*
X149414286Y-82142857D01*
X149357143Y-82171429D01*
X149214286Y-82171429D01*
X149157143Y-82142857D01*
X149128572Y-82114286D01*
X148557142Y-82771429D02*
X148271428Y-82771429D01*
X148242857Y-83057143D01*
X148271428Y-83028571D01*
X148328571Y-83000000D01*
X148471428Y-83000000D01*
X148528571Y-83028571D01*
X148557142Y-83057143D01*
X148585714Y-83114286D01*
X148585714Y-83257143D01*
X148557142Y-83314286D01*
X148528571Y-83342857D01*
X148471428Y-83371429D01*
X148328571Y-83371429D01*
X148271428Y-83342857D01*
X148242857Y-83314286D01*
X149157143Y-83371429D02*
X148814286Y-83371429D01*
X148985714Y-83371429D02*
X148985714Y-82771429D01*
X148928571Y-82857143D01*
X148871429Y-82914286D01*
X148814286Y-82942857D01*
X149757143Y-83371429D02*
X149557143Y-83085714D01*
X149414286Y-83371429D02*
X149414286Y-82771429D01*
X149642858Y-82771429D01*
X149700000Y-82800000D01*
X149728572Y-82828571D01*
X149757143Y-82885714D01*
X149757143Y-82971429D01*
X149728572Y-83028571D01*
X149700000Y-83057143D01*
X149642858Y-83085714D01*
X149414286Y-83085714D01*
X129200000Y-82271429D02*
X129000000Y-81985714D01*
X128857143Y-82271429D02*
X128857143Y-81671429D01*
X129085715Y-81671429D01*
X129142857Y-81700000D01*
X129171429Y-81728571D01*
X129200000Y-81785714D01*
X129200000Y-81871429D01*
X129171429Y-81928571D01*
X129142857Y-81957143D01*
X129085715Y-81985714D01*
X128857143Y-81985714D01*
X129714286Y-81671429D02*
X129600000Y-81671429D01*
X129542857Y-81700000D01*
X129514286Y-81728571D01*
X129457143Y-81814286D01*
X129428572Y-81928571D01*
X129428572Y-82157143D01*
X129457143Y-82214286D01*
X129485715Y-82242857D01*
X129542857Y-82271429D01*
X129657143Y-82271429D01*
X129714286Y-82242857D01*
X129742857Y-82214286D01*
X129771429Y-82157143D01*
X129771429Y-82014286D01*
X129742857Y-81957143D01*
X129714286Y-81928571D01*
X129657143Y-81900000D01*
X129542857Y-81900000D01*
X129485715Y-81928571D01*
X129457143Y-81957143D01*
X129428572Y-82014286D01*
X128726042Y-82784729D02*
X128440328Y-82784729D01*
X128411757Y-83070443D01*
X128440328Y-83041871D01*
X128497471Y-83013300D01*
X128640328Y-83013300D01*
X128697471Y-83041871D01*
X128726042Y-83070443D01*
X128754614Y-83127586D01*
X128754614Y-83270443D01*
X128726042Y-83327586D01*
X128697471Y-83356157D01*
X128640328Y-83384729D01*
X128497471Y-83384729D01*
X128440328Y-83356157D01*
X128411757Y-83327586D01*
X129326043Y-83384729D02*
X128983186Y-83384729D01*
X129154614Y-83384729D02*
X129154614Y-82784729D01*
X129097471Y-82870443D01*
X129040329Y-82927586D01*
X128983186Y-82956157D01*
X129926043Y-83384729D02*
X129726043Y-83099014D01*
X129583186Y-83384729D02*
X129583186Y-82784729D01*
X129811758Y-82784729D01*
X129868900Y-82813300D01*
X129897472Y-82841871D01*
X129926043Y-82899014D01*
X129926043Y-82984729D01*
X129897472Y-83041871D01*
X129868900Y-83070443D01*
X129811758Y-83099014D01*
X129583186Y-83099014D01*
X131871429Y-82728572D02*
X132471429Y-82328572D01*
X131871429Y-82328572D02*
X132471429Y-82728572D01*
X132471429Y-81814286D02*
X132471429Y-82100000D01*
X131871429Y-82100000D01*
X131871429Y-81671429D02*
X131871429Y-81300000D01*
X132100000Y-81500000D01*
X132100000Y-81414286D01*
X132128571Y-81357143D01*
X132157143Y-81328572D01*
X132214286Y-81300000D01*
X132357143Y-81300000D01*
X132414286Y-81328572D01*
X132442857Y-81357143D01*
X132471429Y-81414286D01*
X132471429Y-81585714D01*
X132442857Y-81642857D01*
X132414286Y-81671429D01*
X126171428Y-92871429D02*
X126571428Y-93471429D01*
X126571428Y-92871429D02*
X126171428Y-93471429D01*
X127085714Y-93471429D02*
X126800000Y-93471429D01*
X126800000Y-92871429D01*
X127600000Y-93471429D02*
X127257143Y-93471429D01*
X127428571Y-93471429D02*
X127428571Y-92871429D01*
X127371428Y-92957143D01*
X127314286Y-93014286D01*
X127257143Y-93042857D01*
X127759115Y-95149781D02*
X127187686Y-95149781D01*
X127473400Y-95149781D02*
X127473400Y-94149781D01*
X127378162Y-94292638D01*
X127282924Y-94387876D01*
X127187686Y-94435495D01*
X144253488Y-92554809D02*
X144653488Y-93154809D01*
X144653488Y-92554809D02*
X144253488Y-93154809D01*
X145167774Y-93154809D02*
X144882060Y-93154809D01*
X144882060Y-92554809D01*
X145624917Y-92754809D02*
X145624917Y-93154809D01*
X145482060Y-92526237D02*
X145339203Y-92954809D01*
X145710631Y-92954809D01*
X143206815Y-95184881D02*
X142635386Y-95184881D01*
X142921100Y-95184881D02*
X142921100Y-94184881D01*
X142825862Y-94327738D01*
X142730624Y-94422976D01*
X142635386Y-94470595D01*
X140057143Y-88971429D02*
X140057143Y-88371429D01*
X140200000Y-88371429D01*
X140285715Y-88400000D01*
X140342857Y-88457143D01*
X140371429Y-88514286D01*
X140400000Y-88628571D01*
X140400000Y-88714286D01*
X140371429Y-88828571D01*
X140342857Y-88885714D01*
X140285715Y-88942857D01*
X140200000Y-88971429D01*
X140057143Y-88971429D01*
X140657143Y-88971429D02*
X140657143Y-88371429D01*
X140800000Y-88371429D01*
X140885715Y-88400000D01*
X140942857Y-88457143D01*
X140971429Y-88514286D01*
X141000000Y-88628571D01*
X141000000Y-88714286D01*
X140971429Y-88828571D01*
X140942857Y-88885714D01*
X140885715Y-88942857D01*
X140800000Y-88971429D01*
X140657143Y-88971429D01*
X141228572Y-88428571D02*
X141257143Y-88400000D01*
X141314286Y-88371429D01*
X141457143Y-88371429D01*
X141514286Y-88400000D01*
X141542857Y-88428571D01*
X141571429Y-88485714D01*
X141571429Y-88542857D01*
X141542857Y-88628571D01*
X141200000Y-88971429D01*
X141571429Y-88971429D01*
X143485713Y-86642857D02*
X143571427Y-86671429D01*
X143714284Y-86671429D01*
X143771427Y-86642857D01*
X143799998Y-86614286D01*
X143828570Y-86557143D01*
X143828570Y-86500000D01*
X143799998Y-86442857D01*
X143771427Y-86414286D01*
X143714284Y-86385714D01*
X143599998Y-86357143D01*
X143542856Y-86328571D01*
X143514284Y-86300000D01*
X143485713Y-86242857D01*
X143485713Y-86185714D01*
X143514284Y-86128571D01*
X143542856Y-86100000D01*
X143599998Y-86071429D01*
X143742856Y-86071429D01*
X143828570Y-86100000D01*
X143999999Y-86071429D02*
X144342856Y-86071429D01*
X144171427Y-86671429D02*
X144171427Y-86071429D01*
X144542856Y-86671429D02*
X144542856Y-86071429D01*
X144742856Y-86500000D01*
X144942856Y-86071429D01*
X144942856Y-86671429D01*
X145171427Y-86071429D02*
X145542856Y-86071429D01*
X145342856Y-86300000D01*
X145428570Y-86300000D01*
X145485713Y-86328571D01*
X145514284Y-86357143D01*
X145542856Y-86414286D01*
X145542856Y-86557143D01*
X145514284Y-86614286D01*
X145485713Y-86642857D01*
X145428570Y-86671429D01*
X145257142Y-86671429D01*
X145199999Y-86642857D01*
X145171427Y-86614286D01*
X145771428Y-86128571D02*
X145799999Y-86100000D01*
X145857142Y-86071429D01*
X145999999Y-86071429D01*
X146057142Y-86100000D01*
X146085713Y-86128571D01*
X146114285Y-86185714D01*
X146114285Y-86242857D01*
X146085713Y-86328571D01*
X145742856Y-86671429D01*
X146114285Y-86671429D01*
X146571428Y-86357143D02*
X146371428Y-86357143D01*
X146371428Y-86671429D02*
X146371428Y-86071429D01*
X146657142Y-86071429D01*
X147000000Y-86071429D02*
X147057143Y-86071429D01*
X147114286Y-86100000D01*
X147142857Y-86128571D01*
X147171428Y-86185714D01*
X147200000Y-86300000D01*
X147200000Y-86442857D01*
X147171428Y-86557143D01*
X147142857Y-86614286D01*
X147114286Y-86642857D01*
X147057143Y-86671429D01*
X147000000Y-86671429D01*
X146942857Y-86642857D01*
X146914286Y-86614286D01*
X146885714Y-86557143D01*
X146857143Y-86442857D01*
X146857143Y-86300000D01*
X146885714Y-86185714D01*
X146914286Y-86128571D01*
X146942857Y-86100000D01*
X147000000Y-86071429D01*
X147714286Y-86271429D02*
X147714286Y-86671429D01*
X147571429Y-86042857D02*
X147428572Y-86471429D01*
X147800000Y-86471429D01*
X148000001Y-86128571D02*
X148028572Y-86100000D01*
X148085715Y-86071429D01*
X148228572Y-86071429D01*
X148285715Y-86100000D01*
X148314286Y-86128571D01*
X148342858Y-86185714D01*
X148342858Y-86242857D01*
X148314286Y-86328571D01*
X147971429Y-86671429D01*
X148342858Y-86671429D01*
X148914287Y-86100000D02*
X148857144Y-86071429D01*
X148771430Y-86071429D01*
X148685715Y-86100000D01*
X148628573Y-86157143D01*
X148600001Y-86214286D01*
X148571430Y-86328571D01*
X148571430Y-86414286D01*
X148600001Y-86528571D01*
X148628573Y-86585714D01*
X148685715Y-86642857D01*
X148771430Y-86671429D01*
X148828573Y-86671429D01*
X148914287Y-86642857D01*
X148942858Y-86614286D01*
X148942858Y-86414286D01*
X148828573Y-86414286D01*
X149457144Y-86271429D02*
X149457144Y-86671429D01*
X149314287Y-86042857D02*
X149171430Y-86471429D01*
X149542858Y-86471429D01*
X143850729Y-90736529D02*
X143507872Y-90736529D01*
X143679300Y-90736529D02*
X143679300Y-90136529D01*
X143622157Y-90222243D01*
X143565015Y-90279386D01*
X143507872Y-90307957D01*
M02*
