G04 #@! TF.FileFunction,Copper,L1,Top,Signal*
%FSLAX46Y46*%
G04 Gerber Fmt 4.6, Leading zero omitted, Abs format (unit mm)*
G04 Created by KiCad (PCBNEW 4.0.0-rc1-stable) date 16.11.2015 3:08:45*
%MOMM*%
G01*
G04 APERTURE LIST*
%ADD10C,0.100000*%
%ADD11R,0.600000X0.600000*%
%ADD12R,1.397000X1.143000*%
%ADD13R,0.889000X1.016000*%
%ADD14R,1.000760X1.000760*%
%ADD15R,0.299720X1.198880*%
%ADD16O,0.299720X1.198880*%
%ADD17O,1.198880X0.299720*%
%ADD18R,0.914400X0.914400*%
%ADD19R,1.500000X1.500000*%
%ADD20C,1.500000*%
%ADD21R,0.400000X0.300000*%
%ADD22R,0.600000X0.300000*%
%ADD23R,0.300000X0.400000*%
%ADD24R,0.300000X0.600000*%
%ADD25R,0.150000X0.150000*%
%ADD26C,0.800000*%
%ADD27C,0.500000*%
%ADD28C,0.200000*%
%ADD29C,0.254000*%
G04 APERTURE END LIST*
D10*
D11*
X126965900Y-85178800D03*
X125965900Y-85178800D03*
X127694200Y-90624300D03*
X126694200Y-90624300D03*
X129655700Y-91130600D03*
X129655700Y-92130600D03*
X144532400Y-89289300D03*
X145532400Y-89289300D03*
X144461700Y-87763800D03*
X145461700Y-87763800D03*
X137037700Y-86193600D03*
X136037700Y-86193600D03*
X137034700Y-87659500D03*
X136034700Y-87659500D03*
X137061600Y-89192900D03*
X136061600Y-89192900D03*
D12*
X139670700Y-80697900D03*
X139670700Y-82729900D03*
X137418700Y-80689700D03*
X137418700Y-82721700D03*
D13*
X141597100Y-95055200D03*
X140073100Y-95055200D03*
D14*
X135430200Y-80573520D03*
X135430200Y-83174480D03*
D13*
X150440600Y-80110700D03*
X148916600Y-80110700D03*
X128781900Y-80165500D03*
X130305900Y-80165500D03*
D15*
X129257240Y-88711940D03*
D16*
X129757620Y-88711940D03*
X130258000Y-88711940D03*
X130758380Y-88711940D03*
X131258760Y-88711940D03*
D17*
X131759140Y-87711180D03*
X131759140Y-87210800D03*
X131759140Y-86710420D03*
D16*
X131258760Y-85709660D03*
X130758380Y-85709660D03*
X130258000Y-85709660D03*
X129757620Y-85709660D03*
X129257240Y-85709660D03*
D17*
X128756860Y-86710420D03*
X128756860Y-87210800D03*
X128756860Y-87711180D03*
D18*
X143806200Y-81221800D03*
X143806200Y-82999800D03*
X141774200Y-82110800D03*
D11*
X131253200Y-91124300D03*
X131253200Y-92124300D03*
X133714500Y-90431800D03*
X133714500Y-91431800D03*
X141711900Y-93234200D03*
X140711900Y-93234200D03*
X142659300Y-84639500D03*
X141659300Y-84639500D03*
X149444700Y-81907400D03*
X148444700Y-81907400D03*
X128668900Y-81963300D03*
X129668900Y-81963300D03*
D19*
X133141200Y-80761400D03*
D20*
X133141200Y-83301400D03*
D19*
X129473400Y-94697400D03*
D20*
X132013400Y-94697400D03*
X134553400Y-94697400D03*
X137093400Y-94697400D03*
D19*
X144921100Y-94732500D03*
D20*
X147461100Y-94732500D03*
X150001100Y-94732500D03*
D21*
X142779300Y-89965100D03*
D22*
X142679300Y-89465100D03*
X142679300Y-88965100D03*
X142679300Y-88465100D03*
X142679300Y-87965100D03*
X142679300Y-87465100D03*
D21*
X142779300Y-86965100D03*
D23*
X142279300Y-86465100D03*
D24*
X141779300Y-86565100D03*
X141279300Y-86565100D03*
X140779300Y-86565100D03*
X140279300Y-86565100D03*
X139779300Y-86565100D03*
D23*
X139279300Y-86465100D03*
D21*
X138779300Y-86965100D03*
D22*
X138879300Y-87465100D03*
X138879300Y-87965100D03*
X138879300Y-88465100D03*
X138879300Y-88965100D03*
X138879300Y-89465100D03*
D21*
X138779300Y-89965100D03*
D23*
X139279300Y-90465100D03*
D24*
X139779300Y-90365100D03*
X140279300Y-90365100D03*
X140779300Y-90365100D03*
X141279300Y-90365100D03*
X141779300Y-90365100D03*
D23*
X142279300Y-90465100D03*
D10*
G36*
X142779300Y-89965100D02*
X142629300Y-90115100D01*
X142579300Y-90115100D01*
X142429300Y-89965100D01*
X142779300Y-89965100D01*
X142779300Y-89965100D01*
G37*
G36*
X142279300Y-90115100D02*
X142429300Y-90265100D01*
X142429300Y-90315100D01*
X142279300Y-90465100D01*
X142279300Y-90115100D01*
X142279300Y-90115100D01*
G37*
D25*
X142504300Y-89890100D03*
X142204300Y-90190100D03*
X142504300Y-87040100D03*
X142204300Y-86740100D03*
X139354300Y-86740100D03*
X139054300Y-87040100D03*
X139054300Y-89890100D03*
X139354300Y-90190100D03*
D10*
G36*
X142429300Y-86965100D02*
X142579300Y-86815100D01*
X142629300Y-86815100D01*
X142779300Y-86965100D01*
X142429300Y-86965100D01*
X142429300Y-86965100D01*
G37*
G36*
X142279300Y-86465100D02*
X142429300Y-86615100D01*
X142429300Y-86665100D01*
X142279300Y-86815100D01*
X142279300Y-86465100D01*
X142279300Y-86465100D01*
G37*
G36*
X139279300Y-86815100D02*
X139129300Y-86665100D01*
X139129300Y-86615100D01*
X139279300Y-86465100D01*
X139279300Y-86815100D01*
X139279300Y-86815100D01*
G37*
G36*
X138779300Y-86965100D02*
X138929300Y-86815100D01*
X138979300Y-86815100D01*
X139129300Y-86965100D01*
X138779300Y-86965100D01*
X138779300Y-86965100D01*
G37*
G36*
X139129300Y-89965100D02*
X138979300Y-90115100D01*
X138929300Y-90115100D01*
X138779300Y-89965100D01*
X139129300Y-89965100D01*
X139129300Y-89965100D01*
G37*
G36*
X139279300Y-90465100D02*
X139129300Y-90315100D01*
X139129300Y-90265100D01*
X139279300Y-90115100D01*
X139279300Y-90465100D01*
X139279300Y-90465100D01*
G37*
D26*
X144673800Y-90281500D03*
X136703400Y-85293300D03*
X137159500Y-90092900D03*
X128003000Y-84796800D03*
X141014800Y-80347400D03*
X125258300Y-87023300D03*
X131502400Y-89911300D03*
X128755700Y-92056600D03*
X135977000Y-93902300D03*
X130578900Y-84501500D03*
X131593200Y-82262600D03*
X139779800Y-88326800D03*
X136103500Y-82073000D03*
X139975600Y-93947200D03*
X146400800Y-82136100D03*
X149420100Y-83769500D03*
X146993400Y-84761800D03*
X150598800Y-91400000D03*
X147274300Y-91117600D03*
X132969100Y-86816700D03*
X135716700Y-92491900D03*
X137683300Y-84293200D03*
X139385200Y-84923900D03*
X127147500Y-82186400D03*
X127428800Y-83485500D03*
X132804600Y-91244100D03*
X139333500Y-91668900D03*
X134614500Y-90543200D03*
X141280000Y-91666100D03*
X143029800Y-90715600D03*
X138529300Y-86214600D03*
X140614100Y-85664600D03*
X143559800Y-84710900D03*
X140344300Y-87469700D03*
X130559200Y-86909600D03*
X137479900Y-91908700D03*
D27*
X140472800Y-80376400D02*
X141014800Y-80347400D01*
X140369200Y-80376400D02*
X140472800Y-80376400D01*
X140119200Y-80376400D02*
X140369200Y-80376400D01*
X139670700Y-80697900D02*
X140119200Y-80376400D01*
D28*
X128307300Y-86710400D02*
X127873000Y-86296200D01*
X128756900Y-86710400D02*
X128307300Y-86710400D01*
D27*
X127120900Y-85828800D02*
X127873000Y-86296200D01*
X126915900Y-85623800D02*
X127120900Y-85828800D01*
X126915900Y-85478800D02*
X126915900Y-85623800D01*
X126915900Y-85228800D02*
X126915900Y-85478800D01*
X126965900Y-85178800D02*
X126915900Y-85228800D01*
X127015900Y-85128800D02*
X126965900Y-85178800D01*
X127015900Y-84878800D02*
X127015900Y-85128800D01*
X127015900Y-84775200D02*
X127015900Y-84878800D01*
X127162300Y-84628800D02*
X127015900Y-84775200D01*
X127369500Y-84628800D02*
X127162300Y-84628800D01*
X128003000Y-84796800D02*
X127369500Y-84628800D01*
D28*
X129065900Y-89211300D02*
X128698100Y-89538600D01*
X129107300Y-89211300D02*
X129065900Y-89211300D01*
X129207300Y-89211300D02*
X129107300Y-89211300D01*
X129257200Y-88711900D02*
X129207300Y-89211300D01*
D27*
X127890600Y-90074300D02*
X128698100Y-89538600D01*
X127744200Y-90220700D02*
X127890600Y-90074300D01*
X127744200Y-90324300D02*
X127744200Y-90220700D01*
X127744200Y-90574300D02*
X127744200Y-90324300D01*
X127694200Y-90624300D02*
X127744200Y-90574300D01*
X127744200Y-90674300D02*
X127694200Y-90624300D01*
X127744200Y-90924300D02*
X127744200Y-90674300D01*
X127744200Y-91027900D02*
X127744200Y-90924300D01*
X127905200Y-92408900D02*
X127744200Y-91027900D01*
X128973400Y-93843800D02*
X127905200Y-92408900D01*
X128973400Y-93947400D02*
X128973400Y-93843800D01*
X128973400Y-94197400D02*
X128973400Y-93947400D01*
X129473400Y-94697400D02*
X128973400Y-94197400D01*
X131739600Y-92874300D02*
X133830200Y-92181800D01*
X131471800Y-92874300D02*
X131739600Y-92874300D01*
X130473400Y-94051000D02*
X131471800Y-92874300D01*
X130327000Y-94197400D02*
X130473400Y-94051000D01*
X130223400Y-94197400D02*
X130327000Y-94197400D01*
X129973400Y-94197400D02*
X130223400Y-94197400D01*
X129473400Y-94697400D02*
X129973400Y-94197400D01*
X133764500Y-91481800D02*
X133714500Y-91431800D01*
X133764500Y-91731800D02*
X133764500Y-91481800D01*
X133764500Y-91835400D02*
X133764500Y-91731800D01*
X133830200Y-92181800D02*
X133764500Y-91835400D01*
X131303200Y-92527900D02*
X131471800Y-92874300D01*
X131303200Y-92424300D02*
X131303200Y-92527900D01*
X131303200Y-92174300D02*
X131303200Y-92424300D01*
X131253200Y-92124300D02*
X131303200Y-92174300D01*
X134200900Y-92181800D02*
X133830200Y-92181800D01*
X137159500Y-90092900D02*
X134200900Y-92181800D01*
D28*
X138455000Y-88515100D02*
X138128800Y-88734200D01*
X138579300Y-88515100D02*
X138455000Y-88515100D01*
X138679300Y-88515100D02*
X138579300Y-88515100D01*
X138879300Y-88465100D02*
X138679300Y-88515100D01*
D27*
X137465200Y-89142900D02*
X138128800Y-88734200D01*
X137361600Y-89142900D02*
X137465200Y-89142900D01*
X137111600Y-89142900D02*
X137361600Y-89142900D01*
X137061600Y-89192900D02*
X137111600Y-89142900D01*
X137111600Y-89242900D02*
X137061600Y-89192900D01*
X137111600Y-89492900D02*
X137111600Y-89242900D01*
X137111600Y-89596500D02*
X137111600Y-89492900D01*
X137159500Y-90092900D02*
X137111600Y-89596500D01*
D28*
X138537900Y-87915100D02*
X138129300Y-87842200D01*
X138579300Y-87915100D02*
X138537900Y-87915100D01*
X138679300Y-87915100D02*
X138579300Y-87915100D01*
X138879300Y-87965100D02*
X138679300Y-87915100D01*
D27*
X137438300Y-87709500D02*
X138129300Y-87842200D01*
X137334700Y-87709500D02*
X137438300Y-87709500D01*
X137084700Y-87709500D02*
X137334700Y-87709500D01*
X137034700Y-87659500D02*
X137084700Y-87709500D01*
X137036200Y-87609500D02*
X137034700Y-87659500D01*
X137036200Y-87359500D02*
X137036200Y-87609500D01*
X137036200Y-86493600D02*
X137036200Y-87359500D01*
X137036200Y-86243600D02*
X137036200Y-86493600D01*
X137037700Y-86193600D02*
X137036200Y-86243600D01*
X136987700Y-86143600D02*
X137037700Y-86193600D01*
X136987700Y-85893600D02*
X136987700Y-86143600D01*
X136987700Y-85790000D02*
X136987700Y-85893600D01*
X136703400Y-85293300D02*
X136987700Y-85790000D01*
X133641200Y-80667400D02*
X133141200Y-80761400D01*
X133891200Y-80667400D02*
X133641200Y-80667400D01*
X134929800Y-80667400D02*
X133891200Y-80667400D01*
X135179800Y-80667400D02*
X134929800Y-80667400D01*
X135430200Y-80573500D02*
X135179800Y-80667400D01*
X135680600Y-80631600D02*
X135430200Y-80573500D01*
X135930600Y-80631600D02*
X135680600Y-80631600D01*
X136720200Y-80631600D02*
X135930600Y-80631600D01*
X136970200Y-80631600D02*
X136720200Y-80631600D01*
X137418700Y-80689700D02*
X136970200Y-80631600D01*
X137867200Y-80693800D02*
X137418700Y-80689700D01*
X138117200Y-80693800D02*
X137867200Y-80693800D01*
X138972200Y-80693800D02*
X138117200Y-80693800D01*
X139222200Y-80693800D02*
X138972200Y-80693800D01*
X139670700Y-80697900D02*
X139222200Y-80693800D01*
D28*
X143103600Y-87915100D02*
X143429300Y-87878200D01*
X142979300Y-87915100D02*
X143103600Y-87915100D01*
X142879300Y-87915100D02*
X142979300Y-87915100D01*
X142679300Y-87965100D02*
X142879300Y-87915100D01*
D27*
X144058100Y-87813800D02*
X143429300Y-87878200D01*
X144161700Y-87813800D02*
X144058100Y-87813800D01*
X144411700Y-87813800D02*
X144161700Y-87813800D01*
X144461700Y-87763800D02*
X144411700Y-87813800D01*
X144497000Y-87813800D02*
X144461700Y-87763800D01*
X144497000Y-88063800D02*
X144497000Y-87813800D01*
X144497000Y-88989300D02*
X144497000Y-88063800D01*
X144497000Y-89239300D02*
X144497000Y-88989300D01*
X144532400Y-89289300D02*
X144497000Y-89239300D01*
X144582400Y-89339300D02*
X144532400Y-89289300D01*
X144582400Y-89589300D02*
X144582400Y-89339300D01*
X144582400Y-89692900D02*
X144582400Y-89589300D01*
X144673800Y-90281500D02*
X144582400Y-89692900D01*
D28*
X128133500Y-86544700D02*
X127824100Y-86438000D01*
X128133500Y-86544700D02*
X128012300Y-86240600D01*
X128967000Y-89299300D02*
X128835400Y-89599000D01*
X128967000Y-89299300D02*
X128654200Y-89395200D01*
X138427600Y-88533500D02*
X138256700Y-88812600D01*
X138427600Y-88533500D02*
X138104700Y-88586200D01*
X138483700Y-87905400D02*
X138166900Y-87987400D01*
X138483700Y-87905400D02*
X138214700Y-87719000D01*
X143103600Y-87915100D02*
X143346100Y-87753400D01*
X143103600Y-87915100D02*
X143376100Y-88018400D01*
D27*
X127147500Y-82186400D02*
X127428800Y-83485500D01*
X130574200Y-84496800D02*
X130578900Y-84501500D01*
X127428800Y-83485500D02*
X130574200Y-84496800D01*
X139385200Y-84923900D02*
X137683300Y-84293200D01*
X135987700Y-86243600D02*
X136037700Y-86193600D01*
X135737700Y-86243600D02*
X135987700Y-86243600D01*
X135634100Y-86243600D02*
X135737700Y-86243600D01*
X132969100Y-86816700D02*
X135634100Y-86243600D01*
X144367000Y-81429000D02*
X146400800Y-82136100D01*
X144263400Y-81429000D02*
X144367000Y-81429000D01*
X144013400Y-81429000D02*
X144263400Y-81429000D01*
X143806200Y-81221800D02*
X144013400Y-81429000D01*
X146993400Y-84761800D02*
X150598800Y-91400000D01*
X149420100Y-83769500D02*
X146993400Y-84761800D01*
X139975600Y-94797200D02*
X140073100Y-95055200D01*
X139975600Y-94547200D02*
X139975600Y-94797200D01*
X139975600Y-93947200D02*
X139975600Y-94547200D01*
X143599000Y-81203100D02*
X143806200Y-81221800D01*
X143349000Y-81203100D02*
X143599000Y-81203100D01*
X141130400Y-81203100D02*
X143349000Y-81203100D01*
X140866500Y-81467000D02*
X141130400Y-81203100D01*
X140619200Y-82262000D02*
X140866500Y-81467000D01*
X140472800Y-82408400D02*
X140619200Y-82262000D01*
X140369200Y-82408400D02*
X140472800Y-82408400D01*
X140119200Y-82408400D02*
X140369200Y-82408400D01*
X139670700Y-82729900D02*
X140119200Y-82408400D01*
X148368500Y-80368700D02*
X146400800Y-82136100D01*
X148472100Y-80368700D02*
X148368500Y-80368700D01*
X148722100Y-80368700D02*
X148472100Y-80368700D01*
X148916600Y-80110700D02*
X148722100Y-80368700D01*
X136970200Y-82400200D02*
X137418700Y-82721700D01*
X136720200Y-82400200D02*
X136970200Y-82400200D01*
X136616600Y-82400200D02*
X136720200Y-82400200D01*
X136103500Y-82073000D02*
X136616600Y-82400200D01*
X145421100Y-94232500D02*
X144921100Y-94732500D01*
X145421100Y-93982500D02*
X145421100Y-94232500D01*
X145421100Y-93878900D02*
X145421100Y-93982500D01*
X145524300Y-90633800D02*
X145421100Y-93878900D01*
X145524300Y-89589300D02*
X145524300Y-90633800D01*
X145524300Y-89339300D02*
X145524300Y-89589300D01*
X145532400Y-89289300D02*
X145524300Y-89339300D01*
D28*
X139479300Y-87690800D02*
X139779800Y-88326800D01*
X139303600Y-87515100D02*
X139479300Y-87690800D01*
X139179300Y-87515100D02*
X139303600Y-87515100D01*
X139079300Y-87515100D02*
X139179300Y-87515100D01*
X138879300Y-87465100D02*
X139079300Y-87515100D01*
D27*
X130500400Y-80423500D02*
X130305900Y-80165500D01*
X130500400Y-80673500D02*
X130500400Y-80423500D01*
X130500400Y-80777100D02*
X130500400Y-80673500D01*
X131593200Y-82262600D02*
X130500400Y-80777100D01*
X145497000Y-89239300D02*
X145532400Y-89289300D01*
X145497000Y-88989300D02*
X145497000Y-89239300D01*
X145497000Y-88063800D02*
X145497000Y-88989300D01*
X145497000Y-87813800D02*
X145497000Y-88063800D01*
X145461700Y-87763800D02*
X145497000Y-87813800D01*
X139222200Y-82725800D02*
X139670700Y-82729900D01*
X138972200Y-82725800D02*
X139222200Y-82725800D01*
X138117200Y-82725800D02*
X138972200Y-82725800D01*
X137867200Y-82725800D02*
X138117200Y-82725800D01*
X137418700Y-82721700D02*
X137867200Y-82725800D01*
X137590700Y-93496900D02*
X139975600Y-93947200D01*
X136596100Y-93496900D02*
X137590700Y-93496900D01*
X136234900Y-93742900D02*
X136596100Y-93496900D01*
X135977000Y-93902300D02*
X136234900Y-93742900D01*
X129605700Y-92080600D02*
X129655700Y-92130600D01*
X129355700Y-92080600D02*
X129605700Y-92080600D01*
X129252100Y-92080600D02*
X129355700Y-92080600D01*
X128755700Y-92056600D02*
X129252100Y-92080600D01*
X136048100Y-89142900D02*
X136061600Y-89192900D01*
X136048100Y-88892900D02*
X136048100Y-89142900D01*
X136048100Y-87959500D02*
X136048100Y-88892900D01*
X136048100Y-87709500D02*
X136048100Y-87959500D01*
X136034700Y-87659500D02*
X136048100Y-87709500D01*
X136036200Y-87609500D02*
X136034700Y-87659500D01*
X136036200Y-87359500D02*
X136036200Y-87609500D01*
X136036200Y-86493600D02*
X136036200Y-87359500D01*
X136036200Y-86243600D02*
X136036200Y-86493600D01*
X136037700Y-86193600D02*
X136036200Y-86243600D01*
D28*
X132395200Y-87160700D02*
X132969100Y-86816700D01*
X132208700Y-87210800D02*
X132395200Y-87160700D01*
X131759100Y-87210800D02*
X132208700Y-87210800D01*
X131258800Y-89161500D02*
X131258800Y-88711900D01*
X131502400Y-89911300D02*
X131258800Y-89161500D01*
D27*
X132809000Y-86461700D02*
X132969100Y-86816700D01*
X131859100Y-85011400D02*
X132809000Y-86461700D01*
X131507500Y-84659800D02*
X131859100Y-85011400D01*
X130578900Y-84501500D02*
X131507500Y-84659800D01*
D28*
X130758400Y-85260100D02*
X130758400Y-85709700D01*
X130578900Y-84501500D02*
X130758400Y-85260100D01*
X129757600Y-85260100D02*
X129757600Y-85709700D01*
X129807700Y-85073600D02*
X129757600Y-85260100D01*
X130071500Y-84809800D02*
X129807700Y-85073600D01*
X130578900Y-84501500D02*
X130071500Y-84809800D01*
D27*
X126789100Y-83727800D02*
X127428800Y-83485500D01*
X126114900Y-84402000D02*
X126789100Y-83727800D01*
X126015900Y-84775200D02*
X126114900Y-84402000D01*
X126015900Y-84878800D02*
X126015900Y-84775200D01*
X126015900Y-85128800D02*
X126015900Y-84878800D01*
X125965900Y-85178800D02*
X126015900Y-85128800D01*
X126644200Y-90574300D02*
X126694200Y-90624300D01*
X126644200Y-90324300D02*
X126644200Y-90574300D01*
X126644200Y-90220700D02*
X126644200Y-90324300D01*
X125258300Y-87023300D02*
X126644200Y-90220700D01*
X125915900Y-85228800D02*
X125965900Y-85178800D01*
X125915900Y-85478800D02*
X125915900Y-85228800D01*
X125915900Y-85582400D02*
X125915900Y-85478800D01*
X125258300Y-87023300D02*
X125915900Y-85582400D01*
D28*
X129757600Y-90930600D02*
X129655700Y-91130600D01*
X129757600Y-90830600D02*
X129757600Y-90930600D01*
X129757600Y-89161500D02*
X129757600Y-90830600D01*
X129757600Y-88711900D02*
X129757600Y-89161500D01*
X141729300Y-90565100D02*
X141779300Y-90365100D01*
X141729300Y-90665100D02*
X141729300Y-90565100D01*
X141729300Y-90789400D02*
X141729300Y-90665100D01*
X141553600Y-90965100D02*
X141729300Y-90789400D01*
X141528200Y-90965600D02*
X141553600Y-90965100D01*
X140989800Y-90965600D02*
X141528200Y-90965600D01*
X139333500Y-91668900D02*
X140989800Y-90965600D01*
X131553200Y-91244100D02*
X132804600Y-91244100D01*
X131453200Y-91244100D02*
X131553200Y-91244100D01*
X131253200Y-91124300D02*
X131453200Y-91244100D01*
X131053200Y-90924300D02*
X131253200Y-91124300D01*
X131053200Y-90824300D02*
X131053200Y-90924300D01*
X131053200Y-90782900D02*
X131053200Y-90824300D01*
X130801900Y-90201500D02*
X131053200Y-90782900D01*
X130758400Y-89161500D02*
X130801900Y-90201500D01*
X130758400Y-88711900D02*
X130758400Y-89161500D01*
X142229300Y-90565100D02*
X142279300Y-90465100D01*
X142229300Y-90665100D02*
X142229300Y-90565100D01*
X142229300Y-90913600D02*
X142229300Y-90665100D01*
X141877800Y-91265100D02*
X142229300Y-90913600D01*
X141280000Y-91666100D02*
X141877800Y-91265100D01*
X134014500Y-90543200D02*
X134614500Y-90543200D01*
X133914500Y-90543200D02*
X134014500Y-90543200D01*
X133714500Y-90431800D02*
X133914500Y-90543200D01*
X133514500Y-90231800D02*
X133714500Y-90431800D01*
X133514500Y-90131800D02*
X133514500Y-90231800D01*
X133514500Y-90090400D02*
X133514500Y-90131800D01*
X132208700Y-87711200D02*
X133514500Y-90090400D01*
X131759100Y-87711200D02*
X132208700Y-87711200D01*
X139229300Y-86365100D02*
X139279300Y-86465100D01*
X139129300Y-86365100D02*
X139229300Y-86365100D01*
X139087900Y-86365100D02*
X139129300Y-86365100D01*
X138529300Y-86214600D02*
X139087900Y-86365100D01*
X141911900Y-92892800D02*
X143029800Y-90715600D01*
X141911900Y-92934200D02*
X141911900Y-92892800D01*
X141911900Y-93034200D02*
X141911900Y-92934200D01*
X141711900Y-93234200D02*
X141911900Y-93034200D01*
X141252600Y-94647200D02*
X141597100Y-95055200D01*
X141252600Y-94547200D02*
X141252600Y-94647200D01*
X141252600Y-94505800D02*
X141252600Y-94547200D01*
X140911900Y-93575600D02*
X141252600Y-94505800D01*
X140911900Y-93534200D02*
X140911900Y-93575600D01*
X140911900Y-93434200D02*
X140911900Y-93534200D01*
X140711900Y-93234200D02*
X140911900Y-93434200D01*
X143449000Y-83357000D02*
X143806200Y-82999800D01*
X143449000Y-83457000D02*
X143449000Y-83357000D01*
X143449000Y-83498400D02*
X143449000Y-83457000D01*
X142859300Y-84298100D02*
X143449000Y-83498400D01*
X142859300Y-84339500D02*
X142859300Y-84298100D01*
X142859300Y-84439500D02*
X142859300Y-84339500D01*
X142659300Y-84639500D02*
X142859300Y-84439500D01*
X141459300Y-84839500D02*
X141659300Y-84639500D01*
X141459300Y-84939500D02*
X141459300Y-84839500D01*
X141459300Y-84980900D02*
X141459300Y-84939500D01*
X141329300Y-86016600D02*
X141459300Y-84980900D01*
X141329300Y-86265100D02*
X141329300Y-86016600D01*
X141329300Y-86365100D02*
X141329300Y-86265100D01*
X141279300Y-86565100D02*
X141329300Y-86365100D01*
X150096100Y-80518700D02*
X150440600Y-80110700D01*
X150096100Y-80618700D02*
X150096100Y-80518700D01*
X150096100Y-80660100D02*
X150096100Y-80618700D01*
X149644700Y-81566000D02*
X150096100Y-80660100D01*
X149644700Y-81607400D02*
X149644700Y-81566000D01*
X149644700Y-81707400D02*
X149644700Y-81607400D01*
X149444700Y-81907400D02*
X149644700Y-81707400D01*
X148244700Y-82107400D02*
X148444700Y-81907400D01*
X148144700Y-82107400D02*
X148244700Y-82107400D01*
X148103300Y-82107400D02*
X148144700Y-82107400D01*
X143559800Y-84710900D02*
X148103300Y-82107400D01*
X140329300Y-86223700D02*
X140614100Y-85664600D01*
X140329300Y-86265100D02*
X140329300Y-86223700D01*
X140329300Y-86365100D02*
X140329300Y-86265100D01*
X140279300Y-86565100D02*
X140329300Y-86365100D01*
X128725400Y-80573500D02*
X128781900Y-80165500D01*
X128725400Y-80673500D02*
X128725400Y-80573500D01*
X128725400Y-81663300D02*
X128725400Y-80673500D01*
X128725400Y-81763300D02*
X128725400Y-81663300D01*
X128668900Y-81963300D02*
X128725400Y-81763300D01*
X129868900Y-82163300D02*
X129668900Y-81963300D01*
X129968900Y-82163300D02*
X129868900Y-82163300D01*
X130010300Y-82163300D02*
X129968900Y-82163300D01*
X132706100Y-84351900D02*
X130010300Y-82163300D01*
X136993300Y-84593300D02*
X132706100Y-84351900D01*
X137393400Y-84993200D02*
X136993300Y-84593300D01*
X138819500Y-85514100D02*
X137393400Y-84993200D01*
X139553600Y-85965100D02*
X138819500Y-85514100D01*
X139729300Y-86140800D02*
X139553600Y-85965100D01*
X139729300Y-86265100D02*
X139729300Y-86140800D01*
X139729300Y-86365100D02*
X139729300Y-86265100D01*
X139779300Y-86565100D02*
X139729300Y-86365100D01*
X130258000Y-86159300D02*
X130258000Y-85709700D01*
X130308100Y-86345800D02*
X130258000Y-86159300D01*
X130559200Y-86909600D02*
X130308100Y-86345800D01*
X142379300Y-87469700D02*
X140344300Y-87469700D01*
X142479300Y-87469700D02*
X142379300Y-87469700D01*
X142679300Y-87465100D02*
X142479300Y-87469700D01*
X146573800Y-91407800D02*
X147461100Y-94732500D01*
X146062200Y-87339300D02*
X146573800Y-91407800D01*
X145886200Y-87163300D02*
X146062200Y-87339300D01*
X142532900Y-86365100D02*
X145886200Y-87163300D01*
X142429300Y-86365100D02*
X142532900Y-86365100D01*
X142329300Y-86365100D02*
X142429300Y-86365100D01*
X142279300Y-86465100D02*
X142329300Y-86365100D01*
X146462700Y-87173400D02*
X150001100Y-94732500D01*
X146052100Y-86762800D02*
X146462700Y-87173400D01*
X142698700Y-85964600D02*
X146052100Y-86762800D01*
X142353800Y-85964600D02*
X142698700Y-85964600D01*
X142104800Y-85964600D02*
X142353800Y-85964600D01*
X142005000Y-85965100D02*
X142104800Y-85964600D01*
X141829300Y-86140800D02*
X142005000Y-85965100D01*
X141829300Y-86265100D02*
X141829300Y-86140800D01*
X141829300Y-86365100D02*
X141829300Y-86265100D01*
X141779300Y-86565100D02*
X141829300Y-86365100D01*
X138679300Y-90156500D02*
X137479900Y-91908700D01*
X138679300Y-90115100D02*
X138679300Y-90156500D01*
X138679300Y-90015100D02*
X138679300Y-90115100D01*
X138779300Y-89965100D02*
X138679300Y-90015100D01*
X139229300Y-90565100D02*
X139279300Y-90465100D01*
X139229300Y-90665100D02*
X139229300Y-90565100D01*
X139229300Y-90706500D02*
X139229300Y-90665100D01*
X138633000Y-91378700D02*
X139229300Y-90706500D01*
X138180400Y-92198900D02*
X138633000Y-91378700D01*
X137770100Y-92609200D02*
X138180400Y-92198900D01*
X136473800Y-92946400D02*
X137770100Y-92609200D01*
X136293400Y-93021200D02*
X136473800Y-92946400D01*
X136006900Y-93192400D02*
X136293400Y-93021200D01*
X135686800Y-93201800D02*
X136006900Y-93192400D01*
X134118300Y-93646900D02*
X135686800Y-93201800D01*
X132013400Y-94697400D02*
X134118300Y-93646900D01*
X134929800Y-83301400D02*
X133141200Y-83301400D01*
X135029800Y-83301400D02*
X134929800Y-83301400D01*
X135430200Y-83174500D02*
X135029800Y-83301400D01*
X135830600Y-83574900D02*
X135430200Y-83174500D01*
X135930600Y-83574900D02*
X135830600Y-83574900D01*
X135972000Y-83574900D02*
X135930600Y-83574900D01*
X136595700Y-83593700D02*
X135972000Y-83574900D01*
X136845700Y-83593700D02*
X136595700Y-83593700D01*
X137094700Y-83593700D02*
X136845700Y-83593700D01*
X137393400Y-83593200D02*
X137094700Y-83593700D01*
X137973200Y-83593200D02*
X137393400Y-83593200D01*
X137992700Y-83593700D02*
X137973200Y-83593200D01*
X138847700Y-83601900D02*
X137992700Y-83593700D01*
X140244700Y-83601900D02*
X138847700Y-83601900D01*
X140493700Y-83601900D02*
X140244700Y-83601900D01*
X140669700Y-83425900D02*
X140493700Y-83601900D01*
X141217000Y-82526600D02*
X140669700Y-83425900D01*
X141275600Y-82468000D02*
X141217000Y-82526600D01*
X141317000Y-82468000D02*
X141275600Y-82468000D01*
X141417000Y-82468000D02*
X141317000Y-82468000D01*
X141774200Y-82110800D02*
X141417000Y-82468000D01*
D29*
G36*
X140481191Y-91895155D02*
X140540894Y-92045949D01*
X140628750Y-92182274D01*
X140741412Y-92298939D01*
X140874588Y-92391499D01*
X141023207Y-92456429D01*
X141181606Y-92491255D01*
X141343754Y-92494652D01*
X141503473Y-92466489D01*
X141547065Y-92449581D01*
X141518541Y-92505134D01*
X141411900Y-92505134D01*
X141343902Y-92510556D01*
X141228570Y-92546273D01*
X141210878Y-92557931D01*
X141131435Y-92522121D01*
X141011900Y-92505134D01*
X140411900Y-92505134D01*
X140343902Y-92510556D01*
X140228570Y-92546273D01*
X140127754Y-92612706D01*
X140049437Y-92704595D01*
X139999821Y-92814665D01*
X139982834Y-92934200D01*
X139982834Y-93534200D01*
X139988256Y-93602198D01*
X140023973Y-93717530D01*
X140090406Y-93818346D01*
X140182295Y-93896663D01*
X140292365Y-93946279D01*
X140411900Y-93963266D01*
X140492652Y-93963266D01*
X140550132Y-94120200D01*
X140306850Y-94120200D01*
X140200100Y-94226950D01*
X140200100Y-94928200D01*
X140220100Y-94928200D01*
X140220100Y-95182200D01*
X140200100Y-95182200D01*
X140200100Y-95202200D01*
X139946100Y-95202200D01*
X139946100Y-95182200D01*
X139308350Y-95182200D01*
X139201600Y-95288950D01*
X139201600Y-95598000D01*
X137854488Y-95598000D01*
X137988694Y-95470197D01*
X138121747Y-95281583D01*
X138215631Y-95070717D01*
X138266769Y-94845631D01*
X138270450Y-94581989D01*
X138255235Y-94505144D01*
X139201600Y-94505144D01*
X139201600Y-94821450D01*
X139308350Y-94928200D01*
X139946100Y-94928200D01*
X139946100Y-94226950D01*
X139839350Y-94120200D01*
X139586544Y-94120200D01*
X139504049Y-94136609D01*
X139426339Y-94168798D01*
X139356403Y-94215528D01*
X139296927Y-94275003D01*
X139250197Y-94344940D01*
X139218009Y-94422649D01*
X139201600Y-94505144D01*
X138255235Y-94505144D01*
X138225617Y-94355564D01*
X138137658Y-94142158D01*
X138009923Y-93949902D01*
X137847278Y-93786118D01*
X137655918Y-93657044D01*
X137443132Y-93567597D01*
X137217025Y-93521184D01*
X136986209Y-93519573D01*
X136759476Y-93562824D01*
X136545462Y-93649291D01*
X136352319Y-93775681D01*
X136187403Y-93937178D01*
X136056996Y-94127632D01*
X135966066Y-94339789D01*
X135918076Y-94565566D01*
X135914853Y-94796365D01*
X135956521Y-95023395D01*
X136041492Y-95238007D01*
X136166530Y-95432028D01*
X136326806Y-95598000D01*
X135195425Y-95598000D01*
X135219087Y-95542692D01*
X134553400Y-94877005D01*
X133887713Y-95542692D01*
X133911375Y-95598000D01*
X132774488Y-95598000D01*
X132908694Y-95470197D01*
X133041747Y-95281583D01*
X133135631Y-95070717D01*
X133186769Y-94845631D01*
X133188805Y-94699772D01*
X133378634Y-94605034D01*
X133373464Y-94778138D01*
X133411888Y-95006780D01*
X133494179Y-95223533D01*
X133527464Y-95285805D01*
X133708108Y-95363087D01*
X134373795Y-94697400D01*
X134733005Y-94697400D01*
X135398692Y-95363087D01*
X135579336Y-95285805D01*
X135674415Y-95074349D01*
X135726414Y-94848408D01*
X135733336Y-94616662D01*
X135694912Y-94388020D01*
X135612621Y-94171267D01*
X135579336Y-94108995D01*
X135398692Y-94031713D01*
X134733005Y-94697400D01*
X134373795Y-94697400D01*
X134359653Y-94683258D01*
X134539258Y-94503653D01*
X134553400Y-94517795D01*
X135176887Y-93894308D01*
X135767697Y-93726652D01*
X136022369Y-93719173D01*
X136049663Y-93715685D01*
X136077153Y-93714696D01*
X136100546Y-93709183D01*
X136124392Y-93706136D01*
X136150484Y-93697415D01*
X136177263Y-93691104D01*
X136199145Y-93681150D01*
X136221939Y-93673531D01*
X136245834Y-93659911D01*
X136270884Y-93648516D01*
X136277226Y-93644786D01*
X136530744Y-93493294D01*
X136641864Y-93447220D01*
X137902770Y-93119227D01*
X137933928Y-93107775D01*
X137965811Y-93098512D01*
X137982096Y-93090071D01*
X137999309Y-93083744D01*
X138027652Y-93066456D01*
X138057125Y-93051179D01*
X138071457Y-93039738D01*
X138087116Y-93030187D01*
X138111559Y-93007725D01*
X138137506Y-92987012D01*
X138142745Y-92981845D01*
X138553045Y-92571545D01*
X138565058Y-92556920D01*
X138578792Y-92543883D01*
X138597638Y-92517257D01*
X138618329Y-92492067D01*
X138627272Y-92475388D01*
X138638212Y-92459932D01*
X138641811Y-92453514D01*
X138750781Y-92256040D01*
X138794912Y-92301739D01*
X138928088Y-92394299D01*
X139076707Y-92459229D01*
X139235106Y-92494055D01*
X139397254Y-92497452D01*
X139556973Y-92469289D01*
X139708180Y-92410640D01*
X139845115Y-92323738D01*
X139962564Y-92211893D01*
X140056051Y-92079366D01*
X140122017Y-91931205D01*
X140128199Y-91903997D01*
X140457175Y-91764306D01*
X140481191Y-91895155D01*
X140481191Y-91895155D01*
G37*
X140481191Y-91895155D02*
X140540894Y-92045949D01*
X140628750Y-92182274D01*
X140741412Y-92298939D01*
X140874588Y-92391499D01*
X141023207Y-92456429D01*
X141181606Y-92491255D01*
X141343754Y-92494652D01*
X141503473Y-92466489D01*
X141547065Y-92449581D01*
X141518541Y-92505134D01*
X141411900Y-92505134D01*
X141343902Y-92510556D01*
X141228570Y-92546273D01*
X141210878Y-92557931D01*
X141131435Y-92522121D01*
X141011900Y-92505134D01*
X140411900Y-92505134D01*
X140343902Y-92510556D01*
X140228570Y-92546273D01*
X140127754Y-92612706D01*
X140049437Y-92704595D01*
X139999821Y-92814665D01*
X139982834Y-92934200D01*
X139982834Y-93534200D01*
X139988256Y-93602198D01*
X140023973Y-93717530D01*
X140090406Y-93818346D01*
X140182295Y-93896663D01*
X140292365Y-93946279D01*
X140411900Y-93963266D01*
X140492652Y-93963266D01*
X140550132Y-94120200D01*
X140306850Y-94120200D01*
X140200100Y-94226950D01*
X140200100Y-94928200D01*
X140220100Y-94928200D01*
X140220100Y-95182200D01*
X140200100Y-95182200D01*
X140200100Y-95202200D01*
X139946100Y-95202200D01*
X139946100Y-95182200D01*
X139308350Y-95182200D01*
X139201600Y-95288950D01*
X139201600Y-95598000D01*
X137854488Y-95598000D01*
X137988694Y-95470197D01*
X138121747Y-95281583D01*
X138215631Y-95070717D01*
X138266769Y-94845631D01*
X138270450Y-94581989D01*
X138255235Y-94505144D01*
X139201600Y-94505144D01*
X139201600Y-94821450D01*
X139308350Y-94928200D01*
X139946100Y-94928200D01*
X139946100Y-94226950D01*
X139839350Y-94120200D01*
X139586544Y-94120200D01*
X139504049Y-94136609D01*
X139426339Y-94168798D01*
X139356403Y-94215528D01*
X139296927Y-94275003D01*
X139250197Y-94344940D01*
X139218009Y-94422649D01*
X139201600Y-94505144D01*
X138255235Y-94505144D01*
X138225617Y-94355564D01*
X138137658Y-94142158D01*
X138009923Y-93949902D01*
X137847278Y-93786118D01*
X137655918Y-93657044D01*
X137443132Y-93567597D01*
X137217025Y-93521184D01*
X136986209Y-93519573D01*
X136759476Y-93562824D01*
X136545462Y-93649291D01*
X136352319Y-93775681D01*
X136187403Y-93937178D01*
X136056996Y-94127632D01*
X135966066Y-94339789D01*
X135918076Y-94565566D01*
X135914853Y-94796365D01*
X135956521Y-95023395D01*
X136041492Y-95238007D01*
X136166530Y-95432028D01*
X136326806Y-95598000D01*
X135195425Y-95598000D01*
X135219087Y-95542692D01*
X134553400Y-94877005D01*
X133887713Y-95542692D01*
X133911375Y-95598000D01*
X132774488Y-95598000D01*
X132908694Y-95470197D01*
X133041747Y-95281583D01*
X133135631Y-95070717D01*
X133186769Y-94845631D01*
X133188805Y-94699772D01*
X133378634Y-94605034D01*
X133373464Y-94778138D01*
X133411888Y-95006780D01*
X133494179Y-95223533D01*
X133527464Y-95285805D01*
X133708108Y-95363087D01*
X134373795Y-94697400D01*
X134733005Y-94697400D01*
X135398692Y-95363087D01*
X135579336Y-95285805D01*
X135674415Y-95074349D01*
X135726414Y-94848408D01*
X135733336Y-94616662D01*
X135694912Y-94388020D01*
X135612621Y-94171267D01*
X135579336Y-94108995D01*
X135398692Y-94031713D01*
X134733005Y-94697400D01*
X134373795Y-94697400D01*
X134359653Y-94683258D01*
X134539258Y-94503653D01*
X134553400Y-94517795D01*
X135176887Y-93894308D01*
X135767697Y-93726652D01*
X136022369Y-93719173D01*
X136049663Y-93715685D01*
X136077153Y-93714696D01*
X136100546Y-93709183D01*
X136124392Y-93706136D01*
X136150484Y-93697415D01*
X136177263Y-93691104D01*
X136199145Y-93681150D01*
X136221939Y-93673531D01*
X136245834Y-93659911D01*
X136270884Y-93648516D01*
X136277226Y-93644786D01*
X136530744Y-93493294D01*
X136641864Y-93447220D01*
X137902770Y-93119227D01*
X137933928Y-93107775D01*
X137965811Y-93098512D01*
X137982096Y-93090071D01*
X137999309Y-93083744D01*
X138027652Y-93066456D01*
X138057125Y-93051179D01*
X138071457Y-93039738D01*
X138087116Y-93030187D01*
X138111559Y-93007725D01*
X138137506Y-92987012D01*
X138142745Y-92981845D01*
X138553045Y-92571545D01*
X138565058Y-92556920D01*
X138578792Y-92543883D01*
X138597638Y-92517257D01*
X138618329Y-92492067D01*
X138627272Y-92475388D01*
X138638212Y-92459932D01*
X138641811Y-92453514D01*
X138750781Y-92256040D01*
X138794912Y-92301739D01*
X138928088Y-92394299D01*
X139076707Y-92459229D01*
X139235106Y-92494055D01*
X139397254Y-92497452D01*
X139556973Y-92469289D01*
X139708180Y-92410640D01*
X139845115Y-92323738D01*
X139962564Y-92211893D01*
X140056051Y-92079366D01*
X140122017Y-91931205D01*
X140128199Y-91903997D01*
X140457175Y-91764306D01*
X140481191Y-91895155D01*
G36*
X127908334Y-80673500D02*
X127913756Y-80741498D01*
X127949473Y-80856830D01*
X128015906Y-80957646D01*
X128107795Y-81035963D01*
X128198400Y-81076805D01*
X128198400Y-81271400D01*
X128185570Y-81275373D01*
X128084754Y-81341806D01*
X128006437Y-81433695D01*
X127956821Y-81543765D01*
X127939834Y-81663300D01*
X127939834Y-82263300D01*
X127945256Y-82331298D01*
X127980973Y-82446630D01*
X128047406Y-82547446D01*
X128139295Y-82625763D01*
X128249365Y-82675379D01*
X128368900Y-82692366D01*
X128968900Y-82692366D01*
X129036898Y-82686944D01*
X129152230Y-82651227D01*
X129169922Y-82639569D01*
X129249365Y-82675379D01*
X129368900Y-82692366D01*
X129825854Y-82692366D01*
X132373936Y-84761041D01*
X132379513Y-84764728D01*
X132384387Y-84769309D01*
X132422382Y-84793071D01*
X132459732Y-84817766D01*
X132465917Y-84820299D01*
X132471590Y-84823847D01*
X132513474Y-84839776D01*
X132554911Y-84856747D01*
X132561472Y-84858031D01*
X132567725Y-84860409D01*
X132611918Y-84867902D01*
X132655849Y-84876498D01*
X132662530Y-84876483D01*
X132669130Y-84877602D01*
X132676473Y-84878067D01*
X135907479Y-85059996D01*
X135877578Y-85200669D01*
X135875313Y-85362836D01*
X135904591Y-85522355D01*
X135910698Y-85537780D01*
X135910698Y-85573348D01*
X135803950Y-85466600D01*
X135695644Y-85466600D01*
X135613149Y-85483009D01*
X135535439Y-85515198D01*
X135465503Y-85561928D01*
X135406027Y-85621403D01*
X135359297Y-85691340D01*
X135327109Y-85769049D01*
X135310700Y-85851544D01*
X135310700Y-85959850D01*
X135417450Y-86066600D01*
X135910700Y-86066600D01*
X135910700Y-86046600D01*
X136164700Y-86046600D01*
X136164700Y-86066600D01*
X136184700Y-86066600D01*
X136184700Y-86320600D01*
X136164700Y-86320600D01*
X136164700Y-86813850D01*
X136271450Y-86920600D01*
X136359200Y-86920600D01*
X136359200Y-86932500D01*
X136268450Y-86932500D01*
X136161700Y-87039250D01*
X136161700Y-87532500D01*
X136181700Y-87532500D01*
X136181700Y-87786500D01*
X136161700Y-87786500D01*
X136161700Y-88279750D01*
X136268450Y-88386500D01*
X136376756Y-88386500D01*
X136459251Y-88370091D01*
X136536961Y-88337902D01*
X136538368Y-88336962D01*
X136615165Y-88371579D01*
X136734700Y-88388566D01*
X137334700Y-88388566D01*
X137360610Y-88386500D01*
X137373885Y-88386500D01*
X137395599Y-88390670D01*
X137276804Y-88463834D01*
X136761600Y-88463834D01*
X136693602Y-88469256D01*
X136578270Y-88504973D01*
X136563833Y-88514486D01*
X136486151Y-88482309D01*
X136403656Y-88465900D01*
X136295350Y-88465900D01*
X136188600Y-88572650D01*
X136188600Y-89065900D01*
X136208600Y-89065900D01*
X136208600Y-89319900D01*
X136188600Y-89319900D01*
X136188600Y-89813150D01*
X136268616Y-89893166D01*
X135441323Y-90477271D01*
X135441535Y-90462109D01*
X135410033Y-90303014D01*
X135348230Y-90153069D01*
X135258480Y-90017983D01*
X135144200Y-89902903D01*
X135009744Y-89812211D01*
X134860234Y-89749363D01*
X134701363Y-89716751D01*
X134539184Y-89715619D01*
X134379874Y-89746009D01*
X134269199Y-89790725D01*
X134244105Y-89769337D01*
X134134035Y-89719721D01*
X134014500Y-89702734D01*
X133902889Y-89702734D01*
X133751364Y-89426650D01*
X135334600Y-89426650D01*
X135334600Y-89534956D01*
X135351009Y-89617451D01*
X135383197Y-89695160D01*
X135429927Y-89765097D01*
X135489403Y-89824572D01*
X135559339Y-89871302D01*
X135637049Y-89903491D01*
X135719544Y-89919900D01*
X135827850Y-89919900D01*
X135934600Y-89813150D01*
X135934600Y-89319900D01*
X135441350Y-89319900D01*
X135334600Y-89426650D01*
X133751364Y-89426650D01*
X133435339Y-88850844D01*
X135334600Y-88850844D01*
X135334600Y-88959150D01*
X135441350Y-89065900D01*
X135934600Y-89065900D01*
X135934600Y-88572650D01*
X135827850Y-88465900D01*
X135719544Y-88465900D01*
X135637049Y-88482309D01*
X135559339Y-88514498D01*
X135489403Y-88561228D01*
X135429927Y-88620703D01*
X135383197Y-88690640D01*
X135351009Y-88768349D01*
X135334600Y-88850844D01*
X133435339Y-88850844D01*
X132909773Y-87893250D01*
X135307700Y-87893250D01*
X135307700Y-88001556D01*
X135324109Y-88084051D01*
X135356297Y-88161760D01*
X135403027Y-88231697D01*
X135462503Y-88291172D01*
X135532439Y-88337902D01*
X135610149Y-88370091D01*
X135692644Y-88386500D01*
X135800950Y-88386500D01*
X135907700Y-88279750D01*
X135907700Y-87786500D01*
X135414450Y-87786500D01*
X135307700Y-87893250D01*
X132909773Y-87893250D01*
X132786255Y-87668198D01*
X132780329Y-87603087D01*
X132748542Y-87495084D01*
X132735912Y-87470924D01*
X132758919Y-87425690D01*
X132761929Y-87374284D01*
X132704733Y-87317444D01*
X135307700Y-87317444D01*
X135307700Y-87425750D01*
X135414450Y-87532500D01*
X135907700Y-87532500D01*
X135907700Y-87039250D01*
X135800950Y-86932500D01*
X135692644Y-86932500D01*
X135610149Y-86948909D01*
X135532439Y-86981098D01*
X135462503Y-87027828D01*
X135403027Y-87087303D01*
X135356297Y-87157240D01*
X135324109Y-87234949D01*
X135307700Y-87317444D01*
X132704733Y-87317444D01*
X132672820Y-87285730D01*
X132599808Y-87285730D01*
X132539594Y-87235205D01*
X132495342Y-87210878D01*
X132532916Y-87190899D01*
X132600388Y-87135870D01*
X132672820Y-87135870D01*
X132761929Y-87047316D01*
X132758919Y-86995910D01*
X132736166Y-86951176D01*
X132745473Y-86933962D01*
X132778765Y-86826414D01*
X132790533Y-86714447D01*
X132780329Y-86602327D01*
X132748542Y-86494324D01*
X132713529Y-86427350D01*
X135310700Y-86427350D01*
X135310700Y-86535656D01*
X135327109Y-86618151D01*
X135359297Y-86695860D01*
X135406027Y-86765797D01*
X135465503Y-86825272D01*
X135535439Y-86872002D01*
X135613149Y-86904191D01*
X135695644Y-86920600D01*
X135803950Y-86920600D01*
X135910700Y-86813850D01*
X135910700Y-86320600D01*
X135417450Y-86320600D01*
X135310700Y-86427350D01*
X132713529Y-86427350D01*
X132696383Y-86394553D01*
X132625838Y-86306812D01*
X132539594Y-86234445D01*
X132440936Y-86180208D01*
X132333623Y-86146166D01*
X132221741Y-86133616D01*
X132213687Y-86133560D01*
X131835620Y-86133560D01*
X131835620Y-85255113D01*
X131824634Y-85143067D01*
X131792094Y-85035289D01*
X131739239Y-84935884D01*
X131668083Y-84848638D01*
X131581336Y-84776874D01*
X131482302Y-84723327D01*
X131374754Y-84690035D01*
X131262787Y-84678267D01*
X131150667Y-84688471D01*
X131042664Y-84720258D01*
X131018504Y-84732888D01*
X130973270Y-84709881D01*
X130921864Y-84706871D01*
X130833310Y-84795980D01*
X130833310Y-84868992D01*
X130782785Y-84929206D01*
X130758458Y-84973458D01*
X130738479Y-84935884D01*
X130683450Y-84868412D01*
X130683450Y-84795980D01*
X130594896Y-84706871D01*
X130543490Y-84709881D01*
X130498756Y-84732634D01*
X130481542Y-84723327D01*
X130373994Y-84690035D01*
X130262027Y-84678267D01*
X130149907Y-84688471D01*
X130041904Y-84720258D01*
X130017744Y-84732888D01*
X129972510Y-84709881D01*
X129921104Y-84706871D01*
X129832550Y-84795980D01*
X129832550Y-84868992D01*
X129782025Y-84929206D01*
X129757698Y-84973458D01*
X129737719Y-84935884D01*
X129682690Y-84868412D01*
X129682690Y-84795980D01*
X129594136Y-84706871D01*
X129542730Y-84709881D01*
X129497996Y-84732634D01*
X129480782Y-84723327D01*
X129373234Y-84690035D01*
X129261267Y-84678267D01*
X129149147Y-84688471D01*
X129041144Y-84720258D01*
X128941373Y-84772417D01*
X128853632Y-84842962D01*
X128827828Y-84873714D01*
X128830035Y-84715709D01*
X128798533Y-84556614D01*
X128736730Y-84406669D01*
X128646980Y-84271583D01*
X128532700Y-84156503D01*
X128398244Y-84065811D01*
X128248734Y-84002963D01*
X128089863Y-83970351D01*
X127927684Y-83969219D01*
X127768374Y-83999609D01*
X127716719Y-84020479D01*
X127543037Y-83974420D01*
X127526364Y-83971704D01*
X127510256Y-83966594D01*
X127461274Y-83961100D01*
X127412629Y-83953175D01*
X127395741Y-83953749D01*
X127378952Y-83951866D01*
X127369500Y-83951800D01*
X127162300Y-83951800D01*
X127100086Y-83957900D01*
X127037765Y-83963352D01*
X127034345Y-83964346D01*
X127030803Y-83964693D01*
X126970932Y-83982769D01*
X126910884Y-84000215D01*
X126907725Y-84001852D01*
X126904315Y-84002882D01*
X126849081Y-84032251D01*
X126793579Y-84061020D01*
X126790797Y-84063241D01*
X126787654Y-84064912D01*
X126739203Y-84104428D01*
X126690319Y-84143452D01*
X126685363Y-84148339D01*
X126685263Y-84148421D01*
X126685186Y-84148514D01*
X126683589Y-84150089D01*
X126537189Y-84296489D01*
X126497509Y-84344796D01*
X126457298Y-84392717D01*
X126455583Y-84395837D01*
X126453323Y-84398588D01*
X126423784Y-84453678D01*
X126411095Y-84476760D01*
X126390451Y-84468209D01*
X126307956Y-84451800D01*
X126199650Y-84451800D01*
X126092900Y-84558550D01*
X126092900Y-85051800D01*
X126112900Y-85051800D01*
X126112900Y-85305800D01*
X126092900Y-85305800D01*
X126092900Y-85799050D01*
X126199650Y-85905800D01*
X126302751Y-85905800D01*
X126319351Y-85937019D01*
X126348120Y-85992521D01*
X126350341Y-85995303D01*
X126352012Y-85998446D01*
X126391528Y-86046897D01*
X126430552Y-86095781D01*
X126435439Y-86100737D01*
X126435521Y-86100837D01*
X126435614Y-86100914D01*
X126437189Y-86102511D01*
X126642189Y-86307511D01*
X126647415Y-86311803D01*
X126651814Y-86316947D01*
X126698434Y-86353712D01*
X126744288Y-86391377D01*
X126750249Y-86394574D01*
X126755562Y-86398763D01*
X126763556Y-86403808D01*
X127515656Y-86871208D01*
X127551529Y-86888906D01*
X127552460Y-86889598D01*
X127565439Y-86895769D01*
X127634148Y-86929666D01*
X127640119Y-86931273D01*
X127645349Y-86933759D01*
X127652288Y-86936206D01*
X127775210Y-86978597D01*
X127770527Y-86987258D01*
X127737235Y-87094806D01*
X127725467Y-87206773D01*
X127735671Y-87318893D01*
X127767458Y-87426896D01*
X127785112Y-87460664D01*
X127770527Y-87487638D01*
X127737235Y-87595186D01*
X127725467Y-87707153D01*
X127735671Y-87819273D01*
X127767458Y-87927276D01*
X127819617Y-88027047D01*
X127890162Y-88114788D01*
X127976406Y-88187155D01*
X128075064Y-88241392D01*
X128182377Y-88275434D01*
X128294259Y-88287984D01*
X128302313Y-88288040D01*
X128678314Y-88288040D01*
X128678314Y-88836596D01*
X128499726Y-88891348D01*
X128475302Y-88901537D01*
X128449313Y-88908970D01*
X128413758Y-88927212D01*
X128404802Y-88930948D01*
X128399351Y-88934603D01*
X128331755Y-88969284D01*
X128323843Y-88974454D01*
X127516343Y-89510154D01*
X127467656Y-89549806D01*
X127418619Y-89588952D01*
X127414013Y-89593494D01*
X127413893Y-89593592D01*
X127413799Y-89593705D01*
X127411889Y-89595589D01*
X127265489Y-89741989D01*
X127225809Y-89790296D01*
X127185598Y-89838217D01*
X127183883Y-89841337D01*
X127181623Y-89844088D01*
X127152067Y-89899209D01*
X127139395Y-89922260D01*
X127118751Y-89913709D01*
X127036256Y-89897300D01*
X126927950Y-89897300D01*
X126821200Y-90004050D01*
X126821200Y-90497300D01*
X126841200Y-90497300D01*
X126841200Y-90751300D01*
X126821200Y-90751300D01*
X126821200Y-91244550D01*
X126927950Y-91351300D01*
X127036256Y-91351300D01*
X127098865Y-91338846D01*
X127232754Y-92487295D01*
X127241298Y-92526647D01*
X127246810Y-92566547D01*
X127255285Y-92591069D01*
X127260788Y-92616414D01*
X127276813Y-92653359D01*
X127289970Y-92691426D01*
X127303044Y-92713831D01*
X127313367Y-92737629D01*
X127336263Y-92770757D01*
X127356563Y-92805545D01*
X127362155Y-92813166D01*
X128294334Y-94065351D01*
X128294334Y-95447400D01*
X128299756Y-95515398D01*
X128325337Y-95598000D01*
X128137294Y-95598000D01*
X126830042Y-94006525D01*
X125767935Y-92025703D01*
X125410948Y-90858050D01*
X125967200Y-90858050D01*
X125967200Y-90966356D01*
X125983609Y-91048851D01*
X126015797Y-91126560D01*
X126062527Y-91196497D01*
X126122003Y-91255972D01*
X126191939Y-91302702D01*
X126269649Y-91334891D01*
X126352144Y-91351300D01*
X126460450Y-91351300D01*
X126567200Y-91244550D01*
X126567200Y-90751300D01*
X126073950Y-90751300D01*
X125967200Y-90858050D01*
X125410948Y-90858050D01*
X125234907Y-90282244D01*
X125967200Y-90282244D01*
X125967200Y-90390550D01*
X126073950Y-90497300D01*
X126567200Y-90497300D01*
X126567200Y-90004050D01*
X126460450Y-89897300D01*
X126352144Y-89897300D01*
X126269649Y-89913709D01*
X126191939Y-89945898D01*
X126122003Y-89992628D01*
X126062527Y-90052103D01*
X126015797Y-90122040D01*
X125983609Y-90199749D01*
X125967200Y-90282244D01*
X125234907Y-90282244D01*
X125110797Y-89876301D01*
X124883662Y-87640199D01*
X125094237Y-85412550D01*
X125238900Y-85412550D01*
X125238900Y-85520856D01*
X125255309Y-85603351D01*
X125287497Y-85681060D01*
X125334227Y-85750997D01*
X125393703Y-85810472D01*
X125463639Y-85857202D01*
X125541349Y-85889391D01*
X125623844Y-85905800D01*
X125732150Y-85905800D01*
X125838900Y-85799050D01*
X125838900Y-85305800D01*
X125345650Y-85305800D01*
X125238900Y-85412550D01*
X125094237Y-85412550D01*
X125095181Y-85402567D01*
X125238900Y-84920470D01*
X125238900Y-84945050D01*
X125345650Y-85051800D01*
X125838900Y-85051800D01*
X125838900Y-84558550D01*
X125732150Y-84451800D01*
X125623844Y-84451800D01*
X125541349Y-84468209D01*
X125463639Y-84500398D01*
X125393703Y-84547128D01*
X125334227Y-84606603D01*
X125331051Y-84611356D01*
X125737297Y-83248632D01*
X126785553Y-81260438D01*
X127908334Y-79873918D01*
X127908334Y-80673500D01*
X127908334Y-80673500D01*
G37*
X127908334Y-80673500D02*
X127913756Y-80741498D01*
X127949473Y-80856830D01*
X128015906Y-80957646D01*
X128107795Y-81035963D01*
X128198400Y-81076805D01*
X128198400Y-81271400D01*
X128185570Y-81275373D01*
X128084754Y-81341806D01*
X128006437Y-81433695D01*
X127956821Y-81543765D01*
X127939834Y-81663300D01*
X127939834Y-82263300D01*
X127945256Y-82331298D01*
X127980973Y-82446630D01*
X128047406Y-82547446D01*
X128139295Y-82625763D01*
X128249365Y-82675379D01*
X128368900Y-82692366D01*
X128968900Y-82692366D01*
X129036898Y-82686944D01*
X129152230Y-82651227D01*
X129169922Y-82639569D01*
X129249365Y-82675379D01*
X129368900Y-82692366D01*
X129825854Y-82692366D01*
X132373936Y-84761041D01*
X132379513Y-84764728D01*
X132384387Y-84769309D01*
X132422382Y-84793071D01*
X132459732Y-84817766D01*
X132465917Y-84820299D01*
X132471590Y-84823847D01*
X132513474Y-84839776D01*
X132554911Y-84856747D01*
X132561472Y-84858031D01*
X132567725Y-84860409D01*
X132611918Y-84867902D01*
X132655849Y-84876498D01*
X132662530Y-84876483D01*
X132669130Y-84877602D01*
X132676473Y-84878067D01*
X135907479Y-85059996D01*
X135877578Y-85200669D01*
X135875313Y-85362836D01*
X135904591Y-85522355D01*
X135910698Y-85537780D01*
X135910698Y-85573348D01*
X135803950Y-85466600D01*
X135695644Y-85466600D01*
X135613149Y-85483009D01*
X135535439Y-85515198D01*
X135465503Y-85561928D01*
X135406027Y-85621403D01*
X135359297Y-85691340D01*
X135327109Y-85769049D01*
X135310700Y-85851544D01*
X135310700Y-85959850D01*
X135417450Y-86066600D01*
X135910700Y-86066600D01*
X135910700Y-86046600D01*
X136164700Y-86046600D01*
X136164700Y-86066600D01*
X136184700Y-86066600D01*
X136184700Y-86320600D01*
X136164700Y-86320600D01*
X136164700Y-86813850D01*
X136271450Y-86920600D01*
X136359200Y-86920600D01*
X136359200Y-86932500D01*
X136268450Y-86932500D01*
X136161700Y-87039250D01*
X136161700Y-87532500D01*
X136181700Y-87532500D01*
X136181700Y-87786500D01*
X136161700Y-87786500D01*
X136161700Y-88279750D01*
X136268450Y-88386500D01*
X136376756Y-88386500D01*
X136459251Y-88370091D01*
X136536961Y-88337902D01*
X136538368Y-88336962D01*
X136615165Y-88371579D01*
X136734700Y-88388566D01*
X137334700Y-88388566D01*
X137360610Y-88386500D01*
X137373885Y-88386500D01*
X137395599Y-88390670D01*
X137276804Y-88463834D01*
X136761600Y-88463834D01*
X136693602Y-88469256D01*
X136578270Y-88504973D01*
X136563833Y-88514486D01*
X136486151Y-88482309D01*
X136403656Y-88465900D01*
X136295350Y-88465900D01*
X136188600Y-88572650D01*
X136188600Y-89065900D01*
X136208600Y-89065900D01*
X136208600Y-89319900D01*
X136188600Y-89319900D01*
X136188600Y-89813150D01*
X136268616Y-89893166D01*
X135441323Y-90477271D01*
X135441535Y-90462109D01*
X135410033Y-90303014D01*
X135348230Y-90153069D01*
X135258480Y-90017983D01*
X135144200Y-89902903D01*
X135009744Y-89812211D01*
X134860234Y-89749363D01*
X134701363Y-89716751D01*
X134539184Y-89715619D01*
X134379874Y-89746009D01*
X134269199Y-89790725D01*
X134244105Y-89769337D01*
X134134035Y-89719721D01*
X134014500Y-89702734D01*
X133902889Y-89702734D01*
X133751364Y-89426650D01*
X135334600Y-89426650D01*
X135334600Y-89534956D01*
X135351009Y-89617451D01*
X135383197Y-89695160D01*
X135429927Y-89765097D01*
X135489403Y-89824572D01*
X135559339Y-89871302D01*
X135637049Y-89903491D01*
X135719544Y-89919900D01*
X135827850Y-89919900D01*
X135934600Y-89813150D01*
X135934600Y-89319900D01*
X135441350Y-89319900D01*
X135334600Y-89426650D01*
X133751364Y-89426650D01*
X133435339Y-88850844D01*
X135334600Y-88850844D01*
X135334600Y-88959150D01*
X135441350Y-89065900D01*
X135934600Y-89065900D01*
X135934600Y-88572650D01*
X135827850Y-88465900D01*
X135719544Y-88465900D01*
X135637049Y-88482309D01*
X135559339Y-88514498D01*
X135489403Y-88561228D01*
X135429927Y-88620703D01*
X135383197Y-88690640D01*
X135351009Y-88768349D01*
X135334600Y-88850844D01*
X133435339Y-88850844D01*
X132909773Y-87893250D01*
X135307700Y-87893250D01*
X135307700Y-88001556D01*
X135324109Y-88084051D01*
X135356297Y-88161760D01*
X135403027Y-88231697D01*
X135462503Y-88291172D01*
X135532439Y-88337902D01*
X135610149Y-88370091D01*
X135692644Y-88386500D01*
X135800950Y-88386500D01*
X135907700Y-88279750D01*
X135907700Y-87786500D01*
X135414450Y-87786500D01*
X135307700Y-87893250D01*
X132909773Y-87893250D01*
X132786255Y-87668198D01*
X132780329Y-87603087D01*
X132748542Y-87495084D01*
X132735912Y-87470924D01*
X132758919Y-87425690D01*
X132761929Y-87374284D01*
X132704733Y-87317444D01*
X135307700Y-87317444D01*
X135307700Y-87425750D01*
X135414450Y-87532500D01*
X135907700Y-87532500D01*
X135907700Y-87039250D01*
X135800950Y-86932500D01*
X135692644Y-86932500D01*
X135610149Y-86948909D01*
X135532439Y-86981098D01*
X135462503Y-87027828D01*
X135403027Y-87087303D01*
X135356297Y-87157240D01*
X135324109Y-87234949D01*
X135307700Y-87317444D01*
X132704733Y-87317444D01*
X132672820Y-87285730D01*
X132599808Y-87285730D01*
X132539594Y-87235205D01*
X132495342Y-87210878D01*
X132532916Y-87190899D01*
X132600388Y-87135870D01*
X132672820Y-87135870D01*
X132761929Y-87047316D01*
X132758919Y-86995910D01*
X132736166Y-86951176D01*
X132745473Y-86933962D01*
X132778765Y-86826414D01*
X132790533Y-86714447D01*
X132780329Y-86602327D01*
X132748542Y-86494324D01*
X132713529Y-86427350D01*
X135310700Y-86427350D01*
X135310700Y-86535656D01*
X135327109Y-86618151D01*
X135359297Y-86695860D01*
X135406027Y-86765797D01*
X135465503Y-86825272D01*
X135535439Y-86872002D01*
X135613149Y-86904191D01*
X135695644Y-86920600D01*
X135803950Y-86920600D01*
X135910700Y-86813850D01*
X135910700Y-86320600D01*
X135417450Y-86320600D01*
X135310700Y-86427350D01*
X132713529Y-86427350D01*
X132696383Y-86394553D01*
X132625838Y-86306812D01*
X132539594Y-86234445D01*
X132440936Y-86180208D01*
X132333623Y-86146166D01*
X132221741Y-86133616D01*
X132213687Y-86133560D01*
X131835620Y-86133560D01*
X131835620Y-85255113D01*
X131824634Y-85143067D01*
X131792094Y-85035289D01*
X131739239Y-84935884D01*
X131668083Y-84848638D01*
X131581336Y-84776874D01*
X131482302Y-84723327D01*
X131374754Y-84690035D01*
X131262787Y-84678267D01*
X131150667Y-84688471D01*
X131042664Y-84720258D01*
X131018504Y-84732888D01*
X130973270Y-84709881D01*
X130921864Y-84706871D01*
X130833310Y-84795980D01*
X130833310Y-84868992D01*
X130782785Y-84929206D01*
X130758458Y-84973458D01*
X130738479Y-84935884D01*
X130683450Y-84868412D01*
X130683450Y-84795980D01*
X130594896Y-84706871D01*
X130543490Y-84709881D01*
X130498756Y-84732634D01*
X130481542Y-84723327D01*
X130373994Y-84690035D01*
X130262027Y-84678267D01*
X130149907Y-84688471D01*
X130041904Y-84720258D01*
X130017744Y-84732888D01*
X129972510Y-84709881D01*
X129921104Y-84706871D01*
X129832550Y-84795980D01*
X129832550Y-84868992D01*
X129782025Y-84929206D01*
X129757698Y-84973458D01*
X129737719Y-84935884D01*
X129682690Y-84868412D01*
X129682690Y-84795980D01*
X129594136Y-84706871D01*
X129542730Y-84709881D01*
X129497996Y-84732634D01*
X129480782Y-84723327D01*
X129373234Y-84690035D01*
X129261267Y-84678267D01*
X129149147Y-84688471D01*
X129041144Y-84720258D01*
X128941373Y-84772417D01*
X128853632Y-84842962D01*
X128827828Y-84873714D01*
X128830035Y-84715709D01*
X128798533Y-84556614D01*
X128736730Y-84406669D01*
X128646980Y-84271583D01*
X128532700Y-84156503D01*
X128398244Y-84065811D01*
X128248734Y-84002963D01*
X128089863Y-83970351D01*
X127927684Y-83969219D01*
X127768374Y-83999609D01*
X127716719Y-84020479D01*
X127543037Y-83974420D01*
X127526364Y-83971704D01*
X127510256Y-83966594D01*
X127461274Y-83961100D01*
X127412629Y-83953175D01*
X127395741Y-83953749D01*
X127378952Y-83951866D01*
X127369500Y-83951800D01*
X127162300Y-83951800D01*
X127100086Y-83957900D01*
X127037765Y-83963352D01*
X127034345Y-83964346D01*
X127030803Y-83964693D01*
X126970932Y-83982769D01*
X126910884Y-84000215D01*
X126907725Y-84001852D01*
X126904315Y-84002882D01*
X126849081Y-84032251D01*
X126793579Y-84061020D01*
X126790797Y-84063241D01*
X126787654Y-84064912D01*
X126739203Y-84104428D01*
X126690319Y-84143452D01*
X126685363Y-84148339D01*
X126685263Y-84148421D01*
X126685186Y-84148514D01*
X126683589Y-84150089D01*
X126537189Y-84296489D01*
X126497509Y-84344796D01*
X126457298Y-84392717D01*
X126455583Y-84395837D01*
X126453323Y-84398588D01*
X126423784Y-84453678D01*
X126411095Y-84476760D01*
X126390451Y-84468209D01*
X126307956Y-84451800D01*
X126199650Y-84451800D01*
X126092900Y-84558550D01*
X126092900Y-85051800D01*
X126112900Y-85051800D01*
X126112900Y-85305800D01*
X126092900Y-85305800D01*
X126092900Y-85799050D01*
X126199650Y-85905800D01*
X126302751Y-85905800D01*
X126319351Y-85937019D01*
X126348120Y-85992521D01*
X126350341Y-85995303D01*
X126352012Y-85998446D01*
X126391528Y-86046897D01*
X126430552Y-86095781D01*
X126435439Y-86100737D01*
X126435521Y-86100837D01*
X126435614Y-86100914D01*
X126437189Y-86102511D01*
X126642189Y-86307511D01*
X126647415Y-86311803D01*
X126651814Y-86316947D01*
X126698434Y-86353712D01*
X126744288Y-86391377D01*
X126750249Y-86394574D01*
X126755562Y-86398763D01*
X126763556Y-86403808D01*
X127515656Y-86871208D01*
X127551529Y-86888906D01*
X127552460Y-86889598D01*
X127565439Y-86895769D01*
X127634148Y-86929666D01*
X127640119Y-86931273D01*
X127645349Y-86933759D01*
X127652288Y-86936206D01*
X127775210Y-86978597D01*
X127770527Y-86987258D01*
X127737235Y-87094806D01*
X127725467Y-87206773D01*
X127735671Y-87318893D01*
X127767458Y-87426896D01*
X127785112Y-87460664D01*
X127770527Y-87487638D01*
X127737235Y-87595186D01*
X127725467Y-87707153D01*
X127735671Y-87819273D01*
X127767458Y-87927276D01*
X127819617Y-88027047D01*
X127890162Y-88114788D01*
X127976406Y-88187155D01*
X128075064Y-88241392D01*
X128182377Y-88275434D01*
X128294259Y-88287984D01*
X128302313Y-88288040D01*
X128678314Y-88288040D01*
X128678314Y-88836596D01*
X128499726Y-88891348D01*
X128475302Y-88901537D01*
X128449313Y-88908970D01*
X128413758Y-88927212D01*
X128404802Y-88930948D01*
X128399351Y-88934603D01*
X128331755Y-88969284D01*
X128323843Y-88974454D01*
X127516343Y-89510154D01*
X127467656Y-89549806D01*
X127418619Y-89588952D01*
X127414013Y-89593494D01*
X127413893Y-89593592D01*
X127413799Y-89593705D01*
X127411889Y-89595589D01*
X127265489Y-89741989D01*
X127225809Y-89790296D01*
X127185598Y-89838217D01*
X127183883Y-89841337D01*
X127181623Y-89844088D01*
X127152067Y-89899209D01*
X127139395Y-89922260D01*
X127118751Y-89913709D01*
X127036256Y-89897300D01*
X126927950Y-89897300D01*
X126821200Y-90004050D01*
X126821200Y-90497300D01*
X126841200Y-90497300D01*
X126841200Y-90751300D01*
X126821200Y-90751300D01*
X126821200Y-91244550D01*
X126927950Y-91351300D01*
X127036256Y-91351300D01*
X127098865Y-91338846D01*
X127232754Y-92487295D01*
X127241298Y-92526647D01*
X127246810Y-92566547D01*
X127255285Y-92591069D01*
X127260788Y-92616414D01*
X127276813Y-92653359D01*
X127289970Y-92691426D01*
X127303044Y-92713831D01*
X127313367Y-92737629D01*
X127336263Y-92770757D01*
X127356563Y-92805545D01*
X127362155Y-92813166D01*
X128294334Y-94065351D01*
X128294334Y-95447400D01*
X128299756Y-95515398D01*
X128325337Y-95598000D01*
X128137294Y-95598000D01*
X126830042Y-94006525D01*
X125767935Y-92025703D01*
X125410948Y-90858050D01*
X125967200Y-90858050D01*
X125967200Y-90966356D01*
X125983609Y-91048851D01*
X126015797Y-91126560D01*
X126062527Y-91196497D01*
X126122003Y-91255972D01*
X126191939Y-91302702D01*
X126269649Y-91334891D01*
X126352144Y-91351300D01*
X126460450Y-91351300D01*
X126567200Y-91244550D01*
X126567200Y-90751300D01*
X126073950Y-90751300D01*
X125967200Y-90858050D01*
X125410948Y-90858050D01*
X125234907Y-90282244D01*
X125967200Y-90282244D01*
X125967200Y-90390550D01*
X126073950Y-90497300D01*
X126567200Y-90497300D01*
X126567200Y-90004050D01*
X126460450Y-89897300D01*
X126352144Y-89897300D01*
X126269649Y-89913709D01*
X126191939Y-89945898D01*
X126122003Y-89992628D01*
X126062527Y-90052103D01*
X126015797Y-90122040D01*
X125983609Y-90199749D01*
X125967200Y-90282244D01*
X125234907Y-90282244D01*
X125110797Y-89876301D01*
X124883662Y-87640199D01*
X125094237Y-85412550D01*
X125238900Y-85412550D01*
X125238900Y-85520856D01*
X125255309Y-85603351D01*
X125287497Y-85681060D01*
X125334227Y-85750997D01*
X125393703Y-85810472D01*
X125463639Y-85857202D01*
X125541349Y-85889391D01*
X125623844Y-85905800D01*
X125732150Y-85905800D01*
X125838900Y-85799050D01*
X125838900Y-85305800D01*
X125345650Y-85305800D01*
X125238900Y-85412550D01*
X125094237Y-85412550D01*
X125095181Y-85402567D01*
X125238900Y-84920470D01*
X125238900Y-84945050D01*
X125345650Y-85051800D01*
X125838900Y-85051800D01*
X125838900Y-84558550D01*
X125732150Y-84451800D01*
X125623844Y-84451800D01*
X125541349Y-84468209D01*
X125463639Y-84500398D01*
X125393703Y-84547128D01*
X125334227Y-84606603D01*
X125331051Y-84611356D01*
X125737297Y-83248632D01*
X126785553Y-81260438D01*
X127908334Y-79873918D01*
X127908334Y-80673500D01*
G36*
X149076250Y-93999811D02*
X148964696Y-94162732D01*
X148873766Y-94374889D01*
X148825776Y-94600666D01*
X148822553Y-94831465D01*
X148864221Y-95058495D01*
X148949192Y-95273107D01*
X149074230Y-95467128D01*
X149200611Y-95598000D01*
X148259047Y-95598000D01*
X148356394Y-95505297D01*
X148489447Y-95316683D01*
X148583331Y-95105817D01*
X148634469Y-94880731D01*
X148638150Y-94617089D01*
X148593317Y-94390664D01*
X148505358Y-94177258D01*
X148377623Y-93985002D01*
X148214978Y-93821218D01*
X148023618Y-93692144D01*
X147810832Y-93602697D01*
X147698889Y-93579719D01*
X147092213Y-91306509D01*
X146826540Y-89193745D01*
X149076250Y-93999811D01*
X149076250Y-93999811D01*
G37*
X149076250Y-93999811D02*
X148964696Y-94162732D01*
X148873766Y-94374889D01*
X148825776Y-94600666D01*
X148822553Y-94831465D01*
X148864221Y-95058495D01*
X148949192Y-95273107D01*
X149074230Y-95467128D01*
X149200611Y-95598000D01*
X148259047Y-95598000D01*
X148356394Y-95505297D01*
X148489447Y-95316683D01*
X148583331Y-95105817D01*
X148634469Y-94880731D01*
X148638150Y-94617089D01*
X148593317Y-94390664D01*
X148505358Y-94177258D01*
X148377623Y-93985002D01*
X148214978Y-93821218D01*
X148023618Y-93692144D01*
X147810832Y-93602697D01*
X147698889Y-93579719D01*
X147092213Y-91306509D01*
X146826540Y-89193745D01*
X149076250Y-93999811D01*
G36*
X145567499Y-87629163D02*
X145600399Y-87890800D01*
X145588700Y-87890800D01*
X145588700Y-88384050D01*
X145673028Y-88468378D01*
X145693921Y-88634529D01*
X145659400Y-88669050D01*
X145659400Y-89162300D01*
X145679400Y-89162300D01*
X145679400Y-89416300D01*
X145659400Y-89416300D01*
X145659400Y-89909550D01*
X145766150Y-90016300D01*
X145867674Y-90016300D01*
X146050918Y-91473551D01*
X146058006Y-91504833D01*
X146062773Y-91536568D01*
X146064621Y-91543690D01*
X146680098Y-93849874D01*
X146555103Y-93972278D01*
X146424696Y-94162732D01*
X146333766Y-94374889D01*
X146285776Y-94600666D01*
X146282553Y-94831465D01*
X146324221Y-95058495D01*
X146409192Y-95273107D01*
X146534230Y-95467128D01*
X146660611Y-95598000D01*
X146083491Y-95598000D01*
X146098100Y-95524556D01*
X146098100Y-94966250D01*
X145991350Y-94859500D01*
X145048100Y-94859500D01*
X145048100Y-94879500D01*
X144794100Y-94879500D01*
X144794100Y-94859500D01*
X143850850Y-94859500D01*
X143744100Y-94966250D01*
X143744100Y-95524556D01*
X143758709Y-95598000D01*
X142465721Y-95598000D01*
X142470666Y-95563200D01*
X142470666Y-94547200D01*
X142465244Y-94479202D01*
X142429527Y-94363870D01*
X142363094Y-94263054D01*
X142271205Y-94184737D01*
X142161135Y-94135121D01*
X142041600Y-94118134D01*
X141671848Y-94118134D01*
X141615125Y-93963266D01*
X142011900Y-93963266D01*
X142079898Y-93957844D01*
X142136083Y-93940444D01*
X143744100Y-93940444D01*
X143744100Y-94498750D01*
X143850850Y-94605500D01*
X144794100Y-94605500D01*
X144794100Y-93662250D01*
X145048100Y-93662250D01*
X145048100Y-94605500D01*
X145991350Y-94605500D01*
X146098100Y-94498750D01*
X146098100Y-93940444D01*
X146081691Y-93857949D01*
X146049503Y-93780240D01*
X146002773Y-93710303D01*
X145943297Y-93650828D01*
X145873361Y-93604098D01*
X145795651Y-93571909D01*
X145713156Y-93555500D01*
X145154850Y-93555500D01*
X145048100Y-93662250D01*
X144794100Y-93662250D01*
X144687350Y-93555500D01*
X144129044Y-93555500D01*
X144046549Y-93571909D01*
X143968839Y-93604098D01*
X143898903Y-93650828D01*
X143839427Y-93710303D01*
X143792697Y-93780240D01*
X143760509Y-93857949D01*
X143744100Y-93940444D01*
X142136083Y-93940444D01*
X142195230Y-93922127D01*
X142296046Y-93855694D01*
X142374363Y-93763805D01*
X142423979Y-93653735D01*
X142440966Y-93534200D01*
X142440966Y-93016166D01*
X143207059Y-91524138D01*
X143253273Y-91515989D01*
X143404480Y-91457340D01*
X143541415Y-91370438D01*
X143658864Y-91258593D01*
X143752351Y-91126066D01*
X143818317Y-90977905D01*
X143854248Y-90819752D01*
X143856835Y-90634509D01*
X143825333Y-90475414D01*
X143763530Y-90325469D01*
X143673780Y-90190383D01*
X143559500Y-90075303D01*
X143425044Y-89984611D01*
X143408366Y-89977600D01*
X143408366Y-89815100D01*
X143402944Y-89747102D01*
X143393802Y-89717583D01*
X143408366Y-89615100D01*
X143408366Y-89315100D01*
X143402944Y-89247102D01*
X143393802Y-89217583D01*
X143408366Y-89115100D01*
X143408366Y-88815100D01*
X143402944Y-88747102D01*
X143393802Y-88717583D01*
X143408366Y-88615100D01*
X143408366Y-88551798D01*
X143488866Y-88552574D01*
X143498276Y-88551677D01*
X143820000Y-88518727D01*
X143820000Y-88872024D01*
X143803334Y-88989300D01*
X143803334Y-89589300D01*
X143808756Y-89657298D01*
X143844473Y-89772630D01*
X143910906Y-89873446D01*
X143927522Y-89887608D01*
X143931592Y-89913818D01*
X143881698Y-90030230D01*
X143847978Y-90188869D01*
X143845713Y-90351036D01*
X143874991Y-90510555D01*
X143934694Y-90661349D01*
X144022550Y-90797674D01*
X144135212Y-90914339D01*
X144268388Y-91006899D01*
X144417007Y-91071829D01*
X144575406Y-91106655D01*
X144737554Y-91110052D01*
X144897273Y-91081889D01*
X145048480Y-91023240D01*
X145185415Y-90936338D01*
X145302864Y-90824493D01*
X145396351Y-90691966D01*
X145462317Y-90543805D01*
X145498248Y-90385652D01*
X145500835Y-90200409D01*
X145469333Y-90041314D01*
X145407530Y-89891369D01*
X145405400Y-89888163D01*
X145405400Y-89416300D01*
X145385400Y-89416300D01*
X145385400Y-89162300D01*
X145405400Y-89162300D01*
X145405400Y-88669050D01*
X145298650Y-88562300D01*
X145190344Y-88562300D01*
X145174000Y-88565551D01*
X145174000Y-88490800D01*
X145227950Y-88490800D01*
X145334700Y-88384050D01*
X145334700Y-87890800D01*
X145314700Y-87890800D01*
X145314700Y-87636800D01*
X145334700Y-87636800D01*
X145334700Y-87616800D01*
X145515562Y-87616800D01*
X145567499Y-87629163D01*
X145567499Y-87629163D01*
G37*
X145567499Y-87629163D02*
X145600399Y-87890800D01*
X145588700Y-87890800D01*
X145588700Y-88384050D01*
X145673028Y-88468378D01*
X145693921Y-88634529D01*
X145659400Y-88669050D01*
X145659400Y-89162300D01*
X145679400Y-89162300D01*
X145679400Y-89416300D01*
X145659400Y-89416300D01*
X145659400Y-89909550D01*
X145766150Y-90016300D01*
X145867674Y-90016300D01*
X146050918Y-91473551D01*
X146058006Y-91504833D01*
X146062773Y-91536568D01*
X146064621Y-91543690D01*
X146680098Y-93849874D01*
X146555103Y-93972278D01*
X146424696Y-94162732D01*
X146333766Y-94374889D01*
X146285776Y-94600666D01*
X146282553Y-94831465D01*
X146324221Y-95058495D01*
X146409192Y-95273107D01*
X146534230Y-95467128D01*
X146660611Y-95598000D01*
X146083491Y-95598000D01*
X146098100Y-95524556D01*
X146098100Y-94966250D01*
X145991350Y-94859500D01*
X145048100Y-94859500D01*
X145048100Y-94879500D01*
X144794100Y-94879500D01*
X144794100Y-94859500D01*
X143850850Y-94859500D01*
X143744100Y-94966250D01*
X143744100Y-95524556D01*
X143758709Y-95598000D01*
X142465721Y-95598000D01*
X142470666Y-95563200D01*
X142470666Y-94547200D01*
X142465244Y-94479202D01*
X142429527Y-94363870D01*
X142363094Y-94263054D01*
X142271205Y-94184737D01*
X142161135Y-94135121D01*
X142041600Y-94118134D01*
X141671848Y-94118134D01*
X141615125Y-93963266D01*
X142011900Y-93963266D01*
X142079898Y-93957844D01*
X142136083Y-93940444D01*
X143744100Y-93940444D01*
X143744100Y-94498750D01*
X143850850Y-94605500D01*
X144794100Y-94605500D01*
X144794100Y-93662250D01*
X145048100Y-93662250D01*
X145048100Y-94605500D01*
X145991350Y-94605500D01*
X146098100Y-94498750D01*
X146098100Y-93940444D01*
X146081691Y-93857949D01*
X146049503Y-93780240D01*
X146002773Y-93710303D01*
X145943297Y-93650828D01*
X145873361Y-93604098D01*
X145795651Y-93571909D01*
X145713156Y-93555500D01*
X145154850Y-93555500D01*
X145048100Y-93662250D01*
X144794100Y-93662250D01*
X144687350Y-93555500D01*
X144129044Y-93555500D01*
X144046549Y-93571909D01*
X143968839Y-93604098D01*
X143898903Y-93650828D01*
X143839427Y-93710303D01*
X143792697Y-93780240D01*
X143760509Y-93857949D01*
X143744100Y-93940444D01*
X142136083Y-93940444D01*
X142195230Y-93922127D01*
X142296046Y-93855694D01*
X142374363Y-93763805D01*
X142423979Y-93653735D01*
X142440966Y-93534200D01*
X142440966Y-93016166D01*
X143207059Y-91524138D01*
X143253273Y-91515989D01*
X143404480Y-91457340D01*
X143541415Y-91370438D01*
X143658864Y-91258593D01*
X143752351Y-91126066D01*
X143818317Y-90977905D01*
X143854248Y-90819752D01*
X143856835Y-90634509D01*
X143825333Y-90475414D01*
X143763530Y-90325469D01*
X143673780Y-90190383D01*
X143559500Y-90075303D01*
X143425044Y-89984611D01*
X143408366Y-89977600D01*
X143408366Y-89815100D01*
X143402944Y-89747102D01*
X143393802Y-89717583D01*
X143408366Y-89615100D01*
X143408366Y-89315100D01*
X143402944Y-89247102D01*
X143393802Y-89217583D01*
X143408366Y-89115100D01*
X143408366Y-88815100D01*
X143402944Y-88747102D01*
X143393802Y-88717583D01*
X143408366Y-88615100D01*
X143408366Y-88551798D01*
X143488866Y-88552574D01*
X143498276Y-88551677D01*
X143820000Y-88518727D01*
X143820000Y-88872024D01*
X143803334Y-88989300D01*
X143803334Y-89589300D01*
X143808756Y-89657298D01*
X143844473Y-89772630D01*
X143910906Y-89873446D01*
X143927522Y-89887608D01*
X143931592Y-89913818D01*
X143881698Y-90030230D01*
X143847978Y-90188869D01*
X143845713Y-90351036D01*
X143874991Y-90510555D01*
X143934694Y-90661349D01*
X144022550Y-90797674D01*
X144135212Y-90914339D01*
X144268388Y-91006899D01*
X144417007Y-91071829D01*
X144575406Y-91106655D01*
X144737554Y-91110052D01*
X144897273Y-91081889D01*
X145048480Y-91023240D01*
X145185415Y-90936338D01*
X145302864Y-90824493D01*
X145396351Y-90691966D01*
X145462317Y-90543805D01*
X145498248Y-90385652D01*
X145500835Y-90200409D01*
X145469333Y-90041314D01*
X145407530Y-89891369D01*
X145405400Y-89888163D01*
X145405400Y-89416300D01*
X145385400Y-89416300D01*
X145385400Y-89162300D01*
X145405400Y-89162300D01*
X145405400Y-88669050D01*
X145298650Y-88562300D01*
X145190344Y-88562300D01*
X145174000Y-88565551D01*
X145174000Y-88490800D01*
X145227950Y-88490800D01*
X145334700Y-88384050D01*
X145334700Y-87890800D01*
X145314700Y-87890800D01*
X145314700Y-87636800D01*
X145334700Y-87636800D01*
X145334700Y-87616800D01*
X145515562Y-87616800D01*
X145567499Y-87629163D01*
G36*
X150898000Y-93965242D02*
X150754978Y-93821218D01*
X150563618Y-93692144D01*
X150350832Y-93602697D01*
X150124725Y-93556284D01*
X150032093Y-93555637D01*
X146939996Y-86949978D01*
X146921423Y-86918677D01*
X146904679Y-86886375D01*
X146895235Y-86874545D01*
X146887510Y-86861526D01*
X146863216Y-86834435D01*
X146840512Y-86805994D01*
X146835345Y-86800755D01*
X146424745Y-86390155D01*
X146394871Y-86365616D01*
X146366227Y-86339654D01*
X146355205Y-86333034D01*
X146345267Y-86324871D01*
X146311190Y-86306599D01*
X146278055Y-86286698D01*
X146265959Y-86282346D01*
X146254624Y-86276268D01*
X146217656Y-86264966D01*
X146181277Y-86251877D01*
X146174131Y-86250123D01*
X142820731Y-85451923D01*
X142814379Y-85451054D01*
X142808269Y-85449116D01*
X142763463Y-85444090D01*
X142718827Y-85437985D01*
X142712433Y-85438366D01*
X142706058Y-85437651D01*
X142698700Y-85437600D01*
X142104800Y-85437600D01*
X142104680Y-85437612D01*
X142102160Y-85437607D01*
X142002360Y-85438107D01*
X141955257Y-85442964D01*
X141932184Y-85444982D01*
X141941776Y-85368566D01*
X141959300Y-85368566D01*
X142027298Y-85363144D01*
X142142630Y-85327427D01*
X142160322Y-85315769D01*
X142239765Y-85351579D01*
X142359300Y-85368566D01*
X142959300Y-85368566D01*
X143027298Y-85363144D01*
X143042402Y-85358466D01*
X143154388Y-85436299D01*
X143303007Y-85501229D01*
X143461406Y-85536055D01*
X143623554Y-85539452D01*
X143783273Y-85511289D01*
X143934480Y-85452640D01*
X144071415Y-85365738D01*
X144188864Y-85253893D01*
X144282351Y-85121366D01*
X144348317Y-84973205D01*
X144376200Y-84850478D01*
X148239984Y-82636466D01*
X148744700Y-82636466D01*
X148812698Y-82631044D01*
X148928030Y-82595327D01*
X148945722Y-82583669D01*
X149025165Y-82619479D01*
X149144700Y-82636466D01*
X149744700Y-82636466D01*
X149812698Y-82631044D01*
X149928030Y-82595327D01*
X150028846Y-82528894D01*
X150107163Y-82437005D01*
X150156779Y-82326935D01*
X150173766Y-82207400D01*
X150173766Y-81685882D01*
X150491732Y-81047766D01*
X150885100Y-81047766D01*
X150898000Y-81046737D01*
X150898000Y-93965242D01*
X150898000Y-93965242D01*
G37*
X150898000Y-93965242D02*
X150754978Y-93821218D01*
X150563618Y-93692144D01*
X150350832Y-93602697D01*
X150124725Y-93556284D01*
X150032093Y-93555637D01*
X146939996Y-86949978D01*
X146921423Y-86918677D01*
X146904679Y-86886375D01*
X146895235Y-86874545D01*
X146887510Y-86861526D01*
X146863216Y-86834435D01*
X146840512Y-86805994D01*
X146835345Y-86800755D01*
X146424745Y-86390155D01*
X146394871Y-86365616D01*
X146366227Y-86339654D01*
X146355205Y-86333034D01*
X146345267Y-86324871D01*
X146311190Y-86306599D01*
X146278055Y-86286698D01*
X146265959Y-86282346D01*
X146254624Y-86276268D01*
X146217656Y-86264966D01*
X146181277Y-86251877D01*
X146174131Y-86250123D01*
X142820731Y-85451923D01*
X142814379Y-85451054D01*
X142808269Y-85449116D01*
X142763463Y-85444090D01*
X142718827Y-85437985D01*
X142712433Y-85438366D01*
X142706058Y-85437651D01*
X142698700Y-85437600D01*
X142104800Y-85437600D01*
X142104680Y-85437612D01*
X142102160Y-85437607D01*
X142002360Y-85438107D01*
X141955257Y-85442964D01*
X141932184Y-85444982D01*
X141941776Y-85368566D01*
X141959300Y-85368566D01*
X142027298Y-85363144D01*
X142142630Y-85327427D01*
X142160322Y-85315769D01*
X142239765Y-85351579D01*
X142359300Y-85368566D01*
X142959300Y-85368566D01*
X143027298Y-85363144D01*
X143042402Y-85358466D01*
X143154388Y-85436299D01*
X143303007Y-85501229D01*
X143461406Y-85536055D01*
X143623554Y-85539452D01*
X143783273Y-85511289D01*
X143934480Y-85452640D01*
X144071415Y-85365738D01*
X144188864Y-85253893D01*
X144282351Y-85121366D01*
X144348317Y-84973205D01*
X144376200Y-84850478D01*
X148239984Y-82636466D01*
X148744700Y-82636466D01*
X148812698Y-82631044D01*
X148928030Y-82595327D01*
X148945722Y-82583669D01*
X149025165Y-82619479D01*
X149144700Y-82636466D01*
X149744700Y-82636466D01*
X149812698Y-82631044D01*
X149928030Y-82595327D01*
X150028846Y-82528894D01*
X150107163Y-82437005D01*
X150156779Y-82326935D01*
X150173766Y-82207400D01*
X150173766Y-81685882D01*
X150491732Y-81047766D01*
X150885100Y-81047766D01*
X150898000Y-81046737D01*
X150898000Y-93965242D01*
G36*
X137407734Y-91081141D02*
X137404584Y-91081119D01*
X137245274Y-91111509D01*
X137094901Y-91172264D01*
X136959192Y-91261069D01*
X136843316Y-91374543D01*
X136751688Y-91508362D01*
X136687798Y-91657430D01*
X136654078Y-91816069D01*
X136651813Y-91978236D01*
X136681091Y-92137755D01*
X136740794Y-92288549D01*
X136765002Y-92326113D01*
X136341129Y-92436373D01*
X136310311Y-92447700D01*
X136278768Y-92456817D01*
X136271951Y-92459588D01*
X136091551Y-92534388D01*
X136060981Y-92550725D01*
X136029416Y-92565084D01*
X136023074Y-92568814D01*
X135854321Y-92669653D01*
X135671331Y-92675027D01*
X135661442Y-92676291D01*
X135651482Y-92675985D01*
X135610506Y-92682799D01*
X135569308Y-92688064D01*
X135559859Y-92691222D01*
X135550024Y-92692858D01*
X135542931Y-92694818D01*
X133974432Y-93139918D01*
X133932226Y-93156495D01*
X133889574Y-93172122D01*
X133882968Y-93175362D01*
X132721312Y-93755114D01*
X132575918Y-93657044D01*
X132363132Y-93567597D01*
X132137025Y-93521184D01*
X131943595Y-93519834D01*
X131952478Y-93516960D01*
X133939408Y-92858800D01*
X134200900Y-92858800D01*
X134205764Y-92858323D01*
X134210633Y-92858730D01*
X134271469Y-92851881D01*
X134332397Y-92845907D01*
X134337075Y-92844495D01*
X134341931Y-92843948D01*
X134400272Y-92825414D01*
X134458885Y-92807718D01*
X134463201Y-92805423D01*
X134467857Y-92803944D01*
X134521482Y-92774434D01*
X134575546Y-92745688D01*
X134579333Y-92742599D01*
X134583615Y-92740243D01*
X134591374Y-92734845D01*
X137161591Y-90920160D01*
X137223254Y-90921452D01*
X137382973Y-90893289D01*
X137534180Y-90834640D01*
X137608945Y-90787192D01*
X137407734Y-91081141D01*
X137407734Y-91081141D01*
G37*
X137407734Y-91081141D02*
X137404584Y-91081119D01*
X137245274Y-91111509D01*
X137094901Y-91172264D01*
X136959192Y-91261069D01*
X136843316Y-91374543D01*
X136751688Y-91508362D01*
X136687798Y-91657430D01*
X136654078Y-91816069D01*
X136651813Y-91978236D01*
X136681091Y-92137755D01*
X136740794Y-92288549D01*
X136765002Y-92326113D01*
X136341129Y-92436373D01*
X136310311Y-92447700D01*
X136278768Y-92456817D01*
X136271951Y-92459588D01*
X136091551Y-92534388D01*
X136060981Y-92550725D01*
X136029416Y-92565084D01*
X136023074Y-92568814D01*
X135854321Y-92669653D01*
X135671331Y-92675027D01*
X135661442Y-92676291D01*
X135651482Y-92675985D01*
X135610506Y-92682799D01*
X135569308Y-92688064D01*
X135559859Y-92691222D01*
X135550024Y-92692858D01*
X135542931Y-92694818D01*
X133974432Y-93139918D01*
X133932226Y-93156495D01*
X133889574Y-93172122D01*
X133882968Y-93175362D01*
X132721312Y-93755114D01*
X132575918Y-93657044D01*
X132363132Y-93567597D01*
X132137025Y-93521184D01*
X131943595Y-93519834D01*
X131952478Y-93516960D01*
X133939408Y-92858800D01*
X134200900Y-92858800D01*
X134205764Y-92858323D01*
X134210633Y-92858730D01*
X134271469Y-92851881D01*
X134332397Y-92845907D01*
X134337075Y-92844495D01*
X134341931Y-92843948D01*
X134400272Y-92825414D01*
X134458885Y-92807718D01*
X134463201Y-92805423D01*
X134467857Y-92803944D01*
X134521482Y-92774434D01*
X134575546Y-92745688D01*
X134579333Y-92742599D01*
X134583615Y-92740243D01*
X134591374Y-92734845D01*
X137161591Y-90920160D01*
X137223254Y-90921452D01*
X137382973Y-90893289D01*
X137534180Y-90834640D01*
X137608945Y-90787192D01*
X137407734Y-91081141D01*
G36*
X129230600Y-90424640D02*
X129172370Y-90442673D01*
X129071554Y-90509106D01*
X128993237Y-90600995D01*
X128943621Y-90711065D01*
X128926634Y-90830600D01*
X128926634Y-91430600D01*
X128932056Y-91498598D01*
X128967773Y-91613930D01*
X128977286Y-91628367D01*
X128945109Y-91706049D01*
X128928700Y-91788544D01*
X128928700Y-91896850D01*
X129035450Y-92003600D01*
X129528700Y-92003600D01*
X129528700Y-91983600D01*
X129782700Y-91983600D01*
X129782700Y-92003600D01*
X130275950Y-92003600D01*
X130382700Y-91896850D01*
X130382700Y-91788544D01*
X130366291Y-91706049D01*
X130334102Y-91628339D01*
X130333162Y-91626932D01*
X130367779Y-91550135D01*
X130384766Y-91430600D01*
X130384766Y-90830600D01*
X130379344Y-90762602D01*
X130343627Y-90647270D01*
X130284600Y-90557693D01*
X130284600Y-90298990D01*
X130285253Y-90305446D01*
X130288242Y-90315237D01*
X130289666Y-90325376D01*
X130303235Y-90364351D01*
X130315282Y-90403816D01*
X130318154Y-90410591D01*
X130524134Y-90887140D01*
X130524134Y-91424300D01*
X130529556Y-91492298D01*
X130565273Y-91607630D01*
X130576931Y-91625322D01*
X130541121Y-91704765D01*
X130524134Y-91824300D01*
X130524134Y-92424300D01*
X130529556Y-92492298D01*
X130565273Y-92607630D01*
X130631706Y-92708446D01*
X130661270Y-92733644D01*
X130662864Y-92738132D01*
X130672475Y-92769962D01*
X130037500Y-93518334D01*
X129563573Y-93518334D01*
X129562051Y-93515726D01*
X129537288Y-93469154D01*
X129528802Y-93458749D01*
X129522036Y-93447155D01*
X129516445Y-93439534D01*
X128716033Y-92364350D01*
X128928700Y-92364350D01*
X128928700Y-92472656D01*
X128945109Y-92555151D01*
X128977298Y-92632861D01*
X129024028Y-92702797D01*
X129083503Y-92762273D01*
X129153440Y-92809003D01*
X129231149Y-92841191D01*
X129313644Y-92857600D01*
X129421950Y-92857600D01*
X129528700Y-92750850D01*
X129528700Y-92257600D01*
X129782700Y-92257600D01*
X129782700Y-92750850D01*
X129889450Y-92857600D01*
X129997756Y-92857600D01*
X130080251Y-92841191D01*
X130157960Y-92809003D01*
X130227897Y-92762273D01*
X130287372Y-92702797D01*
X130334102Y-92632861D01*
X130366291Y-92555151D01*
X130382700Y-92472656D01*
X130382700Y-92364350D01*
X130275950Y-92257600D01*
X129782700Y-92257600D01*
X129528700Y-92257600D01*
X129035450Y-92257600D01*
X128928700Y-92364350D01*
X128716033Y-92364350D01*
X128556628Y-92150224D01*
X128421200Y-90988568D01*
X128421200Y-90938838D01*
X128423266Y-90924300D01*
X128423266Y-90533357D01*
X129072357Y-90102746D01*
X129174807Y-90019308D01*
X129230600Y-89951960D01*
X129230600Y-90424640D01*
X129230600Y-90424640D01*
G37*
X129230600Y-90424640D02*
X129172370Y-90442673D01*
X129071554Y-90509106D01*
X128993237Y-90600995D01*
X128943621Y-90711065D01*
X128926634Y-90830600D01*
X128926634Y-91430600D01*
X128932056Y-91498598D01*
X128967773Y-91613930D01*
X128977286Y-91628367D01*
X128945109Y-91706049D01*
X128928700Y-91788544D01*
X128928700Y-91896850D01*
X129035450Y-92003600D01*
X129528700Y-92003600D01*
X129528700Y-91983600D01*
X129782700Y-91983600D01*
X129782700Y-92003600D01*
X130275950Y-92003600D01*
X130382700Y-91896850D01*
X130382700Y-91788544D01*
X130366291Y-91706049D01*
X130334102Y-91628339D01*
X130333162Y-91626932D01*
X130367779Y-91550135D01*
X130384766Y-91430600D01*
X130384766Y-90830600D01*
X130379344Y-90762602D01*
X130343627Y-90647270D01*
X130284600Y-90557693D01*
X130284600Y-90298990D01*
X130285253Y-90305446D01*
X130288242Y-90315237D01*
X130289666Y-90325376D01*
X130303235Y-90364351D01*
X130315282Y-90403816D01*
X130318154Y-90410591D01*
X130524134Y-90887140D01*
X130524134Y-91424300D01*
X130529556Y-91492298D01*
X130565273Y-91607630D01*
X130576931Y-91625322D01*
X130541121Y-91704765D01*
X130524134Y-91824300D01*
X130524134Y-92424300D01*
X130529556Y-92492298D01*
X130565273Y-92607630D01*
X130631706Y-92708446D01*
X130661270Y-92733644D01*
X130662864Y-92738132D01*
X130672475Y-92769962D01*
X130037500Y-93518334D01*
X129563573Y-93518334D01*
X129562051Y-93515726D01*
X129537288Y-93469154D01*
X129528802Y-93458749D01*
X129522036Y-93447155D01*
X129516445Y-93439534D01*
X128716033Y-92364350D01*
X128928700Y-92364350D01*
X128928700Y-92472656D01*
X128945109Y-92555151D01*
X128977298Y-92632861D01*
X129024028Y-92702797D01*
X129083503Y-92762273D01*
X129153440Y-92809003D01*
X129231149Y-92841191D01*
X129313644Y-92857600D01*
X129421950Y-92857600D01*
X129528700Y-92750850D01*
X129528700Y-92257600D01*
X129782700Y-92257600D01*
X129782700Y-92750850D01*
X129889450Y-92857600D01*
X129997756Y-92857600D01*
X130080251Y-92841191D01*
X130157960Y-92809003D01*
X130227897Y-92762273D01*
X130287372Y-92702797D01*
X130334102Y-92632861D01*
X130366291Y-92555151D01*
X130382700Y-92472656D01*
X130382700Y-92364350D01*
X130275950Y-92257600D01*
X129782700Y-92257600D01*
X129528700Y-92257600D01*
X129035450Y-92257600D01*
X128928700Y-92364350D01*
X128716033Y-92364350D01*
X128556628Y-92150224D01*
X128421200Y-90988568D01*
X128421200Y-90938838D01*
X128423266Y-90924300D01*
X128423266Y-90533357D01*
X129072357Y-90102746D01*
X129174807Y-90019308D01*
X129230600Y-89951960D01*
X129230600Y-90424640D01*
G36*
X132985434Y-90221749D02*
X132985434Y-90436941D01*
X132891463Y-90417651D01*
X132729284Y-90416519D01*
X132569974Y-90446909D01*
X132419601Y-90507664D01*
X132283892Y-90596469D01*
X132168016Y-90709943D01*
X132163115Y-90717100D01*
X131964704Y-90717100D01*
X131941127Y-90640970D01*
X131874694Y-90540154D01*
X131782805Y-90461837D01*
X131672735Y-90412221D01*
X131553200Y-90395234D01*
X131459760Y-90395234D01*
X131324362Y-90081981D01*
X131309990Y-89738380D01*
X131385762Y-89738380D01*
X131385762Y-89678018D01*
X131422244Y-89714729D01*
X131473650Y-89711719D01*
X131576859Y-89659224D01*
X131667844Y-89587603D01*
X131743108Y-89499608D01*
X131799759Y-89398620D01*
X131835620Y-89288520D01*
X131835620Y-88838940D01*
X131335240Y-88838940D01*
X131335240Y-88584940D01*
X131835620Y-88584940D01*
X131835620Y-88288040D01*
X131924137Y-88288040D01*
X132985434Y-90221749D01*
X132985434Y-90221749D01*
G37*
X132985434Y-90221749D02*
X132985434Y-90436941D01*
X132891463Y-90417651D01*
X132729284Y-90416519D01*
X132569974Y-90446909D01*
X132419601Y-90507664D01*
X132283892Y-90596469D01*
X132168016Y-90709943D01*
X132163115Y-90717100D01*
X131964704Y-90717100D01*
X131941127Y-90640970D01*
X131874694Y-90540154D01*
X131782805Y-90461837D01*
X131672735Y-90412221D01*
X131553200Y-90395234D01*
X131459760Y-90395234D01*
X131324362Y-90081981D01*
X131309990Y-89738380D01*
X131385762Y-89738380D01*
X131385762Y-89678018D01*
X131422244Y-89714729D01*
X131473650Y-89711719D01*
X131576859Y-89659224D01*
X131667844Y-89587603D01*
X131743108Y-89499608D01*
X131799759Y-89398620D01*
X131835620Y-89288520D01*
X131835620Y-88838940D01*
X131335240Y-88838940D01*
X131335240Y-88584940D01*
X131835620Y-88584940D01*
X131835620Y-88288040D01*
X131924137Y-88288040D01*
X132985434Y-90221749D01*
G36*
X139693050Y-87985874D02*
X139805712Y-88102539D01*
X139938888Y-88195099D01*
X140087507Y-88260029D01*
X140245906Y-88294855D01*
X140408054Y-88298252D01*
X140567773Y-88270089D01*
X140718980Y-88211440D01*
X140855915Y-88124538D01*
X140973364Y-88012693D01*
X140984646Y-87996700D01*
X141950234Y-87996700D01*
X141950234Y-88115100D01*
X141955656Y-88183098D01*
X141964798Y-88212617D01*
X141950234Y-88315100D01*
X141950234Y-88615100D01*
X141955656Y-88683098D01*
X141964798Y-88712617D01*
X141950234Y-88815100D01*
X141950234Y-89115100D01*
X141955656Y-89183098D01*
X141964798Y-89212617D01*
X141950234Y-89315100D01*
X141950234Y-89615100D01*
X141952162Y-89639283D01*
X141929300Y-89636034D01*
X141629300Y-89636034D01*
X141561302Y-89641456D01*
X141531783Y-89650598D01*
X141429300Y-89636034D01*
X141129300Y-89636034D01*
X141061302Y-89641456D01*
X141031783Y-89650598D01*
X140929300Y-89636034D01*
X140629300Y-89636034D01*
X140561302Y-89641456D01*
X140531783Y-89650598D01*
X140429300Y-89636034D01*
X140129300Y-89636034D01*
X140061302Y-89641456D01*
X140031783Y-89650598D01*
X139929300Y-89636034D01*
X139629300Y-89636034D01*
X139605117Y-89637962D01*
X139608366Y-89615100D01*
X139608366Y-89315100D01*
X139602944Y-89247102D01*
X139593802Y-89217583D01*
X139608366Y-89115100D01*
X139608366Y-88815100D01*
X139602944Y-88747102D01*
X139593802Y-88717583D01*
X139608366Y-88615100D01*
X139608366Y-88315100D01*
X139602944Y-88247102D01*
X139593802Y-88217583D01*
X139608366Y-88115100D01*
X139608366Y-87854471D01*
X139693050Y-87985874D01*
X139693050Y-87985874D01*
G37*
X139693050Y-87985874D02*
X139805712Y-88102539D01*
X139938888Y-88195099D01*
X140087507Y-88260029D01*
X140245906Y-88294855D01*
X140408054Y-88298252D01*
X140567773Y-88270089D01*
X140718980Y-88211440D01*
X140855915Y-88124538D01*
X140973364Y-88012693D01*
X140984646Y-87996700D01*
X141950234Y-87996700D01*
X141950234Y-88115100D01*
X141955656Y-88183098D01*
X141964798Y-88212617D01*
X141950234Y-88315100D01*
X141950234Y-88615100D01*
X141955656Y-88683098D01*
X141964798Y-88712617D01*
X141950234Y-88815100D01*
X141950234Y-89115100D01*
X141955656Y-89183098D01*
X141964798Y-89212617D01*
X141950234Y-89315100D01*
X141950234Y-89615100D01*
X141952162Y-89639283D01*
X141929300Y-89636034D01*
X141629300Y-89636034D01*
X141561302Y-89641456D01*
X141531783Y-89650598D01*
X141429300Y-89636034D01*
X141129300Y-89636034D01*
X141061302Y-89641456D01*
X141031783Y-89650598D01*
X140929300Y-89636034D01*
X140629300Y-89636034D01*
X140561302Y-89641456D01*
X140531783Y-89650598D01*
X140429300Y-89636034D01*
X140129300Y-89636034D01*
X140061302Y-89641456D01*
X140031783Y-89650598D01*
X139929300Y-89636034D01*
X139629300Y-89636034D01*
X139605117Y-89637962D01*
X139608366Y-89615100D01*
X139608366Y-89315100D01*
X139602944Y-89247102D01*
X139593802Y-89217583D01*
X139608366Y-89115100D01*
X139608366Y-88815100D01*
X139602944Y-88747102D01*
X139593802Y-88717583D01*
X139608366Y-88615100D01*
X139608366Y-88315100D01*
X139602944Y-88247102D01*
X139593802Y-88217583D01*
X139608366Y-88115100D01*
X139608366Y-87854471D01*
X139693050Y-87985874D01*
G36*
X132207870Y-79623473D02*
X132107054Y-79689906D01*
X132028737Y-79781795D01*
X131979121Y-79891865D01*
X131962134Y-80011400D01*
X131962134Y-81511400D01*
X131967556Y-81579398D01*
X132003273Y-81694730D01*
X132069706Y-81795546D01*
X132161595Y-81873863D01*
X132271665Y-81923479D01*
X132391200Y-81940466D01*
X133891200Y-81940466D01*
X133959198Y-81935044D01*
X134074530Y-81899327D01*
X134175346Y-81832894D01*
X134253663Y-81741005D01*
X134303279Y-81630935D01*
X134320266Y-81511400D01*
X134320266Y-81344400D01*
X134599334Y-81344400D01*
X134608326Y-81358046D01*
X134700215Y-81436363D01*
X134810285Y-81485979D01*
X134929820Y-81502966D01*
X135930580Y-81502966D01*
X135998578Y-81497544D01*
X136113910Y-81461827D01*
X136214726Y-81395394D01*
X136288701Y-81308600D01*
X136294914Y-81308600D01*
X136296556Y-81329198D01*
X136332273Y-81444530D01*
X136398706Y-81545346D01*
X136490595Y-81623663D01*
X136600665Y-81673279D01*
X136720200Y-81690266D01*
X138117200Y-81690266D01*
X138185198Y-81684844D01*
X138300530Y-81649127D01*
X138401346Y-81582694D01*
X138479663Y-81490805D01*
X138529279Y-81380735D01*
X138530691Y-81370800D01*
X138558900Y-81370800D01*
X138584273Y-81452730D01*
X138650706Y-81553546D01*
X138742595Y-81631863D01*
X138852665Y-81681479D01*
X138972200Y-81698466D01*
X140369200Y-81698466D01*
X140437198Y-81693044D01*
X140552530Y-81657327D01*
X140653346Y-81590894D01*
X140731663Y-81499005D01*
X140781279Y-81388935D01*
X140798266Y-81269400D01*
X140798266Y-81146580D01*
X140916406Y-81172555D01*
X141078554Y-81175952D01*
X141238273Y-81147789D01*
X141389480Y-81089140D01*
X141526415Y-81002238D01*
X141643864Y-80890393D01*
X141737351Y-80757866D01*
X141753077Y-80722544D01*
X142922000Y-80722544D01*
X142922000Y-80988050D01*
X143028750Y-81094800D01*
X143679200Y-81094800D01*
X143679200Y-80444350D01*
X143933200Y-80444350D01*
X143933200Y-81094800D01*
X144583650Y-81094800D01*
X144690400Y-80988050D01*
X144690400Y-80722544D01*
X144673991Y-80640049D01*
X144641802Y-80562339D01*
X144595072Y-80492403D01*
X144535597Y-80432927D01*
X144465660Y-80386197D01*
X144387951Y-80354009D01*
X144339894Y-80344450D01*
X148045100Y-80344450D01*
X148045100Y-80660756D01*
X148061509Y-80743251D01*
X148093697Y-80820960D01*
X148140427Y-80890897D01*
X148199903Y-80950372D01*
X148269839Y-80997102D01*
X148347549Y-81029291D01*
X148430044Y-81045700D01*
X148682850Y-81045700D01*
X148789600Y-80938950D01*
X148789600Y-80237700D01*
X148151850Y-80237700D01*
X148045100Y-80344450D01*
X144339894Y-80344450D01*
X144305456Y-80337600D01*
X144039950Y-80337600D01*
X143933200Y-80444350D01*
X143679200Y-80444350D01*
X143572450Y-80337600D01*
X143306944Y-80337600D01*
X143224449Y-80354009D01*
X143146740Y-80386197D01*
X143076803Y-80432927D01*
X143017328Y-80492403D01*
X142970598Y-80562339D01*
X142938409Y-80640049D01*
X142922000Y-80722544D01*
X141753077Y-80722544D01*
X141803317Y-80609705D01*
X141839248Y-80451552D01*
X141841835Y-80266309D01*
X141810333Y-80107214D01*
X141748530Y-79957269D01*
X141658780Y-79822183D01*
X141544500Y-79707103D01*
X141410044Y-79616411D01*
X141375761Y-79602000D01*
X148045100Y-79602000D01*
X148045100Y-79876950D01*
X148151850Y-79983700D01*
X148789600Y-79983700D01*
X148789600Y-79963700D01*
X149043600Y-79963700D01*
X149043600Y-79983700D01*
X149063600Y-79983700D01*
X149063600Y-80237700D01*
X149043600Y-80237700D01*
X149043600Y-80938950D01*
X149150350Y-81045700D01*
X149315158Y-81045700D01*
X149249068Y-81178334D01*
X149144700Y-81178334D01*
X149076702Y-81183756D01*
X148961370Y-81219473D01*
X148943678Y-81231131D01*
X148864235Y-81195321D01*
X148744700Y-81178334D01*
X148144700Y-81178334D01*
X148076702Y-81183756D01*
X147961370Y-81219473D01*
X147860554Y-81285906D01*
X147782237Y-81377795D01*
X147732621Y-81487865D01*
X147715634Y-81607400D01*
X147715634Y-81722150D01*
X144692466Y-83454475D01*
X144692466Y-82542600D01*
X144687044Y-82474602D01*
X144651327Y-82359270D01*
X144584894Y-82258454D01*
X144493005Y-82180137D01*
X144382935Y-82130521D01*
X144263400Y-82113534D01*
X143349000Y-82113534D01*
X143281002Y-82118956D01*
X143165670Y-82154673D01*
X143064854Y-82221106D01*
X142986537Y-82312995D01*
X142936921Y-82423065D01*
X142919934Y-82542600D01*
X142919934Y-83327907D01*
X142490377Y-83910434D01*
X142359300Y-83910434D01*
X142291302Y-83915856D01*
X142175970Y-83951573D01*
X142158278Y-83963231D01*
X142078835Y-83927421D01*
X141959300Y-83910434D01*
X141359300Y-83910434D01*
X141291302Y-83915856D01*
X141175970Y-83951573D01*
X141075154Y-84018006D01*
X140996837Y-84109895D01*
X140947221Y-84219965D01*
X140930234Y-84339500D01*
X140930234Y-84900356D01*
X140859834Y-84870763D01*
X140700963Y-84838151D01*
X140538784Y-84837019D01*
X140379474Y-84867409D01*
X140229101Y-84928164D01*
X140093392Y-85016969D01*
X139977516Y-85130443D01*
X139885888Y-85264262D01*
X139821998Y-85413330D01*
X139803544Y-85500146D01*
X139095365Y-85065070D01*
X139051251Y-85043589D01*
X139007203Y-85021660D01*
X139002999Y-85020091D01*
X139002893Y-85020040D01*
X139002783Y-85020011D01*
X139000309Y-85019088D01*
X137683591Y-84538141D01*
X137365852Y-84220562D01*
X137339694Y-84199086D01*
X137315013Y-84175891D01*
X137300019Y-84166513D01*
X137286358Y-84155298D01*
X137256516Y-84139306D01*
X137227810Y-84121353D01*
X137225518Y-84120481D01*
X137393685Y-84120200D01*
X137966439Y-84120200D01*
X137979191Y-84120527D01*
X137979741Y-84120487D01*
X137980289Y-84120554D01*
X137987646Y-84120676D01*
X138842646Y-84128876D01*
X138842762Y-84128866D01*
X138847700Y-84128900D01*
X140493700Y-84128900D01*
X140542134Y-84124151D01*
X140590642Y-84119907D01*
X140593305Y-84119133D01*
X140596062Y-84118863D01*
X140642663Y-84104793D01*
X140689411Y-84091212D01*
X140691870Y-84089937D01*
X140694524Y-84089136D01*
X140737499Y-84066286D01*
X140780725Y-84043879D01*
X140782892Y-84042149D01*
X140785337Y-84040849D01*
X140823041Y-84010098D01*
X140861106Y-83979712D01*
X140864961Y-83975910D01*
X140865042Y-83975844D01*
X140865104Y-83975768D01*
X140866345Y-83974545D01*
X141042346Y-83798545D01*
X141047255Y-83792568D01*
X141053085Y-83787487D01*
X141079866Y-83752867D01*
X141107629Y-83719067D01*
X141111281Y-83712256D01*
X141116016Y-83706135D01*
X141119885Y-83699876D01*
X141547604Y-82997066D01*
X142231400Y-82997066D01*
X142299398Y-82991644D01*
X142414730Y-82955927D01*
X142515546Y-82889494D01*
X142593863Y-82797605D01*
X142643479Y-82687535D01*
X142660466Y-82568000D01*
X142660466Y-81653600D01*
X142655044Y-81585602D01*
X142619327Y-81470270D01*
X142609628Y-81455550D01*
X142922000Y-81455550D01*
X142922000Y-81721056D01*
X142938409Y-81803551D01*
X142970598Y-81881261D01*
X143017328Y-81951197D01*
X143076803Y-82010673D01*
X143146740Y-82057403D01*
X143224449Y-82089591D01*
X143306944Y-82106000D01*
X143572450Y-82106000D01*
X143679200Y-81999250D01*
X143679200Y-81348800D01*
X143933200Y-81348800D01*
X143933200Y-81999250D01*
X144039950Y-82106000D01*
X144305456Y-82106000D01*
X144387951Y-82089591D01*
X144465660Y-82057403D01*
X144535597Y-82010673D01*
X144595072Y-81951197D01*
X144641802Y-81881261D01*
X144673991Y-81803551D01*
X144690400Y-81721056D01*
X144690400Y-81455550D01*
X144583650Y-81348800D01*
X143933200Y-81348800D01*
X143679200Y-81348800D01*
X143028750Y-81348800D01*
X142922000Y-81455550D01*
X142609628Y-81455550D01*
X142552894Y-81369454D01*
X142461005Y-81291137D01*
X142350935Y-81241521D01*
X142231400Y-81224534D01*
X141317000Y-81224534D01*
X141249002Y-81229956D01*
X141133670Y-81265673D01*
X141032854Y-81332106D01*
X140954537Y-81423995D01*
X140904921Y-81534065D01*
X140887934Y-81653600D01*
X140887934Y-82110376D01*
X140844355Y-82153955D01*
X140839448Y-82159929D01*
X140833615Y-82165013D01*
X140806827Y-82199642D01*
X140796200Y-82212580D01*
X140796200Y-82116344D01*
X140779791Y-82033849D01*
X140747602Y-81956139D01*
X140700872Y-81886203D01*
X140641397Y-81826727D01*
X140571460Y-81779997D01*
X140493751Y-81747809D01*
X140411256Y-81731400D01*
X139904450Y-81731400D01*
X139797700Y-81838150D01*
X139797700Y-82602900D01*
X139817700Y-82602900D01*
X139817700Y-82856900D01*
X139797700Y-82856900D01*
X139797700Y-82876900D01*
X139543700Y-82876900D01*
X139543700Y-82856900D01*
X138651950Y-82856900D01*
X138545200Y-82963650D01*
X138545200Y-83071974D01*
X138544200Y-83071965D01*
X138544200Y-82955450D01*
X138437450Y-82848700D01*
X137545700Y-82848700D01*
X137545700Y-82868700D01*
X137291700Y-82868700D01*
X137291700Y-82848700D01*
X137271700Y-82848700D01*
X137271700Y-82594700D01*
X137291700Y-82594700D01*
X137291700Y-81829950D01*
X137545700Y-81829950D01*
X137545700Y-82594700D01*
X138437450Y-82594700D01*
X138544200Y-82487950D01*
X138544200Y-82116344D01*
X138545200Y-82116344D01*
X138545200Y-82496150D01*
X138651950Y-82602900D01*
X139543700Y-82602900D01*
X139543700Y-81838150D01*
X139436950Y-81731400D01*
X138930144Y-81731400D01*
X138847649Y-81747809D01*
X138769940Y-81779997D01*
X138700003Y-81826727D01*
X138640528Y-81886203D01*
X138593798Y-81956139D01*
X138561609Y-82033849D01*
X138545200Y-82116344D01*
X138544200Y-82116344D01*
X138544200Y-82108144D01*
X138527791Y-82025649D01*
X138495602Y-81947939D01*
X138448872Y-81878003D01*
X138389397Y-81818527D01*
X138319460Y-81771797D01*
X138241751Y-81739609D01*
X138159256Y-81723200D01*
X137652450Y-81723200D01*
X137545700Y-81829950D01*
X137291700Y-81829950D01*
X137184950Y-81723200D01*
X136678144Y-81723200D01*
X136595649Y-81739609D01*
X136517940Y-81771797D01*
X136448003Y-81818527D01*
X136388528Y-81878003D01*
X136341798Y-81947939D01*
X136309609Y-82025649D01*
X136293200Y-82108144D01*
X136293200Y-82452365D01*
X136252074Y-82389954D01*
X136160185Y-82311637D01*
X136050115Y-82262021D01*
X135930580Y-82245034D01*
X134929820Y-82245034D01*
X134861822Y-82250456D01*
X134746490Y-82286173D01*
X134645674Y-82352606D01*
X134567357Y-82444495D01*
X134517741Y-82554565D01*
X134500754Y-82674100D01*
X134500754Y-82774400D01*
X134197098Y-82774400D01*
X134185458Y-82746158D01*
X134057723Y-82553902D01*
X133895078Y-82390118D01*
X133703718Y-82261044D01*
X133490932Y-82171597D01*
X133264825Y-82125184D01*
X133034009Y-82123573D01*
X132807276Y-82166824D01*
X132593262Y-82253291D01*
X132400119Y-82379681D01*
X132235203Y-82541178D01*
X132104796Y-82731632D01*
X132013866Y-82943789D01*
X131983538Y-83086474D01*
X130397966Y-81799219D01*
X130397966Y-81663300D01*
X130392544Y-81595302D01*
X130356827Y-81479970D01*
X130290394Y-81379154D01*
X130198505Y-81300837D01*
X130088435Y-81251221D01*
X129968900Y-81234234D01*
X129368900Y-81234234D01*
X129300902Y-81239656D01*
X129252400Y-81254677D01*
X129252400Y-81100493D01*
X129294398Y-81097144D01*
X129409730Y-81061427D01*
X129510546Y-80994994D01*
X129542055Y-80958025D01*
X129589203Y-81005172D01*
X129659139Y-81051902D01*
X129736849Y-81084091D01*
X129819344Y-81100500D01*
X130072150Y-81100500D01*
X130178900Y-80993750D01*
X130178900Y-80292500D01*
X130432900Y-80292500D01*
X130432900Y-80993750D01*
X130539650Y-81100500D01*
X130792456Y-81100500D01*
X130874951Y-81084091D01*
X130952661Y-81051902D01*
X131022597Y-81005172D01*
X131082073Y-80945697D01*
X131128803Y-80875760D01*
X131160991Y-80798051D01*
X131177400Y-80715556D01*
X131177400Y-80399250D01*
X131070650Y-80292500D01*
X130432900Y-80292500D01*
X130178900Y-80292500D01*
X130158900Y-80292500D01*
X130158900Y-80038500D01*
X130178900Y-80038500D01*
X130178900Y-80018500D01*
X130432900Y-80018500D01*
X130432900Y-80038500D01*
X131070650Y-80038500D01*
X131177400Y-79931750D01*
X131177400Y-79615444D01*
X131174726Y-79602000D01*
X132277207Y-79602000D01*
X132207870Y-79623473D01*
X132207870Y-79623473D01*
G37*
X132207870Y-79623473D02*
X132107054Y-79689906D01*
X132028737Y-79781795D01*
X131979121Y-79891865D01*
X131962134Y-80011400D01*
X131962134Y-81511400D01*
X131967556Y-81579398D01*
X132003273Y-81694730D01*
X132069706Y-81795546D01*
X132161595Y-81873863D01*
X132271665Y-81923479D01*
X132391200Y-81940466D01*
X133891200Y-81940466D01*
X133959198Y-81935044D01*
X134074530Y-81899327D01*
X134175346Y-81832894D01*
X134253663Y-81741005D01*
X134303279Y-81630935D01*
X134320266Y-81511400D01*
X134320266Y-81344400D01*
X134599334Y-81344400D01*
X134608326Y-81358046D01*
X134700215Y-81436363D01*
X134810285Y-81485979D01*
X134929820Y-81502966D01*
X135930580Y-81502966D01*
X135998578Y-81497544D01*
X136113910Y-81461827D01*
X136214726Y-81395394D01*
X136288701Y-81308600D01*
X136294914Y-81308600D01*
X136296556Y-81329198D01*
X136332273Y-81444530D01*
X136398706Y-81545346D01*
X136490595Y-81623663D01*
X136600665Y-81673279D01*
X136720200Y-81690266D01*
X138117200Y-81690266D01*
X138185198Y-81684844D01*
X138300530Y-81649127D01*
X138401346Y-81582694D01*
X138479663Y-81490805D01*
X138529279Y-81380735D01*
X138530691Y-81370800D01*
X138558900Y-81370800D01*
X138584273Y-81452730D01*
X138650706Y-81553546D01*
X138742595Y-81631863D01*
X138852665Y-81681479D01*
X138972200Y-81698466D01*
X140369200Y-81698466D01*
X140437198Y-81693044D01*
X140552530Y-81657327D01*
X140653346Y-81590894D01*
X140731663Y-81499005D01*
X140781279Y-81388935D01*
X140798266Y-81269400D01*
X140798266Y-81146580D01*
X140916406Y-81172555D01*
X141078554Y-81175952D01*
X141238273Y-81147789D01*
X141389480Y-81089140D01*
X141526415Y-81002238D01*
X141643864Y-80890393D01*
X141737351Y-80757866D01*
X141753077Y-80722544D01*
X142922000Y-80722544D01*
X142922000Y-80988050D01*
X143028750Y-81094800D01*
X143679200Y-81094800D01*
X143679200Y-80444350D01*
X143933200Y-80444350D01*
X143933200Y-81094800D01*
X144583650Y-81094800D01*
X144690400Y-80988050D01*
X144690400Y-80722544D01*
X144673991Y-80640049D01*
X144641802Y-80562339D01*
X144595072Y-80492403D01*
X144535597Y-80432927D01*
X144465660Y-80386197D01*
X144387951Y-80354009D01*
X144339894Y-80344450D01*
X148045100Y-80344450D01*
X148045100Y-80660756D01*
X148061509Y-80743251D01*
X148093697Y-80820960D01*
X148140427Y-80890897D01*
X148199903Y-80950372D01*
X148269839Y-80997102D01*
X148347549Y-81029291D01*
X148430044Y-81045700D01*
X148682850Y-81045700D01*
X148789600Y-80938950D01*
X148789600Y-80237700D01*
X148151850Y-80237700D01*
X148045100Y-80344450D01*
X144339894Y-80344450D01*
X144305456Y-80337600D01*
X144039950Y-80337600D01*
X143933200Y-80444350D01*
X143679200Y-80444350D01*
X143572450Y-80337600D01*
X143306944Y-80337600D01*
X143224449Y-80354009D01*
X143146740Y-80386197D01*
X143076803Y-80432927D01*
X143017328Y-80492403D01*
X142970598Y-80562339D01*
X142938409Y-80640049D01*
X142922000Y-80722544D01*
X141753077Y-80722544D01*
X141803317Y-80609705D01*
X141839248Y-80451552D01*
X141841835Y-80266309D01*
X141810333Y-80107214D01*
X141748530Y-79957269D01*
X141658780Y-79822183D01*
X141544500Y-79707103D01*
X141410044Y-79616411D01*
X141375761Y-79602000D01*
X148045100Y-79602000D01*
X148045100Y-79876950D01*
X148151850Y-79983700D01*
X148789600Y-79983700D01*
X148789600Y-79963700D01*
X149043600Y-79963700D01*
X149043600Y-79983700D01*
X149063600Y-79983700D01*
X149063600Y-80237700D01*
X149043600Y-80237700D01*
X149043600Y-80938950D01*
X149150350Y-81045700D01*
X149315158Y-81045700D01*
X149249068Y-81178334D01*
X149144700Y-81178334D01*
X149076702Y-81183756D01*
X148961370Y-81219473D01*
X148943678Y-81231131D01*
X148864235Y-81195321D01*
X148744700Y-81178334D01*
X148144700Y-81178334D01*
X148076702Y-81183756D01*
X147961370Y-81219473D01*
X147860554Y-81285906D01*
X147782237Y-81377795D01*
X147732621Y-81487865D01*
X147715634Y-81607400D01*
X147715634Y-81722150D01*
X144692466Y-83454475D01*
X144692466Y-82542600D01*
X144687044Y-82474602D01*
X144651327Y-82359270D01*
X144584894Y-82258454D01*
X144493005Y-82180137D01*
X144382935Y-82130521D01*
X144263400Y-82113534D01*
X143349000Y-82113534D01*
X143281002Y-82118956D01*
X143165670Y-82154673D01*
X143064854Y-82221106D01*
X142986537Y-82312995D01*
X142936921Y-82423065D01*
X142919934Y-82542600D01*
X142919934Y-83327907D01*
X142490377Y-83910434D01*
X142359300Y-83910434D01*
X142291302Y-83915856D01*
X142175970Y-83951573D01*
X142158278Y-83963231D01*
X142078835Y-83927421D01*
X141959300Y-83910434D01*
X141359300Y-83910434D01*
X141291302Y-83915856D01*
X141175970Y-83951573D01*
X141075154Y-84018006D01*
X140996837Y-84109895D01*
X140947221Y-84219965D01*
X140930234Y-84339500D01*
X140930234Y-84900356D01*
X140859834Y-84870763D01*
X140700963Y-84838151D01*
X140538784Y-84837019D01*
X140379474Y-84867409D01*
X140229101Y-84928164D01*
X140093392Y-85016969D01*
X139977516Y-85130443D01*
X139885888Y-85264262D01*
X139821998Y-85413330D01*
X139803544Y-85500146D01*
X139095365Y-85065070D01*
X139051251Y-85043589D01*
X139007203Y-85021660D01*
X139002999Y-85020091D01*
X139002893Y-85020040D01*
X139002783Y-85020011D01*
X139000309Y-85019088D01*
X137683591Y-84538141D01*
X137365852Y-84220562D01*
X137339694Y-84199086D01*
X137315013Y-84175891D01*
X137300019Y-84166513D01*
X137286358Y-84155298D01*
X137256516Y-84139306D01*
X137227810Y-84121353D01*
X137225518Y-84120481D01*
X137393685Y-84120200D01*
X137966439Y-84120200D01*
X137979191Y-84120527D01*
X137979741Y-84120487D01*
X137980289Y-84120554D01*
X137987646Y-84120676D01*
X138842646Y-84128876D01*
X138842762Y-84128866D01*
X138847700Y-84128900D01*
X140493700Y-84128900D01*
X140542134Y-84124151D01*
X140590642Y-84119907D01*
X140593305Y-84119133D01*
X140596062Y-84118863D01*
X140642663Y-84104793D01*
X140689411Y-84091212D01*
X140691870Y-84089937D01*
X140694524Y-84089136D01*
X140737499Y-84066286D01*
X140780725Y-84043879D01*
X140782892Y-84042149D01*
X140785337Y-84040849D01*
X140823041Y-84010098D01*
X140861106Y-83979712D01*
X140864961Y-83975910D01*
X140865042Y-83975844D01*
X140865104Y-83975768D01*
X140866345Y-83974545D01*
X141042346Y-83798545D01*
X141047255Y-83792568D01*
X141053085Y-83787487D01*
X141079866Y-83752867D01*
X141107629Y-83719067D01*
X141111281Y-83712256D01*
X141116016Y-83706135D01*
X141119885Y-83699876D01*
X141547604Y-82997066D01*
X142231400Y-82997066D01*
X142299398Y-82991644D01*
X142414730Y-82955927D01*
X142515546Y-82889494D01*
X142593863Y-82797605D01*
X142643479Y-82687535D01*
X142660466Y-82568000D01*
X142660466Y-81653600D01*
X142655044Y-81585602D01*
X142619327Y-81470270D01*
X142609628Y-81455550D01*
X142922000Y-81455550D01*
X142922000Y-81721056D01*
X142938409Y-81803551D01*
X142970598Y-81881261D01*
X143017328Y-81951197D01*
X143076803Y-82010673D01*
X143146740Y-82057403D01*
X143224449Y-82089591D01*
X143306944Y-82106000D01*
X143572450Y-82106000D01*
X143679200Y-81999250D01*
X143679200Y-81348800D01*
X143933200Y-81348800D01*
X143933200Y-81999250D01*
X144039950Y-82106000D01*
X144305456Y-82106000D01*
X144387951Y-82089591D01*
X144465660Y-82057403D01*
X144535597Y-82010673D01*
X144595072Y-81951197D01*
X144641802Y-81881261D01*
X144673991Y-81803551D01*
X144690400Y-81721056D01*
X144690400Y-81455550D01*
X144583650Y-81348800D01*
X143933200Y-81348800D01*
X143679200Y-81348800D01*
X143028750Y-81348800D01*
X142922000Y-81455550D01*
X142609628Y-81455550D01*
X142552894Y-81369454D01*
X142461005Y-81291137D01*
X142350935Y-81241521D01*
X142231400Y-81224534D01*
X141317000Y-81224534D01*
X141249002Y-81229956D01*
X141133670Y-81265673D01*
X141032854Y-81332106D01*
X140954537Y-81423995D01*
X140904921Y-81534065D01*
X140887934Y-81653600D01*
X140887934Y-82110376D01*
X140844355Y-82153955D01*
X140839448Y-82159929D01*
X140833615Y-82165013D01*
X140806827Y-82199642D01*
X140796200Y-82212580D01*
X140796200Y-82116344D01*
X140779791Y-82033849D01*
X140747602Y-81956139D01*
X140700872Y-81886203D01*
X140641397Y-81826727D01*
X140571460Y-81779997D01*
X140493751Y-81747809D01*
X140411256Y-81731400D01*
X139904450Y-81731400D01*
X139797700Y-81838150D01*
X139797700Y-82602900D01*
X139817700Y-82602900D01*
X139817700Y-82856900D01*
X139797700Y-82856900D01*
X139797700Y-82876900D01*
X139543700Y-82876900D01*
X139543700Y-82856900D01*
X138651950Y-82856900D01*
X138545200Y-82963650D01*
X138545200Y-83071974D01*
X138544200Y-83071965D01*
X138544200Y-82955450D01*
X138437450Y-82848700D01*
X137545700Y-82848700D01*
X137545700Y-82868700D01*
X137291700Y-82868700D01*
X137291700Y-82848700D01*
X137271700Y-82848700D01*
X137271700Y-82594700D01*
X137291700Y-82594700D01*
X137291700Y-81829950D01*
X137545700Y-81829950D01*
X137545700Y-82594700D01*
X138437450Y-82594700D01*
X138544200Y-82487950D01*
X138544200Y-82116344D01*
X138545200Y-82116344D01*
X138545200Y-82496150D01*
X138651950Y-82602900D01*
X139543700Y-82602900D01*
X139543700Y-81838150D01*
X139436950Y-81731400D01*
X138930144Y-81731400D01*
X138847649Y-81747809D01*
X138769940Y-81779997D01*
X138700003Y-81826727D01*
X138640528Y-81886203D01*
X138593798Y-81956139D01*
X138561609Y-82033849D01*
X138545200Y-82116344D01*
X138544200Y-82116344D01*
X138544200Y-82108144D01*
X138527791Y-82025649D01*
X138495602Y-81947939D01*
X138448872Y-81878003D01*
X138389397Y-81818527D01*
X138319460Y-81771797D01*
X138241751Y-81739609D01*
X138159256Y-81723200D01*
X137652450Y-81723200D01*
X137545700Y-81829950D01*
X137291700Y-81829950D01*
X137184950Y-81723200D01*
X136678144Y-81723200D01*
X136595649Y-81739609D01*
X136517940Y-81771797D01*
X136448003Y-81818527D01*
X136388528Y-81878003D01*
X136341798Y-81947939D01*
X136309609Y-82025649D01*
X136293200Y-82108144D01*
X136293200Y-82452365D01*
X136252074Y-82389954D01*
X136160185Y-82311637D01*
X136050115Y-82262021D01*
X135930580Y-82245034D01*
X134929820Y-82245034D01*
X134861822Y-82250456D01*
X134746490Y-82286173D01*
X134645674Y-82352606D01*
X134567357Y-82444495D01*
X134517741Y-82554565D01*
X134500754Y-82674100D01*
X134500754Y-82774400D01*
X134197098Y-82774400D01*
X134185458Y-82746158D01*
X134057723Y-82553902D01*
X133895078Y-82390118D01*
X133703718Y-82261044D01*
X133490932Y-82171597D01*
X133264825Y-82125184D01*
X133034009Y-82123573D01*
X132807276Y-82166824D01*
X132593262Y-82253291D01*
X132400119Y-82379681D01*
X132235203Y-82541178D01*
X132104796Y-82731632D01*
X132013866Y-82943789D01*
X131983538Y-83086474D01*
X130397966Y-81799219D01*
X130397966Y-81663300D01*
X130392544Y-81595302D01*
X130356827Y-81479970D01*
X130290394Y-81379154D01*
X130198505Y-81300837D01*
X130088435Y-81251221D01*
X129968900Y-81234234D01*
X129368900Y-81234234D01*
X129300902Y-81239656D01*
X129252400Y-81254677D01*
X129252400Y-81100493D01*
X129294398Y-81097144D01*
X129409730Y-81061427D01*
X129510546Y-80994994D01*
X129542055Y-80958025D01*
X129589203Y-81005172D01*
X129659139Y-81051902D01*
X129736849Y-81084091D01*
X129819344Y-81100500D01*
X130072150Y-81100500D01*
X130178900Y-80993750D01*
X130178900Y-80292500D01*
X130432900Y-80292500D01*
X130432900Y-80993750D01*
X130539650Y-81100500D01*
X130792456Y-81100500D01*
X130874951Y-81084091D01*
X130952661Y-81051902D01*
X131022597Y-81005172D01*
X131082073Y-80945697D01*
X131128803Y-80875760D01*
X131160991Y-80798051D01*
X131177400Y-80715556D01*
X131177400Y-80399250D01*
X131070650Y-80292500D01*
X130432900Y-80292500D01*
X130178900Y-80292500D01*
X130158900Y-80292500D01*
X130158900Y-80038500D01*
X130178900Y-80038500D01*
X130178900Y-80018500D01*
X130432900Y-80018500D01*
X130432900Y-80038500D01*
X131070650Y-80038500D01*
X131177400Y-79931750D01*
X131177400Y-79615444D01*
X131174726Y-79602000D01*
X132277207Y-79602000D01*
X132207870Y-79623473D01*
M02*
