G04 #@! TF.FileFunction,Legend,Top*
%FSLAX46Y46*%
G04 Gerber Fmt 4.6, Leading zero omitted, Abs format (unit mm)*
G04 Created by KiCad (PCBNEW 4.0.0-rc1-stable) date 20.11.2015 2:50:06*
%MOMM*%
G01*
G04 APERTURE LIST*
%ADD10C,0.100000*%
%ADD11C,0.150000*%
%ADD12C,0.149860*%
%ADD13C,0.127000*%
G04 APERTURE END LIST*
D10*
D11*
X126466000Y-85778800D02*
X125366000Y-85778800D01*
X125366000Y-85778800D02*
X125366000Y-84578800D01*
X125366000Y-84578800D02*
X127566000Y-84578800D01*
X127566000Y-84578800D02*
X127566000Y-85778800D01*
X127566000Y-85778800D02*
X126466000Y-85778800D01*
X127194000Y-91224300D02*
X126094000Y-91224300D01*
X126094000Y-91224300D02*
X126094000Y-90024300D01*
X126094000Y-90024300D02*
X128294000Y-90024300D01*
X128294000Y-90024300D02*
X128294000Y-91224300D01*
X128294000Y-91224300D02*
X127194000Y-91224300D01*
X130256000Y-91630600D02*
X130256000Y-92730600D01*
X130256000Y-92730600D02*
X129056000Y-92730600D01*
X129056000Y-92730600D02*
X129056000Y-90530600D01*
X129056000Y-90530600D02*
X130256000Y-90530600D01*
X130256000Y-90530600D02*
X130256000Y-91630600D01*
X135822700Y-89808600D02*
X134722700Y-89808600D01*
X134722700Y-89808600D02*
X134722700Y-88608600D01*
X134722700Y-88608600D02*
X136922700Y-88608600D01*
X136922700Y-88608600D02*
X136922700Y-89808600D01*
X136922700Y-89808600D02*
X135822700Y-89808600D01*
X135806600Y-88283000D02*
X134706600Y-88283000D01*
X134706600Y-88283000D02*
X134706600Y-87083000D01*
X134706600Y-87083000D02*
X136906600Y-87083000D01*
X136906600Y-87083000D02*
X136906600Y-88283000D01*
X136906600Y-88283000D02*
X135806600Y-88283000D01*
X146986000Y-85782200D02*
X148086000Y-85782200D01*
X148086000Y-85782200D02*
X148086000Y-86982200D01*
X148086000Y-86982200D02*
X145886000Y-86982200D01*
X145886000Y-86982200D02*
X145886000Y-85782200D01*
X145886000Y-85782200D02*
X146986000Y-85782200D01*
X146982900Y-87328900D02*
X148082900Y-87328900D01*
X148082900Y-87328900D02*
X148082900Y-88528900D01*
X148082900Y-88528900D02*
X145882900Y-88528900D01*
X145882900Y-88528900D02*
X145882900Y-87328900D01*
X145882900Y-87328900D02*
X146982900Y-87328900D01*
X140671000Y-79813900D02*
X140671000Y-83613900D01*
X140671000Y-83613900D02*
X138671000Y-83613900D01*
X138671000Y-83613900D02*
X138671000Y-79813900D01*
X138671000Y-79813900D02*
X140671000Y-79813900D01*
X138419000Y-79805700D02*
X138419000Y-83605700D01*
X138419000Y-83605700D02*
X136419000Y-83605700D01*
X136419000Y-83605700D02*
X136419000Y-79805700D01*
X136419000Y-79805700D02*
X138419000Y-79805700D01*
X147805500Y-81045200D02*
X147605500Y-81045200D01*
X147605500Y-81045200D02*
X147605500Y-79445200D01*
X147605500Y-79445200D02*
X147805500Y-79445200D01*
X148005500Y-81045200D02*
X147855500Y-81045200D01*
X147855500Y-81045200D02*
X147855500Y-79445200D01*
X147855500Y-79445200D02*
X148005500Y-79445200D01*
X148005500Y-79445200D02*
X147755500Y-79445200D01*
X147755500Y-79445200D02*
X147755500Y-81045200D01*
X147755500Y-81045200D02*
X147855500Y-81045200D01*
X151005500Y-80245200D02*
X151005500Y-81045200D01*
X151005500Y-81045200D02*
X148005500Y-81045200D01*
X148005500Y-81045200D02*
X148005500Y-79445200D01*
X148005500Y-79445200D02*
X151005500Y-79445200D01*
X151005500Y-79445200D02*
X151005500Y-80345200D01*
X136130000Y-79874000D02*
X136130000Y-79774000D01*
X136130000Y-79774000D02*
X134730000Y-79774000D01*
X134730000Y-79774000D02*
X134730000Y-79874000D01*
X136130000Y-79874000D02*
X136130000Y-83874000D01*
X136130000Y-83874000D02*
X134730000Y-83874000D01*
X134730000Y-83874000D02*
X134730000Y-79874000D01*
X134730000Y-79874000D02*
X136130000Y-79874000D01*
X135049000Y-81493000D02*
X135811000Y-81493000D01*
X135430000Y-82255000D02*
X135811000Y-82255000D01*
X135811000Y-82255000D02*
X135430000Y-81493000D01*
X135430000Y-81493000D02*
X135049000Y-82255000D01*
X135049000Y-82255000D02*
X135430000Y-82255000D01*
X139777200Y-94255300D02*
X139977200Y-94255300D01*
X139977200Y-94255300D02*
X139977200Y-95855300D01*
X139977200Y-95855300D02*
X139777200Y-95855300D01*
X139577200Y-94255300D02*
X139727200Y-94255300D01*
X139727200Y-94255300D02*
X139727200Y-95855300D01*
X139727200Y-95855300D02*
X139577200Y-95855300D01*
X139577200Y-95855300D02*
X139827200Y-95855300D01*
X139827200Y-95855300D02*
X139827200Y-94255300D01*
X139827200Y-94255300D02*
X139727200Y-94255300D01*
X136577200Y-95055300D02*
X136577200Y-94255300D01*
X136577200Y-94255300D02*
X139577200Y-94255300D01*
X139577200Y-94255300D02*
X139577200Y-95855300D01*
X139577200Y-95855300D02*
X136577200Y-95855300D01*
X136577200Y-95855300D02*
X136577200Y-94955300D01*
X131244000Y-79365500D02*
X131444000Y-79365500D01*
X131444000Y-79365500D02*
X131444000Y-80965500D01*
X131444000Y-80965500D02*
X131244000Y-80965500D01*
X131044000Y-79365500D02*
X131194000Y-79365500D01*
X131194000Y-79365500D02*
X131194000Y-80965500D01*
X131194000Y-80965500D02*
X131044000Y-80965500D01*
X131044000Y-80965500D02*
X131294000Y-80965500D01*
X131294000Y-80965500D02*
X131294000Y-79365500D01*
X131294000Y-79365500D02*
X131194000Y-79365500D01*
X128044000Y-80165500D02*
X128044000Y-79365500D01*
X128044000Y-79365500D02*
X131044000Y-79365500D01*
X131044000Y-79365500D02*
X131044000Y-80965500D01*
X131044000Y-80965500D02*
X128044000Y-80965500D01*
X128044000Y-80965500D02*
X128044000Y-80065500D01*
X127858000Y-88710800D02*
X128758000Y-89610800D01*
X128758000Y-89610800D02*
X128858000Y-89610800D01*
X127858000Y-87210800D02*
X127858000Y-84810800D01*
X127858000Y-84810800D02*
X132658000Y-84810800D01*
X132658000Y-84810800D02*
X132658000Y-89610800D01*
X132658000Y-89610800D02*
X127858000Y-89610800D01*
X127858000Y-89610800D02*
X127858000Y-87210800D01*
D12*
X128756860Y-88211560D02*
X129257240Y-88711940D01*
X128756860Y-85709660D02*
X131759140Y-85709660D01*
X131759140Y-85709660D02*
X131759140Y-88711940D01*
X131759140Y-88711940D02*
X128756860Y-88711940D01*
X128756860Y-88711940D02*
X128756860Y-85709660D01*
D13*
X143171000Y-80586800D02*
X143171000Y-83634800D01*
X143171000Y-83634800D02*
X142409000Y-83634800D01*
X142409000Y-83634800D02*
X142409000Y-80586800D01*
X142409000Y-80586800D02*
X143171000Y-80586800D01*
D11*
X131853000Y-91624300D02*
X131853000Y-92724300D01*
X131853000Y-92724300D02*
X130653000Y-92724300D01*
X130653000Y-92724300D02*
X130653000Y-90524300D01*
X130653000Y-90524300D02*
X131853000Y-90524300D01*
X131853000Y-90524300D02*
X131853000Y-91624300D01*
X134098600Y-89208400D02*
X134098600Y-90308400D01*
X134098600Y-90308400D02*
X132898600Y-90308400D01*
X132898600Y-90308400D02*
X132898600Y-88108400D01*
X132898600Y-88108400D02*
X134098600Y-88108400D01*
X134098600Y-88108400D02*
X134098600Y-89208400D01*
X148778500Y-81486300D02*
X149878500Y-81486300D01*
X149878500Y-81486300D02*
X149878500Y-82686300D01*
X149878500Y-82686300D02*
X147678500Y-82686300D01*
X147678500Y-82686300D02*
X147678500Y-81486300D01*
X147678500Y-81486300D02*
X148778500Y-81486300D01*
X146771100Y-82889300D02*
X146771100Y-83989300D01*
X146771100Y-83989300D02*
X145571100Y-83989300D01*
X145571100Y-83989300D02*
X145571100Y-81789300D01*
X145571100Y-81789300D02*
X146771100Y-81789300D01*
X146771100Y-81789300D02*
X146771100Y-82889300D01*
X137797200Y-92697600D02*
X138897200Y-92697600D01*
X138897200Y-92697600D02*
X138897200Y-93897600D01*
X138897200Y-93897600D02*
X136697200Y-93897600D01*
X136697200Y-93897600D02*
X136697200Y-92697600D01*
X136697200Y-92697600D02*
X137797200Y-92697600D01*
X129169000Y-81363300D02*
X130269000Y-81363300D01*
X130269000Y-81363300D02*
X130269000Y-82563300D01*
X130269000Y-82563300D02*
X128069000Y-82563300D01*
X128069000Y-82563300D02*
X128069000Y-81363300D01*
X128069000Y-81363300D02*
X129169000Y-81363300D01*
X131871000Y-84571400D02*
X131871000Y-79491400D01*
X134411000Y-84571400D02*
X134411000Y-79491400D01*
X131871000Y-79364400D02*
X131871000Y-79491400D01*
X134411000Y-79491400D02*
X134411000Y-79237400D01*
X134411000Y-79237400D02*
X131871000Y-79237400D01*
X131871000Y-79237400D02*
X131871000Y-79364400D01*
X131871000Y-79364400D02*
X134284000Y-79364400D01*
X134411000Y-84571400D02*
X131871000Y-84571400D01*
X131871000Y-79491400D02*
X134411000Y-79491400D01*
X150765000Y-93400500D02*
X151019000Y-93400500D01*
X151019000Y-93400500D02*
X151019000Y-95940500D01*
X151019000Y-95940500D02*
X150765000Y-95940500D01*
X150765000Y-95940500D02*
X150892000Y-95940500D01*
X150892000Y-95940500D02*
X150892000Y-93400500D01*
X150765000Y-95940500D02*
X140605000Y-95940500D01*
X140605000Y-95940500D02*
X140605000Y-93400500D01*
X140605000Y-93400500D02*
X150765000Y-93400500D01*
X150765000Y-93400500D02*
X150765000Y-95940500D01*
X128571600Y-95975600D02*
X136191600Y-95975600D01*
X128571600Y-93435600D02*
X136191600Y-93435600D01*
X128571600Y-95975600D02*
X128317600Y-95975600D01*
X128317600Y-95975600D02*
X128317600Y-93435600D01*
X128317600Y-93435600D02*
X128571600Y-93435600D01*
X128571600Y-93435600D02*
X128444600Y-93435600D01*
X128444600Y-93435600D02*
X128444600Y-95975600D01*
X136191600Y-93435600D02*
X136191600Y-95975600D01*
X128571600Y-95975600D02*
X128571600Y-93435600D01*
X139977000Y-84436000D02*
X139327000Y-85086000D01*
X143327000Y-84436000D02*
X143327000Y-91636000D01*
X143327000Y-91636000D02*
X139327000Y-91636000D01*
X139327000Y-91636000D02*
X139327000Y-84436000D01*
X139327000Y-84436000D02*
X143327000Y-84436000D01*
X126400100Y-85414286D02*
X126371529Y-85442857D01*
X126285815Y-85471429D01*
X126228672Y-85471429D01*
X126142957Y-85442857D01*
X126085815Y-85385714D01*
X126057243Y-85328571D01*
X126028672Y-85214286D01*
X126028672Y-85128571D01*
X126057243Y-85014286D01*
X126085815Y-84957143D01*
X126142957Y-84900000D01*
X126228672Y-84871429D01*
X126285815Y-84871429D01*
X126371529Y-84900000D01*
X126400100Y-84928571D01*
X126971529Y-85471429D02*
X126628672Y-85471429D01*
X126800100Y-85471429D02*
X126800100Y-84871429D01*
X126742957Y-84957143D01*
X126685815Y-85014286D01*
X126628672Y-85042857D01*
X125814386Y-86271429D02*
X125814386Y-86671429D01*
X125671529Y-86042857D02*
X125528672Y-86471429D01*
X125900100Y-86471429D01*
X126128672Y-86614286D02*
X126157244Y-86642857D01*
X126128672Y-86671429D01*
X126100101Y-86642857D01*
X126128672Y-86614286D01*
X126128672Y-86671429D01*
X126357243Y-86071429D02*
X126757243Y-86071429D01*
X126500100Y-86671429D01*
X127242958Y-86271429D02*
X127242958Y-86671429D01*
X126985815Y-86271429D02*
X126985815Y-86585714D01*
X127014387Y-86642857D01*
X127071529Y-86671429D01*
X127157244Y-86671429D01*
X127214387Y-86642857D01*
X127242958Y-86614286D01*
X126999800Y-90914286D02*
X126971229Y-90942857D01*
X126885515Y-90971429D01*
X126828372Y-90971429D01*
X126742657Y-90942857D01*
X126685515Y-90885714D01*
X126656943Y-90828571D01*
X126628372Y-90714286D01*
X126628372Y-90628571D01*
X126656943Y-90514286D01*
X126685515Y-90457143D01*
X126742657Y-90400000D01*
X126828372Y-90371429D01*
X126885515Y-90371429D01*
X126971229Y-90400000D01*
X126999800Y-90428571D01*
X127228372Y-90428571D02*
X127256943Y-90400000D01*
X127314086Y-90371429D01*
X127456943Y-90371429D01*
X127514086Y-90400000D01*
X127542657Y-90428571D01*
X127571229Y-90485714D01*
X127571229Y-90542857D01*
X127542657Y-90628571D01*
X127199800Y-90971429D01*
X127571229Y-90971429D01*
X125471229Y-89171429D02*
X125528372Y-89171429D01*
X125585515Y-89200000D01*
X125614086Y-89228571D01*
X125642657Y-89285714D01*
X125671229Y-89400000D01*
X125671229Y-89542857D01*
X125642657Y-89657143D01*
X125614086Y-89714286D01*
X125585515Y-89742857D01*
X125528372Y-89771429D01*
X125471229Y-89771429D01*
X125414086Y-89742857D01*
X125385515Y-89714286D01*
X125356943Y-89657143D01*
X125328372Y-89542857D01*
X125328372Y-89400000D01*
X125356943Y-89285714D01*
X125385515Y-89228571D01*
X125414086Y-89200000D01*
X125471229Y-89171429D01*
X125928372Y-89714286D02*
X125956944Y-89742857D01*
X125928372Y-89771429D01*
X125899801Y-89742857D01*
X125928372Y-89714286D01*
X125928372Y-89771429D01*
X126528372Y-89771429D02*
X126185515Y-89771429D01*
X126356943Y-89771429D02*
X126356943Y-89171429D01*
X126299800Y-89257143D01*
X126242658Y-89314286D01*
X126185515Y-89342857D01*
X127042658Y-89371429D02*
X127042658Y-89771429D01*
X126785515Y-89371429D02*
X126785515Y-89685714D01*
X126814087Y-89742857D01*
X126871229Y-89771429D01*
X126956944Y-89771429D01*
X127014087Y-89742857D01*
X127042658Y-89714286D01*
X129814586Y-91700000D02*
X129843157Y-91728571D01*
X129871729Y-91814285D01*
X129871729Y-91871428D01*
X129843157Y-91957143D01*
X129786014Y-92014285D01*
X129728871Y-92042857D01*
X129614586Y-92071428D01*
X129528871Y-92071428D01*
X129414586Y-92042857D01*
X129357443Y-92014285D01*
X129300300Y-91957143D01*
X129271729Y-91871428D01*
X129271729Y-91814285D01*
X129300300Y-91728571D01*
X129328871Y-91700000D01*
X129271729Y-91500000D02*
X129271729Y-91128571D01*
X129500300Y-91328571D01*
X129500300Y-91242857D01*
X129528871Y-91185714D01*
X129557443Y-91157143D01*
X129614586Y-91128571D01*
X129757443Y-91128571D01*
X129814586Y-91157143D01*
X129843157Y-91185714D01*
X129871729Y-91242857D01*
X129871729Y-91414285D01*
X129843157Y-91471428D01*
X129814586Y-91500000D01*
X128171729Y-93028571D02*
X128171729Y-92971428D01*
X128200300Y-92914285D01*
X128228871Y-92885714D01*
X128286014Y-92857143D01*
X128400300Y-92828571D01*
X128543157Y-92828571D01*
X128657443Y-92857143D01*
X128714586Y-92885714D01*
X128743157Y-92914285D01*
X128771729Y-92971428D01*
X128771729Y-93028571D01*
X128743157Y-93085714D01*
X128714586Y-93114285D01*
X128657443Y-93142857D01*
X128543157Y-93171428D01*
X128400300Y-93171428D01*
X128286014Y-93142857D01*
X128228871Y-93114285D01*
X128200300Y-93085714D01*
X128171729Y-93028571D01*
X128714586Y-92571428D02*
X128743157Y-92542856D01*
X128771729Y-92571428D01*
X128743157Y-92599999D01*
X128714586Y-92571428D01*
X128771729Y-92571428D01*
X128771729Y-91971428D02*
X128771729Y-92314285D01*
X128771729Y-92142857D02*
X128171729Y-92142857D01*
X128257443Y-92200000D01*
X128314586Y-92257142D01*
X128343157Y-92314285D01*
X128371729Y-91457142D02*
X128771729Y-91457142D01*
X128371729Y-91714285D02*
X128686014Y-91714285D01*
X128743157Y-91685713D01*
X128771729Y-91628571D01*
X128771729Y-91542856D01*
X128743157Y-91485713D01*
X128714586Y-91457142D01*
X135755100Y-89412186D02*
X135726529Y-89440757D01*
X135640815Y-89469329D01*
X135583672Y-89469329D01*
X135497957Y-89440757D01*
X135440815Y-89383614D01*
X135412243Y-89326471D01*
X135383672Y-89212186D01*
X135383672Y-89126471D01*
X135412243Y-89012186D01*
X135440815Y-88955043D01*
X135497957Y-88897900D01*
X135583672Y-88869329D01*
X135640815Y-88869329D01*
X135726529Y-88897900D01*
X135755100Y-88926471D01*
X136269386Y-89069329D02*
X136269386Y-89469329D01*
X136126529Y-88840757D02*
X135983672Y-89269329D01*
X136355100Y-89269329D01*
X135800000Y-90571429D02*
X135457143Y-90571429D01*
X135628571Y-90571429D02*
X135628571Y-89971429D01*
X135571428Y-90057143D01*
X135514286Y-90114286D01*
X135457143Y-90142857D01*
X136314286Y-90171429D02*
X136314286Y-90571429D01*
X136057143Y-90171429D02*
X136057143Y-90485714D01*
X136085715Y-90542857D01*
X136142857Y-90571429D01*
X136228572Y-90571429D01*
X136285715Y-90542857D01*
X136314286Y-90514286D01*
X135668300Y-87861086D02*
X135639729Y-87889657D01*
X135554015Y-87918229D01*
X135496872Y-87918229D01*
X135411157Y-87889657D01*
X135354015Y-87832514D01*
X135325443Y-87775371D01*
X135296872Y-87661086D01*
X135296872Y-87575371D01*
X135325443Y-87461086D01*
X135354015Y-87403943D01*
X135411157Y-87346800D01*
X135496872Y-87318229D01*
X135554015Y-87318229D01*
X135639729Y-87346800D01*
X135668300Y-87375371D01*
X136211157Y-87318229D02*
X135925443Y-87318229D01*
X135896872Y-87603943D01*
X135925443Y-87575371D01*
X135982586Y-87546800D01*
X136125443Y-87546800D01*
X136182586Y-87575371D01*
X136211157Y-87603943D01*
X136239729Y-87661086D01*
X136239729Y-87803943D01*
X136211157Y-87861086D01*
X136182586Y-87889657D01*
X136125443Y-87918229D01*
X135982586Y-87918229D01*
X135925443Y-87889657D01*
X135896872Y-87861086D01*
X135414286Y-86771429D02*
X135071429Y-86771429D01*
X135242857Y-86771429D02*
X135242857Y-86171429D01*
X135185714Y-86257143D01*
X135128572Y-86314286D01*
X135071429Y-86342857D01*
X135785715Y-86171429D02*
X135842858Y-86171429D01*
X135900001Y-86200000D01*
X135928572Y-86228571D01*
X135957143Y-86285714D01*
X135985715Y-86400000D01*
X135985715Y-86542857D01*
X135957143Y-86657143D01*
X135928572Y-86714286D01*
X135900001Y-86742857D01*
X135842858Y-86771429D01*
X135785715Y-86771429D01*
X135728572Y-86742857D01*
X135700001Y-86714286D01*
X135671429Y-86657143D01*
X135642858Y-86542857D01*
X135642858Y-86400000D01*
X135671429Y-86285714D01*
X135700001Y-86228571D01*
X135728572Y-86200000D01*
X135785715Y-86171429D01*
X136242858Y-86371429D02*
X136242858Y-86771429D01*
X136242858Y-86428571D02*
X136271430Y-86400000D01*
X136328572Y-86371429D01*
X136414287Y-86371429D01*
X136471430Y-86400000D01*
X136500001Y-86457143D01*
X136500001Y-86771429D01*
X146823700Y-86590086D02*
X146795129Y-86618657D01*
X146709415Y-86647229D01*
X146652272Y-86647229D01*
X146566557Y-86618657D01*
X146509415Y-86561514D01*
X146480843Y-86504371D01*
X146452272Y-86390086D01*
X146452272Y-86304371D01*
X146480843Y-86190086D01*
X146509415Y-86132943D01*
X146566557Y-86075800D01*
X146652272Y-86047229D01*
X146709415Y-86047229D01*
X146795129Y-86075800D01*
X146823700Y-86104371D01*
X147337986Y-86047229D02*
X147223700Y-86047229D01*
X147166557Y-86075800D01*
X147137986Y-86104371D01*
X147080843Y-86190086D01*
X147052272Y-86304371D01*
X147052272Y-86532943D01*
X147080843Y-86590086D01*
X147109415Y-86618657D01*
X147166557Y-86647229D01*
X147280843Y-86647229D01*
X147337986Y-86618657D01*
X147366557Y-86590086D01*
X147395129Y-86532943D01*
X147395129Y-86390086D01*
X147366557Y-86332943D01*
X147337986Y-86304371D01*
X147280843Y-86275800D01*
X147166557Y-86275800D01*
X147109415Y-86304371D01*
X147080843Y-86332943D01*
X147052272Y-86390086D01*
X148737986Y-86347229D02*
X148737986Y-86747229D01*
X148595129Y-86118657D02*
X148452272Y-86547229D01*
X148823700Y-86547229D01*
X149052272Y-86690086D02*
X149080844Y-86718657D01*
X149052272Y-86747229D01*
X149023701Y-86718657D01*
X149052272Y-86690086D01*
X149052272Y-86747229D01*
X149280843Y-86147229D02*
X149680843Y-86147229D01*
X149423700Y-86747229D01*
X150166558Y-86347229D02*
X150166558Y-86747229D01*
X149909415Y-86347229D02*
X149909415Y-86661514D01*
X149937987Y-86718657D01*
X149995129Y-86747229D01*
X150080844Y-86747229D01*
X150137987Y-86718657D01*
X150166558Y-86690086D01*
X146917600Y-88102686D02*
X146889029Y-88131257D01*
X146803315Y-88159829D01*
X146746172Y-88159829D01*
X146660457Y-88131257D01*
X146603315Y-88074114D01*
X146574743Y-88016971D01*
X146546172Y-87902686D01*
X146546172Y-87816971D01*
X146574743Y-87702686D01*
X146603315Y-87645543D01*
X146660457Y-87588400D01*
X146746172Y-87559829D01*
X146803315Y-87559829D01*
X146889029Y-87588400D01*
X146917600Y-87616971D01*
X147117600Y-87559829D02*
X147517600Y-87559829D01*
X147260457Y-88159829D01*
X148489029Y-87659829D02*
X148546172Y-87659829D01*
X148603315Y-87688400D01*
X148631886Y-87716971D01*
X148660457Y-87774114D01*
X148689029Y-87888400D01*
X148689029Y-88031257D01*
X148660457Y-88145543D01*
X148631886Y-88202686D01*
X148603315Y-88231257D01*
X148546172Y-88259829D01*
X148489029Y-88259829D01*
X148431886Y-88231257D01*
X148403315Y-88202686D01*
X148374743Y-88145543D01*
X148346172Y-88031257D01*
X148346172Y-87888400D01*
X148374743Y-87774114D01*
X148403315Y-87716971D01*
X148431886Y-87688400D01*
X148489029Y-87659829D01*
X148946172Y-88202686D02*
X148974744Y-88231257D01*
X148946172Y-88259829D01*
X148917601Y-88231257D01*
X148946172Y-88202686D01*
X148946172Y-88259829D01*
X149546172Y-88259829D02*
X149203315Y-88259829D01*
X149374743Y-88259829D02*
X149374743Y-87659829D01*
X149317600Y-87745543D01*
X149260458Y-87802686D01*
X149203315Y-87831257D01*
X150060458Y-87859829D02*
X150060458Y-88259829D01*
X149803315Y-87859829D02*
X149803315Y-88174114D01*
X149831887Y-88231257D01*
X149889029Y-88259829D01*
X149974744Y-88259829D01*
X150031887Y-88231257D01*
X150060458Y-88202686D01*
X139914586Y-81800000D02*
X139943157Y-81828571D01*
X139971729Y-81914285D01*
X139971729Y-81971428D01*
X139943157Y-82057143D01*
X139886014Y-82114285D01*
X139828871Y-82142857D01*
X139714586Y-82171428D01*
X139628871Y-82171428D01*
X139514586Y-82142857D01*
X139457443Y-82114285D01*
X139400300Y-82057143D01*
X139371729Y-81971428D01*
X139371729Y-81914285D01*
X139400300Y-81828571D01*
X139428871Y-81800000D01*
X139971729Y-81514285D02*
X139971729Y-81400000D01*
X139943157Y-81342857D01*
X139914586Y-81314285D01*
X139828871Y-81257143D01*
X139714586Y-81228571D01*
X139486014Y-81228571D01*
X139428871Y-81257143D01*
X139400300Y-81285714D01*
X139371729Y-81342857D01*
X139371729Y-81457143D01*
X139400300Y-81514285D01*
X139428871Y-81542857D01*
X139486014Y-81571428D01*
X139628871Y-81571428D01*
X139686014Y-81542857D01*
X139714586Y-81514285D01*
X139743157Y-81457143D01*
X139743157Y-81342857D01*
X139714586Y-81285714D01*
X139686014Y-81257143D01*
X139628871Y-81228571D01*
X141171429Y-80942857D02*
X141571429Y-80942857D01*
X140942857Y-81085714D02*
X141371429Y-81228571D01*
X141371429Y-80857143D01*
X140971429Y-80685714D02*
X140971429Y-80285714D01*
X141571429Y-80542857D01*
X141171429Y-79799999D02*
X141571429Y-79799999D01*
X141171429Y-80057142D02*
X141485714Y-80057142D01*
X141542857Y-80028570D01*
X141571429Y-79971428D01*
X141571429Y-79885713D01*
X141542857Y-79828570D01*
X141514286Y-79799999D01*
X137714586Y-82085715D02*
X137743157Y-82114286D01*
X137771729Y-82200000D01*
X137771729Y-82257143D01*
X137743157Y-82342858D01*
X137686014Y-82400000D01*
X137628871Y-82428572D01*
X137514586Y-82457143D01*
X137428871Y-82457143D01*
X137314586Y-82428572D01*
X137257443Y-82400000D01*
X137200300Y-82342858D01*
X137171729Y-82257143D01*
X137171729Y-82200000D01*
X137200300Y-82114286D01*
X137228871Y-82085715D01*
X137771729Y-81514286D02*
X137771729Y-81857143D01*
X137771729Y-81685715D02*
X137171729Y-81685715D01*
X137257443Y-81742858D01*
X137314586Y-81800000D01*
X137343157Y-81857143D01*
X137171729Y-81142857D02*
X137171729Y-81085714D01*
X137200300Y-81028571D01*
X137228871Y-81000000D01*
X137286014Y-80971429D01*
X137400300Y-80942857D01*
X137543157Y-80942857D01*
X137657443Y-80971429D01*
X137714586Y-81000000D01*
X137743157Y-81028571D01*
X137771729Y-81085714D01*
X137771729Y-81142857D01*
X137743157Y-81200000D01*
X137714586Y-81228571D01*
X137657443Y-81257143D01*
X137543157Y-81285714D01*
X137400300Y-81285714D01*
X137286014Y-81257143D01*
X137228871Y-81228571D01*
X137200300Y-81200000D01*
X137171729Y-81142857D01*
X136757143Y-84071429D02*
X136757143Y-84471429D01*
X136614286Y-83842857D02*
X136471429Y-84271429D01*
X136842857Y-84271429D01*
X137014286Y-83871429D02*
X137414286Y-83871429D01*
X137157143Y-84471429D01*
X137900001Y-84071429D02*
X137900001Y-84471429D01*
X137642858Y-84071429D02*
X137642858Y-84385714D01*
X137671430Y-84442857D01*
X137728572Y-84471429D01*
X137814287Y-84471429D01*
X137871430Y-84442857D01*
X137900001Y-84414286D01*
X150257143Y-81871429D02*
X150257143Y-81271429D01*
X150400000Y-81271429D01*
X150485715Y-81300000D01*
X150542857Y-81357143D01*
X150571429Y-81414286D01*
X150600000Y-81528571D01*
X150600000Y-81614286D01*
X150571429Y-81728571D01*
X150542857Y-81785714D01*
X150485715Y-81842857D01*
X150400000Y-81871429D01*
X150257143Y-81871429D01*
X151171429Y-81871429D02*
X150828572Y-81871429D01*
X151000000Y-81871429D02*
X151000000Y-81271429D01*
X150942857Y-81357143D01*
X150885715Y-81414286D01*
X150828572Y-81442857D01*
X146314286Y-80371429D02*
X146028572Y-80371429D01*
X146028572Y-79771429D01*
X146514286Y-80057143D02*
X146714286Y-80057143D01*
X146800000Y-80371429D02*
X146514286Y-80371429D01*
X146514286Y-79771429D01*
X146800000Y-79771429D01*
X147057143Y-80371429D02*
X147057143Y-79771429D01*
X147200000Y-79771429D01*
X147285715Y-79800000D01*
X147342857Y-79857143D01*
X147371429Y-79914286D01*
X147400000Y-80028571D01*
X147400000Y-80114286D01*
X147371429Y-80228571D01*
X147342857Y-80285714D01*
X147285715Y-80342857D01*
X147200000Y-80371429D01*
X147057143Y-80371429D01*
D12*
X134570975Y-82542443D02*
X133971535Y-82542443D01*
X133971535Y-82399719D01*
X134000080Y-82314085D01*
X134057170Y-82256996D01*
X134114259Y-82228451D01*
X134228438Y-82199906D01*
X134314072Y-82199906D01*
X134428251Y-82228451D01*
X134485341Y-82256996D01*
X134542430Y-82314085D01*
X134570975Y-82399719D01*
X134570975Y-82542443D01*
X134028625Y-81971548D02*
X134000080Y-81943003D01*
X133971535Y-81885914D01*
X133971535Y-81743190D01*
X134000080Y-81686100D01*
X134028625Y-81657556D01*
X134085714Y-81629011D01*
X134142804Y-81629011D01*
X134228438Y-81657556D01*
X134570975Y-82000093D01*
X134570975Y-81629011D01*
X133058677Y-85157183D02*
X133144311Y-85185728D01*
X133172856Y-85214272D01*
X133201401Y-85271362D01*
X133201401Y-85356996D01*
X133172856Y-85414086D01*
X133144311Y-85442630D01*
X133087222Y-85471175D01*
X132858864Y-85471175D01*
X132858864Y-84871735D01*
X133058677Y-84871735D01*
X133115767Y-84900280D01*
X133144311Y-84928825D01*
X133172856Y-84985914D01*
X133172856Y-85043004D01*
X133144311Y-85100093D01*
X133115767Y-85128638D01*
X133058677Y-85157183D01*
X132858864Y-85157183D01*
X133429759Y-85299907D02*
X133715207Y-85299907D01*
X133372670Y-85471175D02*
X133572483Y-84871735D01*
X133772296Y-85471175D01*
X133886476Y-84871735D02*
X134229013Y-84871735D01*
X134057744Y-85471175D02*
X134057744Y-84871735D01*
X134714273Y-84871735D02*
X134428826Y-84871735D01*
X134400281Y-85157183D01*
X134428826Y-85128638D01*
X134485915Y-85100093D01*
X134628639Y-85100093D01*
X134685729Y-85128638D01*
X134714273Y-85157183D01*
X134742818Y-85214272D01*
X134742818Y-85356996D01*
X134714273Y-85414086D01*
X134685729Y-85442630D01*
X134628639Y-85471175D01*
X134485915Y-85471175D01*
X134428826Y-85442630D01*
X134400281Y-85414086D01*
X135256624Y-85071549D02*
X135256624Y-85471175D01*
X135113900Y-84843190D02*
X134971176Y-85271362D01*
X135342258Y-85271362D01*
X135513526Y-84871735D02*
X135656250Y-85471175D01*
X135770429Y-85043004D01*
X135884608Y-85471175D01*
X136027332Y-84871735D01*
X136227145Y-85442630D02*
X136312779Y-85471175D01*
X136455503Y-85471175D01*
X136512593Y-85442630D01*
X136541137Y-85414086D01*
X136569682Y-85356996D01*
X136569682Y-85299907D01*
X136541137Y-85242817D01*
X136512593Y-85214272D01*
X136455503Y-85185728D01*
X136341324Y-85157183D01*
X136284235Y-85128638D01*
X136255690Y-85100093D01*
X136227145Y-85043004D01*
X136227145Y-84985914D01*
X136255690Y-84928825D01*
X136284235Y-84900280D01*
X136341324Y-84871735D01*
X136484048Y-84871735D01*
X136569682Y-84900280D01*
D11*
X139257143Y-93871429D02*
X139257143Y-93271429D01*
X139400000Y-93271429D01*
X139485715Y-93300000D01*
X139542857Y-93357143D01*
X139571429Y-93414286D01*
X139600000Y-93528571D01*
X139600000Y-93614286D01*
X139571429Y-93728571D01*
X139542857Y-93785714D01*
X139485715Y-93842857D01*
X139400000Y-93871429D01*
X139257143Y-93871429D01*
X139800000Y-93271429D02*
X140171429Y-93271429D01*
X139971429Y-93500000D01*
X140057143Y-93500000D01*
X140114286Y-93528571D01*
X140142857Y-93557143D01*
X140171429Y-93614286D01*
X140171429Y-93757143D01*
X140142857Y-93814286D01*
X140114286Y-93842857D01*
X140057143Y-93871429D01*
X139885715Y-93871429D01*
X139828572Y-93842857D01*
X139800000Y-93814286D01*
X140771429Y-95385714D02*
X140771429Y-95671428D01*
X140171429Y-95671428D01*
X140457143Y-95185714D02*
X140457143Y-94985714D01*
X140771429Y-94900000D02*
X140771429Y-95185714D01*
X140171429Y-95185714D01*
X140171429Y-94900000D01*
X140771429Y-94642857D02*
X140171429Y-94642857D01*
X140171429Y-94500000D01*
X140200000Y-94414285D01*
X140257143Y-94357143D01*
X140314286Y-94328571D01*
X140428571Y-94300000D01*
X140514286Y-94300000D01*
X140628571Y-94328571D01*
X140685714Y-94357143D01*
X140742857Y-94414285D01*
X140771429Y-94500000D01*
X140771429Y-94642857D01*
X130557243Y-81871429D02*
X130557243Y-81271429D01*
X130700100Y-81271429D01*
X130785815Y-81300000D01*
X130842957Y-81357143D01*
X130871529Y-81414286D01*
X130900100Y-81528571D01*
X130900100Y-81614286D01*
X130871529Y-81728571D01*
X130842957Y-81785714D01*
X130785815Y-81842857D01*
X130700100Y-81871429D01*
X130557243Y-81871429D01*
X131414386Y-81471429D02*
X131414386Y-81871429D01*
X131271529Y-81242857D02*
X131128672Y-81671429D01*
X131500100Y-81671429D01*
X127771529Y-81185714D02*
X127771529Y-81471428D01*
X127171529Y-81471428D01*
X127457243Y-80985714D02*
X127457243Y-80785714D01*
X127771529Y-80700000D02*
X127771529Y-80985714D01*
X127171529Y-80985714D01*
X127171529Y-80700000D01*
X127771529Y-80442857D02*
X127171529Y-80442857D01*
X127171529Y-80300000D01*
X127200100Y-80214285D01*
X127257243Y-80157143D01*
X127314386Y-80128571D01*
X127428671Y-80100000D01*
X127514386Y-80100000D01*
X127628671Y-80128571D01*
X127685814Y-80157143D01*
X127742957Y-80214285D01*
X127771529Y-80300000D01*
X127771529Y-80442857D01*
D12*
X129551809Y-87838062D02*
X129551809Y-87203062D01*
X129703000Y-87203062D01*
X129793714Y-87233300D01*
X129854190Y-87293776D01*
X129884429Y-87354252D01*
X129914667Y-87475205D01*
X129914667Y-87565919D01*
X129884429Y-87686871D01*
X129854190Y-87747348D01*
X129793714Y-87807824D01*
X129703000Y-87838062D01*
X129551809Y-87838062D01*
X130186809Y-87838062D02*
X130186809Y-87203062D01*
X130338000Y-87203062D01*
X130428714Y-87233300D01*
X130489190Y-87293776D01*
X130519429Y-87354252D01*
X130549667Y-87475205D01*
X130549667Y-87565919D01*
X130519429Y-87686871D01*
X130489190Y-87747348D01*
X130428714Y-87807824D01*
X130338000Y-87838062D01*
X130186809Y-87838062D01*
X131154429Y-87838062D02*
X130791571Y-87838062D01*
X130973000Y-87838062D02*
X130973000Y-87203062D01*
X130912524Y-87293776D01*
X130852048Y-87354252D01*
X130791571Y-87384490D01*
X126811190Y-84487262D02*
X126811190Y-83852262D01*
X127022857Y-84305833D01*
X127234524Y-83852262D01*
X127234524Y-84487262D01*
X127536904Y-84487262D02*
X127536904Y-83852262D01*
X127748571Y-84305833D01*
X127960238Y-83852262D01*
X127960238Y-84487262D01*
X128232380Y-84305833D02*
X128534761Y-84305833D01*
X128171904Y-84487262D02*
X128383571Y-83852262D01*
X128595238Y-84487262D01*
X128897619Y-84124405D02*
X128837143Y-84094167D01*
X128806904Y-84063929D01*
X128776666Y-84003452D01*
X128776666Y-83973214D01*
X128806904Y-83912738D01*
X128837143Y-83882500D01*
X128897619Y-83852262D01*
X129018571Y-83852262D01*
X129079047Y-83882500D01*
X129109285Y-83912738D01*
X129139524Y-83973214D01*
X129139524Y-84003452D01*
X129109285Y-84063929D01*
X129079047Y-84094167D01*
X129018571Y-84124405D01*
X128897619Y-84124405D01*
X128837143Y-84154643D01*
X128806904Y-84184881D01*
X128776666Y-84245357D01*
X128776666Y-84366310D01*
X128806904Y-84426786D01*
X128837143Y-84457024D01*
X128897619Y-84487262D01*
X129018571Y-84487262D01*
X129079047Y-84457024D01*
X129109285Y-84426786D01*
X129139524Y-84366310D01*
X129139524Y-84245357D01*
X129109285Y-84184881D01*
X129079047Y-84154643D01*
X129018571Y-84124405D01*
X129683809Y-84063929D02*
X129683809Y-84487262D01*
X129532619Y-83822024D02*
X129381428Y-84275595D01*
X129774524Y-84275595D01*
X130318809Y-83852262D02*
X130016428Y-83852262D01*
X129986190Y-84154643D01*
X130016428Y-84124405D01*
X130076905Y-84094167D01*
X130228095Y-84094167D01*
X130288571Y-84124405D01*
X130318809Y-84154643D01*
X130349048Y-84215119D01*
X130349048Y-84366310D01*
X130318809Y-84426786D01*
X130288571Y-84457024D01*
X130228095Y-84487262D01*
X130076905Y-84487262D01*
X130016428Y-84457024D01*
X129986190Y-84426786D01*
X130590952Y-83912738D02*
X130621190Y-83882500D01*
X130681667Y-83852262D01*
X130832857Y-83852262D01*
X130893333Y-83882500D01*
X130923571Y-83912738D01*
X130953810Y-83973214D01*
X130953810Y-84033690D01*
X130923571Y-84124405D01*
X130560714Y-84487262D01*
X130953810Y-84487262D01*
X131649286Y-84547738D02*
X131588810Y-84517500D01*
X131528333Y-84457024D01*
X131437619Y-84366310D01*
X131377143Y-84336071D01*
X131316667Y-84336071D01*
X131346905Y-84487262D02*
X131286429Y-84457024D01*
X131225952Y-84396548D01*
X131195714Y-84275595D01*
X131195714Y-84063929D01*
X131225952Y-83942976D01*
X131286429Y-83882500D01*
X131346905Y-83852262D01*
X131467857Y-83852262D01*
X131528333Y-83882500D01*
X131588810Y-83942976D01*
X131619048Y-84063929D01*
X131619048Y-84275595D01*
X131588810Y-84396548D01*
X131528333Y-84457024D01*
X131467857Y-84487262D01*
X131346905Y-84487262D01*
D11*
X143128371Y-82157143D02*
X143099800Y-82214286D01*
X143042657Y-82271429D01*
X142956943Y-82357143D01*
X142928371Y-82414286D01*
X142928371Y-82471429D01*
X143071229Y-82442857D02*
X143042657Y-82500000D01*
X142985514Y-82557143D01*
X142871229Y-82585714D01*
X142671229Y-82585714D01*
X142556943Y-82557143D01*
X142499800Y-82500000D01*
X142471229Y-82442857D01*
X142471229Y-82328571D01*
X142499800Y-82271429D01*
X142556943Y-82214286D01*
X142671229Y-82185714D01*
X142871229Y-82185714D01*
X142985514Y-82214286D01*
X143042657Y-82271429D01*
X143071229Y-82328571D01*
X143071229Y-82442857D01*
X143071229Y-81614286D02*
X143071229Y-81957143D01*
X143071229Y-81785715D02*
X142471229Y-81785715D01*
X142556943Y-81842858D01*
X142614086Y-81900000D01*
X142642657Y-81957143D01*
D12*
X145271175Y-83812218D02*
X144671735Y-83812218D01*
X145099907Y-83612405D01*
X144671735Y-83412592D01*
X145271175Y-83412592D01*
X145271175Y-83127144D02*
X144671735Y-83127144D01*
X145099907Y-82927331D01*
X144671735Y-82727518D01*
X145271175Y-82727518D01*
X144957183Y-82242257D02*
X144985728Y-82156623D01*
X145014272Y-82128078D01*
X145071362Y-82099533D01*
X145156996Y-82099533D01*
X145214086Y-82128078D01*
X145242630Y-82156623D01*
X145271175Y-82213712D01*
X145271175Y-82442070D01*
X144671735Y-82442070D01*
X144671735Y-82242257D01*
X144700280Y-82185167D01*
X144728825Y-82156623D01*
X144785914Y-82128078D01*
X144843004Y-82128078D01*
X144900093Y-82156623D01*
X144928638Y-82185167D01*
X144957183Y-82242257D01*
X144957183Y-82442070D01*
X144671735Y-81928264D02*
X144671735Y-81585727D01*
X145271175Y-81756996D02*
X144671735Y-81756996D01*
X144728825Y-81414459D02*
X144700280Y-81385914D01*
X144671735Y-81328825D01*
X144671735Y-81186101D01*
X144700280Y-81129011D01*
X144728825Y-81100467D01*
X144785914Y-81071922D01*
X144843004Y-81071922D01*
X144928638Y-81100467D01*
X145271175Y-81443004D01*
X145271175Y-81071922D01*
X144728825Y-80843564D02*
X144700280Y-80815019D01*
X144671735Y-80757930D01*
X144671735Y-80615206D01*
X144700280Y-80558116D01*
X144728825Y-80529572D01*
X144785914Y-80501027D01*
X144843004Y-80501027D01*
X144928638Y-80529572D01*
X145271175Y-80872109D01*
X145271175Y-80501027D01*
X144728825Y-80272669D02*
X144700280Y-80244124D01*
X144671735Y-80187035D01*
X144671735Y-80044311D01*
X144700280Y-79987221D01*
X144728825Y-79958677D01*
X144785914Y-79930132D01*
X144843004Y-79930132D01*
X144928638Y-79958677D01*
X145271175Y-80301214D01*
X145271175Y-79930132D01*
X144728825Y-79701774D02*
X144700280Y-79673229D01*
X144671735Y-79616140D01*
X144671735Y-79473416D01*
X144700280Y-79416326D01*
X144728825Y-79387782D01*
X144785914Y-79359237D01*
X144843004Y-79359237D01*
X144928638Y-79387782D01*
X145271175Y-79730319D01*
X145271175Y-79359237D01*
D11*
X131571229Y-91700000D02*
X131285514Y-91900000D01*
X131571229Y-92042857D02*
X130971229Y-92042857D01*
X130971229Y-91814285D01*
X130999800Y-91757143D01*
X131028371Y-91728571D01*
X131085514Y-91700000D01*
X131171229Y-91700000D01*
X131228371Y-91728571D01*
X131256943Y-91757143D01*
X131285514Y-91814285D01*
X131285514Y-92042857D01*
X131571229Y-91128571D02*
X131571229Y-91471428D01*
X131571229Y-91300000D02*
X130971229Y-91300000D01*
X131056943Y-91357143D01*
X131114086Y-91414285D01*
X131142657Y-91471428D01*
X132271229Y-92014286D02*
X132671229Y-92014286D01*
X132042657Y-92157143D02*
X132471229Y-92300000D01*
X132471229Y-91928572D01*
X132671229Y-91700000D02*
X132071229Y-91700000D01*
X132442657Y-91642857D02*
X132671229Y-91471428D01*
X132271229Y-91471428D02*
X132499800Y-91700000D01*
X132071229Y-91271429D02*
X132071229Y-90871429D01*
X132671229Y-91128572D01*
X133855529Y-89276600D02*
X133569814Y-89476600D01*
X133855529Y-89619457D02*
X133255529Y-89619457D01*
X133255529Y-89390885D01*
X133284100Y-89333743D01*
X133312671Y-89305171D01*
X133369814Y-89276600D01*
X133455529Y-89276600D01*
X133512671Y-89305171D01*
X133541243Y-89333743D01*
X133569814Y-89390885D01*
X133569814Y-89619457D01*
X133312671Y-89048028D02*
X133284100Y-89019457D01*
X133255529Y-88962314D01*
X133255529Y-88819457D01*
X133284100Y-88762314D01*
X133312671Y-88733743D01*
X133369814Y-88705171D01*
X133426957Y-88705171D01*
X133512671Y-88733743D01*
X133855529Y-89076600D01*
X133855529Y-88705171D01*
X133571429Y-91714286D02*
X133971429Y-91714286D01*
X133342857Y-91857143D02*
X133771429Y-92000000D01*
X133771429Y-91628572D01*
X133971429Y-91400000D02*
X133371429Y-91400000D01*
X133742857Y-91342857D02*
X133971429Y-91171428D01*
X133571429Y-91171428D02*
X133800000Y-91400000D01*
X133371429Y-90971429D02*
X133371429Y-90571429D01*
X133971429Y-90828572D01*
X148690400Y-82291929D02*
X148490400Y-82006214D01*
X148347543Y-82291929D02*
X148347543Y-81691929D01*
X148576115Y-81691929D01*
X148633257Y-81720500D01*
X148661829Y-81749071D01*
X148690400Y-81806214D01*
X148690400Y-81891929D01*
X148661829Y-81949071D01*
X148633257Y-81977643D01*
X148576115Y-82006214D01*
X148347543Y-82006214D01*
X148890400Y-81691929D02*
X149261829Y-81691929D01*
X149061829Y-81920500D01*
X149147543Y-81920500D01*
X149204686Y-81949071D01*
X149233257Y-81977643D01*
X149261829Y-82034786D01*
X149261829Y-82177643D01*
X149233257Y-82234786D01*
X149204686Y-82263357D01*
X149147543Y-82291929D01*
X148976115Y-82291929D01*
X148918972Y-82263357D01*
X148890400Y-82234786D01*
X148078500Y-83507729D02*
X147735643Y-83507729D01*
X147907071Y-83507729D02*
X147907071Y-82907729D01*
X147849928Y-82993443D01*
X147792786Y-83050586D01*
X147735643Y-83079157D01*
X148449929Y-82907729D02*
X148507072Y-82907729D01*
X148564215Y-82936300D01*
X148592786Y-82964871D01*
X148621357Y-83022014D01*
X148649929Y-83136300D01*
X148649929Y-83279157D01*
X148621357Y-83393443D01*
X148592786Y-83450586D01*
X148564215Y-83479157D01*
X148507072Y-83507729D01*
X148449929Y-83507729D01*
X148392786Y-83479157D01*
X148364215Y-83450586D01*
X148335643Y-83393443D01*
X148307072Y-83279157D01*
X148307072Y-83136300D01*
X148335643Y-83022014D01*
X148364215Y-82964871D01*
X148392786Y-82936300D01*
X148449929Y-82907729D01*
X149021358Y-82907729D02*
X149078501Y-82907729D01*
X149135644Y-82936300D01*
X149164215Y-82964871D01*
X149192786Y-83022014D01*
X149221358Y-83136300D01*
X149221358Y-83279157D01*
X149192786Y-83393443D01*
X149164215Y-83450586D01*
X149135644Y-83479157D01*
X149078501Y-83507729D01*
X149021358Y-83507729D01*
X148964215Y-83479157D01*
X148935644Y-83450586D01*
X148907072Y-83393443D01*
X148878501Y-83279157D01*
X148878501Y-83136300D01*
X148907072Y-83022014D01*
X148935644Y-82964871D01*
X148964215Y-82936300D01*
X149021358Y-82907729D01*
X149821358Y-83507729D02*
X149621358Y-83222014D01*
X149478501Y-83507729D02*
X149478501Y-82907729D01*
X149707073Y-82907729D01*
X149764215Y-82936300D01*
X149792787Y-82964871D01*
X149821358Y-83022014D01*
X149821358Y-83107729D01*
X149792787Y-83164871D01*
X149764215Y-83193443D01*
X149707073Y-83222014D01*
X149478501Y-83222014D01*
X146503029Y-82948600D02*
X146217314Y-83148600D01*
X146503029Y-83291457D02*
X145903029Y-83291457D01*
X145903029Y-83062885D01*
X145931600Y-83005743D01*
X145960171Y-82977171D01*
X146017314Y-82948600D01*
X146103029Y-82948600D01*
X146160171Y-82977171D01*
X146188743Y-83005743D01*
X146217314Y-83062885D01*
X146217314Y-83291457D01*
X146103029Y-82434314D02*
X146503029Y-82434314D01*
X145874457Y-82577171D02*
X146303029Y-82720028D01*
X146303029Y-82348600D01*
X146503029Y-81220028D02*
X146503029Y-81562885D01*
X146503029Y-81391457D02*
X145903029Y-81391457D01*
X145988743Y-81448600D01*
X146045886Y-81505742D01*
X146074457Y-81562885D01*
X146503029Y-80962885D02*
X145903029Y-80962885D01*
X146274457Y-80905742D02*
X146503029Y-80734313D01*
X146103029Y-80734313D02*
X146331600Y-80962885D01*
X137641900Y-93576429D02*
X137441900Y-93290714D01*
X137299043Y-93576429D02*
X137299043Y-92976429D01*
X137527615Y-92976429D01*
X137584757Y-93005000D01*
X137613329Y-93033571D01*
X137641900Y-93090714D01*
X137641900Y-93176429D01*
X137613329Y-93233571D01*
X137584757Y-93262143D01*
X137527615Y-93290714D01*
X137299043Y-93290714D01*
X138184757Y-92976429D02*
X137899043Y-92976429D01*
X137870472Y-93262143D01*
X137899043Y-93233571D01*
X137956186Y-93205000D01*
X138099043Y-93205000D01*
X138156186Y-93233571D01*
X138184757Y-93262143D01*
X138213329Y-93319286D01*
X138213329Y-93462143D01*
X138184757Y-93519286D01*
X138156186Y-93547857D01*
X138099043Y-93576429D01*
X137956186Y-93576429D01*
X137899043Y-93547857D01*
X137870472Y-93519286D01*
X137041900Y-92376429D02*
X136699043Y-92376429D01*
X136870471Y-92376429D02*
X136870471Y-91776429D01*
X136813328Y-91862143D01*
X136756186Y-91919286D01*
X136699043Y-91947857D01*
X137413329Y-91776429D02*
X137470472Y-91776429D01*
X137527615Y-91805000D01*
X137556186Y-91833571D01*
X137584757Y-91890714D01*
X137613329Y-92005000D01*
X137613329Y-92147857D01*
X137584757Y-92262143D01*
X137556186Y-92319286D01*
X137527615Y-92347857D01*
X137470472Y-92376429D01*
X137413329Y-92376429D01*
X137356186Y-92347857D01*
X137327615Y-92319286D01*
X137299043Y-92262143D01*
X137270472Y-92147857D01*
X137270472Y-92005000D01*
X137299043Y-91890714D01*
X137327615Y-91833571D01*
X137356186Y-91805000D01*
X137413329Y-91776429D01*
X137984758Y-91776429D02*
X138041901Y-91776429D01*
X138099044Y-91805000D01*
X138127615Y-91833571D01*
X138156186Y-91890714D01*
X138184758Y-92005000D01*
X138184758Y-92147857D01*
X138156186Y-92262143D01*
X138127615Y-92319286D01*
X138099044Y-92347857D01*
X138041901Y-92376429D01*
X137984758Y-92376429D01*
X137927615Y-92347857D01*
X137899044Y-92319286D01*
X137870472Y-92262143D01*
X137841901Y-92147857D01*
X137841901Y-92005000D01*
X137870472Y-91890714D01*
X137899044Y-91833571D01*
X137927615Y-91805000D01*
X137984758Y-91776429D01*
X138784758Y-92376429D02*
X138584758Y-92090714D01*
X138441901Y-92376429D02*
X138441901Y-91776429D01*
X138670473Y-91776429D01*
X138727615Y-91805000D01*
X138756187Y-91833571D01*
X138784758Y-91890714D01*
X138784758Y-91976429D01*
X138756187Y-92033571D01*
X138727615Y-92062143D01*
X138670473Y-92090714D01*
X138441901Y-92090714D01*
X129200100Y-82271429D02*
X129000100Y-81985714D01*
X128857243Y-82271429D02*
X128857243Y-81671429D01*
X129085815Y-81671429D01*
X129142957Y-81700000D01*
X129171529Y-81728571D01*
X129200100Y-81785714D01*
X129200100Y-81871429D01*
X129171529Y-81928571D01*
X129142957Y-81957143D01*
X129085815Y-81985714D01*
X128857243Y-81985714D01*
X129714386Y-81671429D02*
X129600100Y-81671429D01*
X129542957Y-81700000D01*
X129514386Y-81728571D01*
X129457243Y-81814286D01*
X129428672Y-81928571D01*
X129428672Y-82157143D01*
X129457243Y-82214286D01*
X129485815Y-82242857D01*
X129542957Y-82271429D01*
X129657243Y-82271429D01*
X129714386Y-82242857D01*
X129742957Y-82214286D01*
X129771529Y-82157143D01*
X129771529Y-82014286D01*
X129742957Y-81957143D01*
X129714386Y-81928571D01*
X129657243Y-81900000D01*
X129542957Y-81900000D01*
X129485815Y-81928571D01*
X129457243Y-81957143D01*
X129428672Y-82014286D01*
X128469000Y-83384729D02*
X128126143Y-83384729D01*
X128297571Y-83384729D02*
X128297571Y-82784729D01*
X128240428Y-82870443D01*
X128183286Y-82927586D01*
X128126143Y-82956157D01*
X128840429Y-82784729D02*
X128897572Y-82784729D01*
X128954715Y-82813300D01*
X128983286Y-82841871D01*
X129011857Y-82899014D01*
X129040429Y-83013300D01*
X129040429Y-83156157D01*
X129011857Y-83270443D01*
X128983286Y-83327586D01*
X128954715Y-83356157D01*
X128897572Y-83384729D01*
X128840429Y-83384729D01*
X128783286Y-83356157D01*
X128754715Y-83327586D01*
X128726143Y-83270443D01*
X128697572Y-83156157D01*
X128697572Y-83013300D01*
X128726143Y-82899014D01*
X128754715Y-82841871D01*
X128783286Y-82813300D01*
X128840429Y-82784729D01*
X129411858Y-82784729D02*
X129469001Y-82784729D01*
X129526144Y-82813300D01*
X129554715Y-82841871D01*
X129583286Y-82899014D01*
X129611858Y-83013300D01*
X129611858Y-83156157D01*
X129583286Y-83270443D01*
X129554715Y-83327586D01*
X129526144Y-83356157D01*
X129469001Y-83384729D01*
X129411858Y-83384729D01*
X129354715Y-83356157D01*
X129326144Y-83327586D01*
X129297572Y-83270443D01*
X129269001Y-83156157D01*
X129269001Y-83013300D01*
X129297572Y-82899014D01*
X129326144Y-82841871D01*
X129354715Y-82813300D01*
X129411858Y-82784729D01*
X130211858Y-83384729D02*
X130011858Y-83099014D01*
X129869001Y-83384729D02*
X129869001Y-82784729D01*
X130097573Y-82784729D01*
X130154715Y-82813300D01*
X130183287Y-82841871D01*
X130211858Y-82899014D01*
X130211858Y-82984729D01*
X130183287Y-83041871D01*
X130154715Y-83070443D01*
X130097573Y-83099014D01*
X129869001Y-83099014D01*
X131871229Y-82728572D02*
X132471229Y-82328572D01*
X131871229Y-82328572D02*
X132471229Y-82728572D01*
X132471229Y-81814286D02*
X132471229Y-82100000D01*
X131871229Y-82100000D01*
X131871229Y-81671429D02*
X131871229Y-81300000D01*
X132099800Y-81500000D01*
X132099800Y-81414286D01*
X132128371Y-81357143D01*
X132156943Y-81328572D01*
X132214086Y-81300000D01*
X132356943Y-81300000D01*
X132414086Y-81328572D01*
X132442657Y-81357143D01*
X132471229Y-81414286D01*
X132471229Y-81585714D01*
X132442657Y-81642857D01*
X132414086Y-81671429D01*
X148271428Y-92571429D02*
X148671428Y-93171429D01*
X148671428Y-92571429D02*
X148271428Y-93171429D01*
X149185714Y-93171429D02*
X148900000Y-93171429D01*
X148900000Y-92571429D01*
X149700000Y-93171429D02*
X149357143Y-93171429D01*
X149528571Y-93171429D02*
X149528571Y-92571429D01*
X149471428Y-92657143D01*
X149414286Y-92714286D01*
X149357143Y-92742857D01*
X150985715Y-93152381D02*
X150414286Y-93152381D01*
X150700000Y-93152381D02*
X150700000Y-92152381D01*
X150604762Y-92295238D01*
X150509524Y-92390476D01*
X150414286Y-92438095D01*
X132971428Y-92671429D02*
X133371428Y-93271429D01*
X133371428Y-92671429D02*
X132971428Y-93271429D01*
X133885714Y-93271429D02*
X133600000Y-93271429D01*
X133600000Y-92671429D01*
X134342857Y-92871429D02*
X134342857Y-93271429D01*
X134200000Y-92642857D02*
X134057143Y-93071429D01*
X134428571Y-93071429D01*
X128127315Y-95157981D02*
X127555886Y-95157981D01*
X127841600Y-95157981D02*
X127841600Y-94157981D01*
X127746362Y-94300838D01*
X127651124Y-94396076D01*
X127555886Y-94443695D01*
X141771429Y-88742857D02*
X141171429Y-88742857D01*
X141171429Y-88600000D01*
X141200000Y-88514285D01*
X141257143Y-88457143D01*
X141314286Y-88428571D01*
X141428571Y-88400000D01*
X141514286Y-88400000D01*
X141628571Y-88428571D01*
X141685714Y-88457143D01*
X141742857Y-88514285D01*
X141771429Y-88600000D01*
X141771429Y-88742857D01*
X141771429Y-88142857D02*
X141171429Y-88142857D01*
X141171429Y-88000000D01*
X141200000Y-87914285D01*
X141257143Y-87857143D01*
X141314286Y-87828571D01*
X141428571Y-87800000D01*
X141514286Y-87800000D01*
X141628571Y-87828571D01*
X141685714Y-87857143D01*
X141742857Y-87914285D01*
X141771429Y-88000000D01*
X141771429Y-88142857D01*
X141228571Y-87571428D02*
X141200000Y-87542857D01*
X141171429Y-87485714D01*
X141171429Y-87342857D01*
X141200000Y-87285714D01*
X141228571Y-87257143D01*
X141285714Y-87228571D01*
X141342857Y-87228571D01*
X141428571Y-87257143D01*
X141771429Y-87600000D01*
X141771429Y-87228571D01*
X139842856Y-92542857D02*
X139928570Y-92571429D01*
X140071427Y-92571429D01*
X140128570Y-92542857D01*
X140157141Y-92514286D01*
X140185713Y-92457143D01*
X140185713Y-92400000D01*
X140157141Y-92342857D01*
X140128570Y-92314286D01*
X140071427Y-92285714D01*
X139957141Y-92257143D01*
X139899999Y-92228571D01*
X139871427Y-92200000D01*
X139842856Y-92142857D01*
X139842856Y-92085714D01*
X139871427Y-92028571D01*
X139899999Y-92000000D01*
X139957141Y-91971429D01*
X140099999Y-91971429D01*
X140185713Y-92000000D01*
X140357142Y-91971429D02*
X140699999Y-91971429D01*
X140528570Y-92571429D02*
X140528570Y-91971429D01*
X140899999Y-92571429D02*
X140899999Y-91971429D01*
X141099999Y-92400000D01*
X141299999Y-91971429D01*
X141299999Y-92571429D01*
X141528570Y-91971429D02*
X141899999Y-91971429D01*
X141699999Y-92200000D01*
X141785713Y-92200000D01*
X141842856Y-92228571D01*
X141871427Y-92257143D01*
X141899999Y-92314286D01*
X141899999Y-92457143D01*
X141871427Y-92514286D01*
X141842856Y-92542857D01*
X141785713Y-92571429D01*
X141614285Y-92571429D01*
X141557142Y-92542857D01*
X141528570Y-92514286D01*
X142128571Y-92028571D02*
X142157142Y-92000000D01*
X142214285Y-91971429D01*
X142357142Y-91971429D01*
X142414285Y-92000000D01*
X142442856Y-92028571D01*
X142471428Y-92085714D01*
X142471428Y-92142857D01*
X142442856Y-92228571D01*
X142099999Y-92571429D01*
X142471428Y-92571429D01*
X142928571Y-92257143D02*
X142728571Y-92257143D01*
X142728571Y-92571429D02*
X142728571Y-91971429D01*
X143014285Y-91971429D01*
X143357143Y-91971429D02*
X143414286Y-91971429D01*
X143471429Y-92000000D01*
X143500000Y-92028571D01*
X143528571Y-92085714D01*
X143557143Y-92200000D01*
X143557143Y-92342857D01*
X143528571Y-92457143D01*
X143500000Y-92514286D01*
X143471429Y-92542857D01*
X143414286Y-92571429D01*
X143357143Y-92571429D01*
X143300000Y-92542857D01*
X143271429Y-92514286D01*
X143242857Y-92457143D01*
X143214286Y-92342857D01*
X143214286Y-92200000D01*
X143242857Y-92085714D01*
X143271429Y-92028571D01*
X143300000Y-92000000D01*
X143357143Y-91971429D01*
X144071429Y-92171429D02*
X144071429Y-92571429D01*
X143928572Y-91942857D02*
X143785715Y-92371429D01*
X144157143Y-92371429D01*
X144357144Y-92028571D02*
X144385715Y-92000000D01*
X144442858Y-91971429D01*
X144585715Y-91971429D01*
X144642858Y-92000000D01*
X144671429Y-92028571D01*
X144700001Y-92085714D01*
X144700001Y-92142857D01*
X144671429Y-92228571D01*
X144328572Y-92571429D01*
X144700001Y-92571429D01*
X145157144Y-92257143D02*
X144957144Y-92257143D01*
X144957144Y-92571429D02*
X144957144Y-91971429D01*
X145242858Y-91971429D01*
X145728573Y-91971429D02*
X145614287Y-91971429D01*
X145557144Y-92000000D01*
X145528573Y-92028571D01*
X145471430Y-92114286D01*
X145442859Y-92228571D01*
X145442859Y-92457143D01*
X145471430Y-92514286D01*
X145500002Y-92542857D01*
X145557144Y-92571429D01*
X145671430Y-92571429D01*
X145728573Y-92542857D01*
X145757144Y-92514286D01*
X145785716Y-92457143D01*
X145785716Y-92314286D01*
X145757144Y-92257143D01*
X145728573Y-92228571D01*
X145671430Y-92200000D01*
X145557144Y-92200000D01*
X145500002Y-92228571D01*
X145471430Y-92257143D01*
X145442859Y-92314286D01*
X146042859Y-92571429D02*
X146042859Y-91971429D01*
X146271431Y-91971429D01*
X146328573Y-92000000D01*
X146357145Y-92028571D01*
X146385716Y-92085714D01*
X146385716Y-92171429D01*
X146357145Y-92228571D01*
X146328573Y-92257143D01*
X146271431Y-92285714D01*
X146042859Y-92285714D01*
X146900002Y-91971429D02*
X146785716Y-91971429D01*
X146728573Y-92000000D01*
X146700002Y-92028571D01*
X146642859Y-92114286D01*
X146614288Y-92228571D01*
X146614288Y-92457143D01*
X146642859Y-92514286D01*
X146671431Y-92542857D01*
X146728573Y-92571429D01*
X146842859Y-92571429D01*
X146900002Y-92542857D01*
X146928573Y-92514286D01*
X146957145Y-92457143D01*
X146957145Y-92314286D01*
X146928573Y-92257143D01*
X146900002Y-92228571D01*
X146842859Y-92200000D01*
X146728573Y-92200000D01*
X146671431Y-92228571D01*
X146642859Y-92257143D01*
X146614288Y-92314286D01*
X138898429Y-84214571D02*
X138898429Y-84557428D01*
X138898429Y-84386000D02*
X138298429Y-84386000D01*
X138384143Y-84443143D01*
X138441286Y-84500285D01*
X138469857Y-84557428D01*
M02*
