G04 #@! TF.FileFunction,Copper,L2,Bot,Signal*
%FSLAX46Y46*%
G04 Gerber Fmt 4.6, Leading zero omitted, Abs format (unit mm)*
G04 Created by KiCad (PCBNEW 4.0.0-rc1-stable) date 20.11.2015 2:50:06*
%MOMM*%
G01*
G04 APERTURE LIST*
%ADD10C,0.100000*%
%ADD11R,2.999740X2.600960*%
%ADD12R,2.799080X3.599180*%
%ADD13R,1.500000X1.500000*%
%ADD14C,1.500000*%
%ADD15C,0.800000*%
%ADD16C,0.500000*%
%ADD17C,0.200000*%
%ADD18C,0.254000*%
G04 APERTURE END LIST*
D10*
D11*
X127358160Y-87683100D03*
D12*
X148656060Y-87683100D03*
D13*
X133141000Y-80761400D03*
D14*
X133141000Y-83301400D03*
D13*
X149495000Y-94670500D03*
D14*
X146955000Y-94670500D03*
X144415000Y-94670500D03*
X141875000Y-94670500D03*
D13*
X129841600Y-94705600D03*
D14*
X132381600Y-94705600D03*
X134921600Y-94705600D03*
D15*
X140960500Y-80230600D03*
X136147800Y-90095600D03*
X145490200Y-86900600D03*
X125258200Y-87023300D03*
X131613600Y-89822200D03*
X128769000Y-91955500D03*
X130668100Y-84515700D03*
X131620800Y-82218800D03*
X134399400Y-82077100D03*
X145086400Y-80909600D03*
X132903700Y-85933500D03*
X126431600Y-82903800D03*
X129236200Y-83335700D03*
X134408500Y-88043600D03*
X140802100Y-93477900D03*
X145406300Y-88682700D03*
X141413600Y-86673800D03*
X139766400Y-86736000D03*
X146351400Y-92631200D03*
X150379800Y-91967400D03*
X148502900Y-84208100D03*
X134357600Y-91578300D03*
X126529600Y-91761400D03*
X127788500Y-94485200D03*
X135364700Y-92814300D03*
X137905400Y-92013200D03*
X141132700Y-90731400D03*
X148274000Y-92265000D03*
X141224300Y-85238100D03*
X132151600Y-90781800D03*
X136481700Y-86694100D03*
X142185800Y-88355000D03*
X134371700Y-84500300D03*
X130495200Y-86967400D03*
X139703200Y-88166800D03*
D16*
X146572600Y-88561600D02*
X145490200Y-86900600D01*
X141072600Y-89783200D02*
X136147800Y-90095600D01*
X141100000Y-89781900D02*
X141072600Y-89783200D01*
X145439000Y-89632200D02*
X141100000Y-89781900D01*
X146168900Y-89262100D02*
X146229500Y-89157000D01*
X145999500Y-89434600D02*
X146168900Y-89262100D01*
X145792400Y-89559200D02*
X145999500Y-89434600D01*
X145560600Y-89627900D02*
X145792400Y-89559200D01*
X145439000Y-89632200D02*
X145560600Y-89627900D01*
X146572600Y-88561600D02*
X146229500Y-89157000D01*
X149224100Y-89232700D02*
X148656100Y-87683100D01*
X149224100Y-89482700D02*
X149224100Y-89232700D01*
X149224100Y-93920500D02*
X149224100Y-89482700D01*
X149224100Y-94170500D02*
X149224100Y-93920500D01*
X149495000Y-94670500D02*
X149224100Y-94170500D01*
X147256600Y-88561600D02*
X146572600Y-88561600D01*
X147506600Y-88561600D02*
X147256600Y-88561600D01*
X148656100Y-87683100D02*
X147506600Y-88561600D01*
X147418100Y-85692600D02*
X140960500Y-80230600D01*
X147460300Y-85728400D02*
X147418100Y-85692600D01*
X147506600Y-85828500D02*
X147460300Y-85728400D01*
X147506600Y-85883500D02*
X147506600Y-85828500D01*
X147506600Y-86133500D02*
X147506600Y-85883500D01*
X148656100Y-87683100D02*
X147506600Y-86133500D01*
X148502900Y-84208100D02*
X145086400Y-80909600D01*
X146351400Y-92631200D02*
X148274000Y-92265000D01*
X144415000Y-94670500D02*
X146351400Y-92631200D01*
X141132700Y-90731400D02*
X140802100Y-93477900D01*
X137905400Y-92013200D02*
X135364700Y-92814300D01*
X134357600Y-91578300D02*
X135364700Y-92814300D01*
X135364700Y-92814300D02*
X140802100Y-93477900D01*
X127358200Y-87683100D02*
X130668100Y-84515700D01*
X145406300Y-88682700D02*
X141413600Y-86673800D01*
X136196200Y-85272300D02*
X132903700Y-85933500D01*
X136436200Y-85224100D02*
X136196200Y-85272300D01*
X136919800Y-85290100D02*
X136436200Y-85224100D01*
X137138500Y-85401100D02*
X136919800Y-85290100D01*
X139766400Y-86736000D02*
X137138500Y-85401100D01*
X142540500Y-93553600D02*
X144415000Y-94670500D01*
X141946000Y-93355200D02*
X141736500Y-93377800D01*
X142359600Y-93445700D02*
X141946000Y-93355200D01*
X142540500Y-93553600D02*
X142359600Y-93445700D01*
X140802100Y-93477900D02*
X141736500Y-93377800D01*
X134937600Y-93405600D02*
X135364700Y-92814300D01*
X134937600Y-93405600D02*
X134921600Y-93405500D01*
X132381600Y-93405500D02*
X134921600Y-93405500D01*
X131875500Y-93495700D02*
X131726200Y-93582800D01*
X132208100Y-93405600D02*
X131875500Y-93495700D01*
X132381600Y-93405500D02*
X132208100Y-93405600D01*
X130717600Y-94171500D02*
X131726200Y-93582800D01*
X130688900Y-94188300D02*
X130717600Y-94171500D01*
X130625000Y-94205600D02*
X130688900Y-94188300D01*
X130591600Y-94205600D02*
X130625000Y-94205600D01*
X130341600Y-94205600D02*
X130591600Y-94205600D01*
X129841600Y-94705600D02*
X130341600Y-94205600D01*
X131613600Y-89822200D02*
X134408500Y-88043600D01*
X129341600Y-94205600D02*
X129841600Y-94705600D01*
X129341600Y-93955600D02*
X129341600Y-94205600D01*
X129336600Y-93902600D02*
X129331600Y-93885600D01*
X129341600Y-93937700D02*
X129336600Y-93902600D01*
X129341600Y-93955600D02*
X129341600Y-93937700D01*
X128769000Y-91955500D02*
X129331600Y-93885600D01*
X125858300Y-87023300D02*
X125258200Y-87023300D01*
X126108300Y-87023300D02*
X125858300Y-87023300D01*
X127358200Y-87683100D02*
X126108300Y-87023300D01*
X128951400Y-88751700D02*
X131613600Y-89822200D01*
X128882200Y-88733700D02*
X128858100Y-88733600D01*
X128929100Y-88742700D02*
X128882200Y-88733700D01*
X128951400Y-88751700D02*
X128929100Y-88742700D01*
X128608100Y-88733600D02*
X128858100Y-88733600D01*
X127358200Y-87683100D02*
X128608100Y-88733600D01*
X130668100Y-84515700D02*
X131620800Y-82218800D01*
X128769000Y-91955500D02*
X131613600Y-89822200D01*
X133629800Y-82061400D02*
X134399400Y-82077100D01*
X133603200Y-82060200D02*
X133629800Y-82061400D01*
X133228200Y-82034400D02*
X133603200Y-82060200D01*
X133039800Y-82033900D02*
X132976900Y-82042100D01*
X133166200Y-82030100D02*
X133039800Y-82033900D01*
X133228200Y-82034400D02*
X133166200Y-82030100D01*
X131620800Y-82218800D02*
X132976900Y-82042100D01*
D17*
X135038400Y-88536900D02*
X136481700Y-86694100D01*
X135006900Y-88577200D02*
X135038400Y-88536900D01*
X134935300Y-88648000D02*
X135006900Y-88577200D01*
X134895300Y-88678600D02*
X134935300Y-88648000D01*
X132151600Y-90781800D02*
X134895300Y-88678600D01*
X136459300Y-84574400D02*
X134371700Y-84500300D01*
X136475600Y-84575000D02*
X136459300Y-84574400D01*
X136508400Y-84577800D02*
X136475600Y-84575000D01*
X136524100Y-84580000D02*
X136508400Y-84577800D01*
X137007700Y-84646000D02*
X136524100Y-84580000D01*
X137053500Y-84652200D02*
X137007700Y-84646000D01*
X137144200Y-84678200D02*
X137053500Y-84652200D01*
X137186700Y-84697300D02*
X137144200Y-84678200D01*
X140094800Y-86006400D02*
X137186700Y-84697300D01*
X140255500Y-86078700D02*
X140094800Y-86006400D01*
X140486700Y-86345700D02*
X140255500Y-86078700D01*
X140535300Y-86514800D02*
X140486700Y-86345700D01*
X140644700Y-86895000D02*
X140535300Y-86514800D01*
X140810000Y-87212600D02*
X140902500Y-87289300D01*
X140678200Y-87011300D02*
X140810000Y-87212600D01*
X140644700Y-86895000D02*
X140678200Y-87011300D01*
X142185800Y-88355000D02*
X140902500Y-87289300D01*
X136970100Y-86060400D02*
X139703200Y-88166800D01*
X136466300Y-85873500D02*
X136288900Y-85917600D01*
X136825000Y-85948600D02*
X136466300Y-85873500D01*
X136970100Y-86060400D02*
X136825000Y-85948600D01*
X133096500Y-86710000D02*
X136288900Y-85917600D01*
X133068200Y-86717100D02*
X133096500Y-86710000D01*
X133009000Y-86727200D02*
X133068200Y-86717100D01*
X132979800Y-86730000D02*
X133009000Y-86727200D01*
X130495200Y-86967400D02*
X132979800Y-86730000D01*
D18*
G36*
X150898000Y-95598000D02*
X150630950Y-95598000D01*
X150657079Y-95540035D01*
X150674066Y-95420500D01*
X150674066Y-93920500D01*
X150668644Y-93852502D01*
X150632927Y-93737170D01*
X150566494Y-93636354D01*
X150474605Y-93558037D01*
X150364535Y-93508421D01*
X150245000Y-93491434D01*
X149901100Y-93491434D01*
X149901100Y-89911756D01*
X150055600Y-89911756D01*
X150123598Y-89906334D01*
X150238930Y-89870617D01*
X150339746Y-89804184D01*
X150418063Y-89712295D01*
X150467679Y-89602225D01*
X150484666Y-89482690D01*
X150484666Y-85883510D01*
X150479244Y-85815512D01*
X150443527Y-85700180D01*
X150377094Y-85599364D01*
X150285205Y-85521047D01*
X150175135Y-85471431D01*
X150055600Y-85454444D01*
X148079497Y-85454444D01*
X148074755Y-85444192D01*
X148069747Y-85435663D01*
X148066220Y-85426423D01*
X148036336Y-85378766D01*
X148007850Y-85330256D01*
X148001280Y-85322862D01*
X147996026Y-85314483D01*
X147957456Y-85273540D01*
X147920088Y-85231485D01*
X147912206Y-85225507D01*
X147905426Y-85218310D01*
X147898261Y-85212145D01*
X147856061Y-85176345D01*
X147856010Y-85176310D01*
X147855304Y-85175704D01*
X141762306Y-80022093D01*
X141756033Y-79990414D01*
X141694230Y-79840469D01*
X141604480Y-79705383D01*
X141501816Y-79602000D01*
X150898000Y-79602000D01*
X150898000Y-95598000D01*
X150898000Y-95598000D01*
G37*
X150898000Y-95598000D02*
X150630950Y-95598000D01*
X150657079Y-95540035D01*
X150674066Y-95420500D01*
X150674066Y-93920500D01*
X150668644Y-93852502D01*
X150632927Y-93737170D01*
X150566494Y-93636354D01*
X150474605Y-93558037D01*
X150364535Y-93508421D01*
X150245000Y-93491434D01*
X149901100Y-93491434D01*
X149901100Y-89911756D01*
X150055600Y-89911756D01*
X150123598Y-89906334D01*
X150238930Y-89870617D01*
X150339746Y-89804184D01*
X150418063Y-89712295D01*
X150467679Y-89602225D01*
X150484666Y-89482690D01*
X150484666Y-85883510D01*
X150479244Y-85815512D01*
X150443527Y-85700180D01*
X150377094Y-85599364D01*
X150285205Y-85521047D01*
X150175135Y-85471431D01*
X150055600Y-85454444D01*
X148079497Y-85454444D01*
X148074755Y-85444192D01*
X148069747Y-85435663D01*
X148066220Y-85426423D01*
X148036336Y-85378766D01*
X148007850Y-85330256D01*
X148001280Y-85322862D01*
X147996026Y-85314483D01*
X147957456Y-85273540D01*
X147920088Y-85231485D01*
X147912206Y-85225507D01*
X147905426Y-85218310D01*
X147898261Y-85212145D01*
X147856061Y-85176345D01*
X147856010Y-85176310D01*
X147855304Y-85175704D01*
X141762306Y-80022093D01*
X141756033Y-79990414D01*
X141694230Y-79840469D01*
X141604480Y-79705383D01*
X141501816Y-79602000D01*
X150898000Y-79602000D01*
X150898000Y-95598000D01*
G36*
X132207670Y-79623473D02*
X132106854Y-79689906D01*
X132028537Y-79781795D01*
X131978921Y-79891865D01*
X131961934Y-80011400D01*
X131961934Y-81511400D01*
X131967356Y-81579398D01*
X132003073Y-81694730D01*
X132069506Y-81795546D01*
X132161395Y-81873863D01*
X132271465Y-81923479D01*
X132391000Y-81940466D01*
X133891000Y-81940466D01*
X133958998Y-81935044D01*
X134074330Y-81899327D01*
X134175146Y-81832894D01*
X134253463Y-81741005D01*
X134303079Y-81630935D01*
X134320066Y-81511400D01*
X134320066Y-80011400D01*
X134314644Y-79943402D01*
X134278927Y-79828070D01*
X134212494Y-79727254D01*
X134120605Y-79648937D01*
X134016478Y-79602000D01*
X140420358Y-79602000D01*
X140323916Y-79696443D01*
X140232288Y-79830262D01*
X140168398Y-79979330D01*
X140134678Y-80137969D01*
X140132413Y-80300136D01*
X140161691Y-80459655D01*
X140221394Y-80610449D01*
X140309250Y-80746774D01*
X140421912Y-80863439D01*
X140555088Y-80955999D01*
X140703707Y-81020929D01*
X140862106Y-81055755D01*
X140888395Y-81056306D01*
X146827454Y-86079711D01*
X146827454Y-87712676D01*
X146315728Y-86927406D01*
X146317235Y-86819509D01*
X146285733Y-86660414D01*
X146223930Y-86510469D01*
X146134180Y-86375383D01*
X146019900Y-86260303D01*
X145885444Y-86169611D01*
X145735934Y-86106763D01*
X145577063Y-86074151D01*
X145414884Y-86073019D01*
X145255574Y-86103409D01*
X145105201Y-86164164D01*
X144969492Y-86252969D01*
X144853616Y-86366443D01*
X144761988Y-86500262D01*
X144698098Y-86649330D01*
X144664378Y-86807969D01*
X144662113Y-86970136D01*
X144691391Y-87129655D01*
X144751094Y-87280449D01*
X144838950Y-87416774D01*
X144951612Y-87533439D01*
X145084788Y-87625999D01*
X145182736Y-87668792D01*
X145778710Y-88583344D01*
X145643010Y-88818832D01*
X145643009Y-88818833D01*
X145625470Y-88849252D01*
X145576757Y-88898857D01*
X145517309Y-88934623D01*
X145450704Y-88954363D01*
X145415075Y-88955623D01*
X145415074Y-88955623D01*
X142631516Y-89051659D01*
X142697415Y-89009838D01*
X142814864Y-88897993D01*
X142908351Y-88765466D01*
X142974317Y-88617305D01*
X143010248Y-88459152D01*
X143012835Y-88273909D01*
X142981333Y-88114814D01*
X142919530Y-87964869D01*
X142829780Y-87829783D01*
X142715500Y-87714703D01*
X142581044Y-87624011D01*
X142431534Y-87561163D01*
X142272663Y-87528551D01*
X142110484Y-87527419D01*
X142032133Y-87542365D01*
X141239184Y-86883871D01*
X141239164Y-86883857D01*
X141238884Y-86883622D01*
X141207449Y-86857556D01*
X141162620Y-86789088D01*
X141151110Y-86749130D01*
X141151109Y-86749129D01*
X141041751Y-86369072D01*
X141041748Y-86369066D01*
X140993196Y-86200131D01*
X140990379Y-86193030D01*
X140988780Y-86185563D01*
X140971438Y-86145275D01*
X140955275Y-86104524D01*
X140951137Y-86098112D01*
X140948115Y-86091091D01*
X140923268Y-86054924D01*
X140899507Y-86018104D01*
X140894201Y-86012616D01*
X140889874Y-86006318D01*
X140885096Y-86000722D01*
X140653896Y-85733722D01*
X140648250Y-85728362D01*
X140643568Y-85722144D01*
X140610989Y-85692991D01*
X140579301Y-85662910D01*
X140572726Y-85658752D01*
X140566922Y-85653558D01*
X140529304Y-85631290D01*
X140492375Y-85607935D01*
X140485113Y-85605131D01*
X140478414Y-85601166D01*
X140471725Y-85598101D01*
X140311187Y-85525874D01*
X140311124Y-85525845D01*
X137403025Y-84216746D01*
X137403005Y-84216739D01*
X137402727Y-84216612D01*
X137360227Y-84197512D01*
X137327970Y-84186657D01*
X137296480Y-84173680D01*
X137289421Y-84171604D01*
X137198721Y-84145604D01*
X137164874Y-84139395D01*
X137131481Y-84131001D01*
X137124196Y-84129963D01*
X137078742Y-84123810D01*
X136596197Y-84057954D01*
X136581533Y-84055899D01*
X136570948Y-84055460D01*
X136560551Y-84053386D01*
X136553224Y-84052710D01*
X136520425Y-84049910D01*
X136511337Y-84050024D01*
X136502337Y-84048678D01*
X136494986Y-84048357D01*
X136478686Y-84047757D01*
X136478644Y-84047760D01*
X136477995Y-84047732D01*
X135029795Y-83996328D01*
X135015680Y-83975083D01*
X134901400Y-83860003D01*
X134766944Y-83769311D01*
X134617434Y-83706463D01*
X134458563Y-83673851D01*
X134296384Y-83672719D01*
X134261126Y-83679445D01*
X134263231Y-83674717D01*
X134314369Y-83449631D01*
X134318050Y-83185989D01*
X134273217Y-82959564D01*
X134185258Y-82746158D01*
X134057523Y-82553902D01*
X133894878Y-82390118D01*
X133703518Y-82261044D01*
X133490732Y-82171597D01*
X133264625Y-82125184D01*
X133033809Y-82123573D01*
X132807076Y-82166824D01*
X132593062Y-82253291D01*
X132399919Y-82379681D01*
X132235003Y-82541178D01*
X132104596Y-82731632D01*
X132013666Y-82943789D01*
X131965676Y-83169566D01*
X131962453Y-83400365D01*
X132004121Y-83627395D01*
X132089092Y-83842007D01*
X132214130Y-84036028D01*
X132374472Y-84202068D01*
X132564011Y-84333801D01*
X132775527Y-84426210D01*
X133000964Y-84475775D01*
X133231735Y-84480609D01*
X133459050Y-84440528D01*
X133546068Y-84406776D01*
X133545878Y-84407669D01*
X133543613Y-84569836D01*
X133572891Y-84729355D01*
X133632594Y-84880149D01*
X133720450Y-85016474D01*
X133833112Y-85133139D01*
X133966288Y-85225699D01*
X134114907Y-85290629D01*
X134273306Y-85325455D01*
X134435454Y-85328852D01*
X134595173Y-85300689D01*
X134746380Y-85242040D01*
X134883315Y-85155138D01*
X134994014Y-85049721D01*
X136440247Y-85101055D01*
X136443474Y-85101174D01*
X136449373Y-85101678D01*
X136450967Y-85101901D01*
X136451062Y-85101905D01*
X136452838Y-85102160D01*
X136936438Y-85168160D01*
X136936473Y-85168161D01*
X136937004Y-85168237D01*
X136944980Y-85169317D01*
X136962642Y-85174380D01*
X136970673Y-85177989D01*
X136970681Y-85177992D01*
X139878475Y-86486954D01*
X139878482Y-86486956D01*
X139878575Y-86486999D01*
X139933226Y-86511587D01*
X140012282Y-86602885D01*
X140028803Y-86660369D01*
X140028808Y-86660381D01*
X140028849Y-86660528D01*
X140138249Y-87040728D01*
X140138253Y-87040738D01*
X140138290Y-87040870D01*
X140171790Y-87157171D01*
X140180539Y-87179191D01*
X140186914Y-87202001D01*
X140199480Y-87226862D01*
X140209768Y-87252755D01*
X140222625Y-87272652D01*
X140233311Y-87293794D01*
X140237298Y-87299978D01*
X140369098Y-87501277D01*
X140383875Y-87519647D01*
X140396622Y-87539475D01*
X140416034Y-87559623D01*
X140433567Y-87581418D01*
X140451625Y-87596563D01*
X140467984Y-87613542D01*
X140473616Y-87618278D01*
X140565816Y-87694729D01*
X141358710Y-88353177D01*
X141357713Y-88424536D01*
X141386991Y-88584055D01*
X141446694Y-88734849D01*
X141534550Y-88871174D01*
X141647212Y-88987839D01*
X141780388Y-89080399D01*
X141781713Y-89080978D01*
X141076657Y-89105303D01*
X141076609Y-89105309D01*
X141067916Y-89105661D01*
X141040516Y-89106961D01*
X141039849Y-89107058D01*
X141039178Y-89107026D01*
X141029741Y-89107558D01*
X136580386Y-89389799D01*
X136543044Y-89364611D01*
X136393534Y-89301763D01*
X136234663Y-89269151D01*
X136072484Y-89268019D01*
X135913174Y-89298409D01*
X135762801Y-89359164D01*
X135627092Y-89447969D01*
X135511216Y-89561443D01*
X135419588Y-89695262D01*
X135355698Y-89844330D01*
X135321978Y-90002969D01*
X135319713Y-90165136D01*
X135348991Y-90324655D01*
X135408694Y-90475449D01*
X135496550Y-90611774D01*
X135609212Y-90728439D01*
X135742388Y-90820999D01*
X135891007Y-90885929D01*
X136049406Y-90920755D01*
X136211554Y-90924152D01*
X136371273Y-90895989D01*
X136522480Y-90837340D01*
X136659415Y-90750438D01*
X136669463Y-90740870D01*
X141110090Y-90459183D01*
X141127728Y-90458346D01*
X145462344Y-90308797D01*
X145462378Y-90308793D01*
X145462925Y-90308777D01*
X145584525Y-90304477D01*
X145599107Y-90302525D01*
X145613818Y-90302805D01*
X145664477Y-90293774D01*
X145715484Y-90286945D01*
X145729411Y-90282197D01*
X145743894Y-90279615D01*
X145752975Y-90276992D01*
X145984775Y-90208292D01*
X145998632Y-90202663D01*
X146013177Y-90199189D01*
X146059719Y-90177848D01*
X146107188Y-90158565D01*
X146119693Y-90150348D01*
X146133280Y-90144118D01*
X146141414Y-90139302D01*
X146348514Y-90014702D01*
X146360337Y-90005911D01*
X146373354Y-89999013D01*
X146413255Y-89966564D01*
X146454543Y-89935864D01*
X146464435Y-89924942D01*
X146475862Y-89915649D01*
X146482532Y-89908951D01*
X146651932Y-89736451D01*
X146661277Y-89724862D01*
X146672266Y-89714816D01*
X146702673Y-89673524D01*
X146734869Y-89633596D01*
X146741786Y-89620409D01*
X146750613Y-89608423D01*
X146755391Y-89600267D01*
X146815991Y-89495167D01*
X146815996Y-89495156D01*
X146816078Y-89495016D01*
X146827454Y-89475275D01*
X146827454Y-89482690D01*
X146832876Y-89550688D01*
X146868593Y-89666020D01*
X146935026Y-89766836D01*
X147026915Y-89845153D01*
X147136985Y-89894769D01*
X147256520Y-89911756D01*
X148547100Y-89911756D01*
X148547100Y-93542174D01*
X148460854Y-93599006D01*
X148382537Y-93690895D01*
X148332921Y-93800965D01*
X148315934Y-93920500D01*
X148315934Y-95420500D01*
X148321356Y-95488498D01*
X148355268Y-95598000D01*
X147687840Y-95598000D01*
X147850294Y-95443297D01*
X147983347Y-95254683D01*
X148077231Y-95043817D01*
X148128369Y-94818731D01*
X148132050Y-94555089D01*
X148087217Y-94328664D01*
X147999258Y-94115258D01*
X147871523Y-93923002D01*
X147708878Y-93759218D01*
X147517518Y-93630144D01*
X147304732Y-93540697D01*
X147078625Y-93494284D01*
X146847809Y-93492673D01*
X146621076Y-93535924D01*
X146407062Y-93622391D01*
X146213919Y-93748781D01*
X146049003Y-93910278D01*
X145918596Y-94100732D01*
X145827666Y-94312889D01*
X145779676Y-94538666D01*
X145776453Y-94769465D01*
X145818121Y-94996495D01*
X145903092Y-95211107D01*
X146028130Y-95405128D01*
X146188472Y-95571168D01*
X146227078Y-95598000D01*
X145047859Y-95598000D01*
X145083846Y-95513294D01*
X144415000Y-94844448D01*
X143746154Y-95513294D01*
X143782141Y-95598000D01*
X142607840Y-95598000D01*
X142770294Y-95443297D01*
X142903347Y-95254683D01*
X142997231Y-95043817D01*
X143048369Y-94818731D01*
X143049367Y-94747225D01*
X143234794Y-94747225D01*
X143272440Y-94975997D01*
X143353993Y-95193029D01*
X143391070Y-95262392D01*
X143572206Y-95339346D01*
X144241052Y-94670500D01*
X144588948Y-94670500D01*
X145257794Y-95339346D01*
X145438930Y-95262392D01*
X145534728Y-95051261D01*
X145587496Y-94825496D01*
X145595206Y-94593775D01*
X145557560Y-94365003D01*
X145476007Y-94147971D01*
X145438930Y-94078608D01*
X145257794Y-94001654D01*
X144588948Y-94670500D01*
X144241052Y-94670500D01*
X143572206Y-94001654D01*
X143391070Y-94078608D01*
X143295272Y-94289739D01*
X143242504Y-94515504D01*
X143234794Y-94747225D01*
X143049367Y-94747225D01*
X143052050Y-94555089D01*
X143007217Y-94328664D01*
X142919258Y-94115258D01*
X142791523Y-93923002D01*
X142696890Y-93827706D01*
X143746154Y-93827706D01*
X144415000Y-94496552D01*
X145083846Y-93827706D01*
X145006892Y-93646570D01*
X144795761Y-93550772D01*
X144569996Y-93498004D01*
X144338275Y-93490294D01*
X144109503Y-93527940D01*
X143892471Y-93609493D01*
X143823108Y-93646570D01*
X143746154Y-93827706D01*
X142696890Y-93827706D01*
X142628878Y-93759218D01*
X142437518Y-93630144D01*
X142224732Y-93540697D01*
X141998625Y-93494284D01*
X141767809Y-93492673D01*
X141541076Y-93535924D01*
X141327062Y-93622391D01*
X141133919Y-93748781D01*
X140969003Y-93910278D01*
X140838596Y-94100732D01*
X140747666Y-94312889D01*
X140699676Y-94538666D01*
X140696453Y-94769465D01*
X140738121Y-94996495D01*
X140823092Y-95211107D01*
X140948130Y-95405128D01*
X141108472Y-95571168D01*
X141147078Y-95598000D01*
X135691299Y-95598000D01*
X135816894Y-95478397D01*
X135949947Y-95289783D01*
X136043831Y-95078917D01*
X136094969Y-94853831D01*
X136098650Y-94590189D01*
X136053817Y-94363764D01*
X135965858Y-94150358D01*
X135838123Y-93958102D01*
X135675478Y-93794318D01*
X135484118Y-93665244D01*
X135271332Y-93575797D01*
X135045225Y-93529384D01*
X134814409Y-93527773D01*
X134587676Y-93571024D01*
X134373662Y-93657491D01*
X134180519Y-93783881D01*
X134015603Y-93945378D01*
X133885196Y-94135832D01*
X133794266Y-94347989D01*
X133746276Y-94573766D01*
X133743053Y-94804565D01*
X133784721Y-95031595D01*
X133869692Y-95246207D01*
X133994730Y-95440228D01*
X134147088Y-95598000D01*
X133151299Y-95598000D01*
X133276894Y-95478397D01*
X133409947Y-95289783D01*
X133503831Y-95078917D01*
X133554969Y-94853831D01*
X133558650Y-94590189D01*
X133513817Y-94363764D01*
X133425858Y-94150358D01*
X133298123Y-93958102D01*
X133135478Y-93794318D01*
X132944118Y-93665244D01*
X132731332Y-93575797D01*
X132505225Y-93529384D01*
X132274409Y-93527773D01*
X132047676Y-93571024D01*
X131833662Y-93657491D01*
X131640519Y-93783881D01*
X131475603Y-93945378D01*
X131345196Y-94135832D01*
X131254266Y-94347989D01*
X131206276Y-94573766D01*
X131203053Y-94804565D01*
X131244721Y-95031595D01*
X131329692Y-95246207D01*
X131454730Y-95440228D01*
X131607088Y-95598000D01*
X130994798Y-95598000D01*
X131002191Y-95580151D01*
X131018600Y-95497656D01*
X131018600Y-94935350D01*
X130911850Y-94828600D01*
X129964600Y-94828600D01*
X129964600Y-94848600D01*
X129718600Y-94848600D01*
X129718600Y-94828600D01*
X128771350Y-94828600D01*
X128664600Y-94935350D01*
X128664600Y-95497656D01*
X128681009Y-95580151D01*
X128688402Y-95598000D01*
X128137294Y-95598000D01*
X126830042Y-94006525D01*
X126780187Y-93913544D01*
X128664600Y-93913544D01*
X128664600Y-94475850D01*
X128771350Y-94582600D01*
X129718600Y-94582600D01*
X129718600Y-93635350D01*
X129964600Y-93635350D01*
X129964600Y-94582600D01*
X130911850Y-94582600D01*
X131018600Y-94475850D01*
X131018600Y-93913544D01*
X131002191Y-93831049D01*
X130970003Y-93753340D01*
X130923273Y-93683403D01*
X130863797Y-93623928D01*
X130793861Y-93577198D01*
X130716151Y-93545009D01*
X130633656Y-93528600D01*
X130071350Y-93528600D01*
X129964600Y-93635350D01*
X129718600Y-93635350D01*
X129611850Y-93528600D01*
X129049544Y-93528600D01*
X128967049Y-93545009D01*
X128889339Y-93577198D01*
X128819403Y-93623928D01*
X128759927Y-93683403D01*
X128713197Y-93753340D01*
X128681009Y-93831049D01*
X128664600Y-93913544D01*
X126780187Y-93913544D01*
X125767935Y-92025703D01*
X125110797Y-89876301D01*
X124911357Y-87912850D01*
X125431290Y-87912850D01*
X125431290Y-89025636D01*
X125447699Y-89108131D01*
X125479887Y-89185840D01*
X125526617Y-89255777D01*
X125586093Y-89315252D01*
X125656029Y-89361982D01*
X125733739Y-89394171D01*
X125816234Y-89410580D01*
X127128410Y-89410580D01*
X127235160Y-89303830D01*
X127235160Y-87806100D01*
X127481160Y-87806100D01*
X127481160Y-89303830D01*
X127587910Y-89410580D01*
X128900086Y-89410580D01*
X128982581Y-89394171D01*
X129060291Y-89361982D01*
X129130227Y-89315252D01*
X129189703Y-89255777D01*
X129236433Y-89185840D01*
X129268621Y-89108131D01*
X129285030Y-89025636D01*
X129285030Y-87912850D01*
X129178280Y-87806100D01*
X127481160Y-87806100D01*
X127235160Y-87806100D01*
X125538040Y-87806100D01*
X125431290Y-87912850D01*
X124911357Y-87912850D01*
X124883662Y-87640199D01*
X125006513Y-86340564D01*
X125431290Y-86340564D01*
X125431290Y-87453350D01*
X125538040Y-87560100D01*
X127235160Y-87560100D01*
X127235160Y-86062370D01*
X127481160Y-86062370D01*
X127481160Y-87560100D01*
X129178280Y-87560100D01*
X129285030Y-87453350D01*
X129285030Y-87036936D01*
X129667113Y-87036936D01*
X129696391Y-87196455D01*
X129756094Y-87347249D01*
X129843950Y-87483574D01*
X129956612Y-87600239D01*
X130089788Y-87692799D01*
X130238407Y-87757729D01*
X130396806Y-87792555D01*
X130558954Y-87795952D01*
X130718673Y-87767789D01*
X130869880Y-87709140D01*
X131006815Y-87622238D01*
X131124264Y-87510393D01*
X131180010Y-87431368D01*
X133029926Y-87254611D01*
X133029937Y-87254609D01*
X133030104Y-87254594D01*
X133059304Y-87251794D01*
X133074702Y-87248779D01*
X133090368Y-87247881D01*
X133097630Y-87246694D01*
X133156829Y-87236594D01*
X133172837Y-87232220D01*
X133189292Y-87230000D01*
X133196441Y-87228259D01*
X133224257Y-87221281D01*
X135655650Y-86617773D01*
X135653613Y-86763636D01*
X135673401Y-86871449D01*
X134623506Y-88211951D01*
X134623489Y-88211977D01*
X134623189Y-88212356D01*
X134612420Y-88226134D01*
X134588533Y-88249754D01*
X134575096Y-88260033D01*
X134575073Y-88260055D01*
X134574686Y-88260347D01*
X132337083Y-89975595D01*
X132238463Y-89955351D01*
X132076284Y-89954219D01*
X131916974Y-89984609D01*
X131766601Y-90045364D01*
X131630892Y-90134169D01*
X131515016Y-90247643D01*
X131423388Y-90381462D01*
X131359498Y-90530530D01*
X131325778Y-90689169D01*
X131323513Y-90851336D01*
X131352791Y-91010855D01*
X131412494Y-91161649D01*
X131500350Y-91297974D01*
X131613012Y-91414639D01*
X131746188Y-91507199D01*
X131894807Y-91572129D01*
X132053206Y-91606955D01*
X132215354Y-91610352D01*
X132375073Y-91582189D01*
X132526280Y-91523540D01*
X132663215Y-91436638D01*
X132780664Y-91324793D01*
X132874151Y-91192266D01*
X132940117Y-91044105D01*
X132976048Y-90885952D01*
X132977066Y-90813056D01*
X135215914Y-89096853D01*
X135255504Y-89066567D01*
X135277238Y-89046289D01*
X135300578Y-89027870D01*
X135305846Y-89022733D01*
X135377446Y-88951933D01*
X135396583Y-88928900D01*
X135417539Y-88907510D01*
X135422111Y-88901744D01*
X135453611Y-88861445D01*
X135453613Y-88861441D01*
X136502866Y-87521760D01*
X136545454Y-87522652D01*
X136705173Y-87494489D01*
X136856380Y-87435840D01*
X136993315Y-87348938D01*
X137110764Y-87237093D01*
X137204251Y-87104566D01*
X137270002Y-86956887D01*
X138875699Y-88194397D01*
X138875113Y-88236336D01*
X138904391Y-88395855D01*
X138964094Y-88546649D01*
X139051950Y-88682974D01*
X139164612Y-88799639D01*
X139297788Y-88892199D01*
X139446407Y-88957129D01*
X139604806Y-88991955D01*
X139766954Y-88995352D01*
X139926673Y-88967189D01*
X140077880Y-88908540D01*
X140214815Y-88821638D01*
X140332264Y-88709793D01*
X140425751Y-88577266D01*
X140491717Y-88429105D01*
X140527648Y-88270952D01*
X140530235Y-88085709D01*
X140498733Y-87926614D01*
X140436930Y-87776669D01*
X140347180Y-87641583D01*
X140232900Y-87526503D01*
X140098444Y-87435811D01*
X139948934Y-87372963D01*
X139790063Y-87340351D01*
X139627884Y-87339219D01*
X139519525Y-87359890D01*
X137291803Y-85642984D01*
X137291799Y-85642981D01*
X137291751Y-85642944D01*
X137146651Y-85531144D01*
X137136526Y-85524814D01*
X137127463Y-85517039D01*
X137092989Y-85497594D01*
X137059440Y-85476619D01*
X137048281Y-85472377D01*
X137037878Y-85466509D01*
X137000285Y-85454131D01*
X136963301Y-85440071D01*
X136951530Y-85438077D01*
X136940186Y-85434342D01*
X136932995Y-85432784D01*
X136574295Y-85357684D01*
X136562441Y-85356391D01*
X136550918Y-85353338D01*
X136511397Y-85350824D01*
X136472048Y-85346532D01*
X136460177Y-85347565D01*
X136448273Y-85346808D01*
X136409007Y-85352019D01*
X136369584Y-85355451D01*
X136358139Y-85358771D01*
X136346315Y-85360340D01*
X136339162Y-85362066D01*
X136161762Y-85406166D01*
X136161760Y-85406167D01*
X132969543Y-86198521D01*
X132969477Y-86198544D01*
X132968259Y-86198841D01*
X132959604Y-86201012D01*
X132939440Y-86204452D01*
X132929496Y-86205406D01*
X131079577Y-86382163D01*
X131024900Y-86327103D01*
X130890444Y-86236411D01*
X130740934Y-86173563D01*
X130582063Y-86140951D01*
X130419884Y-86139819D01*
X130260574Y-86170209D01*
X130110201Y-86230964D01*
X129974492Y-86319769D01*
X129858616Y-86433243D01*
X129766988Y-86567062D01*
X129703098Y-86716130D01*
X129669378Y-86874769D01*
X129667113Y-87036936D01*
X129285030Y-87036936D01*
X129285030Y-86340564D01*
X129268621Y-86258069D01*
X129236433Y-86180360D01*
X129189703Y-86110423D01*
X129130227Y-86050948D01*
X129060291Y-86004218D01*
X128982581Y-85972029D01*
X128900086Y-85955620D01*
X127587910Y-85955620D01*
X127481160Y-86062370D01*
X127235160Y-86062370D01*
X127128410Y-85955620D01*
X125816234Y-85955620D01*
X125733739Y-85972029D01*
X125656029Y-86004218D01*
X125586093Y-86050948D01*
X125526617Y-86110423D01*
X125479887Y-86180360D01*
X125447699Y-86258069D01*
X125431290Y-86340564D01*
X125006513Y-86340564D01*
X125095181Y-85402567D01*
X125737297Y-83248632D01*
X126785553Y-81260438D01*
X128128529Y-79602000D01*
X132277007Y-79602000D01*
X132207670Y-79623473D01*
X132207670Y-79623473D01*
G37*
X132207670Y-79623473D02*
X132106854Y-79689906D01*
X132028537Y-79781795D01*
X131978921Y-79891865D01*
X131961934Y-80011400D01*
X131961934Y-81511400D01*
X131967356Y-81579398D01*
X132003073Y-81694730D01*
X132069506Y-81795546D01*
X132161395Y-81873863D01*
X132271465Y-81923479D01*
X132391000Y-81940466D01*
X133891000Y-81940466D01*
X133958998Y-81935044D01*
X134074330Y-81899327D01*
X134175146Y-81832894D01*
X134253463Y-81741005D01*
X134303079Y-81630935D01*
X134320066Y-81511400D01*
X134320066Y-80011400D01*
X134314644Y-79943402D01*
X134278927Y-79828070D01*
X134212494Y-79727254D01*
X134120605Y-79648937D01*
X134016478Y-79602000D01*
X140420358Y-79602000D01*
X140323916Y-79696443D01*
X140232288Y-79830262D01*
X140168398Y-79979330D01*
X140134678Y-80137969D01*
X140132413Y-80300136D01*
X140161691Y-80459655D01*
X140221394Y-80610449D01*
X140309250Y-80746774D01*
X140421912Y-80863439D01*
X140555088Y-80955999D01*
X140703707Y-81020929D01*
X140862106Y-81055755D01*
X140888395Y-81056306D01*
X146827454Y-86079711D01*
X146827454Y-87712676D01*
X146315728Y-86927406D01*
X146317235Y-86819509D01*
X146285733Y-86660414D01*
X146223930Y-86510469D01*
X146134180Y-86375383D01*
X146019900Y-86260303D01*
X145885444Y-86169611D01*
X145735934Y-86106763D01*
X145577063Y-86074151D01*
X145414884Y-86073019D01*
X145255574Y-86103409D01*
X145105201Y-86164164D01*
X144969492Y-86252969D01*
X144853616Y-86366443D01*
X144761988Y-86500262D01*
X144698098Y-86649330D01*
X144664378Y-86807969D01*
X144662113Y-86970136D01*
X144691391Y-87129655D01*
X144751094Y-87280449D01*
X144838950Y-87416774D01*
X144951612Y-87533439D01*
X145084788Y-87625999D01*
X145182736Y-87668792D01*
X145778710Y-88583344D01*
X145643010Y-88818832D01*
X145643009Y-88818833D01*
X145625470Y-88849252D01*
X145576757Y-88898857D01*
X145517309Y-88934623D01*
X145450704Y-88954363D01*
X145415075Y-88955623D01*
X145415074Y-88955623D01*
X142631516Y-89051659D01*
X142697415Y-89009838D01*
X142814864Y-88897993D01*
X142908351Y-88765466D01*
X142974317Y-88617305D01*
X143010248Y-88459152D01*
X143012835Y-88273909D01*
X142981333Y-88114814D01*
X142919530Y-87964869D01*
X142829780Y-87829783D01*
X142715500Y-87714703D01*
X142581044Y-87624011D01*
X142431534Y-87561163D01*
X142272663Y-87528551D01*
X142110484Y-87527419D01*
X142032133Y-87542365D01*
X141239184Y-86883871D01*
X141239164Y-86883857D01*
X141238884Y-86883622D01*
X141207449Y-86857556D01*
X141162620Y-86789088D01*
X141151110Y-86749130D01*
X141151109Y-86749129D01*
X141041751Y-86369072D01*
X141041748Y-86369066D01*
X140993196Y-86200131D01*
X140990379Y-86193030D01*
X140988780Y-86185563D01*
X140971438Y-86145275D01*
X140955275Y-86104524D01*
X140951137Y-86098112D01*
X140948115Y-86091091D01*
X140923268Y-86054924D01*
X140899507Y-86018104D01*
X140894201Y-86012616D01*
X140889874Y-86006318D01*
X140885096Y-86000722D01*
X140653896Y-85733722D01*
X140648250Y-85728362D01*
X140643568Y-85722144D01*
X140610989Y-85692991D01*
X140579301Y-85662910D01*
X140572726Y-85658752D01*
X140566922Y-85653558D01*
X140529304Y-85631290D01*
X140492375Y-85607935D01*
X140485113Y-85605131D01*
X140478414Y-85601166D01*
X140471725Y-85598101D01*
X140311187Y-85525874D01*
X140311124Y-85525845D01*
X137403025Y-84216746D01*
X137403005Y-84216739D01*
X137402727Y-84216612D01*
X137360227Y-84197512D01*
X137327970Y-84186657D01*
X137296480Y-84173680D01*
X137289421Y-84171604D01*
X137198721Y-84145604D01*
X137164874Y-84139395D01*
X137131481Y-84131001D01*
X137124196Y-84129963D01*
X137078742Y-84123810D01*
X136596197Y-84057954D01*
X136581533Y-84055899D01*
X136570948Y-84055460D01*
X136560551Y-84053386D01*
X136553224Y-84052710D01*
X136520425Y-84049910D01*
X136511337Y-84050024D01*
X136502337Y-84048678D01*
X136494986Y-84048357D01*
X136478686Y-84047757D01*
X136478644Y-84047760D01*
X136477995Y-84047732D01*
X135029795Y-83996328D01*
X135015680Y-83975083D01*
X134901400Y-83860003D01*
X134766944Y-83769311D01*
X134617434Y-83706463D01*
X134458563Y-83673851D01*
X134296384Y-83672719D01*
X134261126Y-83679445D01*
X134263231Y-83674717D01*
X134314369Y-83449631D01*
X134318050Y-83185989D01*
X134273217Y-82959564D01*
X134185258Y-82746158D01*
X134057523Y-82553902D01*
X133894878Y-82390118D01*
X133703518Y-82261044D01*
X133490732Y-82171597D01*
X133264625Y-82125184D01*
X133033809Y-82123573D01*
X132807076Y-82166824D01*
X132593062Y-82253291D01*
X132399919Y-82379681D01*
X132235003Y-82541178D01*
X132104596Y-82731632D01*
X132013666Y-82943789D01*
X131965676Y-83169566D01*
X131962453Y-83400365D01*
X132004121Y-83627395D01*
X132089092Y-83842007D01*
X132214130Y-84036028D01*
X132374472Y-84202068D01*
X132564011Y-84333801D01*
X132775527Y-84426210D01*
X133000964Y-84475775D01*
X133231735Y-84480609D01*
X133459050Y-84440528D01*
X133546068Y-84406776D01*
X133545878Y-84407669D01*
X133543613Y-84569836D01*
X133572891Y-84729355D01*
X133632594Y-84880149D01*
X133720450Y-85016474D01*
X133833112Y-85133139D01*
X133966288Y-85225699D01*
X134114907Y-85290629D01*
X134273306Y-85325455D01*
X134435454Y-85328852D01*
X134595173Y-85300689D01*
X134746380Y-85242040D01*
X134883315Y-85155138D01*
X134994014Y-85049721D01*
X136440247Y-85101055D01*
X136443474Y-85101174D01*
X136449373Y-85101678D01*
X136450967Y-85101901D01*
X136451062Y-85101905D01*
X136452838Y-85102160D01*
X136936438Y-85168160D01*
X136936473Y-85168161D01*
X136937004Y-85168237D01*
X136944980Y-85169317D01*
X136962642Y-85174380D01*
X136970673Y-85177989D01*
X136970681Y-85177992D01*
X139878475Y-86486954D01*
X139878482Y-86486956D01*
X139878575Y-86486999D01*
X139933226Y-86511587D01*
X140012282Y-86602885D01*
X140028803Y-86660369D01*
X140028808Y-86660381D01*
X140028849Y-86660528D01*
X140138249Y-87040728D01*
X140138253Y-87040738D01*
X140138290Y-87040870D01*
X140171790Y-87157171D01*
X140180539Y-87179191D01*
X140186914Y-87202001D01*
X140199480Y-87226862D01*
X140209768Y-87252755D01*
X140222625Y-87272652D01*
X140233311Y-87293794D01*
X140237298Y-87299978D01*
X140369098Y-87501277D01*
X140383875Y-87519647D01*
X140396622Y-87539475D01*
X140416034Y-87559623D01*
X140433567Y-87581418D01*
X140451625Y-87596563D01*
X140467984Y-87613542D01*
X140473616Y-87618278D01*
X140565816Y-87694729D01*
X141358710Y-88353177D01*
X141357713Y-88424536D01*
X141386991Y-88584055D01*
X141446694Y-88734849D01*
X141534550Y-88871174D01*
X141647212Y-88987839D01*
X141780388Y-89080399D01*
X141781713Y-89080978D01*
X141076657Y-89105303D01*
X141076609Y-89105309D01*
X141067916Y-89105661D01*
X141040516Y-89106961D01*
X141039849Y-89107058D01*
X141039178Y-89107026D01*
X141029741Y-89107558D01*
X136580386Y-89389799D01*
X136543044Y-89364611D01*
X136393534Y-89301763D01*
X136234663Y-89269151D01*
X136072484Y-89268019D01*
X135913174Y-89298409D01*
X135762801Y-89359164D01*
X135627092Y-89447969D01*
X135511216Y-89561443D01*
X135419588Y-89695262D01*
X135355698Y-89844330D01*
X135321978Y-90002969D01*
X135319713Y-90165136D01*
X135348991Y-90324655D01*
X135408694Y-90475449D01*
X135496550Y-90611774D01*
X135609212Y-90728439D01*
X135742388Y-90820999D01*
X135891007Y-90885929D01*
X136049406Y-90920755D01*
X136211554Y-90924152D01*
X136371273Y-90895989D01*
X136522480Y-90837340D01*
X136659415Y-90750438D01*
X136669463Y-90740870D01*
X141110090Y-90459183D01*
X141127728Y-90458346D01*
X145462344Y-90308797D01*
X145462378Y-90308793D01*
X145462925Y-90308777D01*
X145584525Y-90304477D01*
X145599107Y-90302525D01*
X145613818Y-90302805D01*
X145664477Y-90293774D01*
X145715484Y-90286945D01*
X145729411Y-90282197D01*
X145743894Y-90279615D01*
X145752975Y-90276992D01*
X145984775Y-90208292D01*
X145998632Y-90202663D01*
X146013177Y-90199189D01*
X146059719Y-90177848D01*
X146107188Y-90158565D01*
X146119693Y-90150348D01*
X146133280Y-90144118D01*
X146141414Y-90139302D01*
X146348514Y-90014702D01*
X146360337Y-90005911D01*
X146373354Y-89999013D01*
X146413255Y-89966564D01*
X146454543Y-89935864D01*
X146464435Y-89924942D01*
X146475862Y-89915649D01*
X146482532Y-89908951D01*
X146651932Y-89736451D01*
X146661277Y-89724862D01*
X146672266Y-89714816D01*
X146702673Y-89673524D01*
X146734869Y-89633596D01*
X146741786Y-89620409D01*
X146750613Y-89608423D01*
X146755391Y-89600267D01*
X146815991Y-89495167D01*
X146815996Y-89495156D01*
X146816078Y-89495016D01*
X146827454Y-89475275D01*
X146827454Y-89482690D01*
X146832876Y-89550688D01*
X146868593Y-89666020D01*
X146935026Y-89766836D01*
X147026915Y-89845153D01*
X147136985Y-89894769D01*
X147256520Y-89911756D01*
X148547100Y-89911756D01*
X148547100Y-93542174D01*
X148460854Y-93599006D01*
X148382537Y-93690895D01*
X148332921Y-93800965D01*
X148315934Y-93920500D01*
X148315934Y-95420500D01*
X148321356Y-95488498D01*
X148355268Y-95598000D01*
X147687840Y-95598000D01*
X147850294Y-95443297D01*
X147983347Y-95254683D01*
X148077231Y-95043817D01*
X148128369Y-94818731D01*
X148132050Y-94555089D01*
X148087217Y-94328664D01*
X147999258Y-94115258D01*
X147871523Y-93923002D01*
X147708878Y-93759218D01*
X147517518Y-93630144D01*
X147304732Y-93540697D01*
X147078625Y-93494284D01*
X146847809Y-93492673D01*
X146621076Y-93535924D01*
X146407062Y-93622391D01*
X146213919Y-93748781D01*
X146049003Y-93910278D01*
X145918596Y-94100732D01*
X145827666Y-94312889D01*
X145779676Y-94538666D01*
X145776453Y-94769465D01*
X145818121Y-94996495D01*
X145903092Y-95211107D01*
X146028130Y-95405128D01*
X146188472Y-95571168D01*
X146227078Y-95598000D01*
X145047859Y-95598000D01*
X145083846Y-95513294D01*
X144415000Y-94844448D01*
X143746154Y-95513294D01*
X143782141Y-95598000D01*
X142607840Y-95598000D01*
X142770294Y-95443297D01*
X142903347Y-95254683D01*
X142997231Y-95043817D01*
X143048369Y-94818731D01*
X143049367Y-94747225D01*
X143234794Y-94747225D01*
X143272440Y-94975997D01*
X143353993Y-95193029D01*
X143391070Y-95262392D01*
X143572206Y-95339346D01*
X144241052Y-94670500D01*
X144588948Y-94670500D01*
X145257794Y-95339346D01*
X145438930Y-95262392D01*
X145534728Y-95051261D01*
X145587496Y-94825496D01*
X145595206Y-94593775D01*
X145557560Y-94365003D01*
X145476007Y-94147971D01*
X145438930Y-94078608D01*
X145257794Y-94001654D01*
X144588948Y-94670500D01*
X144241052Y-94670500D01*
X143572206Y-94001654D01*
X143391070Y-94078608D01*
X143295272Y-94289739D01*
X143242504Y-94515504D01*
X143234794Y-94747225D01*
X143049367Y-94747225D01*
X143052050Y-94555089D01*
X143007217Y-94328664D01*
X142919258Y-94115258D01*
X142791523Y-93923002D01*
X142696890Y-93827706D01*
X143746154Y-93827706D01*
X144415000Y-94496552D01*
X145083846Y-93827706D01*
X145006892Y-93646570D01*
X144795761Y-93550772D01*
X144569996Y-93498004D01*
X144338275Y-93490294D01*
X144109503Y-93527940D01*
X143892471Y-93609493D01*
X143823108Y-93646570D01*
X143746154Y-93827706D01*
X142696890Y-93827706D01*
X142628878Y-93759218D01*
X142437518Y-93630144D01*
X142224732Y-93540697D01*
X141998625Y-93494284D01*
X141767809Y-93492673D01*
X141541076Y-93535924D01*
X141327062Y-93622391D01*
X141133919Y-93748781D01*
X140969003Y-93910278D01*
X140838596Y-94100732D01*
X140747666Y-94312889D01*
X140699676Y-94538666D01*
X140696453Y-94769465D01*
X140738121Y-94996495D01*
X140823092Y-95211107D01*
X140948130Y-95405128D01*
X141108472Y-95571168D01*
X141147078Y-95598000D01*
X135691299Y-95598000D01*
X135816894Y-95478397D01*
X135949947Y-95289783D01*
X136043831Y-95078917D01*
X136094969Y-94853831D01*
X136098650Y-94590189D01*
X136053817Y-94363764D01*
X135965858Y-94150358D01*
X135838123Y-93958102D01*
X135675478Y-93794318D01*
X135484118Y-93665244D01*
X135271332Y-93575797D01*
X135045225Y-93529384D01*
X134814409Y-93527773D01*
X134587676Y-93571024D01*
X134373662Y-93657491D01*
X134180519Y-93783881D01*
X134015603Y-93945378D01*
X133885196Y-94135832D01*
X133794266Y-94347989D01*
X133746276Y-94573766D01*
X133743053Y-94804565D01*
X133784721Y-95031595D01*
X133869692Y-95246207D01*
X133994730Y-95440228D01*
X134147088Y-95598000D01*
X133151299Y-95598000D01*
X133276894Y-95478397D01*
X133409947Y-95289783D01*
X133503831Y-95078917D01*
X133554969Y-94853831D01*
X133558650Y-94590189D01*
X133513817Y-94363764D01*
X133425858Y-94150358D01*
X133298123Y-93958102D01*
X133135478Y-93794318D01*
X132944118Y-93665244D01*
X132731332Y-93575797D01*
X132505225Y-93529384D01*
X132274409Y-93527773D01*
X132047676Y-93571024D01*
X131833662Y-93657491D01*
X131640519Y-93783881D01*
X131475603Y-93945378D01*
X131345196Y-94135832D01*
X131254266Y-94347989D01*
X131206276Y-94573766D01*
X131203053Y-94804565D01*
X131244721Y-95031595D01*
X131329692Y-95246207D01*
X131454730Y-95440228D01*
X131607088Y-95598000D01*
X130994798Y-95598000D01*
X131002191Y-95580151D01*
X131018600Y-95497656D01*
X131018600Y-94935350D01*
X130911850Y-94828600D01*
X129964600Y-94828600D01*
X129964600Y-94848600D01*
X129718600Y-94848600D01*
X129718600Y-94828600D01*
X128771350Y-94828600D01*
X128664600Y-94935350D01*
X128664600Y-95497656D01*
X128681009Y-95580151D01*
X128688402Y-95598000D01*
X128137294Y-95598000D01*
X126830042Y-94006525D01*
X126780187Y-93913544D01*
X128664600Y-93913544D01*
X128664600Y-94475850D01*
X128771350Y-94582600D01*
X129718600Y-94582600D01*
X129718600Y-93635350D01*
X129964600Y-93635350D01*
X129964600Y-94582600D01*
X130911850Y-94582600D01*
X131018600Y-94475850D01*
X131018600Y-93913544D01*
X131002191Y-93831049D01*
X130970003Y-93753340D01*
X130923273Y-93683403D01*
X130863797Y-93623928D01*
X130793861Y-93577198D01*
X130716151Y-93545009D01*
X130633656Y-93528600D01*
X130071350Y-93528600D01*
X129964600Y-93635350D01*
X129718600Y-93635350D01*
X129611850Y-93528600D01*
X129049544Y-93528600D01*
X128967049Y-93545009D01*
X128889339Y-93577198D01*
X128819403Y-93623928D01*
X128759927Y-93683403D01*
X128713197Y-93753340D01*
X128681009Y-93831049D01*
X128664600Y-93913544D01*
X126780187Y-93913544D01*
X125767935Y-92025703D01*
X125110797Y-89876301D01*
X124911357Y-87912850D01*
X125431290Y-87912850D01*
X125431290Y-89025636D01*
X125447699Y-89108131D01*
X125479887Y-89185840D01*
X125526617Y-89255777D01*
X125586093Y-89315252D01*
X125656029Y-89361982D01*
X125733739Y-89394171D01*
X125816234Y-89410580D01*
X127128410Y-89410580D01*
X127235160Y-89303830D01*
X127235160Y-87806100D01*
X127481160Y-87806100D01*
X127481160Y-89303830D01*
X127587910Y-89410580D01*
X128900086Y-89410580D01*
X128982581Y-89394171D01*
X129060291Y-89361982D01*
X129130227Y-89315252D01*
X129189703Y-89255777D01*
X129236433Y-89185840D01*
X129268621Y-89108131D01*
X129285030Y-89025636D01*
X129285030Y-87912850D01*
X129178280Y-87806100D01*
X127481160Y-87806100D01*
X127235160Y-87806100D01*
X125538040Y-87806100D01*
X125431290Y-87912850D01*
X124911357Y-87912850D01*
X124883662Y-87640199D01*
X125006513Y-86340564D01*
X125431290Y-86340564D01*
X125431290Y-87453350D01*
X125538040Y-87560100D01*
X127235160Y-87560100D01*
X127235160Y-86062370D01*
X127481160Y-86062370D01*
X127481160Y-87560100D01*
X129178280Y-87560100D01*
X129285030Y-87453350D01*
X129285030Y-87036936D01*
X129667113Y-87036936D01*
X129696391Y-87196455D01*
X129756094Y-87347249D01*
X129843950Y-87483574D01*
X129956612Y-87600239D01*
X130089788Y-87692799D01*
X130238407Y-87757729D01*
X130396806Y-87792555D01*
X130558954Y-87795952D01*
X130718673Y-87767789D01*
X130869880Y-87709140D01*
X131006815Y-87622238D01*
X131124264Y-87510393D01*
X131180010Y-87431368D01*
X133029926Y-87254611D01*
X133029937Y-87254609D01*
X133030104Y-87254594D01*
X133059304Y-87251794D01*
X133074702Y-87248779D01*
X133090368Y-87247881D01*
X133097630Y-87246694D01*
X133156829Y-87236594D01*
X133172837Y-87232220D01*
X133189292Y-87230000D01*
X133196441Y-87228259D01*
X133224257Y-87221281D01*
X135655650Y-86617773D01*
X135653613Y-86763636D01*
X135673401Y-86871449D01*
X134623506Y-88211951D01*
X134623489Y-88211977D01*
X134623189Y-88212356D01*
X134612420Y-88226134D01*
X134588533Y-88249754D01*
X134575096Y-88260033D01*
X134575073Y-88260055D01*
X134574686Y-88260347D01*
X132337083Y-89975595D01*
X132238463Y-89955351D01*
X132076284Y-89954219D01*
X131916974Y-89984609D01*
X131766601Y-90045364D01*
X131630892Y-90134169D01*
X131515016Y-90247643D01*
X131423388Y-90381462D01*
X131359498Y-90530530D01*
X131325778Y-90689169D01*
X131323513Y-90851336D01*
X131352791Y-91010855D01*
X131412494Y-91161649D01*
X131500350Y-91297974D01*
X131613012Y-91414639D01*
X131746188Y-91507199D01*
X131894807Y-91572129D01*
X132053206Y-91606955D01*
X132215354Y-91610352D01*
X132375073Y-91582189D01*
X132526280Y-91523540D01*
X132663215Y-91436638D01*
X132780664Y-91324793D01*
X132874151Y-91192266D01*
X132940117Y-91044105D01*
X132976048Y-90885952D01*
X132977066Y-90813056D01*
X135215914Y-89096853D01*
X135255504Y-89066567D01*
X135277238Y-89046289D01*
X135300578Y-89027870D01*
X135305846Y-89022733D01*
X135377446Y-88951933D01*
X135396583Y-88928900D01*
X135417539Y-88907510D01*
X135422111Y-88901744D01*
X135453611Y-88861445D01*
X135453613Y-88861441D01*
X136502866Y-87521760D01*
X136545454Y-87522652D01*
X136705173Y-87494489D01*
X136856380Y-87435840D01*
X136993315Y-87348938D01*
X137110764Y-87237093D01*
X137204251Y-87104566D01*
X137270002Y-86956887D01*
X138875699Y-88194397D01*
X138875113Y-88236336D01*
X138904391Y-88395855D01*
X138964094Y-88546649D01*
X139051950Y-88682974D01*
X139164612Y-88799639D01*
X139297788Y-88892199D01*
X139446407Y-88957129D01*
X139604806Y-88991955D01*
X139766954Y-88995352D01*
X139926673Y-88967189D01*
X140077880Y-88908540D01*
X140214815Y-88821638D01*
X140332264Y-88709793D01*
X140425751Y-88577266D01*
X140491717Y-88429105D01*
X140527648Y-88270952D01*
X140530235Y-88085709D01*
X140498733Y-87926614D01*
X140436930Y-87776669D01*
X140347180Y-87641583D01*
X140232900Y-87526503D01*
X140098444Y-87435811D01*
X139948934Y-87372963D01*
X139790063Y-87340351D01*
X139627884Y-87339219D01*
X139519525Y-87359890D01*
X137291803Y-85642984D01*
X137291799Y-85642981D01*
X137291751Y-85642944D01*
X137146651Y-85531144D01*
X137136526Y-85524814D01*
X137127463Y-85517039D01*
X137092989Y-85497594D01*
X137059440Y-85476619D01*
X137048281Y-85472377D01*
X137037878Y-85466509D01*
X137000285Y-85454131D01*
X136963301Y-85440071D01*
X136951530Y-85438077D01*
X136940186Y-85434342D01*
X136932995Y-85432784D01*
X136574295Y-85357684D01*
X136562441Y-85356391D01*
X136550918Y-85353338D01*
X136511397Y-85350824D01*
X136472048Y-85346532D01*
X136460177Y-85347565D01*
X136448273Y-85346808D01*
X136409007Y-85352019D01*
X136369584Y-85355451D01*
X136358139Y-85358771D01*
X136346315Y-85360340D01*
X136339162Y-85362066D01*
X136161762Y-85406166D01*
X136161760Y-85406167D01*
X132969543Y-86198521D01*
X132969477Y-86198544D01*
X132968259Y-86198841D01*
X132959604Y-86201012D01*
X132939440Y-86204452D01*
X132929496Y-86205406D01*
X131079577Y-86382163D01*
X131024900Y-86327103D01*
X130890444Y-86236411D01*
X130740934Y-86173563D01*
X130582063Y-86140951D01*
X130419884Y-86139819D01*
X130260574Y-86170209D01*
X130110201Y-86230964D01*
X129974492Y-86319769D01*
X129858616Y-86433243D01*
X129766988Y-86567062D01*
X129703098Y-86716130D01*
X129669378Y-86874769D01*
X129667113Y-87036936D01*
X129285030Y-87036936D01*
X129285030Y-86340564D01*
X129268621Y-86258069D01*
X129236433Y-86180360D01*
X129189703Y-86110423D01*
X129130227Y-86050948D01*
X129060291Y-86004218D01*
X128982581Y-85972029D01*
X128900086Y-85955620D01*
X127587910Y-85955620D01*
X127481160Y-86062370D01*
X127235160Y-86062370D01*
X127128410Y-85955620D01*
X125816234Y-85955620D01*
X125733739Y-85972029D01*
X125656029Y-86004218D01*
X125586093Y-86050948D01*
X125526617Y-86110423D01*
X125479887Y-86180360D01*
X125447699Y-86258069D01*
X125431290Y-86340564D01*
X125006513Y-86340564D01*
X125095181Y-85402567D01*
X125737297Y-83248632D01*
X126785553Y-81260438D01*
X128128529Y-79602000D01*
X132277007Y-79602000D01*
X132207670Y-79623473D01*
M02*
